<svg width="26" height="30" viewBox="0 0 26 30" fill="none" xmlns="http://www.w3.org/2000/svg">
<path d="M21.5786 15.8434C21.5651 13.4063 22.689 11.5668 24.964 10.2121C23.6911 8.42578 21.7682 7.44297 19.2291 7.25039C16.8255 7.06445 14.1984 8.625 13.237 8.625C12.2213 8.625 9.89217 7.3168 8.06404 7.3168C4.28592 7.37656 0.270813 10.2719 0.270813 16.1621C0.270813 17.902 0.595813 19.6994 1.24581 21.5543C2.11248 23.9914 5.2406 29.968 8.50415 29.8684C10.2104 29.8285 11.4156 28.6797 13.6364 28.6797C15.7896 28.6797 16.9067 29.8684 18.8094 29.8684C22.1 29.8219 24.9302 24.3898 25.7562 21.9461C21.3416 19.9074 21.5786 15.9695 21.5786 15.8434ZM17.7463 4.93945C19.5948 2.78789 19.4255 0.828906 19.3713 0.125C17.7396 0.217969 15.8505 1.21406 14.7739 2.44258C13.589 3.75742 12.8916 5.38438 13.0406 7.21719C14.8078 7.35 16.4193 6.46016 17.7463 4.93945Z" fill="white"/>
</svg>
