<svg width="1728" height="402" viewBox="0 0 1728 402" fill="none" xmlns="http://www.w3.org/2000/svg">
<path d="M-5.03321 371.437C17.6095 385.872 29.6772 373.896 28.1843 371.199C25.1985 366.361 50.205 380.955 52.3199 380.003C46.597 389.838 81.183 375.799 79.1924 388.014C85.6617 384.92 95.7389 391.979 108.18 390.234C127.09 390.393 107.06 386.665 136.297 392.931C151.848 391.345 138.412 393.407 167.151 395.548C173.247 393.407 185.066 393.883 191.037 393.645C190.291 392.852 209.201 386.507 224.379 387.934C220.647 381.906 228.111 381.193 252.994 384.92C278 372.944 255.482 387.696 282.354 384.365C300.891 373.737 298.652 378.892 312.088 383.175C333.86 382.144 357.871 376.037 360.608 374.371C357.747 374.689 354.512 375.006 350.656 375.482C359.115 373.816 361.852 373.658 360.608 374.371C370.312 373.261 375.537 372.071 386.734 364.219C389.845 355.812 407.884 361.76 426.172 356.446C438.987 352.084 462.376 346.849 457.648 355.812C441.848 366.678 506.79 378.099 489.87 358.033C523.71 365.488 507.786 364.695 520.6 361.364C572.106 354.146 541.874 369.454 557.549 369.057C622.989 374.451 544.984 368.819 588.776 379.527C595.868 357.715 616.769 390.076 622.243 388.172C630.703 394.359 652.972 384.286 665.911 391.027C683.079 388.489 711.196 395.786 712.938 387.776C757.725 388.251 747.648 385.713 758.969 381.113C774.894 374.847 798.905 372.864 799.776 373.658C805.374 371.913 829.137 378.813 830.754 366.837C839.836 367.312 851.779 361.443 860.861 360.967C876.537 354.781 869.446 364.774 895.821 358.826C903.534 368.423 953.298 366.995 934.637 361.443C954.915 361.205 973.701 364.298 964.619 367.233C976.687 365.488 989.999 374.53 993.358 380.717C999.33 392.376 1009.03 387.617 1021.23 387.3C1036.03 392.852 1035.91 385.634 1049.72 392.772C1068.63 397.769 1078.45 399.118 1088.53 398.562C1097.99 397.293 1100.6 392.852 1128.72 392.931C1147.13 379.051 1138.17 382.461 1163.55 392.296C1201 401.18 1187.94 390.234 1198.01 395.786C1218.66 394.597 1207.34 405.621 1231.48 397.611C1241.81 405.463 1257.11 389.917 1273.9 393.645C1286.84 413.236 1292.94 393.169 1319.44 386.11C1352.16 391.979 1363.11 387.3 1359.99 378.496C1350.79 376.751 1381.77 378.178 1398.81 369.613C1432.03 375.323 1403.29 367.709 1437.75 358.984C1454.55 353.432 1466.12 358.508 1476.94 348.832C1503.81 345.739 1507.79 337.411 1516.75 341.535C1532.18 333.445 1548.23 335.111 1557.43 339.394C1589.66 359.46 1608.19 342.09 1604.71 342.963C1616.53 339.156 1626.36 343.756 1649.75 349.229C1651.36 366.123 1685.45 351.608 1694.28 355.494C1718.05 355.177 1721.03 355.97 1728 357.319L1728 20.9458C1723.77 21.2631 1719.29 21.5803 1714.19 21.8183C1715.68 22.8493 1676.74 16.2663 1684.95 14.3627C1665.55 17.0594 1662.06 8.81071 1658.21 7.70029C1650.62 2.14829 1624.12 12.3799 1622.87 4.60703C1632.08 -0.389793 1591.15 -2.29332 1589.28 3.8932C1579.95 11.5074 1560.3 2.94139 1557.18 6.90712C1538.27 7.22438 1547.61 8.57277 1544.99 14.0455C1527.33 20.0734 1556.44 27.5289 1532.3 21.6597C1527.7 31.4946 1486.27 31.8119 1494.36 27.053C1474.83 24.5943 1464.75 28.3221 1453.92 24.9909C1457.16 21.4217 1409.88 27.9255 1412.25 21.2631C1393.09 26.4979 1377.16 23.9598 1370.32 21.6597C1342.45 15.5525 1345.94 38.395 1330.14 26.1806C1314.34 27.053 1319.19 29.1946 1289.83 30.8601C1272.53 22.6907 1276.27 36.1742 1249.64 35.2225C1238.69 32.0498 1235.46 44.6609 1209.58 38.7123C1190.3 39.6641 1179.1 41.5676 1172.38 36.9674C1161.19 36.7295 1146.26 30.7809 1141.78 28.7187C1152.6 25.5461 1121.87 28.8773 1109.81 18.8837C1102.34 9.60388 1076.46 4.05191 1077.83 14.3628C1057.18 15.6318 1064.02 -0.548343 1050.21 16.3456C1039.14 31.2568 1055.07 22.0562 1017.74 19.2009C1021.6 28.3221 982.783 34.8259 982.037 16.187C984.027 10.3971 971.089 8.17624 950.437 8.25556C943.47 7.14515 944.838 0.165443 918.339 2.06901C901.543 5.47953 890.844 3.02079 875.666 0.958632C868.824 -1.57945 827.271 2.14836 831.127 2.30699C842.573 20.7873 788.206 3.49669 795.919 6.66927C785.22 12.142 724.632 19.5182 761.209 15.6318C766.932 28.2428 741.428 21.1045 726.623 25.7841C701.119 12.4593 736.576 37.602 691.664 33.7155C688.678 38.7917 665.786 35.9363 657.326 36.7295C638.416 43.7092 648.867 25.3875 621.745 37.9192C612.912 31.6534 593.628 49.6578 586.91 41.4884C560.038 57.9065 570.737 58.1444 564.641 47.437C561.282 51.482 537.146 42.2022 541.127 51.1647C537.395 49.2612 515.001 56.1616 499.574 47.5163C479.171 43.8678 489.497 34.8259 456.404 43.4712C443.465 35.6984 412.612 44.2644 406.516 44.661C392.208 42.1229 370.437 39.6642 356.752 46.5645C345.181 46.7231 333.611 55.5271 306.987 47.5956C261.578 55.3684 261.329 32.2086 257.099 46.0887C256.353 49.9751 213.929 34.3501 221.766 39.8228C228.733 41.885 209.574 43.4713 190.788 29.5912C202.856 19.0424 165.658 37.5227 158.815 20.3114C156.7 12.142 118.63 31.7327 125.473 17.6147C108.304 25.3082 118.008 21.0253 93.2508 20.708C118.506 15.156 73.4694 13.8076 58.0426 24.0392C36.5196 32.6052 31.419 22.2943 20.5953 24.9117C16.2409 18.9631 0.565397 26.5773 -12 27.6084L-12 370.882C-9.76062 371.04 -7.64575 371.199 -5.65515 371.437L-5.03321 371.437Z" fill="#F7F7F7"/>
</svg>
