<svg width="318" height="318" viewBox="0 0 318 318" fill="none" xmlns="http://www.w3.org/2000/svg">
    <g clip-path="url(#clip0_612_61641)">
        <path d="M158.938 317.868C71.1591 317.868 0.000427246 246.709 0.000427246 158.93C0.000427246 71.1504 71.1591 -0.00878906 158.938 -0.00878906C246.716 -0.00878906 317.875 71.1504 317.875 158.93C317.875 246.709 246.716 317.868 158.938 317.868Z"
              fill="#ABE3E1"/>
        <path d="M151.025 240.734C142.7 231.219 115.035 200.286 108.346 196.466C101.657 192.647 88.7701 193.058 80.4036 201.139C72.037 209.22 69.8065 239.47 70.1262 244.248C70.4459 249.027 129.368 289.795 141.788 286.927C154.207 284.06 162.173 253.476 151.025 240.734Z"
              fill="url(#paint0_linear_612_61641)"/>
        <path d="M158.22 72.3766C157.465 78.0674 158.857 82.8877 158.22 87.0267C157.583 91.1658 156.31 96.9009 156.629 101.36C156.949 105.818 159.177 114.101 161.088 117.286C162.999 120.471 167.775 125.247 171.599 127.158C175.423 129.069 189.434 128.752 195.803 127.158C202.173 125.564 214.755 116.807 217.622 105.661C220.49 94.5154 220.487 82.7279 218.896 74.4473C217.305 66.1668 209.386 50.2402 191.505 50.2402C169.846 50.2402 159.971 59.1577 158.22 72.3766Z"
              fill="url(#paint1_linear_612_61641)"/>
        <path d="M166.533 109.677C167.579 109.69 168.598 109.343 169.418 108.693C171.346 107.164 171.988 104.107 171.14 100.514C169.721 94.5547 165.611 92.5799 162.168 93.2685C162.127 93.277 162.088 93.2935 162.054 93.317C162.019 93.3405 161.99 93.3706 161.967 93.4056C161.944 93.4405 161.929 93.4796 161.921 93.5207C161.913 93.5617 161.914 93.6039 161.922 93.6448C161.93 93.6856 161.947 93.7243 161.97 93.7588C161.993 93.7933 162.023 93.8229 162.058 93.8457C162.093 93.8686 162.132 93.8843 162.172 93.8921C162.213 93.8998 162.255 93.8993 162.296 93.8907C165.439 93.2636 169.204 95.1204 170.525 100.659C171.322 104.006 170.771 106.822 169.035 108.192C167.655 109.286 165.744 109.311 163.651 108.263C163.575 108.226 163.488 108.22 163.408 108.247C163.328 108.274 163.262 108.331 163.223 108.406C163.186 108.481 163.18 108.569 163.206 108.649C163.233 108.729 163.29 108.796 163.366 108.834C164.342 109.356 165.427 109.645 166.533 109.677Z"
              fill="#E9A595"/>
        <path d="M135.548 285.908C116.437 293.232 94.7799 289.73 79.1732 277.625C63.5665 265.52 47.8343 249.274 37.7659 249.589C36.5366 249.622 35.3301 249.928 34.2344 250.486C34.1458 250.356 34.1016 250.287 34.1016 250.287C34.1016 250.287 52.0987 239.712 63.8837 239.395C75.6687 239.078 91.5926 253.413 99.8756 257.869C108.159 262.326 131.406 279.536 140.646 277.945C147.802 276.715 151.794 266.16 151.853 251.401V252.456C151.853 252.456 151.929 252.715 152.052 253.194C153.449 268.538 149.241 280.657 135.548 285.908Z"
              fill="url(#paint2_linear_612_61641)"/>
        <path d="M56.7923 111.738L88.0394 105.36C89.3639 105.09 90.6566 105.945 90.9269 107.269L103.025 166.551C103.295 167.876 102.441 169.168 101.117 169.439L69.8694 175.816C68.5449 176.086 67.2522 175.232 66.9819 173.907L54.8836 114.625C54.6133 113.301 55.4678 112.008 56.7923 111.738Z"
              fill="#E9F5FB"/>
        <path d="M56.6964 111.833L87.4647 105.389C87.7493 105.33 88.0458 105.386 88.2891 105.545C88.5325 105.704 88.7029 105.953 88.7632 106.238L96.3428 142.419C94.7099 141.11 92.7572 140.261 90.6864 139.96C88.9968 139.699 86.2277 139.714 85.207 139.576C84.1864 139.438 82.7969 138.821 82.6764 138.666C82.6149 138.59 83.1093 139.714 83.7364 141.502C83.3306 143.11 82.2879 144.982 80.7484 145.368C79.2088 145.754 76.6979 144.441 75.4068 143.4C75.2715 141.234 75.2346 139.22 75.2346 139.22C75.1485 139.237 74.2509 140.838 71.2063 142.763C69.9348 143.568 66.8361 145.419 64.3202 148.678C64.0448 149.032 63.7816 149.4 63.5308 149.782L55.8553 113.138C55.7939 112.854 55.848 112.556 56.0057 112.311C56.1634 112.067 56.4118 111.894 56.6964 111.833Z"
              fill="url(#paint3_linear_612_61641)"/>
        <path d="M80.7218 145.387C82.2613 145 83.304 143.129 83.7098 141.521C84.5437 143.851 85.1893 146.244 85.6404 148.677C86.0437 150.964 87.3791 158.438 88.7612 166.227L81.071 167.835C79.5954 162.319 77.9649 156.171 77.928 156.104C77.6575 155.642 76.7426 151.368 75.8868 147.841C75.6408 146.835 75.4835 145.089 75.3802 143.431C76.6713 144.459 79.1454 145.785 80.7218 145.387Z"
              fill="#F5ADBE"/>
        <path d="M80.7218 145.387C82.2613 145 83.304 143.129 83.7098 141.521C84.5437 143.851 85.1893 146.244 85.6404 148.677C86.0437 150.964 87.3791 158.438 88.7612 166.227L81.071 167.835C79.5954 162.319 77.9649 156.171 77.928 156.104C77.6575 155.642 76.7426 151.368 75.8868 147.841C75.6408 146.835 75.4835 145.089 75.3802 143.431C76.6713 144.459 79.1454 145.785 80.7218 145.387Z"
              fill="url(#paint4_linear_612_61641)"/>
        <path d="M88.8755 139.631C88.7328 137.231 88.209 134.729 87.24 132.683C86.2711 130.637 84.9529 126.043 84.6676 125.121C84.3823 124.199 83.4994 122.125 82.7296 121.029C81.9599 119.932 79.2128 117.984 75.9198 118.584C72.6268 119.184 70.6643 120.736 69.7716 121.852C68.9996 122.836 68.4426 123.971 68.1368 125.183C67.8309 126.396 67.7829 127.659 67.996 128.891C68.355 130.981 69.4863 134.402 69.5257 135.777C69.5994 138.281 67.1672 140.41 66.4024 141.925C65.6375 143.44 65.2244 145.322 65.7925 147.183"
              fill="url(#paint5_linear_612_61641)"/>
        <path d="M81.0306 134.777C81.6036 137.522 82.3267 139.337 84.5548 139.423C87.0952 139.521 84.7884 146.125 81.5126 146.801C78.2368 147.477 71.6041 142.758 72.9838 141.747C75.5586 139.858 75.9128 138.973 74.5897 135.311C74.4938 135.058 81.0306 134.777 81.0306 134.777Z"
              fill="url(#paint6_linear_612_61641)"/>
        <path d="M77.3609 121.84C72.2308 122.915 70.3887 128.519 70.5142 129.124C70.6396 129.729 70.2363 128.879 69.3731 129.048C68.0795 129.319 68.3524 130.612 68.4778 131.215C68.6033 131.817 69.3313 134.006 71.8324 133.482C72.0783 133.428 74.1072 136.606 79.0209 135.578C83.0738 134.729 84.5617 131.087 83.9395 128.155C82.5746 121.604 78.2659 121.651 77.3609 121.84Z"
              fill="#FACCBB"/>
        <path d="M83.0582 125.486L83.2754 125.71L82.8135 126.158L82.5962 125.934L83.0582 125.486Z" fill="#727171"/>
        <path d="M81.0007 129.107C81.1757 129.107 81.3502 129.088 81.5212 129.051C82.4787 128.852 82.869 128.314 83.0311 127.88C83.1647 127.508 83.1961 127.106 83.1219 126.718C83.0385 126.316 82.6309 125 81.013 125.245C79.7387 125.437 79.0489 126.151 79.1323 127.16C79.1495 127.339 79.2723 128.26 79.972 128.776C80.2697 128.995 80.6308 129.112 81.0007 129.107ZM81.3837 125.545C82.4271 125.545 82.7266 126.392 82.8077 126.772C82.8693 127.101 82.8422 127.44 82.7291 127.754C82.5376 128.26 82.108 128.587 81.4549 128.736C81.2365 128.798 81.0073 128.811 80.7833 128.774C80.5594 128.738 80.3461 128.653 80.1586 128.525C79.9541 128.352 79.7858 128.14 79.6636 127.902C79.5414 127.663 79.4677 127.403 79.4466 127.136C79.3656 126.303 79.9523 125.731 81.0571 125.567C81.1653 125.551 81.2744 125.544 81.3837 125.545Z"
              fill="#727171"/>
        <path d="M74.3118 130.639C74.4951 130.638 74.6778 130.617 74.8569 130.578C75.1254 130.538 75.382 130.44 75.6088 130.29C75.8356 130.141 76.0272 129.944 76.1703 129.714C76.6049 128.96 76.3471 128.069 76.2906 127.897C75.9739 126.934 75.0435 126.561 73.8012 126.898C72.2176 127.327 72.3698 128.68 72.4557 129.085C72.5429 129.471 72.7329 129.825 73.0057 130.111C73.1754 130.284 73.379 130.421 73.6037 130.511C73.8284 130.602 74.0695 130.646 74.3118 130.639ZM74.6457 127.094C75.3209 127.094 75.7947 127.403 75.9887 127.995C76.0765 128.248 76.1135 128.516 76.0975 128.784C76.0815 129.051 76.0128 129.313 75.8954 129.554C75.7738 129.746 75.612 129.909 75.4213 130.032C75.2305 130.155 75.0153 130.235 74.7906 130.266C74.1375 130.406 73.6121 130.278 73.2315 129.888C73.0031 129.644 72.8424 129.344 72.7651 129.019C72.6767 128.589 72.6055 127.546 73.8846 127.205C74.1324 127.135 74.3883 127.098 74.6457 127.094Z"
              fill="#727171"/>
        <path d="M76.247 128.178C76.738 127.736 77.59 127.56 77.9951 127.474C78.3926 127.375 78.808 127.375 79.2055 127.474L79.3135 127.174C78.8602 127.055 78.3845 127.05 77.9288 127.16C77.4967 127.25 76.5981 127.439 76.0358 127.938L76.247 128.178Z"
              fill="#727171"/>
        <path d="M69.7641 129C70.1028 128.8 70.4771 128.666 70.8664 128.608C71.425 128.479 71.9972 128.419 72.5703 128.428V128.112C71.9741 128.1 71.3788 128.162 70.7977 128.296C69.9114 128.482 69.5701 128.74 69.5701 128.752L69.7641 129Z"
              fill="#727171"/>
        <path d="M82.6922 138.591C82.8127 138.745 84.2022 139.353 85.2228 139.5C86.2434 139.648 89.0126 139.623 90.7021 139.884C92.7729 140.186 94.7257 141.035 96.3585 142.343L100.586 162.532C100.646 162.817 100.59 163.113 100.431 163.357C100.272 163.601 100.022 163.771 99.7376 163.831L88.8011 166.123C87.419 158.334 86.0836 150.86 85.6802 148.573C84.7555 143.288 82.5692 138.436 82.6922 138.591Z"
              fill="url(#paint7_linear_612_61641)"/>
        <path d="M67.6283 169.511L63.4991 149.797C63.75 149.417 64.0131 149.049 64.2886 148.693C66.8069 145.434 69.9056 143.582 71.1746 142.778C74.2119 140.853 75.1095 139.252 75.2029 139.234C75.2029 139.234 75.3185 145.503 75.8817 147.822C76.7375 151.349 77.6524 155.623 77.9229 156.086C77.9598 156.152 79.6002 162.3 81.0659 167.817L68.9244 170.36C68.6401 170.418 68.3443 170.361 68.1015 170.202C67.8587 170.043 67.6886 169.795 67.6283 169.511Z"
              fill="url(#paint8_linear_612_61641)"/>
        <path d="M92.6498 158.579C93.0763 158.574 93.5001 158.511 93.909 158.389C96.2527 157.715 96.4297 156.141 96.4346 156.075C96.8453 154.877 95.8665 151.636 95.4509 150.879C95.3697 150.728 95.3083 150.657 95.2345 150.633C94.9295 150.549 92.517 151.181 91.7915 151.37L91.0684 151.584C89.8708 151.934 89.0715 152.179 88.8895 152.364C88.5796 152.679 89.2338 155.411 89.5879 156.387C89.8008 157.03 90.2119 157.588 90.7621 157.982C91.3123 158.375 91.9732 158.584 92.6498 158.579ZM95.1459 150.869H95.1829C95.4558 151.09 96.6117 154.821 96.2034 156.021C96.1911 156.109 96.0215 157.531 93.8425 158.158C91.5923 158.805 90.2642 157.57 89.8068 156.316C89.3494 155.062 88.9214 152.767 89.069 152.539C89.2166 152.389 90.3282 152.064 91.1422 151.825L91.8653 151.611C93.2548 151.242 94.8311 150.869 95.1459 150.869Z"
              fill="#6AC2BE"/>
        <path d="M75.8848 166.652V166.482C73.5706 166.438 71.6056 165.174 70.3489 162.919C68.9372 160.386 68.7848 157.215 69.9751 155.209L69.8226 155.12C68.593 157.176 68.7553 160.42 70.194 163.005C71.4753 165.309 73.5042 166.608 75.8848 166.652Z"
              fill="url(#paint9_linear_612_61641)"/>
        <path d="M66.5743 164.317L67.6712 169.558C67.7315 169.842 67.902 170.091 68.1453 170.25C68.3887 170.409 68.6851 170.465 68.9697 170.406L99.738 163.963C100.022 163.903 100.271 163.732 100.43 163.489C100.589 163.245 100.645 162.949 100.586 162.664L99.4872 157.406"
              fill="#6AC2BE"/>
        <path d="M71.5486 108.134C71.2789 108.134 71.0602 107.915 71.0602 107.646C71.0602 107.376 71.2789 107.157 71.5486 107.157C71.8184 107.157 72.0371 107.376 72.0371 107.646C72.0371 107.915 71.8184 108.134 71.5486 108.134Z"
              fill="#5D5C5D"/>
        <path d="M157.602 159.737C157.602 159.737 152.823 220.573 149.638 226.306C146.454 232.039 130.847 247.646 120.018 254.652C112.077 259.79 91.3529 276.311 81.1615 262.933C70.9702 249.554 63.0069 217.069 61.4133 209.743C59.8197 202.416 56.6373 188.086 56.0028 181.706C55.3683 175.327 54.4092 170.561 53.7722 166.102C53.1353 161.643 54.092 162.278 54.4092 159.413C54.7265 156.547 55.0462 150.805 55.6831 148.264C56.3201 145.724 60.4615 144.123 60.7788 143.806L65.24 165.465C65.5573 165.782 69.379 161.96 70.0159 155.271C70.1414 153.965 72.8835 152.086 73.8377 153.36C74.7919 154.634 74.7943 157.502 74.7943 158.771C74.7943 160.04 77.0225 162.273 76.3855 164.503C75.7486 166.734 72.8835 174.058 72.5638 177.562C72.2441 181.067 72.8835 184.569 75.7609 192.212C78.6383 199.856 91.0578 227.295 97.4052 227.897C107.279 228.854 123.84 189.36 138.81 175.981C143.347 171.928 146.454 162.922 157.602 160.694"
              fill="url(#paint10_linear_612_61641)"/>
        <path d="M151.189 158.13C135.583 169.278 107.554 203.994 108.191 208.453C108.828 212.911 134.909 246.036 140.361 246.036C143.863 246.036 155.011 236.481 155.011 236.481L151.189 158.13Z"
              fill="url(#paint11_linear_612_61641)"/>
        <path d="M224.953 102.527C225.551 97.7437 229.892 84.2125 225.59 64.624C223.537 55.2786 213.168 48.6999 209.983 47.7432C206.799 46.7865 198.518 44.5584 181.947 46.1496C165.377 47.7408 159.014 48.0605 156.467 47.7432C153.919 47.426 152.325 49.3369 152.008 51.2477C151.691 53.1586 151.688 56.6583 151.051 59.5283C150.414 62.3983 152.008 64.624 154.556 67.8088C157.104 70.9936 157.421 77.683 157.421 80.5481C157.421 83.4132 157.104 90.105 157.421 91.6962C157.738 93.2874 159.969 86.9202 164.43 87.2374C168.891 87.5547 173.347 93.2898 173.664 95.8451C173.982 98.4003 174.938 107.31 176.212 111.452C177.486 115.593 178.443 119.732 180.354 121.963C182.265 124.194 200.419 120.05 204.561 118.766C208.702 117.482 223.679 112.718 224.953 102.527Z"
              fill="#3EA9C1"/>
        <path d="M60.1716 157.464C60.2136 157.464 60.2552 157.456 60.294 157.44C60.3327 157.423 60.368 157.4 60.3977 157.37C60.4274 157.341 60.4509 157.305 60.467 157.267C60.4831 157.228 60.4914 157.186 60.4914 157.144C60.4914 156.721 60.4914 156.291 60.4766 155.855C60.4373 153.354 60.3954 150.77 61.6349 148.505C61.6552 148.468 61.6681 148.428 61.6728 148.387C61.6775 148.345 61.6739 148.303 61.6622 148.263C61.6506 148.223 61.6311 148.186 61.6048 148.153C61.5786 148.121 61.5462 148.094 61.5095 148.074C61.4729 148.054 61.4326 148.041 61.391 148.036C61.3493 148.031 61.3072 148.035 61.2669 148.047C61.2267 148.058 61.1892 148.078 61.1565 148.104C61.1239 148.13 61.0967 148.163 61.0767 148.2C59.756 150.61 59.7978 153.281 59.847 155.865C59.847 156.296 59.8618 156.724 59.8618 157.144C59.8617 157.227 59.8941 157.307 59.9519 157.367C60.0097 157.427 60.0886 157.461 60.1716 157.464Z"
              fill="#E9A595"/>
        <path d="M34.2513 250.261C35.3469 249.702 36.5533 249.394 37.7828 249.361C47.8512 249.036 63.5834 265.287 79.1901 277.397C94.7968 289.507 116.453 293.004 135.565 285.677C149.258 280.429 153.466 268.307 152.054 252.954C151.496 246.882 150.062 240.303 147.987 233.444C144.253 221.113 140.341 194.267 142.251 178.98C144.162 163.693 154.673 138.209 177.287 120.694C199.9 103.179 228.312 99.2387 244.492 97.7606C267.164 95.685 292.325 102.689 306.912 118.456C309.853 121.645 312.582 125.025 315.079 128.573C317.015 138.585 317.989 148.759 317.988 158.956C317.988 246.803 246.777 318.017 158.928 318.017C106.633 318.017 60.2338 292.777 31.2436 253.829C32.1461 252.046 33.1421 250.826 34.2513 250.261Z"
              fill="url(#paint12_linear_612_61641)"/>
    </g>
    <defs>
        <linearGradient id="paint0_linear_612_61641" x1="113.221" y1="287.063" x2="113.221" y2="194.127"
                        gradientUnits="userSpaceOnUse">
            <stop stop-color="#70C6D7"/>
            <stop offset="0.28" stop-color="#75C6D9"/>
            <stop offset="0.59" stop-color="#82C7DF"/>
            <stop offset="0.92" stop-color="#98C9E9"/>
            <stop offset="1" stop-color="#9FC9EC"/>
        </linearGradient>
        <linearGradient id="paint1_linear_612_61641" x1="188.271" y1="128.476" x2="188.271" y2="50.2402"
                        gradientUnits="userSpaceOnUse">
            <stop stop-color="#E7B2A2"/>
            <stop offset="0.05" stop-color="#EBB8A7"/>
            <stop offset="0.2" stop-color="#F4C3B3"/>
            <stop offset="0.41" stop-color="#F9CAB9"/>
            <stop offset="1" stop-color="#FACCBB"/>
        </linearGradient>
        <linearGradient id="paint2_linear_612_61641" x1="111.351" y1="228.02" x2="81.5657" y2="279.607"
                        gradientUnits="userSpaceOnUse">
            <stop stop-color="#EE8091"/>
            <stop offset="0.4" stop-color="#ED7E8F"/>
            <stop offset="0.61" stop-color="#EB7689"/>
            <stop offset="0.78" stop-color="#E7687F"/>
            <stop offset="0.92" stop-color="#E25672"/>
        </linearGradient>
        <linearGradient id="paint3_linear_612_61641" x1="96.3379" y1="127.577" x2="55.8233" y2="127.577"
                        gradientUnits="userSpaceOnUse">
            <stop stop-color="#D0E8F0"/>
            <stop offset="0.26" stop-color="#C9E5ED"/>
            <stop offset="0.63" stop-color="#B5DEE3"/>
            <stop offset="1" stop-color="#9BD4D7"/>
        </linearGradient>
        <linearGradient id="paint4_linear_612_61641" x1="87.9113" y1="153.466" x2="73.3991" y2="156.505"
                        gradientUnits="userSpaceOnUse">
            <stop stop-color="#EE8091"/>
            <stop offset="0.5" stop-color="#E86B82"/>
            <stop offset="0.92" stop-color="#E25672"/>
        </linearGradient>
        <linearGradient id="paint5_linear_612_61641" x1="72.3858" y1="119.263" x2="77.6959" y2="144.615"
                        gradientUnits="userSpaceOnUse">
            <stop offset="0.21" stop-color="#6AC2BE"/>
            <stop offset="0.58" stop-color="#67C1BC"/>
            <stop offset="0.85" stop-color="#5EBDB6"/>
            <stop offset="1" stop-color="#55B9B0"/>
        </linearGradient>
        <linearGradient id="paint6_linear_612_61641" x1="77.7742" y1="134.553" x2="80.3803" y2="146.996"
                        gradientUnits="userSpaceOnUse">
            <stop stop-color="#E7B2A2"/>
            <stop offset="0.04" stop-color="#EAB7A7"/>
            <stop offset="0.18" stop-color="#F3C3B2"/>
            <stop offset="0.38" stop-color="#F9CAB9"/>
            <stop offset="0.86" stop-color="#FACCBB"/>
        </linearGradient>
        <linearGradient id="paint7_linear_612_61641" x1="78.4775" y1="144.946" x2="114.301" y2="168.361"
                        gradientUnits="userSpaceOnUse">
            <stop stop-color="#F1F1F1"/>
            <stop offset="0.69" stop-color="#EFEFEF"/>
            <stop offset="0.94" stop-color="#E9E8E8"/>
            <stop offset="1" stop-color="#E6E5E5"/>
        </linearGradient>
        <linearGradient id="paint8_linear_612_61641" x1="78.536" y1="153.385" x2="60.0738" y2="157.252"
                        gradientUnits="userSpaceOnUse">
            <stop stop-color="#F1F1F1"/>
            <stop offset="0.58" stop-color="#EEEEEE"/>
            <stop offset="1" stop-color="#E6E5E5"/>
        </linearGradient>
        <linearGradient id="paint9_linear_612_61641" x1="70.7505" y1="154.863" x2="73.3203" y2="167.132"
                        gradientUnits="userSpaceOnUse">
            <stop stop-color="#BAE0E7"/>
            <stop offset="0.01" stop-color="#B4DEE4"/>
            <stop offset="0.08" stop-color="#99D4D6"/>
            <stop offset="0.16" stop-color="#84CCCB"/>
            <stop offset="0.24" stop-color="#75C6C4"/>
            <stop offset="0.34" stop-color="#6DC3BF"/>
            <stop offset="0.5" stop-color="#6AC2BE"/>
            <stop offset="0.67" stop-color="#6DC3C0"/>
            <stop offset="0.78" stop-color="#76C7C5"/>
            <stop offset="0.88" stop-color="#85CDCF"/>
            <stop offset="0.97" stop-color="#9BD5DC"/>
            <stop offset="1" stop-color="#A3D8E1"/>
        </linearGradient>
        <linearGradient id="paint10_linear_612_61641" x1="138.532" y1="244.822" x2="75.3396" y2="135.368"
                        gradientUnits="userSpaceOnUse">
            <stop stop-color="#E7B2A2"/>
            <stop offset="0.01" stop-color="#E7B3A3"/>
            <stop offset="0.25" stop-color="#F2C1B0"/>
            <stop offset="0.53" stop-color="#F8C9B9"/>
            <stop offset="1" stop-color="#FACCBB"/>
        </linearGradient>
        <linearGradient id="paint11_linear_612_61641" x1="174755" y1="15702.5" x2="174755" y2="48835.2"
                        gradientUnits="userSpaceOnUse">
            <stop stop-color="#D0E8F0"/>
            <stop offset="0.26" stop-color="#C9E5ED"/>
            <stop offset="0.63" stop-color="#B5DEE3"/>
            <stop offset="1" stop-color="#9BD4D7"/>
        </linearGradient>
        <linearGradient id="paint12_linear_612_61641" x1="1.11951e+06" y1="-15352.1" x2="1.11951e+06" y2="182553"
                        gradientUnits="userSpaceOnUse">
            <stop stop-color="#EE8091"/>
            <stop offset="0.5" stop-color="#E86B82"/>
            <stop offset="0.92" stop-color="#E25672"/>
        </linearGradient>
        <clipPath id="clip0_612_61641">
            <rect width="318" height="318" fill="white" transform="matrix(-1 0 0 1 318 0)"/>
        </clipPath>
    </defs>
</svg>
