<svg width="132" height="109" viewBox="0 0 132 109" fill="none" xmlns="http://www.w3.org/2000/svg">
    <path fill-rule="evenodd" clip-rule="evenodd"
          d="M6.49242 42.9407C4.83016 58.4416 11.743 74.1486 23.2125 84.7075C34.2819 94.898 50.0832 99.17 64.9316 96.7401C78.0005 94.6014 85.1362 81.966 94.8653 72.9818C105.304 63.342 121.932 57.3045 122.982 43.1342C124.05 28.7107 111.315 17.0699 99.6383 8.53518C89.7353 1.29665 77.3567 0.697268 65.0909 0.819C53.0291 0.938707 41.1028 2.17282 31.3083 9.21332C19.5263 17.6824 8.03956 28.5135 6.49242 42.9407Z"
          fill="url(#paint0_linear_612_62176)"/>
    <path d="M111.367 12.8219C105.508 12.4628 52.8702 12.5722 48.4266 12.8219C42.9961 13.1274 43.7748 16.7309 43.7748 20.9205C43.7748 24.1051 43.3051 52.4749 43.7027 58.2001C44.1003 63.9252 46.1749 63.9252 48.2927 64.3442C50.4105 64.7632 107.791 64.757 111.765 64.3442C115.739 63.9314 116.404 60.8521 116.404 58.2001C116.404 55.548 116.707 23.5705 116.404 19.385C115.971 13.4163 116.357 13.1274 111.367 12.8219Z"
          fill="url(#paint1_linear_612_62176)"/>
    <path d="M114.78 44.271C114.78 49.1696 114.677 52.7835 114.473 52.987C114.269 53.1905 109.061 53.3139 101.574 53.3981H68.6646L57.0267 53.1926C56.1875 53.1693 55.3868 53.1453 54.6245 53.1206C49.8737 52.9603 46.7196 52.7444 46.324 52.4628C45.9903 52.2243 45.8296 47.5025 45.8296 41.5349C45.8296 33.3225 46.1324 22.7522 46.7072 18.2585C46.8659 17.0251 47.043 16.2522 47.2408 16.1083C47.7456 15.7424 54.5668 15.5163 63.6522 15.4053H95.5293C105.309 15.5122 112.806 15.7136 113.292 15.9767C113.498 16.0898 113.684 16.9203 113.848 18.2585C114.469 23.3381 114.78 35.7399 114.78 44.271Z"
          fill="white"/>
    <path d="M113.9 18.2196H46.7085C46.8672 17.003 47.0446 16.2406 47.2425 16.0987C47.7476 15.7378 54.5739 15.5148 63.666 15.4053H95.5669C105.354 15.5107 112.856 15.7094 113.343 15.9689C113.549 16.0744 113.735 16.8935 113.9 18.2196Z"
          fill="url(#paint2_linear_612_62176)"/>
    <path d="M86.6989 64.3047H72.5446C72.5446 64.3047 71.9557 71.2916 71.5541 72.2158C71.2266 72.9706 70.0219 73.6136 69.4082 74.0396C68.8274 74.4531 68.8892 75.0342 70.026 75.0342H89.5574C90.6427 75.0342 90.793 74.5606 90.029 74.0871C89.2649 73.6136 87.8584 73.0925 87.5762 72.0504C87.2941 71.0083 86.6989 64.3047 86.6989 64.3047Z"
          fill="url(#paint3_linear_612_62176)"/>
    <path d="M116.567 54.3594C116.555 56.4323 116.547 57.882 116.547 58.3626C116.547 60.9791 115.882 64.009 111.894 64.4224C107.906 64.8358 50.663 64.8337 48.5462 64.4265C46.4294 64.0192 44.0526 64.0192 43.6544 58.3667C43.5966 57.5664 43.5615 56.3203 43.543 54.7605C68.2991 55.9171 94.0415 55.5363 116.567 54.3594Z"
          fill="url(#paint4_linear_612_62176)"/>
    <path d="M67.0424 21.5615H57.332C56.4192 21.5615 55.6792 22.3015 55.6792 23.2144V32.9248C55.6792 33.8376 56.4192 34.5776 57.332 34.5776H67.0424C67.9553 34.5776 68.6953 33.8376 68.6953 32.9248V23.2144C68.6953 22.3015 67.9553 21.5615 67.0424 21.5615Z"
          fill="#F9A6B3"/>
    <path opacity="0.7"
          d="M67.0335 40.2529H57.5328C56.6046 40.2529 55.8521 40.996 55.8521 41.9126V48.9661C55.8521 49.8827 56.6046 50.6257 57.5328 50.6257H67.0335C67.9618 50.6257 68.7143 49.8827 68.7143 48.9661V41.9126C68.7143 40.996 67.9618 40.2529 67.0335 40.2529Z"
          fill="#C1E9E7"/>
    <rect x="70.7891" y="40.1143" width="15.6283" height="10.5111" rx="1.13422" fill="#83CAE0"/>
    <path d="M73.7386 44.5127H73.0937C72.7375 44.5127 72.4487 44.7962 72.4487 45.1459V48.1009C72.4487 48.4506 72.7375 48.7341 73.0937 48.7341H73.7386C74.0948 48.7341 74.3836 48.4506 74.3836 48.1009V45.1459C74.3836 44.7962 74.0948 44.5127 73.7386 44.5127Z"
          fill="white"/>
    <path d="M77.2567 42.0508H76.6117C76.2555 42.0508 75.9668 42.3313 75.9668 42.6774V48.1081C75.9668 48.4542 76.2555 48.7347 76.6117 48.7347H77.2567C77.6129 48.7347 77.9016 48.4542 77.9016 48.1081V42.6774C77.9016 42.3313 77.6129 42.0508 77.2567 42.0508Z"
          fill="white"/>
    <path d="M84.1112 42.0508H83.4662C83.11 42.0508 82.8213 42.3313 82.8213 42.6774V48.1081C82.8213 48.4542 83.11 48.7347 83.4662 48.7347H84.1112C84.4674 48.7347 84.7561 48.4542 84.7561 48.1081V42.6774C84.7561 42.3313 84.4674 42.0508 84.1112 42.0508Z"
          fill="white"/>
    <path d="M80.7747 43.8096H80.1298C79.7736 43.8096 79.4849 44.0852 79.4849 44.4252V48.1189C79.4849 48.4589 79.7736 48.7346 80.1298 48.7346H80.7747C81.1309 48.7346 81.4197 48.4589 81.4197 48.1189V44.4252C81.4197 44.0852 81.1309 43.8096 80.7747 43.8096Z"
          fill="white"/>
    <path d="M59.4479 48.3435C58.9524 48.1596 58.2914 42.9681 58.53 42.3243C58.6491 42.0027 61.0081 41.91 61.1993 42.0822C61.3524 42.2204 61.2543 42.8459 61.4339 42.9128C61.8281 43.0585 65.1436 42.7856 65.3058 43.0082C65.5311 43.3174 65.5511 47.047 65.4187 47.4042C65.2863 47.7614 60.1429 48.2175 59.4479 48.3435Z"
          fill="url(#paint5_linear_612_62176)"/>
    <path d="M65.8093 43.6573C66.0922 43.901 65.9857 48.1105 65.7994 48.2855C65.6132 48.4605 59.7019 48.4669 59.4516 48.3742C59.2013 48.2816 59.0236 43.8657 59.1739 43.6773C59.3242 43.4889 65.4659 43.3633 65.8093 43.6573Z"
          fill="white"/>
    <path d="M59.8758 44.5139C60.5034 44.6624 63.9907 44.9273 64.4725 44.5989L59.8758 44.5139Z" fill="#64C9C3"/>
    <path d="M59.9461 45.4387C60.572 45.5859 63.5348 45.7963 64.5428 45.5237L59.9461 45.4387Z" fill="#64C9C3"/>
    <rect x="69.8203" y="22.4111" width="8.57484" height="1.38304" rx="0.691519" fill="#D6E9E8"/>
    <rect x="55.8521" y="36.6562" width="12.4473" height="1.38304" rx="0.691519" fill="#D6E9E8"/>
    <rect x="70.7891" y="36.6562" width="22.9584" height="1.38304" rx="0.691519" fill="#D6E9E8"/>
    <rect x="79.0869" y="22.4111" width="12.4473" height="1.38304" rx="0.691519" fill="#D6E9E8"/>
    <rect x="69.8203" y="26.2832" width="34.8526" height="0.829823" rx="0.414911" fill="#D6E9E8"/>
    <rect x="69.8203" y="27.9434" width="27.7991" height="0.829823" rx="0.414911" fill="#D6E9E8"/>
    <rect x="69.8203" y="29.6025" width="32.2248" height="0.829823" rx="0.414911" fill="#D6E9E8"/>
    <rect x="69.8203" y="31.2627" width="34.8526" height="0.829823" rx="0.414911" fill="#D6E9E8"/>
    <rect x="69.8203" y="32.9219" width="21.2988" height="0.829823" rx="0.414911" fill="#D6E9E8"/>
    <rect x="87.938" y="41.6357" width="16.7348" height="0.829823" rx="0.414911" fill="#D6E9E8"/>
    <rect x="87.938" y="43.2949" width="13.1389" height="0.829823" rx="0.414911" fill="#D6E9E8"/>
    <rect x="87.938" y="44.9541" width="16.1815" height="0.829823" rx="0.414911" fill="#D6E9E8"/>
    <rect x="87.938" y="46.6143" width="16.7348" height="0.829823" rx="0.414911" fill="#D6E9E8"/>
    <rect x="87.938" y="48.2744" width="10.0962" height="0.829823" rx="0.414911" fill="#D6E9E8"/>
    <g clip-path="url(#clip0_612_62176)">
        <path d="M62.5122 25.2265C64.7964 25.3417 65.6355 25.9736 66.058 27.073C66.2053 27.4561 66.1022 28.6868 66.1022 28.6868C66.1022 28.6868 66.9324 28.585 67.0606 28.9404C67.2303 29.4102 67.0576 30.0159 66.6309 30.353C66.2043 30.69 65.6577 30.4324 65.601 30.5323C65.5443 30.6321 64.8039 32.6182 61.8181 32.4681C58.8323 32.318 58.6979 30.2356 58.5447 30.2028C58.3915 30.17 57.8582 30.091 57.576 29.5902C57.2938 29.0895 57.3757 28.4785 57.642 28.2871C57.9083 28.0956 58.3839 28.2987 58.3839 28.2987C58.3839 28.2987 58.1889 27.1136 58.7349 26.4203C59.5136 25.434 60.7235 25.1366 62.5122 25.2265Z"
              fill="url(#paint6_linear_612_62176)"/>
        <path d="M58.3859 28.2981C58.376 28.4773 57.6802 27.6475 57.7167 26.9322C57.739 26.4969 57.9443 26.3705 58.1241 25.8673C58.3038 25.364 58.7138 25.2656 58.8784 25.0432C59.0431 24.8207 59.2755 24.4695 60.0201 24.4048C60.7647 24.3401 61.0937 23.8257 62.2501 23.8583C63.4065 23.8909 63.8305 24.1841 64.3609 24.364C64.8912 24.544 65.3555 24.7797 65.9776 25.1441C66.5997 25.5084 66.8337 26.1355 66.7924 26.4404C66.751 26.7454 66.9154 27.5461 66.8748 27.8539C66.8342 28.1617 66.6088 28.6753 66.4495 28.6743C66.2902 28.6732 66.0872 28.9411 66.1042 28.6862C66.1211 28.4312 66.2391 27.2581 65.8212 26.9051C65.4033 26.5521 64.9245 26.0757 64.4441 25.9993C63.4389 25.838 62.9137 26.1552 62.3872 26.1542C61.8607 26.1532 61.4881 25.6789 60.6868 25.8176C59.8855 25.9564 59.4315 26.5069 59.1178 26.6444C58.804 26.7819 58.4183 27.6584 58.3859 28.2981Z"
              fill="url(#paint7_linear_612_62176)"/>
    </g>
    <path d="M32.316 49.3553L53.6421 49.3033C55.0867 49.2997 56.2607 50.4679 56.2642 51.9125L56.3805 99.601C56.384 101.046 55.2158 102.22 53.7712 102.223L32.4451 102.275C31.0005 102.279 29.8265 101.11 29.823 99.6658L29.7067 51.9773C29.7032 50.5327 30.8714 49.3588 32.316 49.3553Z"
          fill="url(#paint8_linear_612_62176)"/>
    <path d="M32.5541 50.4744L34.9451 50.4692L35.7265 51.8398C35.8321 52.0302 35.9864 52.189 36.1737 52.3C36.361 52.411 36.5744 52.4701 36.7921 52.4713L49.1856 52.4422C49.4029 52.4409 49.616 52.3816 49.8028 52.2704C49.9896 52.1593 50.1434 52.0004 50.2483 51.81L51.0207 50.4286L51.1916 50.4284L53.4158 50.4234C53.9156 50.4305 54.3924 50.6348 54.7423 50.9919C55.0921 51.3489 55.2867 51.8298 55.2836 52.3296L55.3957 99.3461C55.4017 99.8461 55.2097 100.328 54.8616 100.687C54.5134 101.046 54.0375 101.253 53.5375 101.262L32.6833 101.315C32.1834 101.308 31.7064 101.104 31.3565 100.747C31.0066 100.39 30.8121 99.909 30.8156 99.409L30.6997 52.3913C30.6933 51.8917 30.8847 51.4099 31.2321 51.0509C31.5794 50.6918 32.0546 50.4846 32.5541 50.4744Z"
          fill="white"/>
    <path d="M42.5035 51.4363C42.2181 51.3415 42.0635 51.0334 42.1582 50.748C42.2529 50.4626 42.5611 50.308 42.8465 50.4027C43.1319 50.4974 43.2865 50.8056 43.1918 51.091C43.097 51.3764 42.7889 51.531 42.5035 51.4363Z"
          fill="#696969"/>
    <rect x="33.0776" y="77.8184" width="20.4488" height="0.559147" rx="0.279574" fill="#D6E9E8"/>
    <rect x="33.0776" y="79.1758" width="13.8988" height="0.479269" rx="0.239634" fill="#D6E9E8"/>
    <path d="M33.1899 70.4468C33.2913 70.3006 34.4576 70.2871 34.7316 70.4468C34.932 70.565 34.9752 76.0319 34.8066 76.083C34.4288 76.1972 33.6732 76.1972 33.253 76.1206C33.0693 76.0878 33.0014 70.7176 33.1899 70.4468Z"
          fill="#4EB4CD"/>
    <path d="M36.6504 71.7188C36.7527 71.6046 37.9189 71.5934 38.1921 71.7188C38.3934 71.8107 38.4365 76.0634 38.2672 76.1033C37.8894 76.192 37.1337 76.192 36.7143 76.1329C36.5298 76.1073 36.4627 71.9289 36.6504 71.7188Z"
          fill="#FBC0C9"/>
    <path d="M40.1112 72.6185C40.2135 72.5274 41.3797 72.5187 41.6529 72.6185C41.8542 72.692 41.8973 76.086 41.728 76.118C41.3501 76.1891 40.5945 76.1891 40.1751 76.1419C39.9906 76.1212 39.9227 72.7862 40.1112 72.6185Z"
          fill="#4EB4CD"/>
    <path d="M43.5727 69.6426C43.6742 69.4749 44.8404 69.4589 45.1144 69.6426C45.3157 69.7768 45.354 76.0121 45.1894 76.0704C44.8116 76.2006 44.056 76.2006 43.6358 76.1135C43.4521 76.0752 43.3842 69.9509 43.5727 69.6426Z"
          fill="#FBC0C9"/>
    <path d="M47.0329 73.5873C47.1352 73.521 48.3014 73.5146 48.5754 73.5873C48.7759 73.6408 48.815 76.1099 48.6504 76.133C48.134 76.1823 47.6143 76.1881 47.0968 76.1506C46.9131 76.1354 46.842 73.7095 47.0329 73.5873Z"
          fill="#4EB4CD"/>
    <path d="M50.4936 70.8185C50.5958 70.6819 51.762 70.6684 52.0352 70.8185C52.2365 70.9296 52.2796 76.041 52.1103 76.0905C51.7325 76.1975 50.9768 76.1975 50.5575 76.1264C50.3729 76.0961 50.305 71.0717 50.4936 70.8185Z"
          fill="#FBC0C9"/>
    <rect x="44.3408" y="60.165" width="9.18599" height="0.559147" rx="0.279574" fill="#D6E9E8"/>
    <rect x="44.3413" y="62.8018" width="2.95549" height="0.559147" rx="0.279574" fill="#D6E9E8"/>
    <rect x="44.3413" y="61.5234" width="9.18599" height="0.479269" rx="0.239634" fill="#D6E9E8"/>
    <rect x="33.1572" y="93.4746" width="20.4488" height="0.559147" rx="0.279574" fill="#D6E9E8"/>
    <rect x="33.1572" y="96.1104" width="6.55001" height="0.559147" rx="0.279574" fill="#D6E9E8"/>
    <rect x="33.1572" y="94.833" width="20.4488" height="0.479269" rx="0.239634" fill="#D6E9E8"/>
    <path opacity="0.5"
          d="M52.9279 83.0107L33.3169 83.3708V91.6128C35.4019 92.381 47.6584 91.9329 53.5261 91.6128L52.9279 83.0107Z"
          fill="#FFF5F5"/>
    <path d="M38.3801 92.1167C35.255 92.1167 33.5198 91.9998 33.2059 91.7603C33.1851 91.7465 33.1675 91.7285 33.154 91.7076C33.1405 91.6867 33.1315 91.6633 33.1276 91.6388C33.0539 91.0704 33.0769 88.9913 33.1011 86.7902C33.1134 85.6142 33.127 84.3985 33.127 83.3301H33.3001C33.3001 84.3991 33.2866 85.616 33.2736 86.7919C33.2501 88.982 33.2271 91.0511 33.299 91.6131C33.3732 91.7299 34.2749 92.0746 42.6179 91.8918C47.2179 91.7907 51.8461 91.574 52.2242 91.5208L52.2484 91.6902C51.872 91.744 47.4405 91.9537 42.8405 92.0583C41.1289 92.0976 39.6421 92.1171 38.3801 92.1167Z"
          fill="#4EB4CD"/>
    <path d="M34.371 90.7794C34.7057 89.9599 35.0805 89.1589 35.4953 88.3765L35.3592 88.3942C35.7592 88.7491 36.3438 88.69 36.7733 88.4202C36.8841 88.3511 36.9859 88.2682 37.0762 88.1736C37.1638 88.0744 37.2427 87.9677 37.3118 87.8547C37.3708 87.763 37.468 87.6145 37.5964 87.6323C37.6724 87.6429 37.7302 87.7092 37.7803 87.7612C37.8527 87.8376 37.9246 87.915 37.9965 87.992L38.9116 88.9668C38.9237 88.9784 38.9389 88.9862 38.9554 88.9893C38.9718 88.9924 38.9888 88.9908 39.0043 88.9846C39.0198 88.9784 39.0333 88.9678 39.0431 88.9542C39.0528 88.9406 39.0585 88.9244 39.0595 88.9077C39.1062 88.3773 39.2278 87.8562 39.4207 87.3602L39.2757 87.3986C39.5326 87.6577 39.8597 87.8353 40.2163 87.9091C40.573 87.983 40.9434 87.9498 41.2814 87.8139C41.6827 87.6447 42.0173 87.3477 42.3561 87.0804L42.93 86.6284C43.1014 86.4839 43.28 86.3483 43.4651 86.222C43.6138 86.1196 43.7885 86.0617 43.9688 86.0552C44.1066 86.0578 44.2425 86.0881 44.3683 86.1445C44.6458 86.2628 44.8874 86.4527 45.1343 86.6178C45.3812 86.7828 45.6452 86.9402 45.941 86.9833C46.3534 87.0425 46.7217 86.8355 47.0728 86.6473C47.9577 86.1726 48.7979 85.6182 49.5829 84.991C49.6701 84.9212 49.547 84.7993 49.4609 84.8679C48.7743 85.4146 48.0453 85.9054 47.2808 86.3356C47.0864 86.4444 46.8902 86.5515 46.6916 86.6503C46.5095 86.7408 46.3151 86.8201 46.1095 86.8213C45.8208 86.8213 45.5574 86.6817 45.3205 86.5302C44.8491 86.2303 44.3459 85.7612 43.7438 85.9067C43.5567 85.9598 43.3821 86.0501 43.2305 86.1723C43.0461 86.3096 42.8682 86.4551 42.6879 86.5976C42.3343 86.8757 41.9897 87.1732 41.6179 87.4258C41.2643 87.6672 40.8754 87.805 40.443 87.7666C40.0466 87.7323 39.6754 87.5574 39.3959 87.2732C39.3851 87.2627 39.3718 87.2552 39.3573 87.2514C39.3427 87.2476 39.3274 87.2476 39.3129 87.2515C39.2984 87.2554 39.2851 87.263 39.2744 87.2735C39.2636 87.284 39.2557 87.2972 39.2515 87.3117C39.0545 87.8227 38.9307 88.3593 38.8839 88.9053L39.0318 88.8462L38.2204 87.9795C38.0957 87.8326 37.9625 87.6932 37.8215 87.5619C37.7711 87.5124 37.707 87.4792 37.6376 87.4665C37.5682 87.4539 37.4966 87.4624 37.432 87.4909C37.3101 87.5501 37.2258 87.6654 37.1539 87.776C37.087 87.8878 37.008 87.9918 36.9182 88.086C36.7322 88.27 36.4974 88.3965 36.2418 88.4504C36.1099 88.4822 35.9724 88.4828 35.8403 88.452C35.7082 88.4211 35.585 88.3599 35.4805 88.2729C35.4711 88.2637 35.4596 88.2568 35.4471 88.2526C35.4346 88.2485 35.4213 88.2472 35.4082 88.2489C35.3952 88.2506 35.3826 88.2553 35.3716 88.2625C35.3605 88.2697 35.3513 88.2794 35.3444 88.2907C34.9237 89.0857 34.5433 89.9005 34.2031 90.735C34.1607 90.8379 34.328 90.8829 34.3699 90.7811L34.371 90.7794Z"
          fill="#4EB4CD"/>
    <path d="M37.5178 61.7752L37.4199 56.8249C34.8579 56.8191 32.6422 58.5599 32.2817 61.0025C31.8833 63.7027 33.9056 66.2377 36.7986 66.6647C39.6916 67.0916 42.3593 65.2487 42.7577 62.5485C42.785 62.3636 42.8009 62.1772 42.8054 61.9903L37.5178 61.7752Z"
          fill="#4EB4CD"/>
    <path d="M37.5515 61.8035L37.4316 56.891C41.6492 56.7313 42.7835 60.2326 42.8234 62.0032L37.5515 61.8035Z"
          fill="#FBC0C9"/>
    <circle cx="35.354" cy="87.6841" r="0.199695" fill="#F68092"/>
    <circle cx="39.0288" cy="89.521" r="0.199695" fill="#F68092"/>
    <circle cx="39.2681" cy="86.8052" r="0.199695" fill="#F68092"/>
    <circle cx="46.6968" cy="87.4438" r="0.199695" fill="#F68092"/>
    <circle cx="44.1406" cy="85.3667" r="0.199695" fill="#F68092"/>
    <path d="M48.7739 84.8875L49.6925 84.8076L49.4928 85.5665" stroke="#2C99B5" stroke-width="0.131015"
          stroke-linecap="round" stroke-linejoin="round"/>
    <path d="M23.6309 28.9158V25.283C23.6309 22.8033 25.7601 20.7744 28.3621 20.7744H31.8378C34.4398 20.7744 36.5687 22.8019 36.5687 25.283V28.9158"
          stroke="url(#paint9_linear_612_62176)" stroke-width="1.78148" stroke-miterlimit="10"/>
    <g filter="url(#filter0_d_612_62176)">
        <path d="M38.4995 28.8965H21.6831C20.8832 28.8965 20.2349 29.5449 20.2349 30.3447V45.5522C20.2349 46.352 20.8832 47.0004 21.6831 47.0004H38.4995C39.2994 47.0004 39.9477 46.352 39.9477 45.5522V30.3447C39.9477 29.5449 39.2994 28.8965 38.4995 28.8965Z"
              fill="url(#paint10_linear_612_62176)"/>
    </g>
    <path d="M32.43 38.2906C32.43 37.0596 31.383 36.0625 30.0915 36.0625C28.8001 36.0625 27.7534 37.0599 27.7534 38.2906C27.7534 39.2319 28.3689 40.0403 29.2378 40.3651C29.2054 40.4493 29.1888 40.5388 29.1889 40.629V42.3937C29.1889 42.8183 29.5535 43.1659 29.9992 43.1659H30.1379C30.5836 43.1659 30.9481 42.8183 30.9481 42.3937V40.629C30.9481 40.5441 30.9334 40.4599 30.9047 40.3799C31.7953 40.0653 32.43 39.2489 32.43 38.2906Z"
          fill="url(#paint11_linear_612_62176)"/>
    <path d="M26.3953 31.3076C23.3328 31.3076 22.8223 34.3307 22.8223 34.3307" stroke="white" stroke-width="1.0392"
          stroke-linecap="round" stroke-linejoin="round"/>
    <path d="M132 33.8454C129.704 33.8454 129.094 40.0785 129.094 38.1104C129.094 36.1422 127.735 33.8454 126.001 33.8454L125.983 33.854C127.717 33.854 129.076 31.5575 129.076 29.5893C129.076 27.6212 129.685 33.854 131.981 33.854"
          fill="#E0EFF7"/>
    <path d="M95.3196 88.3476C92.1114 88.3476 91.2634 97.0432 91.2634 94.2975C91.2634 91.5517 89.3676 88.3476 86.9454 88.3476L86.9199 88.3593C89.3407 88.3593 91.2379 85.153 91.2379 82.4094C91.2379 79.6659 92.0881 88.3593 95.2941 88.3593"
          fill="#E0EFF7"/>
    <path d="M7.77819 17.1222C4.80735 17.1222 4.02211 25.1793 4.02211 22.6352C4.02211 20.091 2.26661 17.1222 0.02363 17.1222L0 17.133C2.24163 17.133 3.99848 14.1622 3.99848 11.6201C3.99848 9.07801 4.78575 17.133 7.75456 17.133"
          fill="#E0EFF7"/>
    <defs>
        <filter id="filter0_d_612_62176" x="19.3886" y="28.4733" width="21.4055" height="19.7961"
                filterUnits="userSpaceOnUse" color-interpolation-filters="sRGB">
            <feFlood flood-opacity="0" result="BackgroundImageFix"/>
            <feColorMatrix in="SourceAlpha" type="matrix" values="0 0 0 0 0 0 0 0 0 0 0 0 0 0 0 0 0 0 127 0"
                           result="hardAlpha"/>
            <feOffset dy="0.423146"/>
            <feGaussianBlur stdDeviation="0.423146"/>
            <feComposite in2="hardAlpha" operator="out"/>
            <feColorMatrix type="matrix" values="0 0 0 0 0 0 0 0 0 0 0 0 0 0 0 0 0 0 0.1 0"/>
            <feBlend mode="normal" in2="BackgroundImageFix" result="effect1_dropShadow_612_62176"/>
            <feBlend mode="normal" in="SourceGraphic" in2="effect1_dropShadow_612_62176" result="shape"/>
        </filter>
        <linearGradient id="paint0_linear_612_62176" x1="6.24448" y1="49.0129" x2="123.032" y2="49.2068"
                        gradientUnits="userSpaceOnUse">
            <stop stop-color="#A5D4F9"/>
            <stop offset="1" stop-color="#C9E6FF"/>
        </linearGradient>
        <linearGradient id="paint1_linear_612_62176" x1="116.538" y1="38.6243" x2="43.5421" y2="38.6243"
                        gradientUnits="userSpaceOnUse">
            <stop stop-color="#666665"/>
            <stop offset="0.46" stop-color="#5D5C5C"/>
            <stop offset="1" stop-color="#575656"/>
        </linearGradient>
        <linearGradient id="paint2_linear_612_62176" x1="42.6387" y1="16.8063" x2="116.84" y2="16.8063"
                        gradientUnits="userSpaceOnUse">
            <stop stop-color="#69C1BE"/>
            <stop offset="1" stop-color="#4EB3C9"/>
        </linearGradient>
        <linearGradient id="paint3_linear_612_62176" x1="79.7768" y1="64.3047" x2="79.7768" y2="75.0342"
                        gradientUnits="userSpaceOnUse">
            <stop stop-color="#D6DEDE"/>
            <stop offset="1" stop-color="#BCCACE"/>
        </linearGradient>
        <linearGradient id="paint4_linear_612_62176" x1="725598" y1="4556.46" x2="751448" y2="4556.46"
                        gradientUnits="userSpaceOnUse">
            <stop stop-color="#DEE6E6"/>
            <stop offset="0.43" stop-color="#DAE2E5"/>
            <stop offset="1" stop-color="#D7DFE4"/>
        </linearGradient>
        <linearGradient id="paint5_linear_612_62176" x1="62.9855" y1="42.1355" x2="60.5263" y2="48.7746"
                        gradientUnits="userSpaceOnUse">
            <stop stop-color="#7DD9D6"/>
            <stop offset="0.22" stop-color="#75D7D2"/>
            <stop offset="0.55" stop-color="#59C7C0"/>
            <stop offset="0.95" stop-color="#36C5B8"/>
            <stop offset="1" stop-color="#33C5B7"/>
        </linearGradient>
        <linearGradient id="paint6_linear_612_62176" x1="60.2554" y1="32.1972" x2="64.5777" y2="25.5125"
                        gradientUnits="userSpaceOnUse">
            <stop stop-color="#E8B3A3"/>
            <stop offset="0.05" stop-color="#ECB9A8"/>
            <stop offset="0.2" stop-color="#F4C4B4"/>
            <stop offset="0.41" stop-color="#F9CBBA"/>
            <stop offset="1" stop-color="#FACDBC"/>
        </linearGradient>
        <linearGradient id="paint7_linear_612_62176" x1="57.7631" y1="26.0018" x2="66.9447" y2="26.4643"
                        gradientUnits="userSpaceOnUse">
            <stop offset="0.01" stop-color="#6AC2BF"/>
            <stop offset="0.45" stop-color="#56BDB6"/>
            <stop offset="1" stop-color="#40B7AD"/>
        </linearGradient>
        <linearGradient id="paint8_linear_612_62176" x1="56.3223" y1="75.7568" x2="29.7649" y2="75.8216"
                        gradientUnits="userSpaceOnUse">
            <stop stop-color="#F4A9B9"/>
            <stop offset="0.02" stop-color="#F4A7B7"/>
            <stop offset="0.37" stop-color="#F191A3"/>
            <stop offset="0.7" stop-color="#F08497"/>
            <stop offset="1" stop-color="#EF8093"/>
        </linearGradient>
        <linearGradient id="paint9_linear_612_62176" x1="22.5447" y1="24.3022" x2="37.6538" y2="24.3022"
                        gradientUnits="userSpaceOnUse">
            <stop stop-color="#3DA9C1"/>
            <stop offset="0.56" stop-color="#309DB7"/>
            <stop offset="1" stop-color="#1E90AC"/>
        </linearGradient>
        <linearGradient id="paint10_linear_612_62176" x1="20.2349" y1="37.9484" x2="39.9481" y2="37.9484"
                        gradientUnits="userSpaceOnUse">
            <stop stop-color="#D8EFF5"/>
            <stop offset="0.25" stop-color="#CFEEF5"/>
            <stop offset="0.62" stop-color="#C3EEF3"/>
            <stop offset="1" stop-color="#B3F4F8"/>
        </linearGradient>
        <linearGradient id="paint11_linear_612_62176" x1="6707.24" y1="7992.52" x2="7311.31" y2="7992.52"
                        gradientUnits="userSpaceOnUse">
            <stop stop-color="#3395AB"/>
            <stop offset="0.56" stop-color="#268DA5"/>
            <stop offset="1" stop-color="#187D96"/>
        </linearGradient>
        <clipPath id="clip0_612_62176">
            <rect width="9.8133" height="8.60203" fill="white" transform="translate(56.355 25.3594) rotate(-15.6162)"/>
        </clipPath>
    </defs>
</svg>
