<svg width="412" height="400" viewBox="0 0 412 400" fill="none" xmlns="http://www.w3.org/2000/svg">
    <g clip-path="url(#clip0_612_61730)">
        <path d="M209.324 155.311C211.404 155.311 212.708 155.251 212.693 155.832C212.677 157.382 210.353 157.652 209.052 157.133C207.752 156.614 209.324 155.311 209.324 155.311Z"
              fill="url(#paint0_linear_612_61730)"/>
        <path d="M201.378 167.092C202.935 167.79 204.624 169.153 206.206 165.691C207.787 162.228 217.103 142.051 217.618 140.828C218.133 139.604 218.442 137.903 217.056 137.075"
              fill="#56BAB1"/>
        <path d="M209.1 133.631C207.055 132.882 205.424 133.514 204.54 135.147C203.656 136.781 193.785 156.969 192.725 159.014C191.666 161.059 192.244 162.247 193.924 163.209C195.605 164.172 200.079 166.467 201.573 167.232C203.067 167.997 204.345 167.56 205.575 164.912C206.806 162.265 216.133 142.488 217.008 140.452C218.076 137.977 217.471 137.123 215.998 136.454C214.92 135.964 209.1 133.631 209.1 133.631Z"
              fill="#6AC2BF"/>
        <path d="M215.808 141.343C215.808 141.143 205.156 136.698 204.785 136.709C204.414 136.72 194.054 157.631 194.248 158.02C194.441 158.409 204.875 163.574 205.244 163.565C205.613 163.556 215.808 141.343 215.808 141.343Z"
              fill="url(#paint1_linear_612_61730)"/>
        <path d="M210.448 147.567C207.372 147.308 204.059 145.767 202.639 143.947L210.448 147.567Z" fill="#6AC2BF"/>
        <path d="M208.707 150.909C205.629 150.651 202.318 149.11 200.898 147.292L208.707 150.909Z" fill="#6AC2BF"/>
        <path d="M209.7 159.599C208.873 159.242 209.298 158.89 209.518 158.252C209.738 157.614 210.191 157.223 210.865 157.52C211.539 157.816 211.42 158.753 211.276 159.092C211.133 159.431 210.847 160.096 209.7 159.599Z"
              fill="url(#paint2_linear_612_61730)"/>
        <path d="M210.193 160.447C210.51 159.286 209.203 159.198 208.893 159.358C208.583 159.517 207.961 160.815 208.641 161.246C209.122 161.552 209.879 161.586 210.193 160.447Z"
              fill="url(#paint3_linear_612_61730)"/>
        <path d="M209.124 162.42C209.714 161.369 208.468 160.967 208.127 161.048C207.785 161.129 206.871 162.238 207.426 162.82C207.821 163.233 208.538 163.449 209.124 162.42Z"
              fill="url(#paint4_linear_612_61730)"/>
        <path d="M141.02 82.2205C151.256 82.333 154.18 88.8569 154.518 93.9186C154.821 98.4696 154.63 99.8802 156.205 103.48C157.177 105.7 159.129 107.979 159.129 108.879C159.129 110.004 157.78 110.678 157.33 110.903C156.88 111.128 155.98 112.253 155.98 113.378C155.98 114.503 155.793 119.022 155.305 119.902C154.18 121.927 147.656 123.726 140.907 122.152C129.306 119.452 122.685 114.053 122.685 101.455C122.685 91.3315 124.26 82.036 141.02 82.2205Z"
              fill="url(#paint5_linear_612_61730)"/>
        <path d="M143.691 133.935C143.936 139.296 144.422 141.975 144.422 142.708C144.422 143.442 131.755 143.682 128.832 140.029C128.832 140.029 130.049 135.156 130.049 133.937C130.049 132.718 143.691 133.935 143.691 133.935Z"
              fill="url(#paint6_linear_612_61730)"/>
        <path d="M171.906 347.75C173.429 356.666 180.004 379.886 182.065 383.576C184.126 387.265 169.717 387.591 169.559 385.348C169.402 383.106 163.809 357.786 160.648 351.239C157.488 344.693 171.906 347.75 171.906 347.75Z"
              fill="url(#paint7_linear_612_61730)"/>
        <path d="M96.0704 349.862C93.0514 363.443 89.0965 373.708 88.4216 378.432C87.7467 383.157 79.423 377.982 79.1981 376.408C78.9731 374.833 80.7728 367.184 82.1226 361.11C83.4724 355.036 85.2721 348.737 86.1719 348.287C87.0718 347.837 96.5203 347.837 96.0704 349.862Z"
              fill="url(#paint8_linear_612_61730)"/>
        <path d="M141.491 180.866C149.776 177.86 163.841 172.936 171.67 169.966C179.499 166.997 184.086 165.107 185.706 164.027C187.325 162.947 188.72 160.704 189.496 158.063C190.171 155.769 191.521 153.843 192.196 153.744C193.141 153.609 196.245 153.555 197.469 153.969C197.725 154.055 199.458 155.703 200.031 156.313C200.362 156.662 200.384 157.631 199.197 157.751C198.688 157.8 197.386 157.4 196.722 156.401C196.535 156.117 194.718 155.964 194.565 156.358C194.197 157.206 193.969 158.108 193.89 159.028C193.8 160.365 193.568 160.88 193.631 161.312C194.009 163.872 199.311 165.273 198.636 165.948C196.205 168.38 192.036 168.758 190.551 169.163C189.033 169.577 180.293 176.182 174.354 178.879C170.399 180.679 145.725 196.004 141.475 192.697C136.632 188.91 136.252 182.767 141.491 180.866Z"
              fill="url(#paint9_linear_612_61730)"/>
        <path d="M153.324 87.6127C154.525 89.7769 150.516 94.2964 147.475 96.3863C143.875 98.8609 139.601 102.573 139.601 107.41C139.601 114.721 143.088 116.746 146.8 119.783C153.002 124.858 150.836 133.755 149.499 136.43C149.144 137.141 145 134.547 141.85 134.405C134.314 134.068 131.968 136.063 126.778 135.53C118.004 134.63 112.83 131.256 111.93 130.581C111.03 129.906 111.93 126.532 113.505 124.957C115.08 123.382 119.579 120.682 119.804 116.408C120.029 112.134 118.004 105.61 118.904 99.3109C119.804 93.0119 122.767 84.8299 130.152 81.9886C137.464 79.1766 149.387 80.5264 153.324 87.6127Z"
              fill="url(#paint10_linear_612_61730)"/>
        <path d="M127.705 228.094H127.93C128.169 228.094 128.398 227.999 128.567 227.83C128.735 227.661 128.83 227.433 128.83 227.194C128.83 226.955 128.735 226.726 128.567 226.558C128.398 226.389 128.169 226.294 127.93 226.294H127.705C127.467 226.294 127.238 226.389 127.069 226.558C126.9 226.726 126.806 226.955 126.806 227.194C126.806 227.433 126.9 227.661 127.069 227.83C127.238 227.999 127.467 228.094 127.705 228.094ZM114.225 227.644C114.464 227.652 114.696 227.565 114.871 227.402C115.045 227.239 115.148 227.013 115.156 226.774C115.164 226.536 115.077 226.304 114.914 226.129C114.751 225.955 114.525 225.852 114.286 225.844L114.061 225.828C113.943 225.82 113.824 225.835 113.712 225.872C113.6 225.91 113.496 225.969 113.406 226.047C113.317 226.124 113.243 226.219 113.19 226.325C113.137 226.431 113.106 226.546 113.097 226.664C113.089 226.782 113.104 226.901 113.141 227.013C113.179 227.126 113.238 227.23 113.316 227.319C113.393 227.409 113.488 227.482 113.594 227.535C113.7 227.588 113.815 227.62 113.933 227.628L114.158 227.644H114.225ZM141.401 227.626H141.46L141.685 227.61C141.803 227.603 141.918 227.572 142.025 227.521C142.131 227.469 142.226 227.396 142.305 227.308C142.383 227.219 142.443 227.116 142.482 227.004C142.521 226.892 142.537 226.773 142.529 226.655C142.522 226.537 142.492 226.421 142.44 226.315C142.388 226.209 142.316 226.113 142.227 226.035C142.138 225.957 142.035 225.896 141.923 225.858C141.811 225.819 141.693 225.803 141.574 225.81L141.349 225.824C141.231 225.828 141.115 225.855 141.007 225.904C140.9 225.952 140.803 226.022 140.722 226.108C140.641 226.194 140.578 226.296 140.536 226.406C140.495 226.517 140.475 226.635 140.479 226.753C140.483 226.871 140.51 226.987 140.559 227.095C140.607 227.203 140.677 227.3 140.763 227.381C140.849 227.462 140.951 227.525 141.061 227.566C141.172 227.608 141.29 227.627 141.408 227.624L141.401 227.626ZM155.03 226.303H155.149L155.374 226.272C155.494 226.26 155.612 226.224 155.718 226.166C155.825 226.109 155.919 226.03 155.994 225.935C156.069 225.84 156.125 225.73 156.157 225.613C156.189 225.497 156.197 225.374 156.18 225.254C156.164 225.134 156.123 225.018 156.061 224.914C155.999 224.81 155.917 224.72 155.818 224.648C155.72 224.577 155.609 224.526 155.491 224.499C155.373 224.472 155.25 224.469 155.131 224.49L154.906 224.519C154.667 224.535 154.444 224.644 154.287 224.824C154.129 225.004 154.049 225.239 154.064 225.477C154.08 225.716 154.19 225.939 154.369 226.097C154.549 226.254 154.784 226.334 155.023 226.319L155.03 226.303ZM100.602 226.125C100.84 226.143 101.076 226.066 101.258 225.909C101.439 225.753 101.551 225.532 101.569 225.293C101.587 225.054 101.509 224.818 101.353 224.637C101.197 224.455 100.975 224.344 100.737 224.326L100.512 224.292C100.279 224.262 100.045 224.324 99.8574 224.465C99.6701 224.605 99.545 224.814 99.5087 225.045C99.4724 225.276 99.5277 225.513 99.6629 225.704C99.7981 225.895 100.003 226.026 100.233 226.069L100.458 226.105C100.505 226.116 100.553 226.124 100.602 226.128V226.125ZM168.521 223.97C168.584 223.97 168.648 223.963 168.71 223.95L168.935 223.9C169.053 223.878 169.165 223.832 169.265 223.765C169.365 223.698 169.45 223.612 169.516 223.511C169.582 223.411 169.628 223.298 169.649 223.18C169.671 223.062 169.669 222.941 169.643 222.823C169.617 222.706 169.568 222.595 169.499 222.497C169.429 222.399 169.341 222.316 169.239 222.252C169.137 222.189 169.023 222.147 168.904 222.128C168.786 222.109 168.664 222.115 168.548 222.143L168.323 222.191C168.106 222.238 167.914 222.363 167.783 222.543C167.653 222.723 167.594 222.945 167.618 223.165C167.641 223.386 167.745 223.591 167.91 223.739C168.075 223.888 168.29 223.97 168.512 223.97H168.521ZM87.1668 223.408C87.3869 223.409 87.6 223.33 87.7657 223.185C87.9313 223.04 88.0381 222.84 88.0658 222.621C88.0935 222.403 88.0402 222.182 87.916 222C87.7918 221.818 87.6053 221.689 87.3918 221.635L87.178 221.581C86.9469 221.521 86.7014 221.556 86.4958 221.677C86.2901 221.799 86.141 221.997 86.0814 222.228C86.0217 222.459 86.0563 222.704 86.1776 222.91C86.2989 223.116 86.4969 223.265 86.7281 223.325L86.9531 223.381C87.0229 223.4 87.0946 223.41 87.1668 223.412V223.408ZM179.22 222.249C179.31 222.258 179.401 222.252 179.49 222.231L179.715 222.184C179.948 222.132 180.151 221.99 180.279 221.788C180.407 221.587 180.45 221.343 180.398 221.11C180.346 220.877 180.203 220.674 180.002 220.546C179.8 220.418 179.556 220.375 179.323 220.427L179.098 220.474C178.889 220.521 178.702 220.641 178.573 220.812C178.444 220.984 178.381 221.196 178.395 221.411C178.409 221.625 178.499 221.828 178.649 221.981C178.799 222.135 178.999 222.23 179.213 222.249H179.22ZM74.0694 219.379C74.2802 219.378 74.4842 219.303 74.6456 219.168C74.807 219.032 74.9157 218.844 74.9526 218.637C74.9896 218.429 74.9525 218.215 74.8478 218.032C74.7431 217.849 74.5775 217.709 74.3798 217.635L74.1706 217.559C73.9469 217.475 73.6992 217.485 73.4822 217.584C73.2651 217.683 73.0964 217.865 73.0132 218.088C72.93 218.312 72.939 218.56 73.0384 218.777C73.1377 218.994 73.3192 219.163 73.543 219.246L73.7679 219.325C73.8645 219.36 73.9665 219.378 74.0694 219.379ZM192.441 218.704C192.56 218.714 192.68 218.701 192.794 218.665L193.019 218.596C193.132 218.56 193.236 218.502 193.326 218.425C193.416 218.349 193.491 218.255 193.545 218.15C193.599 218.045 193.631 217.93 193.641 217.812C193.651 217.694 193.637 217.576 193.601 217.463C193.565 217.351 193.507 217.246 193.43 217.156C193.354 217.066 193.26 216.992 193.155 216.938C193.05 216.884 192.935 216.851 192.817 216.841C192.699 216.832 192.581 216.845 192.468 216.882L192.257 216.951C192.059 217.015 191.89 217.145 191.777 217.319C191.665 217.494 191.616 217.701 191.639 217.907C191.662 218.114 191.756 218.305 191.904 218.451C192.052 218.596 192.246 218.685 192.452 218.704H192.441ZM61.5006 213.917C61.7027 213.916 61.8987 213.847 62.057 213.721C62.2153 213.596 62.3267 213.42 62.3732 213.224C62.4197 213.027 62.3986 212.82 62.3134 212.637C62.2281 212.454 62.0837 212.305 61.9033 212.214L61.7076 212.115C61.6019 212.055 61.4851 212.017 61.3643 212.003C61.2435 211.989 61.1212 212 61.0048 212.035C60.8883 212.07 60.7802 212.128 60.6868 212.206C60.5935 212.284 60.5169 212.38 60.4617 212.488C60.4065 212.597 60.3737 212.715 60.3655 212.836C60.3573 212.958 60.3738 213.079 60.4139 213.194C60.454 213.309 60.517 213.414 60.599 213.504C60.681 213.594 60.7803 213.666 60.891 213.716L61.0957 213.822C61.2224 213.881 61.361 213.909 61.5006 213.905V213.917ZM207.023 209.986C207.168 209.987 207.311 209.952 207.439 209.885L207.637 209.782C207.839 209.666 207.988 209.478 208.053 209.255C208.119 209.033 208.096 208.794 207.989 208.588C207.883 208.382 207.701 208.225 207.482 208.15C207.262 208.075 207.022 208.087 206.812 208.184L206.609 208.288C206.431 208.381 206.288 208.531 206.205 208.714C206.121 208.898 206.102 209.104 206.15 209.3C206.197 209.495 206.309 209.669 206.468 209.794C206.626 209.918 206.822 209.986 207.023 209.986ZM49.6743 206.965C49.8669 206.965 50.0544 206.904 50.2094 206.789C50.3644 206.675 50.4786 206.514 50.5352 206.33C50.5919 206.146 50.588 205.949 50.5241 205.767C50.4603 205.585 50.3398 205.429 50.1804 205.321L49.996 205.197C49.8985 205.126 49.7878 205.076 49.6704 205.049C49.5531 205.021 49.4315 205.018 49.3128 205.039C49.1942 205.059 49.0809 205.104 48.9796 205.169C48.8784 205.234 48.7914 205.319 48.7236 205.419C48.6558 205.518 48.6087 205.631 48.5851 205.749C48.5614 205.867 48.5617 205.988 48.586 206.106C48.6102 206.224 48.6579 206.336 48.7262 206.435C48.7946 206.535 48.8821 206.619 48.9836 206.684L49.1726 206.812C49.3209 206.912 49.4955 206.965 49.6743 206.965ZM218.967 203.285C219.125 203.283 219.28 203.24 219.417 203.159L219.608 203.044C219.714 202.986 219.808 202.908 219.884 202.813C219.96 202.719 220.015 202.61 220.048 202.493C220.08 202.376 220.089 202.254 220.073 202.134C220.057 202.014 220.017 201.898 219.955 201.794C219.894 201.689 219.811 201.599 219.714 201.527C219.616 201.455 219.505 201.404 219.387 201.376C219.269 201.348 219.147 201.345 219.027 201.365C218.908 201.386 218.794 201.43 218.692 201.496L218.494 201.613C218.325 201.714 218.195 201.868 218.122 202.051C218.049 202.234 218.037 202.436 218.09 202.625C218.143 202.815 218.256 202.982 218.413 203.101C218.569 203.22 218.761 203.285 218.958 203.285H218.967ZM38.849 198.56C39.0318 198.561 39.2104 198.505 39.3609 198.401C39.5115 198.297 39.6268 198.15 39.6915 197.979C39.7563 197.808 39.7673 197.621 39.7233 197.444C39.6793 197.267 39.5823 197.107 39.4451 196.986L39.2787 196.837C39.19 196.759 39.0868 196.698 38.9748 196.66C38.8629 196.621 38.7444 196.605 38.6262 196.612C38.5079 196.619 38.3923 196.649 38.2857 196.701C38.1792 196.753 38.084 196.825 38.0054 196.914C37.9268 197.002 37.8664 197.106 37.8278 197.218C37.7891 197.329 37.7728 197.448 37.7799 197.566C37.787 197.684 37.8173 197.8 37.8691 197.907C37.9209 198.013 37.9932 198.108 38.0818 198.187L38.2506 198.338C38.4172 198.486 38.6328 198.567 38.8557 198.565L38.849 198.56ZM230.618 196.061C230.788 196.061 230.955 196.013 231.099 195.922L231.288 195.8C231.483 195.67 231.62 195.468 231.669 195.238C231.717 195.008 231.674 194.768 231.548 194.569C231.421 194.371 231.223 194.23 230.994 194.176C230.765 194.122 230.524 194.16 230.323 194.282L230.134 194.403C229.97 194.508 229.845 194.663 229.776 194.845C229.708 195.027 229.7 195.227 229.755 195.413C229.809 195.6 229.923 195.764 230.078 195.881C230.234 195.998 230.423 196.061 230.618 196.061ZM29.2362 188.793C29.4075 188.791 29.5747 188.74 29.7182 188.647C29.8618 188.553 29.9757 188.421 30.0466 188.265C30.1174 188.109 30.1423 187.936 30.1183 187.767C30.0944 187.597 30.0225 187.438 29.9111 187.308L29.7649 187.137C29.6899 187.041 29.5964 186.962 29.49 186.904C29.3835 186.845 29.2664 186.809 29.1456 186.797C29.0248 186.785 28.9029 186.798 28.7871 186.834C28.6713 186.871 28.5641 186.93 28.4719 187.009C28.3797 187.088 28.3044 187.185 28.2506 187.294C28.1968 187.403 28.1656 187.521 28.1589 187.642C28.1521 187.764 28.1699 187.885 28.2113 187.999C28.2526 188.113 28.3166 188.218 28.3994 188.307L28.5456 188.478C28.6312 188.579 28.738 188.66 28.8586 188.715C28.9792 188.771 29.1104 188.798 29.243 188.797L29.2362 188.793ZM242.172 188.685C242.342 188.685 242.509 188.636 242.653 188.545L242.842 188.426C243.044 188.298 243.187 188.095 243.24 187.862C243.292 187.629 243.25 187.385 243.122 187.183C242.995 186.981 242.792 186.838 242.559 186.785C242.326 186.733 242.081 186.775 241.879 186.903L241.688 187.027C241.524 187.131 241.399 187.286 241.33 187.468C241.262 187.651 241.254 187.85 241.309 188.037C241.363 188.223 241.477 188.387 241.632 188.504C241.788 188.621 241.977 188.684 242.172 188.685ZM253.827 181.47C253.986 181.469 254.141 181.424 254.277 181.342L254.473 181.225C254.579 181.166 254.673 181.087 254.747 180.992C254.822 180.897 254.877 180.787 254.909 180.67C254.941 180.553 254.948 180.431 254.932 180.311C254.915 180.191 254.874 180.076 254.811 179.972C254.749 179.868 254.666 179.778 254.568 179.707C254.47 179.636 254.358 179.585 254.24 179.558C254.122 179.531 253.999 179.529 253.88 179.55C253.761 179.572 253.647 179.617 253.546 179.684L253.355 179.796C253.185 179.897 253.053 180.051 252.979 180.234C252.905 180.417 252.894 180.62 252.947 180.81C252.999 181.001 253.113 181.168 253.271 181.288C253.428 181.407 253.621 181.471 253.818 181.47H253.827ZM21.0228 177.819C21.1851 177.819 21.3444 177.775 21.4838 177.692C21.6232 177.609 21.7376 177.49 21.8148 177.347C21.8921 177.204 21.9293 177.044 21.9225 176.881C21.9158 176.719 21.8653 176.562 21.7764 176.426L21.6572 176.242C21.5956 176.138 21.5135 176.047 21.416 175.975C21.3185 175.903 21.2076 175.852 21.0897 175.824C20.9719 175.796 20.8497 175.793 20.7304 175.813C20.6111 175.834 20.4972 175.878 20.3954 175.944C20.2936 176.009 20.2061 176.095 20.1382 176.195C20.0702 176.295 20.0231 176.408 19.9998 176.527C19.9765 176.645 19.9774 176.768 20.0024 176.886C20.0274 177.004 20.076 177.117 20.1454 177.216L20.2692 177.409C20.3509 177.537 20.4634 177.641 20.5963 177.714C20.7292 177.786 20.8782 177.824 21.0295 177.823L21.0228 177.819ZM265.719 174.656C265.869 174.656 266.016 174.619 266.148 174.548L266.346 174.44C266.538 174.317 266.675 174.125 266.731 173.905C266.787 173.685 266.757 173.451 266.648 173.252C266.539 173.052 266.358 172.901 266.143 172.83C265.927 172.758 265.692 172.77 265.485 172.865L265.289 172.973C265.114 173.069 264.975 173.22 264.896 173.403C264.816 173.586 264.799 173.791 264.849 173.984C264.898 174.178 265.01 174.35 265.168 174.472C265.325 174.595 265.519 174.662 265.719 174.662V174.656ZM277.91 168.399C278.045 168.399 278.179 168.369 278.301 168.309L278.503 168.213C278.719 168.109 278.884 167.925 278.963 167.699C279.042 167.474 279.028 167.227 278.924 167.011C278.821 166.796 278.636 166.631 278.411 166.552C278.185 166.473 277.938 166.487 277.723 166.591L277.518 166.69C277.335 166.779 277.187 166.927 277.099 167.11C277.011 167.294 276.988 167.502 277.033 167.7C277.079 167.899 277.19 168.076 277.349 168.203C277.508 168.33 277.706 168.399 277.91 168.399ZM14.3549 165.853C14.4881 165.854 14.6198 165.824 14.7395 165.765C14.8464 165.715 14.9422 165.643 15.0215 165.556C15.1008 165.468 15.162 165.366 15.2017 165.254C15.2414 165.143 15.2588 165.025 15.2528 164.907C15.2469 164.789 15.2177 164.673 15.167 164.566L15.0703 164.366C15.0214 164.256 14.9512 164.158 14.8637 164.076C14.7763 163.994 14.6733 163.93 14.5609 163.889C14.4485 163.847 14.329 163.829 14.2093 163.834C14.0896 163.839 13.9721 163.868 13.8638 163.919C13.7555 163.971 13.6584 164.043 13.5785 164.132C13.4985 164.221 13.4372 164.326 13.398 164.439C13.3589 164.552 13.3428 164.672 13.3506 164.792C13.3585 164.911 13.3901 165.028 13.4438 165.135L13.5405 165.34C13.6137 165.494 13.7292 165.624 13.8734 165.714C14.0175 165.805 14.1845 165.853 14.3549 165.853ZM290.413 162.784C290.532 162.784 290.65 162.761 290.76 162.715L290.966 162.629C291.187 162.537 291.362 162.362 291.453 162.141C291.544 161.92 291.543 161.672 291.451 161.451C291.359 161.231 291.184 161.056 290.963 160.965C290.742 160.874 290.494 160.875 290.274 160.967L290.064 161.054C289.872 161.135 289.714 161.279 289.617 161.463C289.519 161.647 289.489 161.858 289.53 162.062C289.571 162.266 289.681 162.45 289.842 162.581C290.003 162.713 290.205 162.785 290.413 162.784ZM303.182 157.822C303.286 157.822 303.388 157.805 303.486 157.77L303.699 157.693C303.924 157.613 304.107 157.446 304.209 157.23C304.311 157.014 304.322 156.766 304.242 156.542C304.161 156.317 303.994 156.134 303.778 156.032C303.562 155.93 303.314 155.919 303.09 155.999L302.878 156.076C302.68 156.148 302.513 156.288 302.407 156.471C302.301 156.654 302.263 156.868 302.299 157.076C302.335 157.284 302.443 157.473 302.605 157.609C302.766 157.746 302.971 157.821 303.182 157.822ZM316.183 153.496C316.272 153.495 316.361 153.482 316.446 153.455L316.671 153.39C316.898 153.319 317.088 153.161 317.199 152.951C317.31 152.741 317.333 152.495 317.264 152.268C317.194 152.04 317.037 151.85 316.828 151.737C316.618 151.625 316.372 151.601 316.145 151.669L315.92 151.736C315.714 151.8 315.539 151.935 315.424 152.117C315.31 152.299 315.265 152.516 315.296 152.729C315.328 152.941 315.435 153.136 315.598 153.276C315.76 153.417 315.968 153.495 316.183 153.496ZM9.25946 153.12C9.35419 153.119 9.44827 153.104 9.53839 153.075C9.76294 153.001 9.94922 152.841 10.057 152.631C10.1648 152.42 10.1853 152.176 10.1143 151.95L10.0446 151.739C10.0114 151.622 9.95502 151.514 9.87894 151.42C9.80283 151.326 9.70853 151.248 9.60168 151.191C9.49484 151.134 9.37762 151.1 9.25708 151.089C9.13654 151.079 9.01514 151.093 8.90009 151.13C8.78506 151.168 8.67874 151.228 8.58759 151.308C8.4964 151.387 8.42224 151.484 8.36948 151.593C8.31671 151.702 8.28641 151.82 8.28046 151.941C8.27451 152.062 8.293 152.183 8.33481 152.297L8.40457 152.521C8.46722 152.698 8.58322 152.85 8.73642 152.957C8.88962 153.065 9.07245 153.121 9.25946 153.12ZM411.03 150.645C411.248 150.646 411.46 150.568 411.625 150.425C411.79 150.282 411.897 150.083 411.926 149.867C411.956 149.65 411.906 149.431 411.785 149.248C411.664 149.066 411.481 148.934 411.271 148.877L411.046 148.819C410.818 148.764 410.579 148.799 410.377 148.918C410.176 149.037 410.028 149.229 409.966 149.455C409.904 149.68 409.933 149.921 410.045 150.126C410.158 150.331 410.345 150.484 410.569 150.553L410.794 150.612C410.87 150.634 410.95 150.646 411.03 150.648V150.645ZM329.368 149.761C329.444 149.76 329.519 149.75 329.593 149.73L329.804 149.676C329.919 149.646 330.026 149.594 330.121 149.523C330.215 149.452 330.295 149.363 330.355 149.261C330.415 149.159 330.454 149.047 330.471 148.93C330.487 148.813 330.481 148.693 330.451 148.579C330.422 148.465 330.37 148.357 330.299 148.263C330.228 148.168 330.139 148.089 330.037 148.028C329.935 147.968 329.822 147.929 329.705 147.912C329.588 147.896 329.469 147.903 329.354 147.932L329.129 147.991C328.918 148.046 328.734 148.176 328.611 148.357C328.489 148.538 328.437 148.758 328.464 148.975C328.492 149.192 328.597 149.391 328.761 149.536C328.925 149.68 329.136 149.761 329.354 149.761H329.368ZM397.642 147.584C397.868 147.585 398.086 147.502 398.254 147.35C398.421 147.199 398.525 146.99 398.545 146.765C398.566 146.54 398.501 146.316 398.364 146.137C398.226 145.957 398.027 145.836 397.804 145.797L397.579 145.757C397.462 145.733 397.342 145.734 397.224 145.757C397.107 145.781 396.996 145.828 396.898 145.895C396.799 145.962 396.714 146.049 396.649 146.149C396.584 146.249 396.54 146.361 396.518 146.478C396.497 146.596 396.499 146.717 396.525 146.833C396.551 146.95 396.599 147.06 396.668 147.158C396.737 147.255 396.824 147.338 396.926 147.402C397.027 147.465 397.14 147.508 397.258 147.527L397.483 147.568C397.538 147.578 397.595 147.585 397.651 147.586L397.642 147.584ZM342.803 146.924C342.851 146.928 342.9 146.928 342.949 146.924L343.174 146.886C343.402 146.84 343.604 146.708 343.737 146.516C343.869 146.324 343.922 146.089 343.885 145.859C343.847 145.629 343.722 145.422 343.535 145.283C343.348 145.143 343.115 145.082 342.884 145.111L342.659 145.147C342.435 145.183 342.233 145.302 342.093 145.48C341.953 145.658 341.885 145.882 341.904 146.108C341.922 146.334 342.025 146.544 342.191 146.698C342.358 146.851 342.576 146.936 342.803 146.936V146.924ZM384.061 145.676C384.3 145.687 384.533 145.604 384.71 145.443C384.887 145.283 384.993 145.059 385.005 144.82C385.017 144.581 384.933 144.348 384.772 144.171C384.612 143.994 384.388 143.888 384.149 143.876L383.924 143.854C383.685 143.83 383.447 143.903 383.262 144.055C383.077 144.207 382.96 144.427 382.936 144.666C382.913 144.904 382.986 145.143 383.138 145.328C383.29 145.513 383.51 145.63 383.749 145.653L383.973 145.674C384.003 145.676 384.032 145.677 384.061 145.676ZM356.422 145.311H356.487L356.712 145.296C356.83 145.287 356.946 145.256 357.052 145.203C357.158 145.15 357.252 145.077 357.33 144.988C357.408 144.898 357.467 144.794 357.505 144.682C357.542 144.57 357.557 144.451 357.549 144.333C357.541 144.215 357.509 144.099 357.457 143.993C357.404 143.887 357.33 143.793 357.241 143.715C357.152 143.637 357.048 143.578 356.935 143.54C356.823 143.503 356.705 143.488 356.586 143.496L356.375 143.512C356.256 143.519 356.141 143.55 356.034 143.603C355.928 143.656 355.833 143.729 355.755 143.818C355.677 143.908 355.617 144.012 355.58 144.125C355.542 144.237 355.527 144.356 355.536 144.475C355.552 144.7 355.651 144.911 355.816 145.066C355.98 145.221 356.196 145.309 356.422 145.311ZM370.37 144.904C370.609 144.904 370.837 144.809 371.006 144.641C371.175 144.472 371.27 144.243 371.27 144.004C371.27 143.766 371.175 143.537 371.006 143.368C370.837 143.199 370.609 143.105 370.37 143.105H370.145C369.906 143.102 369.676 143.194 369.506 143.361C369.335 143.528 369.238 143.756 369.235 143.994C369.232 144.233 369.324 144.463 369.491 144.633C369.658 144.804 369.886 144.902 370.125 144.904H370.35H370.37ZM5.80621 139.858C5.86432 139.859 5.92233 139.853 5.97946 139.843C6.09561 139.82 6.20618 139.775 6.30481 139.709C6.40344 139.644 6.48819 139.56 6.55423 139.461C6.62024 139.363 6.66629 139.253 6.68967 139.137C6.71301 139.021 6.7132 138.901 6.69031 138.785L6.64758 138.56C6.62851 138.441 6.58569 138.327 6.52164 138.225C6.45761 138.123 6.37366 138.034 6.27481 137.965C6.17599 137.896 6.06421 137.848 5.94623 137.822C5.82825 137.797 5.70645 137.796 5.58801 137.819C5.4696 137.842 5.35696 137.889 5.2569 137.956C5.1568 138.023 5.07123 138.11 5.00534 138.211C4.93945 138.312 4.89456 138.425 4.87329 138.544C4.85205 138.663 4.85483 138.785 4.88159 138.902L4.92438 139.127C4.96356 139.332 5.073 139.518 5.23392 139.651C5.39484 139.785 5.5972 139.858 5.80621 139.858ZM214.123 130.068C214.291 130.068 214.456 130.021 214.599 129.932C214.741 129.844 214.856 129.717 214.931 129.566L215.032 129.355C215.128 129.141 215.136 128.898 215.056 128.677C214.975 128.457 214.812 128.277 214.6 128.176C214.389 128.074 214.146 128.059 213.924 128.134C213.701 128.209 213.517 128.368 213.41 128.576L213.316 128.77C213.248 128.907 213.216 129.059 213.224 129.212C213.231 129.365 213.278 129.513 213.358 129.643C213.439 129.773 213.552 129.88 213.686 129.955C213.82 130.029 213.97 130.068 214.123 130.068ZM3.97729 126.273H4.04474C4.16263 126.264 4.27765 126.232 4.38327 126.179C4.48892 126.126 4.58307 126.053 4.66037 125.964C4.73767 125.874 4.79663 125.77 4.8338 125.658C4.871 125.546 4.88574 125.428 4.87714 125.31L4.85913 125.085C4.84244 124.846 4.7316 124.624 4.55103 124.467C4.37045 124.31 4.13495 124.231 3.89627 124.248C3.65762 124.265 3.43539 124.376 3.27844 124.556C3.12152 124.737 3.04272 124.972 3.05942 125.211L3.07742 125.436C3.09341 125.663 3.19522 125.876 3.36227 126.032C3.52933 126.187 3.74915 126.273 3.97729 126.273ZM218.121 116.979C218.331 116.979 218.534 116.906 218.696 116.771C218.857 116.637 218.967 116.45 219.005 116.244L219.045 116.019C219.07 115.902 219.071 115.781 219.049 115.663C219.026 115.545 218.98 115.433 218.913 115.334C218.847 115.234 218.761 115.149 218.661 115.083C218.561 115.016 218.449 114.971 218.331 114.949C218.214 114.927 218.093 114.928 217.976 114.953C217.858 114.979 217.748 115.027 217.649 115.096C217.551 115.164 217.468 115.252 217.404 115.353C217.34 115.455 217.297 115.568 217.277 115.686L217.234 115.911C217.213 116.027 217.214 116.146 217.238 116.262C217.263 116.378 217.31 116.488 217.377 116.585C217.443 116.683 217.529 116.766 217.628 116.831C217.727 116.895 217.838 116.94 217.954 116.961C218.009 116.972 218.065 116.978 218.121 116.979ZM3.76129 112.566C3.99457 112.566 4.21881 112.475 4.38669 112.313C4.55457 112.151 4.65298 111.93 4.66113 111.697V111.472C4.66528 111.354 4.64612 111.236 4.60474 111.126C4.56332 111.015 4.50049 110.913 4.41986 110.827C4.33923 110.74 4.24234 110.671 4.13477 110.621C4.02716 110.572 3.91098 110.545 3.79282 110.541C3.67462 110.537 3.55679 110.556 3.44601 110.597C3.33527 110.639 3.23376 110.702 3.14731 110.782C3.06082 110.863 2.99103 110.96 2.94199 111.067C2.89294 111.175 2.86557 111.291 2.86142 111.409V111.634C2.85721 111.752 2.87634 111.87 2.91772 111.981C2.95908 112.092 3.02194 112.193 3.1026 112.28C3.18323 112.366 3.28012 112.436 3.38776 112.485C3.49536 112.534 3.6116 112.562 3.7298 112.566H3.76129ZM219.727 103.358C219.957 103.358 220.179 103.27 220.346 103.112C220.514 102.954 220.614 102.737 220.627 102.507L220.64 102.282C220.647 102.164 220.63 102.046 220.591 101.934C220.552 101.823 220.491 101.72 220.412 101.632C220.333 101.544 220.237 101.472 220.131 101.421C220.024 101.369 219.908 101.34 219.79 101.333C219.672 101.327 219.554 101.343 219.442 101.383C219.33 101.422 219.227 101.483 219.139 101.562C219.051 101.641 218.979 101.736 218.928 101.843C218.877 101.95 218.847 102.065 218.841 102.183L218.827 102.408C218.821 102.527 218.837 102.645 218.876 102.757C218.916 102.869 218.976 102.971 219.055 103.06C219.134 103.148 219.23 103.22 219.337 103.271C219.443 103.322 219.559 103.351 219.678 103.358H219.727ZM4.84338 98.8833C5.06409 98.8849 5.27777 98.8054 5.44366 98.6598C5.60959 98.5142 5.71619 98.3127 5.74323 98.0936L5.77026 97.8687C5.79053 97.749 5.78638 97.6264 5.75806 97.5084C5.72974 97.3904 5.67786 97.2793 5.60547 97.1818C5.53311 97.0844 5.44177 97.0026 5.33698 96.9414C5.23215 96.8801 5.11606 96.8407 4.99561 96.8255C4.87518 96.8104 4.75293 96.8197 4.6362 96.853C4.51947 96.8863 4.41068 96.9429 4.31638 97.0193C4.22208 97.0957 4.14426 97.1904 4.08752 97.2977C4.03079 97.4051 3.99631 97.5227 3.98624 97.6437L3.95703 97.8687C3.94254 97.986 3.95126 98.1049 3.98279 98.2188C4.01428 98.3327 4.06793 98.4393 4.14062 98.5325C4.21332 98.6257 4.30368 98.7036 4.40652 98.7619C4.50934 98.8201 4.62262 98.8575 4.7399 98.872C4.7749 98.8778 4.81018 98.8816 4.84561 98.8833H4.84338ZM219.761 89.6395H219.806C219.924 89.6337 220.04 89.6047 220.147 89.5541C220.254 89.5034 220.35 89.4322 220.429 89.3444C220.509 89.2566 220.57 89.1541 220.61 89.0426C220.649 88.9311 220.667 88.8128 220.661 88.6946V88.4697C220.655 88.3512 220.626 88.2351 220.575 88.128C220.524 88.0209 220.453 87.9248 220.365 87.8454C220.277 87.7659 220.174 87.7047 220.062 87.6651C219.95 87.6255 219.832 87.6084 219.714 87.6148C219.476 87.6276 219.254 87.7336 219.095 87.9098C218.935 88.0859 218.852 88.3179 218.863 88.5551V88.7801C218.874 89.0117 218.973 89.2303 219.141 89.3904C219.308 89.5505 219.531 89.6397 219.763 89.6395H219.761ZM7.1965 85.3652C7.40057 85.3644 7.59839 85.2943 7.75742 85.1664C7.91644 85.0384 8.02725 84.8602 8.07162 84.661L8.12112 84.4361C8.1474 84.3208 8.15076 84.2016 8.13095 84.0851C8.11115 83.9686 8.0686 83.8571 8.00571 83.757C7.94284 83.657 7.86087 83.5703 7.7645 83.5019C7.66812 83.4335 7.55917 83.3848 7.44397 83.3585C7.32877 83.3322 7.20947 83.3288 7.09296 83.3486C6.97644 83.3684 6.86502 83.411 6.76495 83.4739C6.66489 83.5367 6.57816 83.6187 6.5098 83.7151C6.44141 83.8115 6.39267 83.9204 6.36639 84.0356L6.31689 84.2606C6.26437 84.4926 6.30594 84.736 6.4324 84.9375C6.55887 85.1391 6.75998 85.2823 6.99179 85.3359C7.05957 85.3528 7.12894 85.3626 7.19873 85.3652H7.1965ZM218.287 76.0021C218.338 76.002 218.388 75.9975 218.438 75.9886C218.555 75.969 218.666 75.9266 218.766 75.8639C218.866 75.8011 218.953 75.7193 219.022 75.623C219.09 75.5267 219.139 75.4178 219.166 75.3026C219.192 75.1874 219.196 75.0681 219.176 74.9516L219.135 74.7266C219.118 74.6074 219.078 74.4928 219.016 74.3896C218.954 74.2864 218.871 74.1967 218.774 74.1258C218.677 74.055 218.566 74.0044 218.449 73.977C218.332 73.9497 218.21 73.9461 218.091 73.9666C217.973 73.9871 217.859 74.0312 217.758 74.0962C217.657 74.1613 217.57 74.2461 217.502 74.3455C217.434 74.4449 217.386 74.5569 217.363 74.6749C217.339 74.7929 217.339 74.9145 217.363 75.0325L217.401 75.2575C217.438 75.4665 217.547 75.6558 217.709 75.792C217.872 75.9282 218.077 76.0027 218.29 76.0021H218.287ZM10.9106 72.1575C11.0984 72.1578 11.2815 72.0995 11.4344 71.9905C11.5873 71.8816 11.7023 71.7276 11.7633 71.5501L11.8353 71.3251C11.9125 71.0993 11.8969 70.852 11.7919 70.6377C11.6868 70.4234 11.5009 70.2596 11.2751 70.1823C11.0493 70.105 10.802 70.1207 10.5877 70.2257C10.3734 70.3308 10.2095 70.5166 10.1323 70.7425L10.0603 70.9562C10.022 71.068 10.0062 71.1863 10.0136 71.3042C10.021 71.4222 10.0516 71.5375 10.1037 71.6436C10.1557 71.7498 10.2281 71.8446 10.3168 71.9227C10.4055 72.0009 10.5086 72.0608 10.6205 72.099C10.7138 72.1352 10.8128 72.155 10.9129 72.1575H10.9106ZM215.023 62.6865C215.121 62.686 215.218 62.6701 215.311 62.6393C215.537 62.5629 215.723 62.4002 215.829 62.1868C215.934 61.9734 215.951 61.7268 215.876 61.5009L215.804 61.276C215.766 61.164 215.706 61.0606 215.629 60.9716C215.551 60.8826 215.456 60.8099 215.35 60.7574C215.244 60.705 215.129 60.6739 215.011 60.666C214.893 60.6581 214.775 60.6735 214.663 60.7113C214.551 60.7491 214.448 60.8086 214.359 60.8864C214.27 60.9642 214.197 61.0587 214.145 61.1647C214.092 61.2706 214.061 61.3858 214.053 61.5037C214.045 61.6216 214.061 61.7399 214.098 61.8519L214.17 62.0769C214.231 62.2548 214.346 62.4093 214.499 62.5186C214.652 62.628 214.835 62.6867 215.023 62.6865ZM16.1074 59.4515C16.2765 59.4514 16.4422 59.4037 16.5854 59.3138C16.7286 59.2239 16.8436 59.0954 16.9172 58.9431L17.0162 58.7406C17.0716 58.6338 17.1049 58.517 17.1143 58.3971C17.1237 58.2772 17.109 58.1566 17.071 58.0425C17.0331 57.9284 16.9726 57.823 16.8932 57.7327C16.8138 57.6423 16.7171 57.5688 16.6088 57.5165C16.5005 57.4641 16.3828 57.434 16.2627 57.4279C16.1426 57.4218 16.0224 57.4399 15.9094 57.4811C15.7964 57.5222 15.6928 57.5856 15.6047 57.6675C15.5166 57.7493 15.4457 57.848 15.3964 57.9578L15.2975 58.1602C15.2312 58.2974 15.2009 58.4491 15.2093 58.6012C15.2176 58.7533 15.2645 58.9007 15.3454 59.0298C15.4263 59.1588 15.5387 59.2652 15.672 59.339C15.8052 59.4127 15.955 59.4514 16.1074 59.4515ZM209.442 50.1717C209.597 50.1714 209.75 50.1306 209.885 50.0536C210.02 49.9765 210.133 49.8657 210.213 49.732C210.292 49.5983 210.336 49.4462 210.339 49.2906C210.342 49.1351 210.305 48.9814 210.231 48.8445L210.123 48.6442C209.999 48.4549 209.809 48.3192 209.589 48.2642C209.37 48.2091 209.138 48.2387 208.939 48.3471C208.741 48.4554 208.59 48.6346 208.518 48.8489C208.445 49.0633 208.456 49.297 208.549 49.5036L208.654 49.6993C208.73 49.8405 208.843 49.9587 208.98 50.0418C209.118 50.1249 209.275 50.1697 209.435 50.1717H209.442ZM22.8405 47.5059C22.9901 47.506 23.1373 47.4688 23.2689 47.3977C23.4005 47.3267 23.5123 47.2239 23.5942 47.0987L23.7157 46.912C23.783 46.8134 23.83 46.7023 23.854 46.5853C23.878 46.4683 23.8784 46.3477 23.8553 46.2306C23.8322 46.1134 23.786 46.002 23.7195 45.9029C23.6529 45.8037 23.5672 45.7188 23.4675 45.6531C23.3677 45.5874 23.2559 45.5423 23.1385 45.5202C23.0211 45.4982 22.9005 45.4997 22.7838 45.5248C22.667 45.5498 22.5564 45.5978 22.4584 45.6661C22.3604 45.7343 22.2769 45.8214 22.2129 45.9222L22.0891 46.1134C22.0004 46.249 21.9499 46.4061 21.9431 46.568C21.9362 46.7299 21.9733 46.8907 22.0502 47.0334C22.1272 47.176 22.2413 47.2952 22.3804 47.3784C22.5195 47.4616 22.6784 47.5056 22.8405 47.5059ZM202.137 38.5748C202.303 38.5747 202.467 38.5285 202.608 38.4413C202.75 38.3541 202.865 38.2294 202.94 38.0809C203.015 37.9325 203.047 37.7661 203.033 37.6003C203.02 37.4345 202.96 37.2758 202.861 37.1418L202.726 36.9596C202.658 36.8604 202.57 36.7761 202.469 36.7114C202.367 36.6468 202.253 36.6032 202.135 36.5833C202.016 36.5634 201.894 36.5675 201.777 36.5955C201.66 36.6234 201.55 36.6747 201.453 36.7461C201.355 36.8175 201.274 36.9076 201.212 37.0112C201.151 37.1148 201.111 37.2296 201.094 37.349C201.078 37.4684 201.086 37.5898 201.117 37.7061C201.149 37.8223 201.203 37.9311 201.278 38.0259L201.41 38.2059C201.493 38.3186 201.601 38.4104 201.726 38.4741C201.85 38.5377 201.988 38.5714 202.128 38.5726L202.137 38.5748ZM31.1642 36.6041C31.2918 36.6043 31.418 36.5772 31.5343 36.5249C31.6507 36.4725 31.7545 36.396 31.8391 36.3004L31.9876 36.134C32.146 35.955 32.2268 35.7204 32.2122 35.4818C32.1977 35.2432 32.089 35.0202 31.91 34.8618C31.731 34.7034 31.4964 34.6226 31.2578 34.6371C31.0192 34.6517 30.7962 34.7604 30.6378 34.9394L30.4871 35.1104C30.3729 35.2403 30.2987 35.4003 30.2731 35.5714C30.2476 35.7424 30.2719 35.9172 30.343 36.0748C30.4142 36.2324 30.5293 36.3661 30.6746 36.46C30.8198 36.5539 30.989 36.6039 31.162 36.6041H31.1642ZM193.202 28.159C193.38 28.1596 193.555 28.107 193.703 28.0081C193.852 27.9091 193.968 27.7681 194.036 27.6032C194.104 27.4382 194.122 27.2566 194.087 27.0816C194.051 26.9065 193.965 26.746 193.838 26.6202L193.676 26.4605C193.593 26.3738 193.493 26.3047 193.383 26.2571C193.273 26.2096 193.154 26.1846 193.034 26.1836C192.914 26.1826 192.795 26.2057 192.684 26.2514C192.573 26.2972 192.472 26.3647 192.388 26.4499C192.303 26.5352 192.237 26.6366 192.192 26.748C192.147 26.8594 192.125 26.9787 192.127 27.0987C192.129 27.2188 192.155 27.3372 192.204 27.4471C192.252 27.5569 192.322 27.6559 192.41 27.7383L192.567 27.8958C192.735 28.0639 192.964 28.1586 193.202 28.159ZM40.9412 27.0342C41.1527 27.0338 41.3575 26.959 41.5193 26.8227L41.688 26.681C41.7787 26.6052 41.8536 26.5123 41.9084 26.4076C41.9632 26.3029 41.9968 26.1884 42.0074 26.0707C42.0179 25.9529 42.0052 25.8343 41.9699 25.7215C41.9346 25.6087 41.8774 25.504 41.8016 25.4133C41.7259 25.3226 41.6329 25.2477 41.5282 25.1929C41.4235 25.1381 41.3091 25.1045 41.1913 25.0939C41.0736 25.0834 40.955 25.0961 40.8422 25.1314C40.7294 25.1667 40.6247 25.2239 40.534 25.2997L40.3607 25.4459C40.2195 25.5648 40.1183 25.7243 40.0707 25.9027C40.0232 26.0811 40.0317 26.2698 40.0951 26.4432C40.1584 26.6166 40.2736 26.7663 40.425 26.872C40.5763 26.9777 40.7565 27.0343 40.9412 27.0342ZM182.765 19.3089C182.956 19.3093 183.142 19.2491 183.296 19.137C183.45 19.025 183.565 18.8669 183.624 18.6854C183.682 18.504 183.682 18.3087 183.622 18.1276C183.562 17.9465 183.447 17.789 183.292 17.6779L183.107 17.5474C183.012 17.4753 182.902 17.4231 182.786 17.3938C182.67 17.3645 182.549 17.3587 182.43 17.3769C182.312 17.395 182.198 17.4367 182.096 17.4994C181.993 17.5621 181.905 17.6446 181.835 17.7421C181.765 17.8396 181.715 17.95 181.689 18.0669C181.662 18.1839 181.659 18.305 181.68 18.4231C181.701 18.5412 181.745 18.6539 181.81 18.7546C181.875 18.8554 181.96 18.9421 182.059 19.0097L182.241 19.1402C182.395 19.2466 182.578 19.3017 182.765 19.2976V19.3089ZM52.0274 18.9894C52.1951 18.9896 52.3595 18.9428 52.502 18.8545L52.691 18.7375C52.8942 18.6122 53.0392 18.4113 53.0943 18.1791C53.1494 17.9468 53.1099 17.7022 52.9846 17.499C52.8593 17.2959 52.6584 17.1508 52.4262 17.0958C52.1939 17.0407 51.9493 17.0802 51.7462 17.2055L51.5527 17.3247C51.3863 17.4278 51.2581 17.5824 51.1875 17.7649C51.1169 17.9475 51.1077 18.1481 51.1614 18.3363C51.2151 18.5246 51.3286 18.6902 51.4849 18.808C51.6412 18.9259 51.8316 18.9896 52.0274 18.9894ZM64.1327 12.5802C64.2591 12.5794 64.3839 12.5526 64.4994 12.5015L64.7041 12.4092C64.9134 12.3066 65.0747 12.1268 65.1541 11.9077C65.2334 11.6885 65.2246 11.4472 65.1296 11.2343C65.0346 11.0215 64.8607 10.8539 64.6445 10.7667C64.4284 10.6796 64.1868 10.6796 63.9708 10.767L63.766 10.857C63.5768 10.9404 63.4221 11.0864 63.328 11.2705C63.2338 11.4545 63.2059 11.6654 63.2489 11.8676C63.2919 12.0699 63.4033 12.2511 63.5643 12.3809C63.7252 12.5107 63.926 12.581 64.1327 12.5802ZM171.022 12.2518C171.225 12.252 171.422 12.1837 171.581 12.0579C171.741 11.9321 171.853 11.7562 171.899 11.5587C171.946 11.3612 171.924 11.1538 171.838 10.97C171.752 10.7863 171.607 10.637 171.425 10.5465L171.22 10.443C171.114 10.3907 170.999 10.3599 170.881 10.3521C170.763 10.3444 170.644 10.36 170.533 10.398C170.421 10.436 170.317 10.4957 170.228 10.5737C170.139 10.6517 170.067 10.7464 170.014 10.8525C169.962 10.9585 169.931 11.0738 169.924 11.1918C169.916 11.3098 169.931 11.4282 169.969 11.5402C170.007 11.6521 170.067 11.7555 170.145 11.8444C170.223 11.9333 170.318 12.006 170.424 12.0583L170.622 12.1573C170.747 12.2154 170.884 12.2439 171.022 12.2405V12.2518ZM76.9624 7.77721C77.0525 7.77706 77.1419 7.76342 77.2279 7.73672L77.4529 7.67148C77.6799 7.60068 77.8697 7.4429 77.9807 7.23261C78.0917 7.02232 78.115 6.77662 78.0455 6.54921C77.9759 6.3218 77.8192 6.13118 77.6095 6.01899C77.3998 5.9068 77.1542 5.88218 76.9265 5.9505L76.7015 6.01799C76.496 6.0818 76.3202 6.21711 76.2059 6.3994C76.0917 6.58169 76.0465 6.79888 76.0786 7.01162C76.1107 7.22435 76.218 7.41855 76.3809 7.559C76.5439 7.69945 76.7518 7.77687 76.9669 7.77721H76.9624ZM158.332 7.07757C158.547 7.07821 158.755 7.00196 158.918 6.86259C159.082 6.72323 159.19 6.52995 159.224 6.31772C159.257 6.10548 159.213 5.88828 159.101 5.7054C158.988 5.52252 158.813 5.38603 158.609 5.3206L158.384 5.25086C158.156 5.17748 157.909 5.19739 157.697 5.30624C157.484 5.41509 157.323 5.60395 157.25 5.83127C157.177 6.05859 157.196 6.30575 157.305 6.51838C157.414 6.73102 157.603 6.8917 157.83 6.96509L158.055 7.03258C158.144 7.06266 158.238 7.07786 158.332 7.07757ZM90.2601 4.45449C90.3183 4.4541 90.3763 4.44807 90.4333 4.43649L90.6583 4.39374C90.7774 4.37466 90.8914 4.33183 90.9936 4.26779C91.0959 4.20375 91.1841 4.11981 91.2533 4.02096C91.3224 3.92212 91.371 3.81038 91.3961 3.6924C91.4212 3.57441 91.4223 3.45259 91.3994 3.33416C91.3764 3.21574 91.3299 3.10313 91.2626 3.00304C91.1953 2.90295 91.1085 2.81741 91.0075 2.75151C90.9065 2.68562 90.7932 2.6407 90.6745 2.61945C90.5557 2.59819 90.4339 2.60103 90.3163 2.62778L90.0914 2.67052C89.8711 2.71228 89.6743 2.83474 89.5396 3.01394C89.405 3.19314 89.342 3.41617 89.3631 3.63936C89.3842 3.86254 89.4879 4.06982 89.6537 4.22059C89.8197 4.37136 90.0359 4.45477 90.2601 4.45449ZM145.043 3.72561C145.269 3.72733 145.487 3.64412 145.655 3.49249C145.822 3.34086 145.926 3.13188 145.946 2.90704C145.967 2.68219 145.902 2.45789 145.765 2.27865C145.627 2.0994 145.428 1.97831 145.205 1.93939L144.98 1.89889C144.746 1.85534 144.503 1.90683 144.306 2.04205C144.11 2.17726 143.974 2.38513 143.931 2.61991C143.887 2.85468 143.939 3.09715 144.074 3.29396C144.209 3.49077 144.417 3.62581 144.652 3.66937L144.877 3.70986C144.93 3.71944 144.985 3.7247 145.039 3.72561H145.043ZM103.819 2.46581C103.85 2.46801 103.882 2.46801 103.913 2.46581L104.138 2.44331C104.256 2.43149 104.371 2.39651 104.476 2.34038C104.58 2.28424 104.673 2.20803 104.748 2.11612C104.823 2.0242 104.88 1.91838 104.914 1.80468C104.948 1.69098 104.96 1.57164 104.948 1.45347C104.936 1.3353 104.901 1.2206 104.845 1.11595C104.789 1.0113 104.713 0.91873 104.621 0.843526C104.529 0.768323 104.423 0.711957 104.309 0.677652C104.196 0.643348 104.076 0.631776 103.958 0.643593L103.733 0.666091C103.495 0.678024 103.27 0.784273 103.11 0.961466C102.95 1.13866 102.866 1.37228 102.878 1.61094C102.89 1.84959 102.996 2.07374 103.174 2.23406C103.351 2.39438 103.585 2.47774 103.823 2.46581H103.819ZM131.442 1.98663C131.681 1.99528 131.913 1.90877 132.088 1.74613C132.263 1.58349 132.366 1.35805 132.375 1.11939C132.383 0.880733 132.297 0.648418 132.134 0.473545C131.971 0.298671 131.746 0.195567 131.507 0.186916L131.282 0.171167C131.044 0.154461 130.808 0.233242 130.628 0.390186C130.447 0.547129 130.336 0.769377 130.319 1.00803C130.303 1.24669 130.382 1.48221 130.538 1.66278C130.695 1.84335 130.918 1.95418 131.156 1.97088L131.381 1.98663H131.442ZM117.494 1.63569H117.735C117.974 1.6336 118.202 1.53679 118.369 1.36656C118.536 1.19632 118.629 0.966612 118.627 0.727955C118.625 0.489298 118.528 0.261245 118.358 0.0939656C118.188 -0.0733138 117.958 -0.166116 117.719 -0.164028H117.703H117.479C117.36 -0.162846 117.244 -0.1384 117.135 -0.0920858C117.026 -0.045772 116.928 0.0215025 116.845 0.105898C116.762 0.190293 116.697 0.290155 116.653 0.399783C116.609 0.509411 116.586 0.626659 116.588 0.74483C116.589 0.863001 116.613 0.97978 116.66 1.0885C116.706 1.19723 116.773 1.29577 116.858 1.37849C116.942 1.46121 117.042 1.5265 117.151 1.57063C117.261 1.61476 117.378 1.63687 117.496 1.63569H117.494Z"
              fill="url(#paint11_linear_612_61730)"/>
        <path d="M143.097 141.516C137.784 142.578 131.77 141.089 128.7 139.041C128.025 138.591 119.476 149.84 120.376 168.287C121.276 186.734 125.1 200.682 123.75 206.756C122.401 212.83 117.002 216.429 116.777 229.477C116.552 242.525 102.491 259.681 92.3679 273.233C79.095 291.005 62.2227 313.951 59.0732 338.697C57.8022 348.677 126.562 371.767 183.366 358.157C187.436 357.182 184.378 311.926 173.468 273.345C166.874 250.03 152.519 222.706 151.871 213.505C150.184 189.546 155.815 177.463 154.346 168.287C153.446 162.663 150.071 157.938 148.272 154.114C146.472 150.29 144.222 141.291 143.097 141.516Z"
              fill="url(#paint12_linear_612_61730)"/>
        <path d="M168.989 381.072C167.559 380.897 169.41 387.117 169.518 388.688C169.648 390.539 170.868 395.149 171.606 396.001C172.344 396.854 182.417 395.207 189.9 393.151C197.202 391.142 206.419 387.491 207.238 386.305C208.057 385.12 206.3 382.762 205.58 382.137C204.86 381.511 201.701 380.337 199.814 380.089C197.225 379.738 191.205 380.863 187.891 380.436C183.34 379.851 180.397 376.447 179.709 376.27C179.02 376.092 177.18 382.083 168.989 381.072Z"
              fill="url(#paint13_linear_612_61730)"/>
        <path d="M89.7731 373.281C89.4897 372.712 83.924 375.981 80.0997 370.807C79.7217 370.296 75.3754 375.081 74.4755 376.656C73.5757 378.23 71.1011 382.28 71.1011 383.405C71.1011 384.529 79.1998 389.928 82.5743 391.953C85.9487 393.978 93.1476 398.027 97.6469 399.152C102.146 400.277 103.721 400.052 104.621 399.602C105.521 399.152 105.426 396.155 105.071 395.328C104.396 393.753 101.921 393.078 99.6715 391.278C97.4219 389.479 94.9473 386.329 93.5975 383.854C92.2477 381.38 90.223 374.181 89.7731 373.281Z"
              fill="url(#paint14_linear_612_61730)"/>
        <path d="M171.324 392.928C178.748 392.028 198.319 387.529 205.068 384.604" stroke="white" stroke-width="1.03021"
              stroke-miterlimit="10"/>
        <path d="M72.7694 381.352C78.8007 385.774 96.1657 395.875 103.081 398.359" stroke="white" stroke-width="1.03021"
              stroke-miterlimit="10"/>
        <path d="M130.522 149.073C122.649 150.704 125.197 161.185 130.48 175.32C134.689 186.581 137.998 198.624 141.685 205.872C150.582 223.365 164.226 238.697 165.475 240.699C167.853 244.523 167.275 242.845 167.828 244.469C168.532 246.557 170.804 250.644 172.834 251.358C175.254 252.206 176.501 251.508 177.783 250.581C179.122 249.581 180.167 248.238 180.809 246.694C181.385 245.362 181.708 244.741 181.6 243.527C181.567 243.133 180.566 242.699 180.185 242.454C179.322 241.9 180.579 240.769 179.103 239.698C178.316 239.09 177.475 238.555 176.591 238.1C176.334 237.983 174.705 237.858 174.435 237.727C173.371 237.214 173.137 236.602 172.199 235.887C169.826 234.069 161.934 223.365 151.489 199.524C143.141 180.46 142.801 146.527 130.522 149.073Z"
              fill="url(#paint15_linear_612_61730)"/>
        <path d="M180.476 246.392C177.001 245.508 175.501 243.823 175.501 243.823" stroke="#EAA696"
              stroke-width="1.03021" stroke-miterlimit="10" stroke-linecap="round"/>
        <path d="M178.643 249.224C176.188 248.101 174.879 247.014 174.028 245.84" stroke="#EAA696"
              stroke-width="1.03021" stroke-miterlimit="10" stroke-linecap="round"/>
        <path d="M176.627 251.033C174.812 250.157 173.438 249.616 172.746 248.313" stroke="#EAA696"
              stroke-width="1.03021" stroke-miterlimit="10" stroke-linecap="round"/>
        <path d="M179.514 242.234C176.428 241.394 174.703 240.066 174.703 240.066" stroke="#EAA696"
              stroke-width="1.03021" stroke-miterlimit="10" stroke-linecap="round"/>
        <path d="M370.739 167.924C373.979 167.409 384.75 136.263 384.082 132.054C383.745 129.946 369.504 126.5 368.137 127.316C367.039 127.971 366.879 131.912 365.707 132.097C363.129 132.508 343.285 126.792 342.029 127.953C340.286 129.564 335.649 152.294 336.021 154.638C336.392 156.982 367.693 168.408 370.739 167.924Z"
              fill="url(#paint16_linear_612_61730)"/>
        <path d="M337.691 131.609C335.642 132.754 331.14 158.585 332.067 159.878C332.994 161.172 369.22 168.38 370.862 168.123C372.505 167.867 379.026 141.114 378.333 139.778C377.641 138.441 340.157 130.232 337.691 131.609Z"
              fill="url(#paint17_linear_612_61730)"/>
        <path d="M373.482 143.818C369.444 143.95 347.686 141.208 345.121 138.556L373.482 143.818Z" fill="#6AC2BF"/>
        <path d="M371.879 149.453C367.841 149.586 349.382 147.143 343.518 144.191L371.879 149.453Z" fill="#6AC2BF"/>
        <path d="M52.6117 32.0564C52.5285 30.6189 24.1177 9.04032 21.5014 9.33502C18.8851 9.62973 -0.162636 64.0598 0.0398331 68.0507C0.242302 72.0416 31.1794 82.9118 33.5145 81.8523C35.8496 80.7927 52.8749 36.7357 52.6117 32.0564Z"
              fill="url(#paint18_linear_612_61730)"/>
        <path d="M47.3916 38.9007C43.3917 37.2494 26.1595 27.1058 24.5465 24.1768L47.3916 38.9007Z" fill="#6AC2BF"/>
        <path d="M44.6426 44.7649C40.645 43.1137 23.4105 32.9723 21.7997 30.041L44.6426 44.7649Z" fill="#6AC2BF"/>
        <path d="M42.2603 50.4546C38.2604 48.8033 30.5846 45.1139 28.9716 42.1826L42.2603 50.4546Z" fill="#6AC2BF"/>
        <path d="M19.5352 62.2253C19.2744 61.5555 18.9125 60.9296 18.4621 60.3694C17.9979 59.8046 17.4429 59.321 16.8198 58.9386C16.194 58.5681 15.5323 58.262 14.8446 58.0253C14.5094 57.9015 14.1698 57.789 13.8503 57.6653C13.5464 57.5608 13.2609 57.409 13.0044 57.2154C12.9056 57.1431 12.8266 57.0471 12.7747 56.9362C12.7229 56.8253 12.6997 56.7032 12.7075 56.581C12.7361 56.2991 12.8403 56.0302 13.0089 55.8026C13.3981 55.2769 13.8903 54.836 14.4554 54.5068C15.001 54.1516 15.6135 53.912 16.2552 53.8027C16.391 53.7846 16.5287 53.7846 16.6646 53.8027C16.7619 53.8167 16.8544 53.8537 16.9346 53.9107C16.9989 53.97 17.0417 54.0492 17.056 54.1356C17.056 54.1626 17.0561 54.1896 17.0741 54.2166C17.0921 54.2436 17.0741 54.2908 17.0741 54.3268C17.0799 54.4017 17.0799 54.4769 17.0741 54.5518C17.0596 55.1618 16.8191 55.7446 16.3992 56.1873C15.948 56.6796 15.4291 57.1053 14.8581 57.4516C14.2685 57.8214 13.6603 58.1608 13.036 58.4684C12.4083 58.7856 11.7671 59.0938 11.1327 59.447C10.973 59.537 10.8133 59.6292 10.6558 59.7305C10.4806 59.836 10.317 59.9597 10.1677 60.0994C10.0751 60.1946 10.0031 60.3078 9.95622 60.4321C9.90938 60.5564 9.88867 60.6889 9.89542 60.8216C9.91945 61.0607 10.016 61.2867 10.1721 61.4695C10.3072 61.63 10.4676 61.7676 10.6468 61.8766C10.8248 61.9866 11.0216 62.0629 11.2272 62.1016C11.3457 62.121 11.4665 62.121 11.5849 62.1016C11.6532 62.0866 11.7196 62.0639 11.7829 62.0341C11.85 61.9968 11.9095 61.9472 11.9584 61.8879C11.9809 61.8586 12.0034 61.8272 12.0236 61.7957C12.038 61.7643 12.05 61.732 12.0596 61.6989L12.0888 61.6022V61.5145C12.0954 61.4045 12.0879 61.2941 12.0664 61.186C11.9715 60.8203 11.8197 60.4719 11.6164 60.1534C11.4334 59.8418 11.2321 59.5413 11.0135 59.2535C10.5797 58.6866 10.1171 58.1423 9.62772 57.6226C10.0372 58.203 10.4398 58.7901 10.8065 59.393C10.9843 59.6967 11.162 59.9982 11.3082 60.3131C11.4647 60.6083 11.5734 60.9265 11.6299 61.2557C11.6544 61.3629 11.6375 61.4754 11.5826 61.5707C11.5826 61.5864 11.5602 61.5707 11.5534 61.5932L11.4994 61.6044C11.4418 61.6046 11.3844 61.5978 11.3285 61.5842C11.0488 61.4962 10.8044 61.3213 10.6311 61.0848C10.5588 60.9932 10.5164 60.8817 10.5096 60.7653C10.5119 60.7221 10.5231 60.6798 10.5424 60.6411C10.5618 60.6024 10.5888 60.5681 10.622 60.5404C10.7397 60.4469 10.8654 60.364 10.9978 60.2929C11.144 60.2096 11.297 60.1309 11.4477 60.0522C12.6985 59.4515 14.037 58.9116 15.2946 58.158C15.9467 57.7791 16.5383 57.3044 17.0493 56.7497C17.318 56.4523 17.5396 56.1154 17.7062 55.7509C17.8759 55.3705 17.9654 54.9593 17.9694 54.5428C17.971 54.4391 17.9657 54.3354 17.9537 54.2324C17.9537 54.1806 17.9536 54.1311 17.9379 54.0771L17.8997 53.8972C17.8342 53.6334 17.687 53.3972 17.479 53.2223C17.2747 53.0643 17.0328 52.9619 16.7771 52.9253C16.5614 52.896 16.3427 52.896 16.127 52.9253C15.7391 52.9805 15.3606 53.0887 15.0021 53.247C14.6516 53.3935 14.3156 53.5728 13.9988 53.7824C13.3464 54.188 12.785 54.7241 12.3498 55.3572C12.1052 55.7121 11.9678 56.1299 11.9539 56.5607C11.9555 56.7957 12.0126 57.0269 12.1203 57.2356C12.2303 57.4379 12.384 57.6132 12.5703 57.7485C12.8946 57.968 13.2514 58.135 13.6276 58.2435C13.9763 58.3582 14.3182 58.4549 14.6557 58.5517C15.3266 58.7321 15.9777 58.9793 16.5994 59.2896C17.2178 59.6028 17.7827 60.0121 18.2731 60.5021C18.7702 61.0164 19.1949 61.5962 19.5352 62.2253Z"
              fill="#6AC2BF"/>
        <path d="M43.6281 157.89C42.0781 156.403 9.14328 171.041 8.16919 173.379C7.19509 175.716 23.8627 216.264 34.346 221.971C36.6744 223.238 67.0986 204.467 67.7082 202.624C68.3179 200.782 63.6184 200.15 58.5252 190.807C54.7795 183.934 45.4143 159.604 43.6281 157.89Z"
              fill="url(#paint19_linear_612_61730)"/>
        <path d="M39.9291 164.015C40.8289 167.52 41.9537 171.002 43.1685 174.379C44.1314 177.033 45.3169 180.336 47.3461 182.192C48.6037 183.341 50.0614 184.498 49.7622 185.656C49.463 186.815 47.1437 186.106 46.0886 186.484C45.0335 186.862 45.4789 188.358 43.5375 188.772C41.596 189.186 40.5477 188.072 39.8413 186.891C39.1349 185.71 39.8818 184.529 40.541 183.58C41.8412 181.704 40.7659 177.598 40.1338 175.162C39.2541 171.821 38.3341 168.426 37.5332 165.038C38.5005 164.615 38.9797 164.413 39.9291 164.015Z"
              fill="url(#paint20_linear_612_61730)"/>
        <path d="M64.1421 203.102C60.268 200.16 56.8956 196.611 54.1559 192.591C51.6521 188.992 53.2943 188.22 52.5429 187.257C51.7915 186.294 50.6735 187.458 49.047 187.545C47.4205 187.633 48.0954 187.138 46.8198 187.532C45.5443 187.925 46.1854 189.23 45.2451 189.57C44.3047 189.91 43.0404 189.345 43.3441 190.245C43.6478 191.145 44.523 191.934 46.3699 192.351C49.0515 192.958 51.3191 196.303 53.2695 198.425C55.5015 200.817 57.9224 203.026 60.5089 205.029L64.1421 203.102Z"
              fill="url(#paint21_linear_612_61730)"/>
        <path d="M19.4932 172.629C21.1692 177.018 22.8677 181.74 25.7922 185.481C27.9609 188.244 28.6627 188.977 30.2217 189.42C30.7427 189.569 31.2247 189.83 31.6333 190.186C32.0419 190.542 32.3672 190.983 32.5861 191.479C32.8111 191.929 33.7627 193.893 31.9247 194.513C30.0868 195.134 29.7943 194.034 27.8596 195.049C25.9249 196.063 25.7045 197.199 24.078 197.87C22.4515 198.54 21.6034 197.645 21.2682 196.477C20.933 195.31 22.1163 194.037 22.2153 192.831C22.4403 190.23 21.0747 187.128 20.1636 184.559C18.9353 181.088 17.4641 177.585 16.2605 174.033C17.59 173.455 18.2334 173.173 19.4932 172.629Z"
              fill="url(#paint22_linear_612_61730)"/>
        <path d="M46.2739 213C43.5744 210.85 40.8478 208.645 38.4789 206.134C35.8941 203.399 36.065 202.924 35.3002 201.52C34.5353 200.117 34.2473 198.985 34.2113 197.28C34.1753 195.575 34.4363 194.607 33.8424 194.778C33.2485 194.949 32.9245 196.045 31.9099 196.11C30.8953 196.175 30.1462 195.559 28.342 196.427C26.5378 197.296 26.7965 198.416 25.8157 198.922C24.8348 199.428 23.8877 198.96 23.962 199.975C24.0362 200.989 24.043 201.847 25.4782 201.921C26.9135 201.995 29.2666 203.345 30.2025 204.069C34.2833 207.219 38.1955 211.563 42.7352 214.769C44.184 214.06 44.8791 213.704 46.2739 213Z"
              fill="url(#paint23_linear_612_61730)"/>
    </g>
    <defs>
        <linearGradient id="paint0_linear_612_61730" x1="211.309" y1="157.398" x2="209.908" y2="154.972"
                        gradientUnits="userSpaceOnUse">
            <stop stop-color="#E8B3A3"/>
            <stop offset="0.16" stop-color="#EDBAAA"/>
            <stop offset="0.61" stop-color="#F7C8B7"/>
            <stop offset="1" stop-color="#FACDBC"/>
        </linearGradient>
        <linearGradient id="paint1_linear_612_61730" x1="215.808" y1="150.137" x2="194.248" y2="150.137"
                        gradientUnits="userSpaceOnUse">
            <stop stop-color="#D1EAF1"/>
            <stop offset="0.25" stop-color="#C9E7ED"/>
            <stop offset="0.64" stop-color="#B5DEE3"/>
            <stop offset="1" stop-color="#9BD4D7"/>
        </linearGradient>
        <linearGradient id="paint2_linear_612_61730" x1="-2281.69" y1="1997.33" x2="-2303.2" y2="1998.57"
                        gradientUnits="userSpaceOnUse">
            <stop stop-color="#E8B3A3"/>
            <stop offset="0.16" stop-color="#EDBAAA"/>
            <stop offset="0.61" stop-color="#F7C8B7"/>
            <stop offset="1" stop-color="#FACDBC"/>
        </linearGradient>
        <linearGradient id="paint3_linear_612_61730" x1="-2180.12" y1="2228.73" x2="-2196.31" y2="2228.73"
                        gradientUnits="userSpaceOnUse">
            <stop stop-color="#E8B3A3"/>
            <stop offset="0.16" stop-color="#EDBAAA"/>
            <stop offset="0.61" stop-color="#F7C8B7"/>
            <stop offset="1" stop-color="#FACDBC"/>
        </linearGradient>
        <linearGradient id="paint4_linear_612_61730" x1="-2360.97" y1="2240.92" x2="-2342.58" y2="2240.71"
                        gradientUnits="userSpaceOnUse">
            <stop stop-color="#E8B3A3"/>
            <stop offset="0.16" stop-color="#EDBAAA"/>
            <stop offset="0.61" stop-color="#F7C8B7"/>
            <stop offset="1" stop-color="#FACDBC"/>
        </linearGradient>
        <linearGradient id="paint5_linear_612_61730" x1="140.907" y1="122.752" x2="140.907" y2="82.2182"
                        gradientUnits="userSpaceOnUse">
            <stop stop-color="#E8B3A3"/>
            <stop offset="0.05" stop-color="#ECB9A8"/>
            <stop offset="0.2" stop-color="#F4C4B4"/>
            <stop offset="0.41" stop-color="#F9CBBA"/>
            <stop offset="1" stop-color="#FACDBC"/>
        </linearGradient>
        <linearGradient id="paint6_linear_612_61730" x1="-24501.1" y1="8439.65" x2="-24501.1" y2="8862.63"
                        gradientUnits="userSpaceOnUse">
            <stop stop-color="#E8B3A3"/>
            <stop offset="0.16" stop-color="#EDBAAA"/>
            <stop offset="0.61" stop-color="#F7C8B7"/>
            <stop offset="1" stop-color="#FACDBC"/>
        </linearGradient>
        <linearGradient id="paint7_linear_612_61730" x1="169.305" y1="347.86" x2="172.131" y2="388.239"
                        gradientUnits="userSpaceOnUse">
            <stop stop-color="#E8B3A3"/>
            <stop offset="0.25" stop-color="#F2C1B0"/>
            <stop offset="0.56" stop-color="#F8CAB9"/>
            <stop offset="1" stop-color="#FACDBC"/>
        </linearGradient>
        <linearGradient id="paint8_linear_612_61730" x1="87.632" y1="348.044" x2="87.632" y2="380.376"
                        gradientUnits="userSpaceOnUse">
            <stop stop-color="#E8B3A3"/>
            <stop offset="0.24" stop-color="#F0BFAE"/>
            <stop offset="0.6" stop-color="#F8C9B9"/>
            <stop offset="1" stop-color="#FACDBC"/>
        </linearGradient>
        <linearGradient id="paint9_linear_612_61730" x1="-88288.7" y1="42085" x2="-89334.9" y2="39218.3"
                        gradientUnits="userSpaceOnUse">
            <stop stop-color="#E8B3A3"/>
            <stop offset="0.16" stop-color="#EDBAAA"/>
            <stop offset="0.61" stop-color="#F7C8B7"/>
            <stop offset="1" stop-color="#FACDBC"/>
        </linearGradient>
        <linearGradient id="paint10_linear_612_61730" x1="153.542" y1="108.586" x2="111.573" y2="108.586"
                        gradientUnits="userSpaceOnUse">
            <stop stop-color="#EF8093"/>
            <stop offset="0.5" stop-color="#E96B82"/>
            <stop offset="0.92" stop-color="#E25671"/>
        </linearGradient>
        <linearGradient id="paint11_linear_612_61730" x1="-168799" y1="164208" x2="-913237" y2="99339.6"
                        gradientUnits="userSpaceOnUse">
            <stop stop-color="#EF8093"/>
            <stop offset="0.5" stop-color="#E96B82"/>
            <stop offset="0.92" stop-color="#E25671"/>
        </linearGradient>
        <linearGradient id="paint12_linear_612_61730" x1="192.922" y1="227.279" x2="43.8364" y2="313.353"
                        gradientUnits="userSpaceOnUse">
            <stop stop-color="#50B3CA"/>
            <stop offset="0.27" stop-color="#4BADC8"/>
            <stop offset="0.63" stop-color="#3E9BC1"/>
            <stop offset="1" stop-color="#2A82B8"/>
        </linearGradient>
        <linearGradient id="paint13_linear_612_61730" x1="-49897.9" y1="42645.8" x2="-49836.9" y2="44424.1"
                        gradientUnits="userSpaceOnUse">
            <stop stop-color="#EF8093"/>
            <stop offset="0.5" stop-color="#E96B82"/>
            <stop offset="0.92" stop-color="#E25671"/>
        </linearGradient>
        <linearGradient id="paint14_linear_612_61730" x1="-60019.3" y1="57292.2" x2="-61882.5" y2="59475.9"
                        gradientUnits="userSpaceOnUse">
            <stop stop-color="#EF8093"/>
            <stop offset="0.5" stop-color="#E96B82"/>
            <stop offset="0.92" stop-color="#E25671"/>
        </linearGradient>
        <linearGradient id="paint15_linear_612_61730" x1="139.072" y1="211.946" x2="167.396" y2="188.163"
                        gradientUnits="userSpaceOnUse">
            <stop stop-color="#E8B3A3"/>
            <stop offset="0.37" stop-color="#F0BEAE"/>
            <stop offset="1" stop-color="#FACDBC"/>
        </linearGradient>
        <linearGradient id="paint16_linear_612_61730" x1="357.326" y1="126.385" x2="364.376" y2="170.004"
                        gradientUnits="userSpaceOnUse">
            <stop stop-color="#D1EAF1"/>
            <stop offset="0.21" stop-color="#BAE1E6"/>
            <stop offset="0.45" stop-color="#A9DADE"/>
            <stop offset="0.7" stop-color="#9ED5D9"/>
            <stop offset="1" stop-color="#9BD4D7"/>
        </linearGradient>
        <linearGradient id="paint17_linear_612_61730" x1="-29980.8" y1="35836.1" x2="-28903" y2="42504.9"
                        gradientUnits="userSpaceOnUse">
            <stop stop-color="#D1EAF1"/>
            <stop offset="0.25" stop-color="#C9E7ED"/>
            <stop offset="0.64" stop-color="#B5DEE3"/>
            <stop offset="1" stop-color="#9BD4D7"/>
        </linearGradient>
        <linearGradient id="paint18_linear_612_61730" x1="52.2106" y1="31.2998" x2="-2.91567" y2="63.1259"
                        gradientUnits="userSpaceOnUse">
            <stop stop-color="#D1EAF1"/>
            <stop offset="0.36" stop-color="#CEE9F0"/>
            <stop offset="0.59" stop-color="#C6E5EC"/>
            <stop offset="0.78" stop-color="#B7DFE5"/>
            <stop offset="0.95" stop-color="#A2D7DB"/>
            <stop offset="1" stop-color="#9BD4D7"/>
        </linearGradient>
        <linearGradient id="paint19_linear_612_61730" x1="-104740" y1="81210" x2="-114945" y2="92295.7"
                        gradientUnits="userSpaceOnUse">
            <stop stop-color="#50B3CA"/>
            <stop offset="0.27" stop-color="#4BADC8"/>
            <stop offset="0.63" stop-color="#3E9BC1"/>
            <stop offset="1" stop-color="#2A82B8"/>
        </linearGradient>
        <linearGradient id="paint20_linear_612_61730" x1="1905.16" y1="44581.2" x2="1410.63" y2="44821.4"
                        gradientUnits="userSpaceOnUse">
            <stop stop-color="#D1EAF1"/>
            <stop offset="0.36" stop-color="#CEE9F0"/>
            <stop offset="0.59" stop-color="#C6E5EC"/>
            <stop offset="0.78" stop-color="#B7DFE5"/>
            <stop offset="0.95" stop-color="#A2D7DB"/>
            <stop offset="1" stop-color="#9BD4D7"/>
        </linearGradient>
        <linearGradient id="paint21_linear_612_61730" x1="-12746.8" y1="41537.7" x2="-13840" y2="42068.5"
                        gradientUnits="userSpaceOnUse">
            <stop stop-color="#D1EAF1"/>
            <stop offset="0.36" stop-color="#CEE9F0"/>
            <stop offset="0.59" stop-color="#C6E5EC"/>
            <stop offset="0.78" stop-color="#B7DFE5"/>
            <stop offset="0.95" stop-color="#A2D7DB"/>
            <stop offset="1" stop-color="#9BD4D7"/>
        </linearGradient>
        <linearGradient id="paint22_linear_612_61730" x1="-4743.88" y1="48886.7" x2="-5577.02" y2="49291.2"
                        gradientUnits="userSpaceOnUse">
            <stop stop-color="#D1EAF1"/>
            <stop offset="0.36" stop-color="#CEE9F0"/>
            <stop offset="0.59" stop-color="#C6E5EC"/>
            <stop offset="0.78" stop-color="#B7DFE5"/>
            <stop offset="0.95" stop-color="#A2D7DB"/>
            <stop offset="1" stop-color="#9BD4D7"/>
        </linearGradient>
        <linearGradient id="paint23_linear_612_61730" x1="-15021.3" y1="46301.9" x2="-16336.4" y2="46940.5"
                        gradientUnits="userSpaceOnUse">
            <stop stop-color="#D1EAF1"/>
            <stop offset="0.36" stop-color="#CEE9F0"/>
            <stop offset="0.59" stop-color="#C6E5EC"/>
            <stop offset="0.78" stop-color="#B7DFE5"/>
            <stop offset="0.95" stop-color="#A2D7DB"/>
            <stop offset="1" stop-color="#9BD4D7"/>
        </linearGradient>
        <clipPath id="clip0_612_61730">
            <rect width="411.959" height="400" fill="white" transform="matrix(-1 0 0 1 411.959 0)"/>
        </clipPath>
    </defs>
</svg>
