<svg width="189" height="333" viewBox="0 0 189 333" fill="none" xmlns="http://www.w3.org/2000/svg">
<path d="M180.432 60.7162L176.574 53L172.716 60.7162L165 64.5744L172.716 68.4325L176.574 76.1487L180.432 68.4325L188.148 64.5744L180.432 60.7162Z" fill="white"/>
<path opacity="0.2" d="M140.155 12.0776L134.116 0L128.077 12.0776L116 18.1164L128.077 24.1552L134.116 36.2328L140.155 24.1552L152.232 18.1164L140.155 12.0776Z" fill="white"/>
<g opacity="0.2">
<rect x="131" y="259" width="74" height="74" rx="8" transform="rotate(90 131 259)" fill="#F1E1FD"/>
</g>
<g opacity="0.2">
<rect x="73" y="205" width="74" height="73" rx="8" transform="rotate(90 73 205)" fill="white"/>
</g>
<g clip-path="url(#clip0_1411_13234)">
<path d="M0 56H137C141.418 56 145 59.5817 145 64V190C145 194.418 141.418 198 137 198H0V56Z" fill="#E0F5F4" fill-opacity="0.6"/>
<g clip-path="url(#clip1_1411_13234)">
<path d="M36.1647 137.419C42.4143 132.545 50.7688 145.048 54.2302 145.252C56.0217 145.359 63.7995 141.339 66.6962 140.085C67.084 139.918 69.8601 142.509 69.8109 143.42C69.7385 144.665 61.1971 155.849 52.7823 155.957C46.16 156.042 42.1319 152.706 39.6854 150.155C35.0846 145.374 31.6443 140.948 36.1647 137.419Z" fill="url(#paint0_linear_1411_13234)"/>
<path d="M35.4632 133.212C32.1476 133.191 32.2089 131.958 29.5352 132.342C28.9163 132.431 28.4209 131.876 27.4644 131.696C26.5079 131.515 25.9302 132.015 25.3665 132.021C24.7395 132.028 24.2552 131.436 23.5288 131.361C22.7471 131.28 21.7353 131.193 21.4268 130.764C20.9948 130.162 21.6459 129.691 21.465 129.145C21.2319 128.441 21.042 128.098 21.0631 127.501C21.0842 126.903 21.7866 126.373 22.0498 125.877C22.1985 125.595 22.1432 124.448 22.4216 124.094C22.7491 123.677 23.4173 123.022 23.6474 122.595C24.0724 121.798 24.2844 120.141 24.5958 119.749C27.384 116.245 26.9389 111.65 32.3867 111.073C39.2049 110.352 41.2989 113.585 42.4855 115.504C43.6721 117.422 43.1948 119.585 44.6698 121.345C44.9883 121.724 45.1199 123.445 45.5881 124.095C46.0905 124.796 46.8612 125.513 47.0189 125.898C47.242 126.443 47.0651 127.082 47.1656 127.593C47.2942 128.25 47.6529 128.964 47.4801 129.489C47.2992 130.035 46.5698 130.385 45.772 130.694C45.4284 130.826 45.0466 131.556 44.5221 131.834C43.9976 132.112 43.225 131.937 42.7296 131.888C42.2122 131.837 41.2757 132.895 40.7854 132.978C39.9444 133.119 39.0683 132.474 38.5981 132.594C37.0256 132.998 36.5645 133.219 35.4632 133.212Z" fill="#6D483D"/>
<path d="M38.0184 130.399C37.516 136.76 39.2944 136.76 41.0859 138.032C41.5209 138.34 38.8142 143.934 32.5907 141.39C26.1261 138.748 25.2409 137.977 27.8905 137.014C29.8779 136.289 31.9939 134.877 31.4855 130.399H38.0184Z" fill="url(#paint1_linear_1411_13234)"/>
<path d="M42.7111 122.273C42.5694 119.187 35.0589 114.95 32.3732 114.996C30.3054 115.033 29.7809 116.05 28.6265 118.185C27.9151 119.5 27.2459 122.491 27.2459 122.491C27.2459 122.491 26.8159 121.976 25.9528 122.123C24.6095 122.352 24.5371 123.78 24.5371 124.824C24.5371 127.245 26.5758 127.544 27.0239 127.43C27.1143 127.407 28.9329 132.197 35.1232 132.156C39.2196 132.128 41.7084 128.48 42.0148 127.177C42.2208 126.299 42.8176 124.608 42.7111 122.273Z" fill="url(#paint2_linear_1411_13234)"/>
<path d="M41.7011 137.695C44.6148 138.997 48.3827 144.306 49.1161 158.128C50.4555 183.364 50.141 180.613 50.141 182.143C50.141 183.262 44.3727 183.364 44.3727 182.957C44.3727 182.551 44.8891 158.097 42.9178 150.546C40.9113 142.864 41.7011 137.695 41.7011 137.695Z" fill="url(#paint3_linear_1411_13234)"/>
<path d="M49.2321 206.756C45.3056 206.201 41.3951 205.56 37.5288 204.834C35.8388 204.517 34.1595 204.183 32.4909 203.833C32.3342 201.799 32.2257 199.942 32.1765 198.337C32.06 194.478 31.7246 190.629 31.1717 186.806C30.9949 185.584 30.808 184.453 30.6251 183.418C30.3448 181.836 30.0705 180.477 29.8424 179.352C29.7419 178.839 29.6415 178.377 29.5631 177.961C29.544 177.864 29.5259 177.772 29.5088 177.682C29.4797 177.527 29.4516 177.38 29.4275 177.242C29.2647 176.333 29.2074 175.76 29.3209 175.54C29.3323 175.514 29.3507 175.491 29.3742 175.474C29.3977 175.457 29.4254 175.446 29.4546 175.443C29.5902 175.429 30.0132 175.415 30.6442 175.4C31.2089 175.386 31.9414 175.373 32.7843 175.359C34.7245 175.328 37.2485 175.297 39.6629 175.268L44.4073 175.219L47.6225 175.188C47.6306 175.443 47.6406 175.717 47.6527 176.008C47.723 177.793 47.8596 180.24 48.0234 183.054C48.4414 190.219 49.0453 199.758 49.2321 206.756Z" fill="url(#paint4_linear_1411_13234)"/>
<path d="M20.9208 201.077L21.9838 201.352C25.4 202.245 28.9046 203.067 32.4704 203.815C34.137 204.165 35.8163 204.498 37.5083 204.816C38.3121 197.788 39.2977 189.308 39.8132 182.917C39.9357 181.389 40.0322 179.98 40.0935 178.74C40.1116 178.372 40.1266 178.02 40.1377 177.683C40.1688 176.793 40.1759 176.016 40.1558 175.373H39.6534C38.5602 175.367 35.8183 175.353 32.7588 175.343L30.6167 175.336H29.2834C27.8556 175.336 26.47 175.336 25.2432 175.336H25.0423C24.355 175.336 23.7261 175.336 23.1765 175.342C21.9888 175.349 21.177 175.36 20.9841 175.38C20.7329 175.405 20.5048 175.948 20.3119 176.971C20.2349 177.377 20.1635 177.859 20.0979 178.417C19.9743 179.464 19.8718 180.77 19.7965 182.321C19.704 184.217 19.6498 186.478 19.6427 189.073C19.6337 191.84 19.6779 194.987 19.7854 198.479C19.8075 199.208 19.8316 199.99 19.8558 200.819L20.9208 201.077Z" fill="url(#paint5_linear_1411_13234)"/>
<path d="M26.9385 137.4C27.3534 137.266 29.3931 136.505 30.1899 135.67C31.2067 134.604 30.9937 133.428 31.3433 133.428C32.75 133.428 37.824 133.349 38.0551 133.525C38.5795 133.932 38.1555 134.95 38.9995 135.967C39.8435 136.985 41.0412 137.722 41.3748 138.21C45.9213 144.824 48.0453 171.638 48.0453 175.199C48.0453 178.761 29.4574 177.692 29.4574 177.692L26.9385 137.4Z" fill="url(#paint6_linear_1411_13234)"/>
<path d="M26.7502 137.35C29.4007 137.143 38.2656 142.947 38.3772 157.702C38.4887 172.457 41.2558 182.124 40.1486 182.836C39.0413 183.548 26.8607 184.058 18.3344 182.022C17.2291 181.759 18.6659 183.141 20.1057 167.776C21.5456 152.41 20.2123 137.859 26.7502 137.35Z" fill="url(#paint7_linear_1411_13234)"/>
<path d="M44.1548 147.17C44.1407 146.3 42.504 142.567 41.5425 142.296C40.5809 142.025 34.2861 144.52 34.2861 145.485C34.2861 145.791 36.383 149.25 36.4885 150.164C36.6172 151.321 44.1699 148.088 44.1548 147.17Z" fill="url(#paint8_linear_1411_13234)"/>
<path d="M44.4491 148.234C44.3486 145.385 43.2946 144.367 43.4001 144.062C43.5056 143.756 46.4415 143.146 46.8605 143.248C47.2795 143.349 48.1194 146.504 47.9094 146.809C47.6995 147.114 44.4491 148.234 44.4491 148.234Z" fill="url(#paint9_linear_1411_13234)"/>
<path d="M48.3006 146.214C46.7734 145.713 36.6063 148.479 36.2436 149.539C35.8808 150.599 35.6407 169.898 36.3651 170.489C37.0895 171.079 48.0414 166.62 48.5116 165.672C48.9818 164.723 49.1808 146.503 48.3006 146.214Z" fill="url(#paint10_linear_1411_13234)"/>
<path d="M44.1133 158.525C45.6948 158.026 45.9218 157.866 46.3639 157.55C46.806 157.233 46.6804 156.021 47.016 155.648C47.3516 155.274 47.9997 153.909 48.3302 154.073C48.6116 154.213 48.5151 155.176 48.3463 155.497C48.1775 155.819 48.2539 156.292 48.2539 156.292C48.2539 156.292 49.118 155.728 49.3028 155.867C50.2463 156.58 50.0373 158.818 49.8273 159.836C49.7349 160.284 49.6173 160.242 48.5684 160.446C47.7857 160.598 47.5254 161.297 46.0565 161.973L44.1133 158.525Z" fill="url(#paint11_linear_1411_13234)"/>
<path d="M26.3584 137.348C31.347 137.092 27.6104 152.991 30.1936 155.816C35.9619 162.125 43.3558 158.263 45.1644 157.699C46.4655 157.291 47.3608 160.345 47.3748 161.362C47.404 162.991 43.1549 166.587 36.9967 167.366C26.5343 168.689 18.9835 168.18 17.816 156.223C16.9188 147.007 20.6343 137.64 26.3584 137.348Z" fill="url(#paint12_linear_1411_13234)"/>
<path d="M38.1769 150.372C39.2845 149.817 40.5114 149.523 41.7578 149.516C42.0382 149.516 41.6523 152.568 42.9113 152.873C43.1986 152.943 41.5478 154.501 38.7164 154.095C38.5637 154.072 37.982 153.077 37.9036 152.393C37.781 151.322 38.0021 150.463 38.1769 150.372Z" fill="url(#paint13_linear_1411_13234)"/>
<path d="M53.164 178.05C52.8626 180.521 51.6569 183.463 51.3605 184.521C51.0641 185.58 52.2647 187.816 53.164 189.11C54.0632 190.405 56.6213 189.11 57.2222 189.11C57.823 189.11 57.3729 186.522 58.4279 184.639C59.4829 182.757 57.5236 178.756 57.3759 177.815C57.2282 176.874 53.164 178.05 53.164 178.05Z" fill="url(#paint14_linear_1411_13234)"/>
<path d="M93.6431 159.886H82.4904V140.406H93.6431V159.886Z" fill="url(#paint15_linear_1411_13234)"/>
<path d="M75.7666 118.606C75.7666 122.231 75.3204 124.721 72.4368 125.421C69.1503 126.218 73.963 133.964 78.4251 133.964C82.8872 133.964 90.244 126.222 88.1712 125.307C84.2969 123.598 83.2339 123.427 83.9282 118.438C83.9764 118.074 75.7666 118.606 75.7666 118.606Z" fill="url(#paint16_linear_1411_13234)"/>
<path d="M73.3962 125.754C73.6313 127.801 76.097 131.791 79.0318 131.906C81.9667 132.02 86.1927 127.691 86.3103 126.665C86.4278 125.64 88.1892 131.222 87.8365 134.298C87.4838 137.374 86.6629 143.981 86.6629 143.981L72.4567 145.119C72.4567 145.119 71.6348 138.284 72.1051 134.98C72.5753 131.676 73.3962 125.754 73.3962 125.754Z" fill="url(#paint17_linear_1411_13234)"/>
<path d="M62.0459 201.103C61.9715 195.982 61.9454 191.907 61.9806 188.564C62.0047 186.23 62.058 184.254 62.1434 182.528C62.2167 181.03 62.3152 179.721 62.4448 178.531C62.4548 178.44 62.4649 178.349 62.4749 178.256C62.5232 177.851 62.5834 177.427 62.6548 176.988C62.7553 176.361 62.8778 175.703 63.0165 175.029C63.1551 174.354 63.3099 173.664 63.4737 172.969C64.6281 168.082 66.2608 163.097 66.2608 163.097C69.1415 163.497 71.166 164.005 72.9927 164.441L73.2519 164.503C73.6136 164.588 73.9693 164.67 74.323 164.748C76.1587 165.151 77.9612 165.431 80.463 165.375C80.9654 165.364 81.4869 165.334 82.0274 165.286C83.0151 165.2 84.056 165.057 85.106 164.886C87.1718 164.548 89.2717 164.097 91.0652 163.725C93.351 163.251 95.1384 162.908 95.7252 163.097C96.2507 163.267 96.7842 166.49 97.2474 170.799C97.3077 171.359 97.3666 171.937 97.4243 172.531C97.4825 173.135 97.5398 173.755 97.5961 174.383L97.6172 174.63C97.6232 174.694 97.6282 174.759 97.6342 174.825C97.6758 175.301 97.716 175.781 97.7548 176.266C97.7836 176.63 97.8124 176.995 97.8412 177.361C97.8586 177.578 97.8754 177.796 97.8915 178.015C97.8965 178.074 97.9005 178.135 97.9045 178.195L97.9106 178.268C98.011 179.6 98.1005 180.936 98.1818 182.236C98.1818 182.312 98.1909 182.389 98.1959 182.465C98.3265 184.598 98.431 186.628 98.4973 188.38C98.5626 190.018 98.5978 191.413 98.5978 192.423C98.5978 192.883 98.5898 193.389 98.5757 193.933C98.5064 196.593 98.2743 200.172 98.014 203.86C97.3107 203.456 96.6295 203.071 95.9603 202.705C90.7939 199.878 86.4383 198.19 80.035 198.209C79.834 196.755 79.6964 195.841 79.6964 195.841C79.6964 195.841 79.4161 196.752 79.0604 198.225C74.8665 198.346 69.7905 199.166 63.1049 200.829L62.0459 201.103Z" fill="url(#paint18_linear_1411_13234)"/>
<path d="M52.4605 179.34C51.5823 177.067 54.5112 150.158 56.7568 140.399C57.4461 137.407 60.2986 130.956 65.5454 128.745C67.6363 127.868 70.3119 126.231 71.6031 125.775C72.8942 125.319 74.5389 124.177 74.6545 123.95C74.77 123.723 73.2478 130.443 73.4809 137.392C73.714 144.341 75.0072 188.993 75.2423 189.452C75.4774 189.911 68.6672 190.251 65.1455 189.568C61.6238 188.884 58.688 186.72 58.2187 186.265C57.7495 185.81 57.3948 187.519 57.8309 180.762C57.9294 179.243 52.4605 179.34 52.4605 179.34Z" fill="url(#paint19_linear_1411_13234)"/>
<path d="M71.3347 144.041C71.6653 143.586 87.8418 141.763 88.2829 142.105C88.724 142.447 91.7171 167.394 91.3846 168.077C91.052 168.761 74.1028 170.125 73.6617 169.558C73.2206 168.992 71.3347 144.041 71.3347 144.041Z" fill="url(#paint20_linear_1411_13234)"/>
<path d="M60.354 173.727C60.5891 173.613 62.1626 174.808 64.6986 175.663C67.3984 176.575 70.2157 176.689 70.3332 176.802C70.4508 176.915 70.0981 179.309 69.864 179.651C69.6299 179.993 65.5195 179.537 63.6416 178.739C61.4241 177.798 59.7673 176.916 59.6497 176.575C59.5321 176.234 60.144 173.829 60.354 173.727Z" stroke="#D0CFD0" stroke-width="0.0818805" stroke-miterlimit="10" stroke-linecap="round"/>
<path d="M85.2638 165.406C83.62 165.861 83.6201 166.203 81.2719 166.088C78.9238 165.973 74.1101 164.835 73.7584 164.723C73.4067 164.611 70.5884 162.786 70.3533 162.217C70.1182 161.647 70.1182 160.052 70.3533 159.027C70.5884 158.001 71.1902 156.219 71.8795 155.952C72.4663 155.724 73.7473 156.993 74.1101 157.205C75.2846 157.887 77.8668 158.343 77.8668 158.343C77.8668 158.343 77.6327 157.319 77.2801 156.979C76.9274 156.638 76.3939 155.446 76.6933 155.153C77.0449 154.811 78.4546 156.292 79.0414 156.634C79.6282 156.977 79.9808 158.571 80.6852 158.799C81.3895 159.027 81.7412 159.14 83.9717 159.14L85.2638 165.406Z" fill="url(#paint21_linear_1411_13234)"/>
<path d="M101.249 163.632L101.379 163.561C101.393 163.553 101.402 163.526 101.405 163.487C102.611 163.13 109.069 156.078 109.069 146.872C109.069 141.12 105.675 135.587 101.24 131.915C97.0627 128.457 92.5152 126.937 90.6373 126.254C86.1511 124.622 84.5324 122.836 84.4149 122.836C84.4149 122.836 85.9401 130.804 86.0587 133.886C86.1772 136.967 85.6969 141.658 85.4709 142.316C85.4126 142.486 87.5125 142.065 88.1124 142.259C88.465 142.372 90.6956 156.726 90.2163 157.91C89.2437 158.213 88.6278 158.276 87.7145 158.372C86.977 158.415 86.1792 158.446 85.4267 158.47C83.7065 158.45 82.4787 158.245 82.3009 158.372C81.8317 158.714 81.9331 167.215 82.3009 167.257C82.329 167.285 82.4767 167.297 82.7138 167.298C84.7444 167.466 87.7245 167.449 91.1648 166.859C91.2733 166.879 91.3346 168.126 91.2824 168.224C91.0473 168.68 83.8864 169.307 83.8864 169.307C83.8864 169.307 84.0371 177.279 83.9447 180.128C83.8271 183.773 84.2983 190.232 84.8841 190.267C90.6373 190.609 93.9761 189.839 96.1544 189.243C100.516 188.046 103.551 185.141 103.786 184.572C104.02 184.002 103.082 178.306 102.612 175.003C102.267 172.587 101.042 164.727 101.249 163.632Z" fill="url(#paint22_linear_1411_13234)"/>
<path d="M91.1103 157.627L91.058 157.404C94.0653 156.736 96.2828 154.612 97.3066 151.425C98.455 147.85 97.7899 143.793 95.6899 141.569L95.8628 141.416C98.017 143.696 98.7022 147.841 97.5307 151.494C96.4827 154.761 94.2029 156.938 91.1103 157.627Z" stroke="#D0CFD0" stroke-width="0.0818805" stroke-miterlimit="10" stroke-linecap="round"/>
<path d="M88.4484 177.902C88.4442 177.683 88.4688 177.465 88.5218 177.253C88.563 177.129 88.6223 177.058 88.7137 177.046C89.4281 176.93 91.939 176.346 93.9846 175.795C94.7388 175.591 95.4774 175.336 96.1951 175.033C96.7286 174.809 97.1938 174.582 97.5877 174.379L97.7474 174.296C97.9976 174.163 98.2156 174.043 98.3985 173.941L98.4246 173.926C98.8356 173.699 98.9702 173.627 99.0627 173.627C99.1551 173.627 99.3108 173.627 99.6745 174.834C99.775 175.16 99.8755 175.537 99.9358 175.829C99.9697 175.966 99.9919 176.106 100.002 176.247C100.002 176.394 99.8594 176.689 99.5188 177.056C99.0488 177.539 98.5032 177.947 97.9022 178.265L97.8901 178.271C97.1921 178.651 96.4571 178.963 95.6957 179.202C95.4455 179.283 95.1933 179.359 94.9361 179.43C92.9588 179.977 90.893 180.222 89.7174 180.222C89.202 180.222 88.8574 180.175 88.7659 180.087C88.5801 179.904 88.4344 178.719 88.4484 177.902ZM88.9337 179.926C89.1749 180.083 92.0746 180.009 95.0004 179.175C95.2084 179.116 95.4154 179.053 95.6224 178.986C96.4095 178.739 97.1676 178.412 97.8841 178.011L97.9132 177.995C98.3444 177.752 98.747 177.464 99.1139 177.137C99.5781 176.713 99.769 176.375 99.769 176.248C99.76 176.12 99.7398 175.992 99.7087 175.866C99.565 175.21 99.2063 174.038 99.0446 173.862C98.9692 173.89 98.7612 174.005 98.5422 174.126L98.3563 174.228C98.1614 174.337 97.9353 174.46 97.6791 174.592L97.6098 174.627C97.1918 174.842 96.6985 175.078 96.1348 175.31C95.4553 175.589 94.7579 175.825 94.0469 176.017C91.9761 176.576 89.5255 177.146 88.768 177.27C88.7137 177.339 88.6876 177.588 88.6846 177.907C88.6745 178.643 88.785 179.763 88.9337 179.926Z" stroke="#D0CFD0" stroke-width="0.0818805" stroke-miterlimit="10" stroke-linecap="round"/>
<path d="M72.4806 145.243C71.9189 145.471 70.976 145.471 71.1686 145.129" stroke="url(#paint23_linear_1411_13234)" stroke-width="0.245642" stroke-linecap="round" stroke-linejoin="round"/>
<path d="M72.7375 148.216C72.1747 148.444 71.2329 148.444 71.4255 148.103" stroke="url(#paint24_linear_1411_13234)" stroke-width="0.245642" stroke-linecap="round" stroke-linejoin="round"/>
<path d="M72.923 151.282C72.3603 151.51 71.4234 151.51 71.611 151.168" stroke="url(#paint25_linear_1411_13234)" stroke-width="0.245642" stroke-linecap="round" stroke-linejoin="round"/>
<path d="M73.1828 154.459C72.6211 154.685 71.6832 154.685 71.8708 154.345" stroke="url(#paint26_linear_1411_13234)" stroke-width="0.245642" stroke-linecap="round" stroke-linejoin="round"/>
<path d="M74.0851 165.171C73.5224 165.399 72.5805 165.399 72.7731 165.058" stroke="url(#paint27_linear_1411_13234)" stroke-width="0.245642" stroke-linecap="round" stroke-linejoin="round"/>
<path d="M74.4933 168.404C73.9306 168.631 72.9887 168.631 73.1813 168.29" stroke="url(#paint28_linear_1411_13234)" stroke-width="0.245642" stroke-linecap="round" stroke-linejoin="round"/>
<path d="M75.0768 142.461C74.49 142.347 74.0208 142.461 73.9032 142.575C73.7857 142.689 74.2047 145.785 74.3725 146.106C74.49 146.335 75.547 146.106 75.547 145.993C75.547 145.765 75.0768 142.461 75.0768 142.461Z" fill="url(#paint29_linear_1411_13234)"/>
<path d="M74.8801 148.258C75.2562 147.893 76.3385 147.939 76.5742 147.985C76.8431 148.036 77.0918 149.491 76.8561 149.719C76.6204 149.947 75.2512 150.084 75.0687 149.902C74.8861 149.72 74.6915 148.441 74.8801 148.258Z" stroke="url(#paint30_linear_1411_13234)" stroke-width="0.163761" stroke-miterlimit="10"/>
<path d="M86.517 150.041C85.7262 149.904 80.9758 150.594 80.4483 151.009C79.9208 151.425 80.7125 156.124 80.8441 156.538C80.9758 156.952 86.9129 155.985 87.1741 155.708C87.4353 155.431 86.517 150.041 86.517 150.041Z" fill="url(#paint31_linear_1411_13234)"/>
<path d="M87.6799 150.983C86.8881 150.844 82.1386 151.536 81.6111 151.95C81.0836 152.364 81.8754 157.064 82.007 157.48C82.1386 157.895 88.0757 156.926 88.337 156.65C88.5982 156.374 87.6799 150.983 87.6799 150.983Z" fill="url(#paint32_linear_1411_13234)"/>
<path d="M57.5297 180.077H57.5246C57.4994 180.076 57.4759 180.064 57.4587 180.046C57.4416 180.028 57.4321 180.005 57.4322 179.98C58.035 169.004 59.7893 148.36 61.0493 142.257C61.0486 142.242 61.0515 142.227 61.0575 142.214C61.0636 142.2 61.0729 142.188 61.0845 142.179C61.0961 142.169 61.1098 142.162 61.1246 142.158C61.1394 142.155 61.1549 142.154 61.1699 142.157C61.1849 142.16 61.1989 142.167 61.211 142.176C61.2231 142.185 61.2329 142.196 61.2397 142.21C61.2465 142.223 61.2501 142.237 61.2502 142.252C61.2502 142.267 61.2468 142.282 61.2402 142.295C59.9843 148.389 58.235 169.019 57.6291 179.991C57.6264 180.014 57.6148 180.036 57.5964 180.052C57.5781 180.068 57.5543 180.077 57.5297 180.077Z" stroke="#D0CFD0" stroke-width="0.0818805" stroke-miterlimit="10" stroke-linecap="round"/>
<path d="M71.7936 104.221C71.2752 106.09 71.2189 106.891 71.4922 108.793C71.6218 109.684 70.9717 109.443 70.7517 111.028C70.4924 112.896 70.9526 113.963 71.3867 114.067C71.876 114.185 71.8539 116.837 72.0488 117.306C72.6044 118.641 75.7192 120.978 79.7412 120.998C86.2098 121.032 86.8358 118.635 87.2246 117.434C87.6134 116.233 87.7431 114.614 88.0033 114.614C88.2635 114.614 90.7543 114.498 90.8839 112.096C91.0135 109.693 89.9485 109.159 89.0402 109.159C88.5217 109.159 88.0626 104.355 87.6737 103.821C87.2849 103.286 85.0192 102.086 80.2205 101.953C75.4218 101.819 71.7936 104.221 71.7936 104.221Z" fill="url(#paint33_linear_1411_13234)"/>
<path d="M88.4564 105.304C88.2273 103.969 86.678 102.444 86.0068 101.852C85.3356 101.259 82.6901 100.18 80.3089 100.146C77.6905 100.112 76.8706 100.131 74.8571 100.982C72.2909 102.067 71.4178 104.62 71.1505 105.682C70.8491 106.893 71.4108 111.544 71.4108 111.544C71.4108 111.544 70.9084 109.227 73.16 107.711C73.8764 107.223 78.0612 109.251 79.702 109.51C81.8019 109.842 86.1485 111.416 87.8073 111.595C88.6855 111.689 88.6855 106.638 88.4564 105.304Z" fill="url(#paint34_linear_1411_13234)"/>
<path d="M105.712 134.361C106.048 136.911 105.474 143.482 105.084 144.063C104.711 144.619 116.221 141.774 115.456 140.925C114.69 140.076 112.66 134.458 112.606 133.344C112.552 132.23 105.712 134.361 105.712 134.361Z" fill="url(#paint35_linear_1411_13234)"/>
<path d="M103.385 117.881C101.476 119.209 101.031 120.85 100.49 122.054C99.5597 124.124 99.5627 127.68 99.5597 129.114C99.5597 130.441 100.381 134.104 102.131 134.847C103.78 135.547 106.901 135.272 108.105 134.262C109.309 133.252 111.794 129.75 111.082 126.462C110.371 123.175 110.229 123.44 108.096 119.668C105.963 115.896 103.385 117.881 103.385 117.881Z" fill="url(#paint36_linear_1411_13234)"/>
<path d="M98.3548 199.106C99.024 199.471 99.7062 199.856 100.409 200.26C102.332 201.364 104.402 202.6 106.749 203.947C107.625 204.449 108.542 204.966 109.501 205.499C108.679 201.249 107.954 198.004 108.395 197.408C108.955 196.656 109.858 194.125 110.557 191.12C111.209 188.314 111.682 185.092 111.527 182.522C111.41 180.542 110.919 178.948 109.851 178.232C109.835 178.219 109.819 178.21 109.803 178.199C109.083 177.739 107.392 176.925 105.702 176.26C104.194 175.666 102.694 175.188 101.884 175.188C101.423 175.188 100.997 176.599 100.612 178.722L100.587 178.857C100.268 180.643 99.9775 182.907 99.7183 185.248C99.5435 186.828 99.3827 188.443 99.237 189.97C98.8924 193.577 98.6342 196.682 98.4704 197.672C98.4262 197.939 98.388 198.429 98.3548 199.106Z" fill="url(#paint37_linear_1411_13234)"/>
<path d="M106.75 203.972C107.626 204.474 108.543 204.991 109.502 205.524C109.926 205.759 110.359 205.997 110.802 206.238C114.513 208.253 117.809 209.23 120.684 209.417C121.042 202.696 121.478 195.425 121.86 191.035C121.961 189.891 122.056 188.941 122.147 188.249C122.496 185.571 122.135 181.822 121.65 179.566C121.45 178.617 121.22 177.932 121.016 177.701C120.615 177.246 112.293 177.478 110.227 178.036C110.084 178.077 109.955 178.155 109.853 178.261C109.217 178.882 108.88 180.601 108.647 182.736C108.36 185.311 108.218 188.488 107.869 191.022C107.769 191.785 107.641 192.49 107.49 193.106C107.122 194.593 106.884 198.838 106.75 203.972Z" fill="url(#paint38_linear_1411_13234)"/>
<path d="M105.271 143.387C104.698 143.358 101.524 151.283 101.445 153.736C101.33 157.294 102.221 158.473 102.287 160.435C102.401 163.868 100.521 169.231 100.224 176.216C99.9506 182.637 108.061 183.052 109.512 182.637C111.229 182.15 115.557 183.417 117.851 182.562C120.145 181.707 122.258 180.205 122.674 176.197C122.861 174.385 121.684 170.25 122.029 164.605C122.374 158.959 121.684 154.67 120.766 150.746C119.848 146.822 116.061 140.689 115.486 140.934C114.88 141.193 109.82 143.619 105.271 143.387Z" fill="url(#paint39_linear_1411_13234)"/>
<path d="M97.3319 175.816C97.352 175.729 97.3731 175.645 97.3952 175.562C97.5221 175.039 97.7004 174.528 97.9277 174.038C98.0246 173.832 98.1434 173.636 98.2824 173.453L98.1568 173.429C98.2693 172.878 98.3939 172.297 98.5295 171.69C98.5496 171.599 98.5697 171.507 98.5908 171.416C98.7516 170.705 98.9274 169.961 99.1183 169.192C99.2801 168.537 99.4519 167.863 99.6348 167.176C100.32 164.588 101.15 161.796 102.089 159.05C102.692 157.279 103.351 155.526 104.048 153.859C106.491 148.009 108.964 144.305 111.429 142.795C111.545 142.723 111.662 142.656 111.778 142.596C112.306 142.308 112.886 142.121 113.486 142.044C113.672 142.022 113.858 142.014 114.045 142.017C116.737 142.072 118.908 145.035 120.877 151.342C120.877 151.345 120.877 151.347 120.877 151.349C122.463 156.425 123.628 162.801 124.564 167.923C125.116 170.945 125.594 173.554 126.037 175.265C127.745 179.031 127.998 188.913 126.941 189.927C126.398 190.447 124.47 190.792 121.847 190.989C118.685 191.225 114.512 191.247 110.544 191.104C109.631 191.071 108.728 191.03 107.851 190.979C105.176 190.827 102.738 190.599 100.958 190.312C100.374 190.223 99.7952 190.104 99.2238 189.957C98.7385 189.826 98.3828 189.686 98.1849 189.539C97.5589 189.075 97.1369 187.741 96.9008 186.018C96.4839 182.945 96.6567 178.623 97.3319 175.816ZM123.244 168.159C122.895 166.247 122.514 164.161 122.091 162.032C121.388 158.495 120.569 154.848 119.591 151.726C118.403 147.923 116.476 143.381 114.022 143.332H113.966C113.908 143.332 113.85 143.332 113.793 143.338C113.053 143.384 112.307 143.727 111.561 144.306C111.509 144.346 111.461 144.387 111.405 144.431C107.889 147.338 104.417 155.586 101.925 163.987C101.473 165.509 101.054 167.036 100.672 168.537C100.488 169.26 100.313 169.975 100.147 170.682L100.078 170.974C100.061 171.051 100.043 171.127 100.026 171.203C99.905 171.731 99.7895 172.253 99.679 172.768C99.8327 172.725 99.9884 172.684 100.146 172.644C100.261 172.616 100.376 172.588 100.493 172.561C101.009 172.441 101.549 172.337 102.107 172.248C102.183 172.237 102.259 172.224 102.336 172.213C103.206 172.082 104.121 171.984 105.062 171.921C105.866 171.864 106.686 171.823 107.517 171.812C113.037 171.702 118.991 172.427 122.438 173.176C123.184 173.338 123.813 173.501 124.294 173.656C123.965 172.108 123.621 170.228 123.242 168.159H123.244Z" fill="url(#paint40_linear_1411_13234)"/>
<path d="M113.398 143.336C120.055 142.89 119.849 161.837 114.545 167.28C106.626 175.411 91.3594 174.186 90.5566 174.3C89.7538 174.414 87.3413 174.969 86.5375 175.191C85.7337 175.413 79.7655 173.743 79.3033 173.521C78.8411 173.299 79.7625 172.518 80.6808 172.63C81.5992 172.742 85.0425 173.298 85.6162 173.298C86.1899 173.298 88.2999 172.437 87.912 172.295C86.9937 171.961 83.893 171.182 84.9279 170.513C85.3298 170.251 87.912 170.959 88.4858 170.959C89.0595 170.959 90.0934 170.848 90.8972 171.182C91.701 171.516 109.724 168.506 109.954 157.146C110.062 151.846 109.39 143.604 113.398 143.336Z" fill="url(#paint41_linear_1411_13234)"/>
<path d="M102.133 118.544C103.425 117.076 105.589 116.407 108.888 116.312C115.778 116.115 116.315 121.449 117.657 124.657C120.24 130.823 120.089 138.032 119.672 138.382C117.027 140.604 106.039 140.45 106.626 139.584C109.468 135.393 107.578 130.228 107.858 130.176C108.138 130.125 110.259 129.092 110.375 127.804C110.561 125.762 108.406 124.711 106.672 125.794C106.39 125.97 103.619 123.938 103.059 122.494C102.499 121.051 101.696 119.036 102.133 118.544Z" fill="url(#paint42_linear_1411_13234)"/>
</g>
</g>
<defs>
<linearGradient id="paint0_linear_1411_13234" x1="38.5786" y1="150.588" x2="65.2688" y2="135.265" gradientUnits="userSpaceOnUse">
<stop stop-color="#70A2D7"/>
<stop offset="0.55" stop-color="#6F96CE"/>
<stop offset="1" stop-color="#6E89C4"/>
</linearGradient>
<linearGradient id="paint1_linear_1411_13234" x1="15290.3" y1="4893.37" x2="17422.6" y2="4893.37" gradientUnits="userSpaceOnUse">
<stop stop-color="#E7B2A2"/>
<stop offset="0.05" stop-color="#EBB8A7"/>
<stop offset="0.2" stop-color="#F3C3B2"/>
<stop offset="0.41" stop-color="#F8CAB8"/>
<stop offset="1" stop-color="#F9CCBA"/>
</linearGradient>
<linearGradient id="paint2_linear_1411_13234" x1="32305.2" y1="6272.32" x2="30810.1" y2="3527.81" gradientUnits="userSpaceOnUse">
<stop stop-color="#E7B2A2"/>
<stop offset="0.05" stop-color="#EBB8A7"/>
<stop offset="0.2" stop-color="#F3C3B2"/>
<stop offset="0.41" stop-color="#F8CAB8"/>
<stop offset="1" stop-color="#F9CCBA"/>
</linearGradient>
<linearGradient id="paint3_linear_1411_13234" x1="10324.8" y1="30024.2" x2="11065.2" y2="30024.2" gradientUnits="userSpaceOnUse">
<stop stop-color="#70A2D7"/>
<stop offset="0.55" stop-color="#6F96CE"/>
<stop offset="1" stop-color="#6E89C4"/>
</linearGradient>
<linearGradient id="paint4_linear_1411_13234" x1="29.2577" y1="190.971" x2="49.2331" y2="190.971" gradientUnits="userSpaceOnUse">
<stop stop-color="#F2A7B6"/>
<stop offset="0.39" stop-color="#F2A4B3"/>
<stop offset="0.65" stop-color="#F09BAB"/>
<stop offset="0.88" stop-color="#EF8C9C"/>
<stop offset="1" stop-color="#ED8090"/>
</linearGradient>
<linearGradient id="paint5_linear_1411_13234" x1="20026.7" y1="28510.5" x2="24219" y2="28510.5" gradientUnits="userSpaceOnUse">
<stop stop-color="#F2A7B6"/>
<stop offset="0.39" stop-color="#F2A4B3"/>
<stop offset="0.65" stop-color="#F09BAB"/>
<stop offset="0.88" stop-color="#EF8C9C"/>
<stop offset="1" stop-color="#ED8090"/>
</linearGradient>
<linearGradient id="paint6_linear_1411_13234" x1="26.9385" y1="155.63" x2="48.0453" y2="155.63" gradientUnits="userSpaceOnUse">
<stop stop-color="#F3EEE5"/>
<stop offset="0.75" stop-color="#ECE6DB"/>
<stop offset="1" stop-color="#E9E3D7"/>
</linearGradient>
<linearGradient id="paint7_linear_1411_13234" x1="21526" y1="30412.3" x2="26549.6" y2="30412.3" gradientUnits="userSpaceOnUse">
<stop stop-color="#70A2D7"/>
<stop offset="0.55" stop-color="#6F96CE"/>
<stop offset="1" stop-color="#6E89C4"/>
</linearGradient>
<linearGradient id="paint8_linear_1411_13234" x1="11089.9" y1="4310.23" x2="12059.5" y2="4310.23" gradientUnits="userSpaceOnUse">
<stop stop-color="#96D0D0"/>
<stop offset="0.33" stop-color="#90CECD"/>
<stop offset="0.76" stop-color="#80C8C4"/>
<stop offset="1" stop-color="#74C3BE"/>
</linearGradient>
<linearGradient id="paint9_linear_1411_13234" x1="43.3921" y1="145.736" x2="47.9426" y2="145.736" gradientUnits="userSpaceOnUse">
<stop offset="0.01" stop-color="#E8E8E9"/>
<stop offset="0.07" stop-color="#EBEBEC"/>
<stop offset="0.32" stop-color="#F2F2F2"/>
<stop offset="1" stop-color="#F4F4F4"/>
</linearGradient>
<linearGradient id="paint10_linear_1411_13234" x1="35.8929" y1="158.349" x2="48.9125" y2="158.349" gradientUnits="userSpaceOnUse">
<stop stop-color="#F68092"/>
<stop offset="0.36" stop-color="#F07388"/>
<stop offset="1" stop-color="#E25470"/>
</linearGradient>
<linearGradient id="paint11_linear_1411_13234" x1="48.2058" y1="161.29" x2="46.1379" y2="154.72" gradientUnits="userSpaceOnUse">
<stop stop-color="#E8B3A3"/>
<stop offset="0.05" stop-color="#EEBAA9"/>
<stop offset="0.2" stop-color="#F8C5B3"/>
<stop offset="0.41" stop-color="#FDCCB9"/>
<stop offset="1" stop-color="#FFCEBB"/>
</linearGradient>
<linearGradient id="paint12_linear_1411_13234" x1="28371.8" y1="17737.1" x2="37146.5" y2="17737.1" gradientUnits="userSpaceOnUse">
<stop stop-color="#70A2D7"/>
<stop offset="0.55" stop-color="#6F96CE"/>
<stop offset="1" stop-color="#6E89C4"/>
</linearGradient>
<linearGradient id="paint13_linear_1411_13234" x1="37.8684" y1="151.843" x2="42.9434" y2="151.843" gradientUnits="userSpaceOnUse">
<stop stop-color="#D0E9F0"/>
<stop offset="0.25" stop-color="#C9E6ED"/>
<stop offset="0.62" stop-color="#B5DEE3"/>
<stop offset="1" stop-color="#9AD3D6"/>
</linearGradient>
<linearGradient id="paint14_linear_1411_13234" x1="52.32" y1="178.523" x2="58.0166" y2="188.693" gradientUnits="userSpaceOnUse">
<stop stop-color="#E7B2A2"/>
<stop offset="0.25" stop-color="#F0BFAE"/>
<stop offset="0.58" stop-color="#F7C9B7"/>
<stop offset="1" stop-color="#F9CCBA"/>
</linearGradient>
<linearGradient id="paint15_linear_1411_13234" x1="82.4904" y1="150.145" x2="93.6431" y2="150.145" gradientUnits="userSpaceOnUse">
<stop stop-color="#F1F1F1"/>
<stop offset="0.58" stop-color="#EEEEEE"/>
<stop offset="1" stop-color="#E6E5E5"/>
</linearGradient>
<linearGradient id="paint16_linear_1411_13234" x1="79.9413" y1="118.311" x2="79.9413" y2="133.964" gradientUnits="userSpaceOnUse">
<stop stop-color="#E7B2A2"/>
<stop offset="0.04" stop-color="#EAB7A6"/>
<stop offset="0.21" stop-color="#F3C3B2"/>
<stop offset="0.44" stop-color="#F8CAB8"/>
<stop offset="1" stop-color="#F9CCBA"/>
</linearGradient>
<linearGradient id="paint17_linear_1411_13234" x1="71.9604" y1="135.437" x2="87.8837" y2="135.437" gradientUnits="userSpaceOnUse">
<stop stop-color="#6BC1BD"/>
<stop offset="0.01" stop-color="#6BC1BD"/>
<stop offset="0.05" stop-color="#68C0BC"/>
<stop offset="0.39" stop-color="#51BAB2"/>
<stop offset="0.71" stop-color="#44B6AC"/>
<stop offset="1" stop-color="#3FB5AA"/>
</linearGradient>
<linearGradient id="paint18_linear_1411_13234" x1="101.481" y1="172.644" x2="59.8515" y2="197.415" gradientUnits="userSpaceOnUse">
<stop stop-color="#656564"/>
<stop offset="0.46" stop-color="#5C5B5B"/>
<stop offset="1" stop-color="#575555"/>
</linearGradient>
<linearGradient id="paint19_linear_1411_13234" x1="52.3007" y1="156.947" x2="75.2493" y2="156.947" gradientUnits="userSpaceOnUse">
<stop stop-color="#EFEDEE"/>
<stop offset="1" stop-color="#F7F7F7"/>
</linearGradient>
<linearGradient id="paint20_linear_1411_13234" x1="675.548" y1="17009.8" x2="4686.85" y2="17009.8" gradientUnits="userSpaceOnUse">
<stop stop-color="#FADDE7"/>
<stop offset="0.14" stop-color="#F9D9E1"/>
<stop offset="0.49" stop-color="#F8D2D8"/>
<stop offset="1" stop-color="#F8D0D5"/>
</linearGradient>
<linearGradient id="paint21_linear_1411_13234" x1="77.7201" y1="166.11" x2="77.7201" y2="155.102" gradientUnits="userSpaceOnUse">
<stop stop-color="#E7B2A2"/>
<stop offset="0.05" stop-color="#EBB8A7"/>
<stop offset="0.2" stop-color="#F3C3B2"/>
<stop offset="0.41" stop-color="#F8CAB8"/>
<stop offset="1" stop-color="#F9CCBA"/>
</linearGradient>
<linearGradient id="paint22_linear_1411_13234" x1="-3489.4" y1="41810.3" x2="-10789.3" y2="41810.3" gradientUnits="userSpaceOnUse">
<stop stop-color="#EFEDEE"/>
<stop offset="1" stop-color="#F7F7F7"/>
</linearGradient>
<linearGradient id="paint23_linear_1411_13234" x1="70.9941" y1="145.265" x2="72.6311" y2="145.265" gradientUnits="userSpaceOnUse">
<stop stop-color="#F2A7B6"/>
<stop offset="0.55" stop-color="#EF8F9F"/>
<stop offset="1" stop-color="#ED8090"/>
</linearGradient>
<linearGradient id="paint24_linear_1411_13234" x1="38.3766" y1="293.107" x2="16.5482" y2="293.107" gradientUnits="userSpaceOnUse">
<stop stop-color="#F2A7B6"/>
<stop offset="0.55" stop-color="#EF8F9F"/>
<stop offset="1" stop-color="#ED8090"/>
</linearGradient>
<linearGradient id="paint25_linear_1411_13234" x1="35.4768" y1="304.775" x2="13.6532" y2="304.775" gradientUnits="userSpaceOnUse">
<stop stop-color="#F2A7B6"/>
<stop offset="0.55" stop-color="#EF8F9F"/>
<stop offset="1" stop-color="#ED8090"/>
</linearGradient>
<linearGradient id="paint26_linear_1411_13234" x1="32.61" y1="316.438" x2="10.8002" y2="316.438" gradientUnits="userSpaceOnUse">
<stop stop-color="#F2A7B6"/>
<stop offset="0.55" stop-color="#EF8F9F"/>
<stop offset="1" stop-color="#ED8090"/>
</linearGradient>
<linearGradient id="paint27_linear_1411_13234" x1="20.972" y1="357.52" x2="-0.856454" y2="357.52" gradientUnits="userSpaceOnUse">
<stop stop-color="#F2A7B6"/>
<stop offset="0.55" stop-color="#EF8F9F"/>
<stop offset="1" stop-color="#ED8090"/>
</linearGradient>
<linearGradient id="paint28_linear_1411_13234" x1="16.6988" y1="369.138" x2="-5.14296" y2="369.138" gradientUnits="userSpaceOnUse">
<stop stop-color="#F2A7B6"/>
<stop offset="0.55" stop-color="#EF8F9F"/>
<stop offset="1" stop-color="#ED8090"/>
</linearGradient>
<linearGradient id="paint29_linear_1411_13234" x1="73.8832" y1="144.31" x2="75.547" y2="144.31" gradientUnits="userSpaceOnUse">
<stop stop-color="#F2A7B6"/>
<stop offset="0.05" stop-color="#F2A3B2"/>
<stop offset="0.36" stop-color="#EF909F"/>
<stop offset="0.68" stop-color="#ED8494"/>
<stop offset="1" stop-color="#ED8090"/>
</linearGradient>
<linearGradient id="paint30_linear_1411_13234" x1="74.7015" y1="148.971" x2="77.0507" y2="148.971" gradientUnits="userSpaceOnUse">
<stop stop-color="#4FB1C9"/>
<stop offset="0.57" stop-color="#3DA4BF"/>
<stop offset="1" stop-color="#2C99B5"/>
</linearGradient>
<linearGradient id="paint31_linear_1411_13234" x1="-716.134" y1="4013.62" x2="-1197.34" y2="4013.62" gradientUnits="userSpaceOnUse">
<stop stop-color="#4FB1C9"/>
<stop offset="0.57" stop-color="#3DA4BF"/>
<stop offset="1" stop-color="#2C99B5"/>
</linearGradient>
<linearGradient id="paint32_linear_1411_13234" x1="81.4323" y1="154.273" x2="88.3872" y2="154.273" gradientUnits="userSpaceOnUse">
<stop stop-color="#96D0D0"/>
<stop offset="0.33" stop-color="#90CECD"/>
<stop offset="0.76" stop-color="#80C8C4"/>
<stop offset="1" stop-color="#74C3BE"/>
</linearGradient>
<linearGradient id="paint33_linear_1411_13234" x1="87.4678" y1="118.079" x2="72.9415" y2="103.108" gradientUnits="userSpaceOnUse">
<stop stop-color="#E7B2A2"/>
<stop offset="0.03" stop-color="#E9B5A5"/>
<stop offset="0.22" stop-color="#F2C2B1"/>
<stop offset="0.46" stop-color="#F7C9B8"/>
<stop offset="1" stop-color="#F9CBBA"/>
</linearGradient>
<linearGradient id="paint34_linear_1411_13234" x1="88.585" y1="105.866" x2="71.0601" y2="105.866" gradientUnits="userSpaceOnUse">
<stop stop-color="#C9B099"/>
<stop offset="0.39" stop-color="#CBB39C"/>
<stop offset="0.72" stop-color="#D0BEA5"/>
<stop offset="1" stop-color="#D8CDB3"/>
</linearGradient>
<linearGradient id="paint35_linear_1411_13234" x1="110.283" y1="133.021" x2="110.283" y2="144.134" gradientUnits="userSpaceOnUse">
<stop stop-color="#E7B2A2"/>
<stop offset="0.21" stop-color="#EEBBAB"/>
<stop offset="0.61" stop-color="#F6C8B6"/>
<stop offset="1" stop-color="#F9CCBA"/>
</linearGradient>
<linearGradient id="paint36_linear_1411_13234" x1="99.2884" y1="132.28" x2="110.056" y2="121.183" gradientUnits="userSpaceOnUse">
<stop stop-color="#E7B2A2"/>
<stop offset="0.25" stop-color="#F0C0AF"/>
<stop offset="0.57" stop-color="#F7C9B7"/>
<stop offset="1" stop-color="#F9CCBA"/>
</linearGradient>
<linearGradient id="paint37_linear_1411_13234" x1="112.074" y1="179.462" x2="100.356" y2="200.379" gradientUnits="userSpaceOnUse">
<stop stop-color="#70A2D7"/>
<stop offset="0.2" stop-color="#6F99D0"/>
<stop offset="0.6" stop-color="#6E8DC7"/>
<stop offset="1" stop-color="#6E89C4"/>
</linearGradient>
<linearGradient id="paint38_linear_1411_13234" x1="-6026.15" y1="28528.8" x2="-11563.1" y2="33190.9" gradientUnits="userSpaceOnUse">
<stop stop-color="#70A2D7"/>
<stop offset="0.55" stop-color="#6F96CE"/>
<stop offset="1" stop-color="#6E89C4"/>
</linearGradient>
<linearGradient id="paint39_linear_1411_13234" x1="52595.6" y1="29857.3" x2="57624" y2="29857.3" gradientUnits="userSpaceOnUse">
<stop stop-color="#F3ECDE"/>
<stop offset="0.75" stop-color="#ECE5D8"/>
<stop offset="1" stop-color="#E9E3D7"/>
</linearGradient>
<linearGradient id="paint40_linear_1411_13234" x1="-10269.4" y1="31985.9" x2="-24893.3" y2="41173.5" gradientUnits="userSpaceOnUse">
<stop stop-color="#96D0D0"/>
<stop offset="0.33" stop-color="#90CECD"/>
<stop offset="0.76" stop-color="#80C8C4"/>
<stop offset="1" stop-color="#74C3BE"/>
</linearGradient>
<linearGradient id="paint41_linear_1411_13234" x1="106.002" y1="172.899" x2="95.0395" y2="153.331" gradientUnits="userSpaceOnUse">
<stop stop-color="#E7B2A2"/>
<stop offset="0.21" stop-color="#EEBCAB"/>
<stop offset="0.61" stop-color="#F6C8B6"/>
<stop offset="1" stop-color="#F9CCBA"/>
</linearGradient>
<linearGradient id="paint42_linear_1411_13234" x1="103.478" y1="117.46" x2="115.758" y2="140.537" gradientUnits="userSpaceOnUse">
<stop stop-color="#927B64"/>
<stop offset="0.23" stop-color="#9E8168"/>
<stop offset="0.68" stop-color="#B18B6E"/>
<stop offset="1" stop-color="#B88F70"/>
</linearGradient>
<clipPath id="clip0_1411_13234">
<path d="M0 56H137C141.418 56 145 59.5817 145 64V190C145 194.418 141.418 198 137 198H0V56Z" fill="white"/>
</clipPath>
<clipPath id="clip1_1411_13234">
<rect width="200.33" height="101.843" fill="white" transform="matrix(-1 0 0 1 139.061 96.3252)"/>
</clipPath>
</defs>
</svg>
