<svg width="33" height="32" viewBox="0 0 33 32" fill="none" xmlns="http://www.w3.org/2000/svg">
<path d="M14.0049 12.8357C13.5889 13.1138 13.2318 13.4712 12.9539 13.8873C12.6759 14.3035 12.4827 14.7703 12.3852 15.2611C12.1883 16.2524 12.3932 17.2813 12.9549 18.1214C13.5166 18.9616 14.3891 19.5442 15.3803 19.7411C16.3716 19.9381 17.4005 19.7331 18.2406 19.1714C19.0808 18.6097 19.6634 17.7373 19.8604 16.746C20.0573 15.7548 19.8523 14.7259 19.2906 13.8857C18.729 13.0455 17.8565 12.4629 16.8653 12.266C15.874 12.0691 14.8451 12.274 14.0049 12.8357ZM24.1692 7.95C23.7978 7.57857 23.3478 7.28571 22.8549 7.09286C21.5621 6.58571 18.7406 6.60714 16.9192 6.62857C16.6264 6.62857 16.3549 6.63571 16.1192 6.63571C15.8835 6.63571 15.6049 6.63572 15.3049 6.62857C13.4835 6.60714 10.6764 6.57857 9.3835 7.09286C8.89065 7.28571 8.44779 7.57857 8.06922 7.95C7.69065 8.32143 7.40493 8.77143 7.21207 9.26429C6.70493 10.5571 6.7335 13.3857 6.74779 15.2071C6.74779 15.5 6.75493 15.7714 6.75493 16C6.75493 16.2286 6.75493 16.5 6.74779 16.7929C6.7335 18.6143 6.70493 21.4429 7.21207 22.7357C7.40493 23.2286 7.69779 23.6714 8.06922 24.05C8.44065 24.4286 8.89065 24.7143 9.3835 24.9071C10.6764 25.4143 13.4978 25.3929 15.3192 25.3714C15.6121 25.3714 15.8835 25.3643 16.1192 25.3643C16.3549 25.3643 16.6335 25.3643 16.9335 25.3714C18.7549 25.3929 21.5621 25.4214 22.8549 24.9071C23.3478 24.7143 23.7906 24.4214 24.1692 24.05C24.5478 23.6786 24.8335 23.2286 25.0264 22.7357C25.5406 21.45 25.5121 18.6357 25.4906 16.8071C25.4906 16.5071 25.4835 16.2286 25.4835 15.9929C25.4835 15.7571 25.4835 15.4857 25.4906 15.1786C25.5121 13.3571 25.5406 10.5429 25.0264 9.25C24.8335 8.75714 24.5406 8.31429 24.1692 7.93572V7.95ZM19.3764 11.1286C20.6683 11.9924 21.5642 13.3341 21.867 14.8585C22.1697 16.3829 21.8545 17.9652 20.9906 19.2571C20.5629 19.8969 20.0134 20.4461 19.3734 20.8734C18.7334 21.3008 18.0155 21.5979 17.2607 21.7478C15.7363 22.0505 14.1541 21.7353 12.8621 20.8714C11.5701 20.0085 10.6738 18.6677 10.3704 17.144C10.067 15.6203 10.3813 14.0384 11.2442 12.7464C12.1071 11.4544 13.4479 10.5582 14.9716 10.2548C16.4954 9.95135 18.0772 10.2657 19.3692 11.1286H19.3764ZM21.4621 11.0357C21.2406 10.8857 21.0621 10.6714 20.9549 10.4214C20.8478 10.1714 20.8264 9.9 20.8764 9.62857C20.9264 9.35714 21.0621 9.12143 21.2478 8.92857C21.4335 8.73571 21.6835 8.60714 21.9478 8.55714C22.2121 8.50714 22.4906 8.52857 22.7406 8.63571C22.9906 8.74286 23.2049 8.91429 23.3549 9.13571C23.5049 9.35714 23.5835 9.62143 23.5835 9.89286C23.5835 10.0714 23.5478 10.25 23.4835 10.4143C23.4192 10.5786 23.3121 10.7286 23.1906 10.8571C23.0692 10.9857 22.9121 11.0857 22.7478 11.1571C22.5835 11.2286 22.4049 11.2643 22.2264 11.2643C21.9549 11.2643 21.6906 11.1857 21.4692 11.0357H21.4621ZM32.1192 4.57143C32.1192 2.05 30.0692 0 27.5478 0H4.69065C2.16922 0 0.119217 2.05 0.119217 4.57143V27.4286C0.119217 29.95 2.16922 32 4.69065 32H27.5478C30.0692 32 32.1192 29.95 32.1192 27.4286V4.57143ZM25.6192 25.5C24.2835 26.8357 22.6621 27.2571 20.8335 27.35C18.9478 27.4571 13.2906 27.4571 11.4049 27.35C9.57636 27.2571 7.95493 26.8357 6.61922 25.5C5.2835 24.1643 4.86207 22.5429 4.77636 20.7143C4.66922 18.8286 4.66922 13.1714 4.77636 11.2857C4.86922 9.45714 5.2835 7.83571 6.61922 6.5C7.95493 5.16429 9.5835 4.74286 11.4049 4.65714C13.2906 4.55 18.9478 4.55 20.8335 4.65714C22.6621 4.75 24.2835 5.16429 25.6192 6.5C26.9549 7.83571 27.3764 9.45714 27.4621 11.2857C27.5692 13.1643 27.5692 18.8143 27.4621 20.7071C27.3692 22.5357 26.9549 24.1571 25.6192 25.4929V25.5Z" fill="#D9D9D9"/>
</svg>
