<svg width="33" height="32" viewBox="0 0 33 32" fill="none" xmlns="http://www.w3.org/2000/svg">
<path d="M29.8335 0H2.39779C1.14065 0 0.119217 1.03571 0.119217 2.30714V29.6929C0.119217 30.9643 1.14065 32 2.39779 32H29.8335C31.0906 32 32.1192 30.9643 32.1192 29.6929V2.30714C32.1192 1.03571 31.0906 0 29.8335 0ZM9.79065 27.4286H5.04779V12.1571H9.79779V27.4286H9.79065ZM7.41922 10.0714C5.89779 10.0714 4.66922 8.83571 4.66922 7.32143C4.66922 5.80714 5.89779 4.57143 7.41922 4.57143C8.9335 4.57143 10.1692 5.80714 10.1692 7.32143C10.1692 8.84286 8.94065 10.0714 7.41922 10.0714ZM27.5692 27.4286H22.8264V20C22.8264 18.2286 22.7906 15.95 20.3621 15.95C17.8906 15.95 17.5121 17.8786 17.5121 19.8714V27.4286H12.7692V12.1571H17.3192V14.2429H17.3835C18.0192 13.0429 19.5692 11.7786 21.8764 11.7786C26.6764 11.7786 27.5692 14.9429 27.5692 19.0571V27.4286Z" fill="#D9D9D9"/>
</svg>
