<svg width="354" height="318" viewBox="0 0 354 318" fill="none" xmlns="http://www.w3.org/2000/svg">
<g clip-path="url(#clip0_1132_33195)">
<path d="M67.623 124.431L63.372 123.949C63.3952 123.76 65.5585 104.805 69.0719 84.9816C76.2962 44.2258 82.0455 39.5742 83.9357 38.0439L86.6274 41.3686C78.8892 47.6318 71.0232 94.4737 67.623 124.431Z" fill="#898686"/>
<path d="M107.145 124.354C107.075 123.625 105.603 106.418 121.399 95.1373C135.122 85.3345 142.122 76.6584 142.802 68.6182L147.064 68.9869C146.275 78.3541 138.69 88.0495 123.885 98.6275C110.078 108.5 111.399 123.796 111.399 123.95L107.145 124.354Z" fill="#898686"/>
<path d="M129.26 111.308C127.84 109.037 39.5923 97.2858 34.0202 101.145C26.4707 106.371 -5.55954 260.756 1.20888 268.976C13.4043 283.785 121.711 318.048 123.453 317.758C125.195 317.467 130.712 113.631 129.26 111.308Z" fill="#F5E7E5"/>
<path d="M275.914 10.8673C224.583 14.6101 217.632 7.12446 198.386 6.05591C179.141 4.98737 177.532 6.59019 169.512 4.98737C161.493 3.38455 135.83 -3.03544 121.924 1.77882C108.019 6.59309 103.21 9.79872 100.002 12.473C96.7933 15.1473 94.6533 20.4929 87.7019 21.5615C91.4447 30.6528 104.813 26.3757 108.556 22.0957C108.704 22.0028 108.846 21.9215 108.997 21.8315L110.696 29.0471L112.833 33.8614L117.647 40.8127L128.876 44.5555C128.876 44.5555 133.339 51.9279 137.238 58.2608C135.543 58.0575 134.358 57.9211 134.221 57.9211C133.687 57.9211 126.736 70.221 140.104 71.2779C144.831 71.6554 146.783 69.0363 149.193 68.0839C154.901 67.9387 158.74 66.0281 158.74 66.0281C165.665 61.719 175.102 51.8002 178.973 47.5811C188.183 41.9945 229.395 57.3868 229.395 57.3868C229.395 57.3868 246.506 63.258 286.617 72.3581C332.059 80.3896 353.982 79.3094 353.982 79.3094V14.0758C353.982 14.0758 327.248 7.12446 275.914 10.8673Z" fill="url(#paint0_linear_1132_33195)"/>
<path opacity="0.7" d="M178.339 48.2257C178.339 48.2257 181.014 27.3716 161.765 30.0459C142.517 32.7201 129.149 22.026 129.149 22.026C129.149 22.026 120.803 14.7378 109.27 21.7617L110.954 28.9773L113.091 33.7887L117.923 40.74L129.151 44.4828C129.151 44.4828 133.614 51.8581 137.514 58.1881C135.818 57.9878 134.633 57.8513 134.497 57.8513C133.963 57.8513 127.011 70.1483 140.38 71.2081C145.107 71.5856 147.058 68.9665 149.468 67.9996C155.18 67.8544 159.016 65.9438 159.018 65.9409C165.938 61.6464 178.592 47.9556 178.339 48.2257Z" fill="url(#paint1_linear_1132_33195)"/>
<path d="M91.7095 34.245C91.7095 34.245 87.9666 46.0077 100.267 45.4734C113.098 37.4535 117.375 28.8965 117.375 28.8965C117.375 28.8965 123.258 16.5995 108.821 21.9451C99.4652 27.5259 95.4523 29.9679 91.7095 34.245Z" fill="url(#paint2_linear_1132_33195)"/>
<path d="M152.661 48.7916C152.661 48.7916 144.107 66.4371 140.898 68.0399C137.69 69.6427 128.064 69.6457 129.67 60.02C137.155 49.8572 141.967 46.6632 143.026 45.583C142.881 45.7369 158.009 32.7489 152.661 48.7916Z" fill="url(#paint3_linear_1132_33195)"/>
<path d="M116.301 53.0409C116.301 53.0409 114.698 63.2037 130.204 63.2037C145.709 46.6267 148.384 37.5383 146.244 34.3297C145.709 33.2612 142.501 32.1897 134.481 36.4668C126.461 40.7439 116.301 53.0409 116.301 53.0409Z" fill="url(#paint4_linear_1132_33195)"/>
<path d="M116.865 55.1644C116.865 55.1644 98.6847 58.9072 102.428 44.4702C105.636 36.459 124.35 25.7532 131.296 26.2962C138.241 26.8392 132.901 36.9904 128.624 40.7332C124.347 44.476 116.865 55.1644 116.865 55.1644Z" fill="url(#paint5_linear_1132_33195)"/>
<path d="M54.1817 126.533C52.56 126.533 51.2453 124.861 51.2453 122.797C51.2453 120.733 52.56 119.061 54.1817 119.061C55.8035 119.061 57.1182 120.733 57.1182 122.797C57.1182 124.861 55.8035 126.533 54.1817 126.533Z" fill="#9F9B9B"/>
<path d="M97.0558 132.329C95.434 132.329 94.1193 130.657 94.1193 128.593C94.1193 126.529 95.434 124.856 97.0558 124.856C98.6775 124.856 99.9922 126.529 99.9922 128.593C99.9922 130.657 98.6775 132.329 97.0558 132.329Z" fill="#9F9B9B"/>
<path d="M92.4256 33.5169C93.6451 32.4425 94.4581 31.2694 95.6544 30.3925C97.1411 29.3037 98.7236 28.3164 100.277 27.335C101.317 26.6817 102.199 26.0283 103.895 25.3663C103.685 24.925 103.33 24.569 102.889 24.3576C102.449 24.1463 101.949 24.0924 101.473 24.2048C100.106 24.5242 67.8083 33.0494 52.2389 121.649C52.1905 121.926 52.1972 122.21 52.2586 122.484C52.32 122.759 52.4348 123.018 52.5966 123.248C52.7584 123.478 52.964 123.674 53.2016 123.825C53.4391 123.975 53.704 124.077 53.9811 124.126C54.1049 124.146 54.2302 124.157 54.3557 124.157C54.8581 124.157 55.3442 123.979 55.7286 123.656C56.113 123.332 56.3713 122.884 56.4579 122.389C64.2978 77.7396 76.4554 54.5161 85.268 42.8986C87.5358 39.9078 89.5306 38.6389 91.5138 36.7312C91.6154 35.9966 91.8448 34.0366 92.4256 33.5169Z" fill="#BAB3B2"/>
<path d="M149.553 54.6016C149.15 55.4233 146.792 59.9879 145.964 61.068C145.5 67.0583 141.481 76.4574 124.091 85.6126C107.767 94.2046 100.763 105.134 97.7666 112.791C94.4709 121.211 95.13 127.576 95.1533 127.843C95.2112 128.366 95.4598 128.848 95.8515 129.199C96.2431 129.549 96.7503 129.743 97.2759 129.742C97.3532 129.747 97.4308 129.747 97.5081 129.742C98.0707 129.68 98.5859 129.398 98.9411 128.957C99.2964 128.517 99.4629 127.953 99.4042 127.39C99.4042 127.332 98.8467 121.618 101.832 114.135C105.789 104.225 114.172 95.6738 126.08 89.4077C139.274 82.4651 147.169 74.3087 149.545 65.197C150.493 61.7292 150.496 58.0709 149.553 54.6016Z" fill="#BAB3B2"/>
<path d="M140.324 112.314C140.324 112.314 156.585 110.862 158.617 116.379C162.319 126.432 166.019 303.648 164.425 305.698C163.408 307.005 141.195 313.828 137.421 312.086C133.646 310.344 135.969 115.508 140.324 112.314Z" fill="#D9D5D5"/>
<path d="M140.409 112.411C138.376 112.121 129.863 111.282 129.084 111.54C126.907 112.266 119.54 316.132 122.987 317.7C124.584 318.426 139.538 312.183 140.409 310.731C141.28 309.279 140.409 112.411 140.409 112.411Z" fill="#BAB3B2"/>
<path d="M140.938 287.658C136.002 287.658 120.032 314.953 123.516 317.856C125.079 319.157 161.668 308.509 164.458 305.951C167.942 302.757 144.132 287.658 140.938 287.658Z" fill="#A3A1A1"/>
<path d="M85.0518 163.147C82.7289 159.953 59.2093 157.05 55.4345 158.792C52.6325 160.084 39.4383 239.093 40.9162 242.417C42.0777 245.031 71.695 254.322 74.889 252.29C77.6272 250.547 87.0438 165.886 85.0518 163.147Z" fill="#86CBC9"/>
<path d="M101.025 192.408C99.7097 191.092 33.0795 178.76 31.918 179.341C30.7565 179.922 24.6589 210.12 25.5299 211.572C26.401 213.024 96.3792 232.478 97.831 231.897C99.2829 231.317 102.187 193.569 101.025 192.408Z" fill="#74C5C3"/>
</g>
<defs>
<linearGradient id="paint0_linear_1132_33195" x1="220.84" y1="79.3588" x2="220.84" y2="0.0192049" gradientUnits="userSpaceOnUse">
<stop stop-color="#E8B3A3"/>
<stop offset="0.25" stop-color="#F2C2B1"/>
<stop offset="0.55" stop-color="#F8CAB9"/>
<stop offset="1" stop-color="#FACDBC"/>
</linearGradient>
<linearGradient id="paint1_linear_1132_33195" x1="161.742" y1="64.3787" x2="130.168" y2="9.6883" gradientUnits="userSpaceOnUse">
<stop stop-color="#E8B3A3"/>
<stop offset="0.01" stop-color="#E8B4A4"/>
<stop offset="0.25" stop-color="#F2C2B1"/>
<stop offset="0.53" stop-color="#F8CABA"/>
<stop offset="1" stop-color="#FACDBC"/>
</linearGradient>
<linearGradient id="paint2_linear_1132_33195" x1="118.563" y1="33.0458" x2="91.1752" y2="33.0458" gradientUnits="userSpaceOnUse">
<stop stop-color="#E8B3A3"/>
<stop offset="0.2" stop-color="#EEBCAC"/>
<stop offset="0.61" stop-color="#F7C9B8"/>
<stop offset="1" stop-color="#FACDBC"/>
</linearGradient>
<linearGradient id="paint3_linear_1132_33195" x1="153.808" y1="54.7993" x2="129.49" y2="54.7993" gradientUnits="userSpaceOnUse">
<stop stop-color="#E8B3A3"/>
<stop offset="0.24" stop-color="#F0BFAE"/>
<stop offset="0.59" stop-color="#F8CAB9"/>
<stop offset="1" stop-color="#FACDBC"/>
</linearGradient>
<linearGradient id="paint4_linear_1132_33195" x1="146.888" y1="48.2847" x2="116.255" y2="48.2847" gradientUnits="userSpaceOnUse">
<stop stop-color="#E8B3A3"/>
<stop offset="0.21" stop-color="#EFBDAC"/>
<stop offset="0.61" stop-color="#F7C9B8"/>
<stop offset="1" stop-color="#FACDBC"/>
</linearGradient>
<linearGradient id="paint5_linear_1132_33195" x1="134.655" y1="40.9336" x2="101.919" y2="40.9336" gradientUnits="userSpaceOnUse">
<stop stop-color="#E8B3A3"/>
<stop offset="0.22" stop-color="#EFBDAD"/>
<stop offset="0.61" stop-color="#F7C9B8"/>
<stop offset="1" stop-color="#FACDBC"/>
</linearGradient>
<clipPath id="clip0_1132_33195">
<rect width="353.727" height="318" fill="white" transform="matrix(-1 0 0 1 354 0)"/>
</clipPath>
</defs>
</svg>
