<svg width="132" height="113" viewBox="0 0 132 113" fill="none" xmlns="http://www.w3.org/2000/svg">
    <path d="M128.481 74.943C124.346 76.6243 121.229 77.8234 118.897 78.8278C117.946 79.2375 117.127 79.6175 116.421 79.9804C113.194 81.6528 112.357 82.1097 112.394 85.141C112.426 87.7826 114.888 88.3301 114.104 92.5451C114.011 93.0322 113.89 93.5088 113.742 93.9705C110.966 102.734 90.9404 93.4148 67.9778 97.8901C67.3046 97.8281 68.614 97.9458 67.9778 97.8901L59.8605 97.7121C59.8605 97.7121 56.2975 97.4914 55.2558 97.5086C53.9955 97.5286 51.5249 97.71 49.7414 98.1739C47.1774 98.8409 46.3477 100.371 37.9471 101.549C29.5465 102.727 27.3694 103.432 21.2781 102.003C15.9138 100.745 12.0408 95.0958 15.3027 90.6819C19.4112 85.1195 20.7357 79.7077 8.22624 76.7873C-4.28325 73.867 -0.594946 62.0041 6.56305 56.2401C16.9877 47.8457 34.8664 45.8336 50.0537 45.8174C50.5689 45.8174 51.0811 45.8191 51.5903 45.8225C51.9743 45.8256 52.356 45.8298 52.7354 45.835L52.9398 45.8378C54.9524 45.8685 56.8998 45.9307 58.7621 46.0134C59.3569 46.0404 59.9444 46.0676 60.5246 46.0952L60.8501 46.1105L61.009 46.1184L61.5049 46.1426C68.4758 46.4887 74.3766 46.924 79.4696 47.4132C80.317 47.4947 81.1425 47.5775 81.9462 47.6617C84.8468 47.9656 87.4718 48.2866 89.8787 48.6178C90.3564 48.6838 90.8259 48.7499 91.2872 48.8162C91.6899 48.8748 92.0867 48.9331 92.4774 48.9914C92.8491 49.0471 93.2155 49.103 93.5763 49.1591C94.265 49.2659 94.9359 49.3732 95.589 49.481C97.755 49.8387 99.8069 50.2259 101.745 50.6425C102.591 50.823 103.417 51.0089 104.221 51.2C107.491 51.9758 110.419 52.8297 113.031 53.7393C114.419 54.2225 115.718 54.72 116.929 55.232C117.096 55.302 117.26 55.3723 117.423 55.4429C117.699 55.5625 117.97 55.6822 118.236 55.802C118.459 55.9027 118.679 56.0038 118.895 56.1054C134.444 63.383 134.055 72.6773 128.481 74.943Z"
          fill="url(#paint0_linear_612_62135)"/>
    <path d="M53.2556 65.0264C51.5453 64.2606 51.9821 62.0181 52.4078 60.596C52.8336 59.1738 51.5564 58.7727 51.7267 56.5849C51.897 54.397 54.4587 53.7407 54.2366 51.6513C54.0145 49.5618 53.1704 49.4634 53.3407 47.1333C53.511 44.8032 55.0362 43.6218 55.5619 40.0264C56.0876 36.431 55.9876 33.5066 59.5526 30.2467C63.1176 26.9868 73.4535 27.0232 76.9519 33.7582C78.8214 37.3536 77.8885 38.4402 78.3957 40.0264C78.9028 41.6126 79.7543 42.2143 79.6691 44.0375C79.584 45.8607 78.1402 46.9948 78.9065 49.0003C79.6728 51.0058 80.8686 51.8263 81.1277 52.902C81.6386 55.1591 80.143 56.1035 81.1277 57.1647C82.8787 59.0499 84.7778 59.5895 83.2489 63.8522C81.72 68.1149 56.0395 66.2808 53.2556 65.0264Z"
          fill="url(#paint1_linear_612_62135)"/>
    <path d="M61.7216 52.3145C61.481 54.9107 61.3736 56.8725 60.822 59.2427C60.5444 60.446 69.1403 59.7459 69.1403 59.7459C69.4254 58.652 68.8479 53.5761 68.6072 52.7119L61.7216 52.3145Z"
          fill="url(#paint2_linear_612_62135)"/>
    <path d="M56.0392 40.9197C55.8245 41.0801 55.9467 44.7339 56.4353 46.94C56.924 49.1461 59.0267 53.0733 64.7462 53.0733C70.4658 53.0733 73.1645 51.1078 74.7674 47.888C74.971 47.4869 76.4111 47.7422 77.4847 46.4951C78.425 45.4012 78.6175 44.0957 78.2251 42.6481C77.8327 41.2005 76.2853 40.9489 75.1117 41.4776C74.6231 41.6964 73.8123 41.1968 73.357 40.4748C72.9016 39.7528 71.2654 39.3043 70.8693 39.0163C70.4732 38.7282 70.3584 37.7364 70.1289 37.4009C69.8994 37.0654 68.7147 36.6716 68.3741 35.9423C68.0336 35.213 68.2113 34.9942 67.7263 34.7682C67.2413 34.5421 66.4491 34.2139 66.1678 33.8784C65.8864 33.543 65.4274 33.0434 65.1497 32.9851C64.8721 32.9267 64.1317 33.4336 63.7356 33.9878C63.3678 34.5463 62.8847 35.0221 62.3177 35.3844C61.8106 35.6615 61.1294 35.4938 60.7333 36.1648C60.3372 36.8357 60.4519 37.6671 59.83 38.1703C59.2081 38.6735 58.216 38.0791 57.9605 38.6152C57.5475 39.5428 56.8827 40.3402 56.0392 40.9197Z"
          fill="url(#paint3_linear_612_62135)"/>
    <path d="M73.2472 102.267C72.3067 102.412 71.3559 102.481 70.4041 102.475C69.9376 102.475 68.7049 101.691 68.0237 101.607C67.5536 101.553 65.7618 101.79 65.1288 102.355C64.9178 102.544 64.4365 103.15 64.3329 103.226C63.9923 103.478 60.6309 103.795 60.4273 104.189C59.1538 106.57 60.5828 110.625 62.1598 111.555C62.7595 111.919 67.2352 111.154 69.7711 109.137C70.3152 108.703 74.3763 107.409 75.0649 107.179C75.7534 106.949 73.8691 102.158 73.2472 102.267Z"
          fill="url(#paint4_linear_612_62135)"/>
    <path d="M23.9755 61.766C24.0717 62.1489 19.5331 63.6184 19.137 63.6475C18.7409 63.6767 18.2041 59.126 18.2041 59.126L23.5497 59.5089C23.5497 59.5089 23.8496 61.2628 23.9755 61.766Z"
          fill="url(#paint5_linear_612_62135)"/>
    <path d="M24.3905 59.965L16.7903 59.2357C16.6512 59.2347 16.5181 59.1799 16.4197 59.083C16.3213 58.9861 16.2656 58.8549 16.2646 58.7179V42.7793C16.2656 42.6423 16.3213 42.5111 16.4197 42.4142C16.5181 42.3173 16.6512 42.2625 16.7903 42.2615L24.3905 41.5322C24.5296 41.5332 24.6627 41.588 24.7611 41.6849C24.8595 41.7818 24.9152 41.913 24.9161 42.05V59.4399C24.9166 59.5083 24.9034 59.5763 24.8773 59.6397C24.8511 59.7031 24.8125 59.7609 24.7637 59.8097C24.7149 59.8584 24.6568 59.8972 24.5928 59.9239C24.5287 59.9505 24.46 59.9645 24.3905 59.965Z"
          fill="url(#paint6_linear_612_62135)"/>
    <path d="M23.8799 59.965L16.2835 59.2357C16.1441 59.2357 16.0104 59.1811 15.9118 59.084C15.8132 58.9869 15.7578 58.8552 15.7578 58.7179V42.7793C15.7578 42.642 15.8132 42.5103 15.9118 42.4132C16.0104 42.3161 16.1441 42.2615 16.2835 42.2615L23.8799 41.5322C24.0193 41.5322 24.1531 41.5868 24.2516 41.6839C24.3502 41.781 24.4056 41.9127 24.4056 42.05V59.4399C24.4066 59.5085 24.3937 59.5766 24.3677 59.6403C24.3418 59.7039 24.3032 59.7619 24.2543 59.8107C24.2054 59.8596 24.1471 59.8984 24.0828 59.9249C24.0186 59.9513 23.9496 59.965 23.8799 59.965Z"
          fill="url(#paint7_linear_612_62135)"/>
    <path d="M16.6249 44.0258C16.8336 44.0258 17.0028 43.794 17.0028 43.508C17.0028 43.2221 16.8336 42.9902 16.6249 42.9902C16.4162 42.9902 16.2471 43.2221 16.2471 43.508C16.2471 43.794 16.4162 44.0258 16.6249 44.0258Z"
          fill="#616160"/>
    <path d="M15.4315 52.3187C15.7683 51.4435 22.865 51.1117 23.5018 51.9066C23.9978 52.5229 24.2644 55.7208 23.8423 56.6834C23.4203 57.6461 16.5791 59.3964 15.6018 58.5614C14.8206 57.8904 14.8392 53.8647 15.4315 52.3187Z"
          fill="url(#paint8_linear_612_62135)"/>
    <path d="M23.7362 60.6909C24.244 60.7779 24.8062 61.9413 24.9114 62.4414C25.3938 64.6776 26.7794 66.7434 31.3135 69.8167C35.3034 72.5276 42.5173 74.3035 48.8396 67.5733C50.2179 66.1236 52.6373 63.5432 55.0058 61.3868C57.5812 59.0492 60.2617 57.3675 60.7369 57.4002C61.7271 57.4545 69.9754 56.9181 70.7625 57.2516C71.303 57.4763 72.5471 57.951 74.0814 58.5635C76.6205 59.5783 80.7156 60.9084 84.6548 63.4562C89.138 66.3556 94.1726 72.6762 94.8291 80.0479C96.1857 95.3385 89.3121 103.678 79.7471 105.537C79.457 105.595 76.9106 106.189 76.6531 106.331C75.9498 106.704 75.1645 106.898 74.368 106.892C73.5373 106.809 71.2921 101.322 71.4662 100.575C71.5133 100.362 73.1456 99.6876 73.9581 99.6042C74.2664 99.5752 75.5396 98.3466 76.664 97.6652C78.5574 96.52 82.7147 93.8144 83.7792 91.7165C83.7792 91.7165 83.6409 97.1706 77.9246 96.8759C69.4091 96.4368 69.4091 98.4776 60.8935 98.0102C55.0481 97.6894 52.5792 97.4857 52.5792 97.4857C52.5792 97.4857 51.5418 86.6404 52.5792 81.0446C52.7678 80.0334 48.1794 85.3683 37.7076 85.3683C26.4632 85.3683 24.6938 78.6091 23.5004 76.4744C22.4123 74.5282 20.9614 70.7699 20.0727 68.0916C19.8986 67.5552 19.2638 65.5909 18.9845 65.1234C18.5956 64.5147 18.395 63.8049 18.4078 63.0829C18.3933 62.4849 22.7532 60.5206 23.7362 60.6909Z"
          fill="#4EB3C9"/>
    <g opacity="0.75">
        <path d="M52.377 81.6199C52.813 79.1251 54.19 74.0865 54.4773 72.8828L52.377 81.6199Z" fill="#4EB3C9"/>
        <path d="M52.377 81.6199C52.813 79.1251 54.19 74.0865 54.4773 72.8828" stroke="url(#paint9_linear_612_62135)"
              stroke-width="0.147618" stroke-miterlimit="10" stroke-linecap="round"/>
    </g>
    <g opacity="0.75">
        <path d="M83.7793 91.7163C85.6044 89.7508 85.2304 89.9776 84.7492 84.7377C84.2827 79.6327 81.5655 74.2032 79.0186 71.6543"
              fill="#4EB3C9"/>
        <path d="M79.0186 71.6543C81.5655 74.2032 84.2827 79.6327 84.7492 84.7377C85.2304 89.9776 85.6044 89.7508 83.7793 91.7163C83.7793 91.7163 82.1823 93.8142 81.1178 94.5484"
              stroke="url(#paint10_linear_612_62135)" stroke-width="0.147618" stroke-miterlimit="10"
              stroke-linecap="round"/>
    </g>
    <path d="M37.0899 28.7424C37.0916 30.0967 36.622 31.4098 35.7593 32.4631C34.8967 33.5164 33.693 34.2463 32.3486 34.5315L32.368 37.482L29.511 34.6744L24.7611 34.6839C23.1875 34.6528 21.6876 34.0158 20.5832 32.9097C19.4788 31.8036 18.8578 30.3164 18.8535 28.767C18.8491 27.2177 19.4617 25.7297 20.5599 24.6221C21.658 23.5145 23.1543 22.8756 24.7277 22.8424L31.0618 22.8342C32.6543 22.8359 34.1827 23.4587 35.3123 24.5661C36.4419 25.6736 37.0807 27.1755 37.0889 28.7433L37.0899 28.7424Z"
          fill="#F68092"/>
    <path d="M36.0894 28.4134C36.0906 29.767 35.6211 31.0793 34.759 32.1321C33.8969 33.1849 32.6941 33.9147 31.3506 34.2002L31.3677 37.1484L28.4985 34.3445L23.7511 34.3517C22.9508 34.3686 22.1548 34.2281 21.4097 33.9383C20.6646 33.6486 19.9854 33.2156 19.412 32.6645C18.8385 32.1135 18.3823 31.4556 18.0701 30.7293C17.7579 30.003 17.5959 29.223 17.5937 28.435C17.5915 27.647 17.7491 26.8667 18.0572 26.14C18.3653 25.4134 18.8178 24.7548 19.3882 24.2031C19.9585 23.6513 20.6352 23.2173 21.3787 22.9266C22.1221 22.6359 22.9173 22.4944 23.7177 22.5102L30.0518 22.502C31.6462 22.5023 33.1768 23.1245 34.3084 24.2325C35.4401 25.3405 36.0805 26.8439 36.0894 28.4134Z"
          fill="#FBCCD3"/>
    <path d="M22.2652 29.9346C22.0256 29.9439 21.7886 29.8824 21.5845 29.758C21.3805 29.6336 21.2188 29.4521 21.1202 29.2367C21.0217 29.0214 20.9907 28.782 21.0314 28.5495C21.0721 28.317 21.1825 28.1019 21.3485 27.932C21.5146 27.762 21.7285 27.6449 21.9629 27.5958C22.1973 27.5467 22.4415 27.5677 22.6639 27.6562C22.8864 27.7448 23.077 27.8967 23.2112 28.0926C23.3454 28.2884 23.4171 28.5192 23.4171 28.7552C23.4214 29.0617 23.303 29.3573 23.0874 29.578C22.8718 29.7987 22.5764 29.9269 22.2652 29.9346Z"
          fill="white"/>
    <path d="M27.2838 29.9005C27.0442 29.9097 26.8071 29.8482 26.6031 29.7238C26.3991 29.5995 26.2374 29.4179 26.1388 29.2026C26.0402 28.9872 26.0093 28.7479 26.05 28.5154C26.0906 28.2828 26.2011 28.0678 26.3671 27.8978C26.5331 27.7278 26.7471 27.6108 26.9815 27.5616C27.2159 27.5125 27.46 27.5335 27.6825 27.6221C27.9049 27.7106 28.0955 27.8625 28.2297 28.0584C28.364 28.2542 28.4357 28.485 28.4357 28.7211C28.4392 28.8732 28.4122 29.0245 28.3562 29.1662C28.3001 29.3079 28.2162 29.4373 28.1091 29.5469C28.0021 29.6565 27.8741 29.7441 27.7325 29.8048C27.5908 29.8655 27.4383 29.898 27.2838 29.9005Z"
          fill="white"/>
    <path d="M32.3218 29.8966C32.0823 29.9058 31.8452 29.8443 31.6412 29.7199C31.4371 29.5956 31.2754 29.414 31.1769 29.1987C31.0783 28.9833 31.0474 28.744 31.088 28.5114C31.1287 28.2789 31.2392 28.0639 31.4052 27.8939C31.5712 27.7239 31.7852 27.6068 32.0196 27.5577C32.254 27.5086 32.4981 27.5296 32.7206 27.6181C32.943 27.7067 33.1336 27.8586 33.2678 28.0545C33.4021 28.2503 33.4738 28.4811 33.4738 28.7171C33.4773 28.8693 33.4503 29.0206 33.3943 29.1623C33.3382 29.304 33.2543 29.4334 33.1472 29.543C33.0402 29.6526 32.9122 29.7402 32.7705 29.8009C32.6289 29.8616 32.4764 29.8941 32.3218 29.8966Z"
          fill="white"/>
    <path d="M58.7407 17.0732C58.8976 19.4327 59.8687 21.6663 61.4924 23.402C63.1161 25.1377 65.2942 26.2708 67.6643 26.6126L68.0016 31.6951L72.6335 26.4854L100.546 24.6502C101.966 24.6253 103.367 24.3156 104.663 23.7401C105.959 23.1645 107.123 22.3351 108.086 21.3021C109.048 20.2692 109.787 19.0544 110.26 17.7315C110.732 16.4086 110.927 15.0053 110.833 13.6069C110.739 12.2084 110.357 10.8441 109.712 9.59674C109.067 8.34941 108.171 7.24516 107.079 6.3511C105.988 5.45704 104.723 4.79185 103.361 4.39597C102 4.00008 100.57 3.88178 99.16 4.04823L68.4943 6.0583C65.7242 6.24648 63.1409 7.51237 61.312 9.57778C59.4831 11.6432 58.5582 14.3391 58.7407 17.0732Z"
          fill="#466AB8"/>
    <path d="M60.4417 16.396C60.6008 18.7538 61.5731 20.9851 63.1967 22.7188C64.8202 24.4525 66.9974 25.584 69.3659 25.9253L69.7008 31.0429L74.3356 25.8058L101.313 24.0317C102.712 23.9749 104.087 23.6418 105.355 23.052C106.624 22.4621 107.76 21.6276 108.697 20.5977C109.634 19.5678 110.353 18.3634 110.811 17.0556C111.269 15.7479 111.456 14.3633 111.363 12.9838C111.27 11.6042 110.898 10.2577 110.268 9.02375C109.638 7.7898 108.764 6.69345 107.697 5.7995C106.63 4.90555 105.392 4.23214 104.056 3.81904C102.72 3.40595 101.313 3.26156 99.9186 3.39442L70.1892 5.3391C68.8154 5.43412 67.4735 5.79532 66.2401 6.40208C65.0067 7.00884 63.906 7.84926 63.0009 8.87533C62.0957 9.90141 61.4039 11.093 60.9649 12.3821C60.5259 13.6712 60.3483 15.0325 60.4422 16.3883L60.4417 16.396Z"
          fill="#CAD8F6"/>
    <path d="M84.0778 19.2198C84.4044 19.1178 84.6935 18.9209 84.9081 18.6541C85.1228 18.3874 85.2533 18.0628 85.2831 17.7218C85.3129 17.3808 85.2406 17.0389 85.0754 16.7394C84.9102 16.44 84.6596 16.1967 84.3555 16.0405C84.0514 15.8843 83.7076 15.8223 83.3679 15.8623C83.0281 15.9024 82.7079 16.0427 82.4478 16.2654C82.1878 16.4882 81.9998 16.7832 81.9078 17.113C81.8158 17.4427 81.8239 17.7923 81.9311 18.1171C81.9987 18.3313 82.1079 18.5298 82.2526 18.7014C82.3973 18.8729 82.5745 19.014 82.7741 19.1165C82.9737 19.219 83.1917 19.281 83.4154 19.2987C83.6392 19.3164 83.8643 19.2896 84.0778 19.2198Z"
          fill="white"/>
    <path d="M89.7682 18.8458C90.0949 18.7438 90.3839 18.5469 90.5986 18.2801C90.8132 18.0134 90.9437 17.6888 90.9735 17.3478C91.0033 17.0068 90.931 16.6648 90.7658 16.3654C90.6006 16.066 90.35 15.8227 90.0459 15.6665C89.7418 15.5103 89.398 15.4482 89.0583 15.4883C88.7186 15.5284 88.3983 15.6687 88.1383 15.8914C87.8783 16.1141 87.6903 16.4092 87.5982 16.7389C87.5062 17.0687 87.5143 17.4183 87.6216 17.7431C87.6891 17.9572 87.7983 18.1558 87.943 18.3273C88.0877 18.4989 88.265 18.64 88.4646 18.7425C88.6641 18.845 88.8821 18.9069 89.1059 18.9247C89.3296 18.9424 89.5547 18.9156 89.7682 18.8458Z"
          fill="white"/>
    <path d="M95.4603 18.4683C95.7895 18.3671 96.0812 18.17 96.2981 17.9022C96.5151 17.6344 96.6473 17.3081 96.6779 16.9649C96.7086 16.6218 96.6362 16.2774 96.4701 15.976C96.304 15.6745 96.0518 15.4296 95.7456 15.2726C95.4395 15.1155 95.0933 15.0536 94.7514 15.0946C94.4096 15.1355 94.0876 15.2776 93.8266 15.5027C93.5656 15.7277 93.3775 16.0254 93.2864 16.3577C93.1953 16.69 93.2053 17.0418 93.3151 17.3681C93.3826 17.5823 93.4919 17.7808 93.6366 17.9524C93.7813 18.1239 93.9585 18.265 94.1581 18.3675C94.3577 18.47 94.5756 18.5319 94.7994 18.5497C95.0232 18.5674 95.2483 18.5406 95.4618 18.4708L95.4603 18.4683Z"
          fill="white"/>
    <g clip-path="url(#clip0_612_62135)">
        <path d="M74.2615 9.61781L67.5092 15.5838C65.9661 16.9472 65.837 19.2802 67.2207 20.7947C68.6045 22.3091 70.9772 22.4315 72.5203 21.0681L79.2726 15.1021C80.8157 13.7387 80.9449 11.4057 79.5611 9.89126C78.1773 8.3768 75.8046 8.25438 74.2615 9.61781Z"
              fill="#FFED91"/>
        <path d="M67.5088 15.5834L71.0014 12.4975L76.0125 17.9818L72.5199 21.0677C71.7789 21.7224 70.8042 22.0614 69.8104 22.0102C68.8165 21.9589 67.8848 21.5215 67.2203 20.7942C66.5558 20.067 66.2129 19.1094 66.267 18.1322C66.3211 17.1549 66.7678 16.2381 67.5088 15.5834Z"
              fill="#F68092"/>
    </g>
    <path d="M102.667 9.61289C103.555 9.55532 104.28 9.7529 104.843 10.2056C105.415 10.6578 105.728 11.3058 105.783 12.1496C105.84 13.0283 105.605 13.7075 105.077 14.1873C104.549 14.667 103.823 14.9368 102.901 14.9967L102.916 16.0309L101.623 16.1147L101.424 14.0703L101.855 14.0423C102.699 13.9876 103.336 13.8327 103.765 13.5778C104.203 13.3223 104.401 12.877 104.36 12.2419C104.33 11.7809 104.171 11.4286 103.884 11.1851C103.606 10.941 103.232 10.8343 102.762 10.8647C102.292 10.8952 101.93 11.0453 101.677 11.3151C101.424 11.5849 101.312 11.946 101.341 12.3983L99.944 12.4889C99.91 11.967 99.9971 11.4939 100.205 11.0698C100.414 10.6457 100.728 10.3065 101.149 10.0521C101.578 9.79709 102.084 9.6507 102.667 9.61289ZM102.438 18.9579C102.168 18.9754 101.936 18.8987 101.741 18.7279C101.546 18.5571 101.44 18.3368 101.423 18.0671C101.405 17.7975 101.482 17.5654 101.653 17.3708C101.823 17.1763 102.044 17.0703 102.314 17.0528C102.575 17.0358 102.803 17.1128 102.997 17.2836C103.192 17.4545 103.298 17.6747 103.316 17.9444C103.333 18.2141 103.257 18.4462 103.086 18.6407C102.915 18.8352 102.699 18.941 102.438 18.9579Z"
          fill="white"/>
    <defs>
        <linearGradient id="paint0_linear_612_62135" x1="-4.61518" y1="51.5334" x2="131.169" y2="93.5322"
                        gradientUnits="userSpaceOnUse">
            <stop offset="0.205013" stop-color="#C8E5FE"/>
            <stop offset="0.475852" stop-color="#97CCF6"/>
            <stop offset="0.68419" stop-color="#C8E5FE"/>
            <stop offset="1" stop-color="#97CCF6"/>
        </linearGradient>
        <linearGradient id="paint1_linear_612_62135" x1="52.3819" y1="41.3027" x2="85.1778" y2="60.5257"
                        gradientUnits="userSpaceOnUse">
            <stop stop-color="#F4A9B9"/>
            <stop offset="0.02" stop-color="#F4A7B7"/>
            <stop offset="0.37" stop-color="#F191A3"/>
            <stop offset="0.7" stop-color="#F08497"/>
            <stop offset="1" stop-color="#EF8093"/>
        </linearGradient>
        <linearGradient id="paint2_linear_612_62135" x1="65.0163" y1="52.3145" x2="65.0163" y2="59.9647"
                        gradientUnits="userSpaceOnUse">
            <stop stop-color="#E8B3A3"/>
            <stop offset="0.04" stop-color="#EBB7A7"/>
            <stop offset="0.22" stop-color="#F3C4B3"/>
            <stop offset="0.47" stop-color="#F9CBBA"/>
            <stop offset="1" stop-color="#FACDBC"/>
        </linearGradient>
        <linearGradient id="paint3_linear_612_62135" x1="61.5033" y1="52.7451" x2="70.8865" y2="36.2425"
                        gradientUnits="userSpaceOnUse">
            <stop stop-color="#E8B3A3"/>
            <stop offset="0.05" stop-color="#EBB8A8"/>
            <stop offset="0.21" stop-color="#F4C4B3"/>
            <stop offset="0.44" stop-color="#F9CBBA"/>
            <stop offset="1" stop-color="#FACDBC"/>
        </linearGradient>
        <linearGradient id="paint4_linear_612_62135" x1="69.6008" y1="110.289" x2="64.7228" y2="101.715"
                        gradientUnits="userSpaceOnUse">
            <stop stop-color="#E8B3A3"/>
            <stop offset="0.24" stop-color="#F1C0AF"/>
            <stop offset="0.58" stop-color="#F8CAB9"/>
            <stop offset="1" stop-color="#FACDBC"/>
        </linearGradient>
        <linearGradient id="paint5_linear_612_62135" x1="969.112" y1="798.607" x2="969.112" y2="742.537"
                        gradientUnits="userSpaceOnUse">
            <stop stop-color="#E8B3A3"/>
            <stop offset="0.04" stop-color="#EBB7A7"/>
            <stop offset="0.22" stop-color="#F3C4B3"/>
            <stop offset="0.47" stop-color="#F9CBBA"/>
            <stop offset="1" stop-color="#FACDBC"/>
        </linearGradient>
        <linearGradient id="paint6_linear_612_62135" x1="16.2646" y1="50.7504" x2="24.9161" y2="50.7504"
                        gradientUnits="userSpaceOnUse">
            <stop stop-color="#50B3CA"/>
            <stop offset="0.43" stop-color="#4DB1C9"/>
            <stop offset="0.68" stop-color="#45ACC4"/>
            <stop offset="0.89" stop-color="#37A2BD"/>
            <stop offset="1" stop-color="#2C9BB7"/>
        </linearGradient>
        <linearGradient id="paint7_linear_612_62135" x1="20.0817" y1="41.5322" x2="20.0817" y2="59.965"
                        gradientUnits="userSpaceOnUse">
            <stop stop-color="#D1EAF1"/>
            <stop offset="0.61" stop-color="#ADDBE0"/>
            <stop offset="1" stop-color="#9BD4D7"/>
        </linearGradient>
        <linearGradient id="paint8_linear_612_62135" x1="1467.77" y1="1151.55" x2="1467.77" y2="1004.39"
                        gradientUnits="userSpaceOnUse">
            <stop stop-color="#E8B3A3"/>
            <stop offset="0.04" stop-color="#EBB7A7"/>
            <stop offset="0.22" stop-color="#F3C4B3"/>
            <stop offset="0.47" stop-color="#F9CBBA"/>
            <stop offset="1" stop-color="#FACDBC"/>
        </linearGradient>
        <linearGradient id="paint9_linear_612_62135" x1="585.824" y1="2054.47" x2="615.622" y2="2055.25"
                        gradientUnits="userSpaceOnUse">
            <stop stop-color="#D1EAF1"/>
            <stop offset="0.27" stop-color="#CDE8EF"/>
            <stop offset="0.54" stop-color="#C1E4E9"/>
            <stop offset="0.82" stop-color="#ADDBE0"/>
            <stop offset="1" stop-color="#9BD4D7"/>
        </linearGradient>
        <linearGradient id="paint10_linear_612_62135" x1="1996.58" y1="5196.91" x2="2094.26" y2="5196.91"
                        gradientUnits="userSpaceOnUse">
            <stop stop-color="#D1EAF1"/>
            <stop offset="0.27" stop-color="#CDE8EF"/>
            <stop offset="0.54" stop-color="#C1E4E9"/>
            <stop offset="0.82" stop-color="#ADDBE0"/>
            <stop offset="1" stop-color="#9BD4D7"/>
        </linearGradient>
        <clipPath id="clip0_612_62135">
            <rect width="15.6975" height="11.5624" fill="white"
                  transform="matrix(0.96769 -0.254707 0.260907 0.964675 64.3018 11.7754)"/>
        </clipPath>
    </defs>
</svg>
