<svg width="368" height="320" viewBox="0 0 368 320" fill="none" xmlns="http://www.w3.org/2000/svg">
    <path d="M344.206 176.598L329.015 150.315H275.787L260.596 176.598H344.206Z" fill="url(#paint0_linear_612_61671)"/>
    <path d="M349.145 166.958H255.657C255.258 166.958 254.934 167.282 254.934 167.681V266.482C254.934 266.881 255.258 267.205 255.657 267.205H349.145C349.545 267.205 349.869 266.881 349.869 266.482V167.681C349.869 167.282 349.545 166.958 349.145 166.958Z"
          fill="url(#paint1_linear_612_61671)"/>
    <path d="M330.036 130.925H274.813C274.577 130.925 274.385 130.957 274.385 130.997V140.878C274.385 140.918 274.577 140.951 274.813 140.951H330.036C330.273 140.951 330.464 140.918 330.464 140.878V130.997C330.464 130.957 330.273 130.925 330.036 130.925Z"
          fill="url(#paint2_linear_612_61671)"/>
    <path d="M349.869 183.603H254.934V250.562H349.869V183.603Z" fill="url(#paint3_linear_612_61671)"/>
    <path d="M328.927 141.433H275.871V150.318H328.927V141.433Z" fill="url(#paint4_linear_612_61671)"/>
    <path d="M330.652 130.594H274.151C274.031 130.594 273.934 130.691 273.934 130.811V141.213C273.934 141.333 274.031 141.431 274.151 141.431H330.652C330.772 141.431 330.869 141.333 330.869 141.213V130.811C330.869 130.691 330.772 130.594 330.652 130.594Z"
          fill="url(#paint5_linear_612_61671)"/>
    <path d="M322.573 210.696H308.796V196.935C308.794 196.427 308.592 195.941 308.233 195.582C307.874 195.223 307.388 195.021 306.88 195.019H297.929C297.421 195.021 296.935 195.223 296.576 195.582C296.217 195.941 296.015 196.427 296.013 196.935V210.696H282.236C281.728 210.698 281.242 210.9 280.883 211.258C280.524 211.617 280.322 212.103 280.32 212.61V221.551C280.322 222.058 280.524 222.544 280.883 222.903C281.242 223.261 281.728 223.463 282.236 223.465H296.013V237.226C296.015 237.733 296.217 238.219 296.576 238.578C296.935 238.936 297.421 239.139 297.929 239.14H306.88C307.388 239.139 307.874 238.936 308.233 238.578C308.592 238.219 308.794 237.733 308.796 237.226V223.467H322.573C323.081 223.466 323.567 223.264 323.926 222.905C324.285 222.547 324.487 222.061 324.489 221.554V212.612C324.488 212.105 324.286 211.618 323.927 211.259C323.568 210.9 323.081 210.698 322.573 210.696Z"
          fill="url(#paint6_linear_612_61671)"/>
    <path d="M167.807 101L159.505 75.6807H130.411L122.109 101H167.807Z" fill="url(#paint7_linear_612_61671)"/>
    <path d="M170.178 91.7139H119.736C119.336 91.7139 119.012 92.0375 119.012 92.4368V187.569C119.012 187.969 119.336 188.292 119.736 188.292H170.178C170.577 188.292 170.901 187.969 170.901 187.569V92.4368C170.901 92.0375 170.577 91.7139 170.178 91.7139Z"
          fill="url(#paint8_linear_612_61671)"/>
    <path d="M170.901 107.75H119.012V172.26H170.901V107.75Z" fill="url(#paint9_linear_612_61671)"/>
    <path d="M159.457 67.1211H130.457V75.6792H159.457V67.1211Z" fill="url(#paint10_linear_612_61671)"/>
    <path d="M160.3 56.6797H129.615C129.495 56.6797 129.397 56.7769 129.397 56.8968V66.9034C129.397 67.0233 129.495 67.1205 129.615 67.1205H160.3C160.42 67.1205 160.517 67.0233 160.517 66.9034V56.8968C160.517 56.7769 160.42 56.6797 160.3 56.6797Z"
          fill="url(#paint11_linear_612_61671)"/>
    <path d="M185.675 279.742L165.023 269.574L154.026 291.876L174.678 302.039C176.147 302.792 177.752 303.246 179.399 303.374C181.046 303.502 182.701 303.301 184.27 302.783C185.838 302.265 187.287 301.44 188.533 300.357C189.779 299.274 190.797 297.954 191.527 296.474C192.257 294.994 192.684 293.383 192.785 291.736C192.885 290.09 192.656 288.439 192.112 286.882C191.567 285.324 190.717 283.89 189.612 282.664C188.507 281.438 187.169 280.443 185.675 279.739V279.742Z"
          fill="url(#paint12_linear_612_61671)"/>
    <path d="M133.367 281.708L154.019 291.876L165.016 269.574L144.364 259.406C142.896 258.666 141.296 258.224 139.656 258.106C138.016 257.987 136.368 258.194 134.809 258.716C133.249 259.237 131.809 260.061 130.57 261.142C129.332 262.223 128.32 263.538 127.593 265.011C126.867 266.485 126.44 268.088 126.337 269.727C126.234 271.366 126.458 273.01 126.994 274.563C127.531 276.115 128.371 277.546 129.465 278.773C130.559 279.999 131.885 280.997 133.367 281.708Z"
          fill="url(#paint13_linear_612_61671)"/>
    <path d="M75.124 275.917C80.8615 275.917 85.5127 271.271 85.5127 265.54C85.5127 259.809 80.8615 255.163 75.124 255.163C69.3865 255.163 64.7354 259.809 64.7354 265.54C64.7354 271.271 69.3865 275.917 75.124 275.917Z"
          fill="#F3788C"/>
    <path d="M71.5083 276.852C77.2458 276.852 81.8969 272.206 81.8969 266.475C81.8969 260.744 77.2458 256.098 71.5083 256.098C65.7708 256.098 61.1196 260.744 61.1196 266.475C61.1196 272.206 65.7708 276.852 71.5083 276.852Z"
          fill="url(#paint14_linear_612_61671)"/>
    <path d="M31.4721 266.27C37.2096 266.27 41.8608 261.625 41.8608 255.894C41.8608 250.163 37.2096 245.517 31.4721 245.517C25.7347 245.517 21.0835 250.163 21.0835 255.894C21.0835 261.625 25.7347 266.27 31.4721 266.27Z"
          fill="#F3788C"/>
    <path d="M28.0371 264.805C33.7746 264.805 38.4257 260.159 38.4257 254.428C38.4257 248.697 33.7746 244.051 28.0371 244.051C22.2996 244.051 17.6484 248.697 17.6484 254.428C17.6484 260.159 22.2996 264.805 28.0371 264.805Z"
          fill="url(#paint15_linear_612_61671)"/>
    <path d="M241.471 67.8816L231.847 42.5625H198.136L188.515 67.8816H241.471Z" fill="url(#paint16_linear_612_61671)"/>
    <path d="M244.333 58.5957H185.651C185.251 58.5957 184.927 58.9194 184.927 59.3187V216.115C184.927 216.515 185.251 216.838 185.651 216.838H244.333C244.733 216.838 245.057 216.515 245.057 216.115V59.3187C245.057 58.9194 244.733 58.5957 244.333 58.5957Z"
          fill="url(#paint17_linear_612_61671)"/>
    <path d="M245.057 74.6309H184.927V200.805H245.057V74.6309Z" fill="url(#paint18_linear_612_61671)"/>
    <path d="M231.797 34.0049H198.191V42.563H231.797V34.0049Z" fill="url(#paint19_linear_612_61671)"/>
    <path d="M232.803 23.5635H197.176C197.056 23.5635 196.959 23.6607 196.959 23.7806V33.7872C196.959 33.9071 197.056 34.0043 197.176 34.0043H232.803C232.923 34.0043 233.02 33.9071 233.02 33.7872V23.7806C233.02 23.6607 232.923 23.5635 232.803 23.5635Z"
          fill="url(#paint20_linear_612_61671)"/>
    <path d="M104.205 118.372L95.267 91.1113H63.9424L55.0039 118.372H104.205Z" fill="url(#paint21_linear_612_61671)"/>
    <path d="M106.816 108.376H52.3966C51.9969 108.376 51.6729 108.7 51.6729 109.099V211.632C51.6729 212.032 51.9969 212.355 52.3966 212.355H106.816C107.215 212.355 107.539 212.032 107.539 211.632V109.099C107.539 108.7 107.215 108.376 106.816 108.376Z"
          fill="url(#paint22_linear_612_61671)"/>
    <path d="M95.2169 81.8965H63.9946V91.1111H95.2169V81.8965Z" fill="url(#paint23_linear_612_61671)"/>
    <path d="M96.1398 70.6562H63.0685C62.9484 70.6562 62.8511 70.7535 62.8511 70.8734V81.6796C62.8511 81.7995 62.9484 81.8967 63.0685 81.8967H96.1398C96.2598 81.8967 96.3572 81.7995 96.3572 81.6796V70.8734C96.3572 70.7535 96.2598 70.6562 96.1398 70.6562Z"
          fill="url(#paint24_linear_612_61671)"/>
    <path d="M101.076 123.216H58.1328V136.265H101.076V123.216Z" fill="url(#paint25_linear_612_61671)"/>
    <path d="M101.076 144.603H58.1328V167.5H101.076V144.603Z" fill="url(#paint26_linear_612_61671)"/>
    <defs>
        <linearGradient id="paint0_linear_612_61671" x1="260.596" y1="163.457" x2="344.206" y2="163.457"
                        gradientUnits="userSpaceOnUse">
            <stop stop-color="#F3A8B7"/>
            <stop offset="0.02" stop-color="#F3A6B5"/>
            <stop offset="0.37" stop-color="#F090A1"/>
            <stop offset="0.7" stop-color="#EF8395"/>
            <stop offset="1" stop-color="#EE7F91"/>
        </linearGradient>
        <linearGradient id="paint1_linear_612_61671" x1="254.934" y1="217.08" x2="349.869" y2="217.08"
                        gradientUnits="userSpaceOnUse">
            <stop stop-color="#4EB2C9"/>
            <stop offset="0.32" stop-color="#3BA6BF"/>
            <stop offset="0.67" stop-color="#2E9DB8"/>
            <stop offset="1" stop-color="#2A9AB6"/>
        </linearGradient>
        <linearGradient id="paint2_linear_612_61671" x1="274.385" y1="135.938" x2="330.464" y2="135.938"
                        gradientUnits="userSpaceOnUse">
            <stop stop-color="#4EB2C9"/>
            <stop offset="0.32" stop-color="#3BA6BF"/>
            <stop offset="0.67" stop-color="#2E9DB8"/>
            <stop offset="1" stop-color="#2A9AB6"/>
        </linearGradient>
        <linearGradient id="paint3_linear_612_61671" x1="254.934" y1="217.081" x2="349.869" y2="217.081"
                        gradientUnits="userSpaceOnUse">
            <stop stop-color="#E7B2A2"/>
            <stop offset="0.04" stop-color="#EAB6A6"/>
            <stop offset="0.22" stop-color="#F2C3B1"/>
            <stop offset="0.47" stop-color="#F8CAB8"/>
            <stop offset="1" stop-color="#F9CCBA"/>
        </linearGradient>
        <linearGradient id="paint4_linear_612_61671" x1="57505.6" y1="5194.36" x2="68512.5" y2="5194.36"
                        gradientUnits="userSpaceOnUse">
            <stop stop-color="#E7B2A2"/>
            <stop offset="0.04" stop-color="#EAB6A6"/>
            <stop offset="0.22" stop-color="#F2C3B1"/>
            <stop offset="0.47" stop-color="#F8CAB8"/>
            <stop offset="1" stop-color="#F9CCBA"/>
        </linearGradient>
        <linearGradient id="paint5_linear_612_61671" x1="61257" y1="5875.17" x2="73931.9" y2="5875.17"
                        gradientUnits="userSpaceOnUse">
            <stop stop-color="#F3A8B7"/>
            <stop offset="0.02" stop-color="#F3A6B5"/>
            <stop offset="0.37" stop-color="#F090A1"/>
            <stop offset="0.7" stop-color="#EF8395"/>
            <stop offset="1" stop-color="#EE7F91"/>
        </linearGradient>
        <linearGradient id="paint6_linear_612_61671" x1="280.315" y1="217.08" x2="324.489" y2="217.08"
                        gradientUnits="userSpaceOnUse">
            <stop offset="0.01" stop-color="#69C1BE"/>
            <stop offset="0.46" stop-color="#54BCB5"/>
            <stop offset="1" stop-color="#3EB6AB"/>
        </linearGradient>
        <linearGradient id="paint7_linear_612_61671" x1="21940.5" y1="8772.54" x2="30105.8" y2="8772.54"
                        gradientUnits="userSpaceOnUse">
            <stop stop-color="#E7B2A2"/>
            <stop offset="0.04" stop-color="#EAB6A6"/>
            <stop offset="0.22" stop-color="#F2C3B1"/>
            <stop offset="0.47" stop-color="#F8CAB8"/>
            <stop offset="1" stop-color="#F9CCBA"/>
        </linearGradient>
        <linearGradient id="paint8_linear_612_61671" x1="24265.3" y1="52797.5" x2="34793.7" y2="52797.5"
                        gradientUnits="userSpaceOnUse">
            <stop offset="0.01" stop-color="#69C1BE"/>
            <stop offset="0.46" stop-color="#54BCB5"/>
            <stop offset="1" stop-color="#3EB6AB"/>
        </linearGradient>
        <linearGradient id="paint9_linear_612_61671" x1="24265.3" y1="35312.8" x2="34793.7" y2="35312.8"
                        gradientUnits="userSpaceOnUse">
            <stop stop-color="#F3A8B7"/>
            <stop offset="0.02" stop-color="#F3A6B5"/>
            <stop offset="0.37" stop-color="#F090A1"/>
            <stop offset="0.7" stop-color="#EF8395"/>
            <stop offset="1" stop-color="#EE7F91"/>
        </linearGradient>
        <linearGradient id="paint10_linear_612_61671" x1="14922.9" y1="2439.33" x2="18211.5" y2="2439.33"
                        gradientUnits="userSpaceOnUse">
            <stop stop-color="#E7B2A2"/>
            <stop offset="0.04" stop-color="#EAB6A6"/>
            <stop offset="0.22" stop-color="#F2C3B1"/>
            <stop offset="0.47" stop-color="#F8CAB8"/>
            <stop offset="1" stop-color="#F9CCBA"/>
        </linearGradient>
        <linearGradient id="paint11_linear_612_61671" x1="15874.5" y1="2562.48" x2="19661.2" y2="2562.48"
                        gradientUnits="userSpaceOnUse">
            <stop offset="0.01" stop-color="#69C1BE"/>
            <stop offset="0.46" stop-color="#54BCB5"/>
            <stop offset="1" stop-color="#3EB6AB"/>
        </linearGradient>
        <linearGradient id="paint12_linear_612_61671" x1="2426.56" y1="47699.4" x2="7248.82" y2="50079.1"
                        gradientUnits="userSpaceOnUse">
            <stop stop-color="#4EB2C9"/>
            <stop offset="0.32" stop-color="#3BA6BF"/>
            <stop offset="0.67" stop-color="#2E9DB8"/>
            <stop offset="1" stop-color="#2A9AB6"/>
        </linearGradient>
        <linearGradient id="paint13_linear_612_61671" x1="-21040.5" y1="-55309.2" x2="-25853.1" y2="-57684.2"
                        gradientUnits="userSpaceOnUse">
            <stop stop-color="#F3A8B7"/>
            <stop offset="0.02" stop-color="#F3A6B5"/>
            <stop offset="0.37" stop-color="#F090A1"/>
            <stop offset="0.7" stop-color="#EF8395"/>
            <stop offset="1" stop-color="#EE7F91"/>
        </linearGradient>
        <linearGradient id="paint14_linear_612_61671" x1="5026.47" y1="21856.7" x2="6714.63" y2="21856.7"
                        gradientUnits="userSpaceOnUse">
            <stop stop-color="#E7B2A2"/>
            <stop offset="0.04" stop-color="#EAB6A6"/>
            <stop offset="0.22" stop-color="#F2C3B1"/>
            <stop offset="0.47" stop-color="#F8CAB8"/>
            <stop offset="1" stop-color="#F9CCBA"/>
        </linearGradient>
        <linearGradient id="paint15_linear_612_61671" x1="-17312.6" y1="26143" x2="-15980.1" y2="27173"
                        gradientUnits="userSpaceOnUse">
            <stop stop-color="#E7B2A2"/>
            <stop offset="0.04" stop-color="#EAB6A6"/>
            <stop offset="0.22" stop-color="#F2C3B1"/>
            <stop offset="0.47" stop-color="#F8CAB8"/>
            <stop offset="1" stop-color="#F9CCBA"/>
        </linearGradient>
        <linearGradient id="paint16_linear_612_61671" x1="188.515" y1="55.2233" x2="241.471" y2="55.2233"
                        gradientUnits="userSpaceOnUse">
            <stop offset="0.01" stop-color="#E7E7E8"/>
            <stop offset="0.4" stop-color="#EEEDEE"/>
            <stop offset="1" stop-color="#F3F2F3"/>
        </linearGradient>
        <linearGradient id="paint17_linear_612_61671" x1="43663" y1="85000" x2="57800.2" y2="85000"
                        gradientUnits="userSpaceOnUse">
            <stop stop-color="#4EB2C9"/>
            <stop offset="0.32" stop-color="#3BA6BF"/>
            <stop offset="0.67" stop-color="#2E9DB8"/>
            <stop offset="1" stop-color="#2A9AB6"/>
        </linearGradient>
        <linearGradient id="paint18_linear_612_61671" x1="43663" y1="67802.3" x2="57800.2" y2="67802.3"
                        gradientUnits="userSpaceOnUse">
            <stop offset="0.01" stop-color="#E7E7E8"/>
            <stop offset="0.4" stop-color="#EEEDEE"/>
            <stop offset="1" stop-color="#F3F2F3"/>
        </linearGradient>
        <linearGradient id="paint19_linear_612_61671" x1="26240.4" y1="1296.75" x2="30655.9" y2="1296.75"
                        gradientUnits="userSpaceOnUse">
            <stop offset="0.01" stop-color="#E7E7E8"/>
            <stop offset="0.4" stop-color="#EEEDEE"/>
            <stop offset="1" stop-color="#F3F2F3"/>
        </linearGradient>
        <linearGradient id="paint20_linear_612_61671" x1="27968.3" y1="1175.82" x2="33053.2" y2="1175.82"
                        gradientUnits="userSpaceOnUse">
            <stop stop-color="#4EB2C9"/>
            <stop offset="0.32" stop-color="#3BA6BF"/>
            <stop offset="0.67" stop-color="#2E9DB8"/>
            <stop offset="1" stop-color="#2A9AB6"/>
        </linearGradient>
        <linearGradient id="paint21_linear_612_61671" x1="10636.8" y1="11205.3" x2="20102.2" y2="11205.3"
                        gradientUnits="userSpaceOnUse">
            <stop offset="0.01" stop-color="#69C1BE"/>
            <stop offset="0.46" stop-color="#54BCB5"/>
            <stop offset="1" stop-color="#3EB6AB"/>
        </linearGradient>
        <linearGradient id="paint22_linear_612_61671" x1="11338.9" y1="65140.1" x2="23542.4" y2="65140.1"
                        gradientUnits="userSpaceOnUse">
            <stop offset="0.01" stop-color="#69C1BE"/>
            <stop offset="0.46" stop-color="#54BCB5"/>
            <stop offset="1" stop-color="#3EB6AB"/>
        </linearGradient>
        <linearGradient id="paint23_linear_612_61671" x1="7876.42" y1="3180.87" x2="11688" y2="3180.87"
                        gradientUnits="userSpaceOnUse">
            <stop stop-color="#E7B2A2"/>
            <stop offset="0.04" stop-color="#EAB6A6"/>
            <stop offset="0.22" stop-color="#F2C3B1"/>
            <stop offset="0.47" stop-color="#F8CAB8"/>
            <stop offset="1" stop-color="#F9CCBA"/>
        </linearGradient>
        <linearGradient id="paint24_linear_612_61671" x1="8296.97" y1="3400.86" x2="12686.6" y2="3400.86"
                        gradientUnits="userSpaceOnUse">
            <stop offset="0.01" stop-color="#E7E7E8"/>
            <stop offset="0.4" stop-color="#EEEDEE"/>
            <stop offset="1" stop-color="#F3F2F3"/>
        </linearGradient>
        <linearGradient id="paint25_linear_612_61671" x1="9819.16" y1="6720.21" x2="17029.8" y2="6720.21"
                        gradientUnits="userSpaceOnUse">
            <stop offset="0.01" stop-color="#E7E7E8"/>
            <stop offset="0.4" stop-color="#EEEDEE"/>
            <stop offset="1" stop-color="#F3F2F3"/>
        </linearGradient>
        <linearGradient id="paint26_linear_612_61671" x1="9819.16" y1="14078.8" x2="17029.8" y2="14078.8"
                        gradientUnits="userSpaceOnUse">
            <stop offset="0.01" stop-color="#E7E7E8"/>
            <stop offset="0.4" stop-color="#EEEDEE"/>
            <stop offset="1" stop-color="#F3F2F3"/>
        </linearGradient>
    </defs>
</svg>
