<svg width="186" height="137" viewBox="0 0 186 137" fill="none" xmlns="http://www.w3.org/2000/svg">
<path d="M98.1347 43.1973C87.1449 44.0934 11.4355 43.9734 0.289062 43.1973" stroke="#EFEFEF" stroke-width="0.0541511" stroke-linecap="round" stroke-linejoin="round"/>
<path d="M86.8188 34.4335L85.3468 31.8848H80.1927L78.7207 34.4335H86.8188Z" fill="url(#paint0_linear_1288_5606)"/>
<path d="M86.9964 33.5449H78.6006C78.38 33.5449 78.2012 33.7237 78.2012 33.9443V42.8647C78.2012 43.0853 78.38 43.2641 78.6006 43.2641H86.9964C87.217 43.2641 87.3958 43.0853 87.3958 42.8647V33.9443C87.3958 33.7237 87.217 33.5449 86.9964 33.5449Z" fill="url(#paint1_linear_1288_5606)"/>
<path d="M87.3958 35.1533H78.2012V41.645H87.3958V35.1533Z" fill="url(#paint2_linear_1288_5606)"/>
<path d="M85.3808 31.0371H80.2422V31.898H85.3808V31.0371Z" fill="url(#paint3_linear_1288_5606)"/>
<path d="M85.4467 29.999H80.1727C80.1064 29.999 80.0527 30.0527 80.0527 30.119V30.9304C80.0527 30.9967 80.1064 31.0504 80.1727 31.0504H85.4467C85.513 31.0504 85.5667 30.9967 85.5667 30.9304V30.119C85.5667 30.0527 85.513 29.999 85.4467 29.999Z" fill="url(#paint4_linear_1288_5606)"/>
<path d="M84.7467 37.7465H83.4173V36.4128C83.4169 36.3636 83.3972 36.3164 83.3623 36.2815C83.3275 36.2467 83.2803 36.2269 83.231 36.2266H82.3645C82.34 36.2266 82.3158 36.2314 82.2932 36.2407C82.2706 36.2501 82.25 36.2638 82.2327 36.2811C82.2154 36.2984 82.2017 36.319 82.1924 36.3416C82.183 36.3642 82.1782 36.3884 82.1782 36.4128V37.7465H80.8445C80.82 37.7465 80.7958 37.7513 80.7732 37.7606C80.7506 37.77 80.7301 37.7837 80.7128 37.801C80.6955 37.8183 80.6817 37.8389 80.6724 37.8615C80.663 37.8841 80.6582 37.9083 80.6582 37.9327V38.7992C80.6582 38.8237 80.663 38.8479 80.6724 38.8705C80.6817 38.8931 80.6955 38.9137 80.7128 38.931C80.7301 38.9483 80.7506 38.962 80.7732 38.9713C80.7958 38.9807 80.82 38.9855 80.8445 38.9855H82.1782V40.3191C82.1782 40.3436 82.183 40.3678 82.1924 40.3904C82.2017 40.413 82.2154 40.4336 82.2327 40.4509C82.25 40.4682 82.2706 40.4819 82.2932 40.4912C82.3158 40.5006 82.34 40.5054 82.3645 40.5054H83.231C83.2803 40.5051 83.3275 40.4853 83.3623 40.4504C83.3972 40.4156 83.4169 40.3684 83.4173 40.3191V38.9855H84.751C84.8003 38.9852 84.8474 38.9654 84.8823 38.9306C84.9172 38.8957 84.9369 38.8485 84.9373 38.7992V37.9327C84.9371 37.908 84.932 37.8835 84.9223 37.8607C84.9126 37.8379 84.8985 37.8172 84.8808 37.7999C84.8631 37.7826 84.8421 37.769 84.8191 37.7598C84.7961 37.7506 84.7715 37.7461 84.7467 37.7465Z" fill="url(#paint5_linear_1288_5606)"/>
<path d="M14.4059 36.7208L13.3305 34.8594H9.56369L8.48828 36.7208H14.4059Z" fill="url(#paint6_linear_1288_5606)"/>
<path d="M14.3916 36.0361H8.47264C8.25206 36.0361 8.07324 36.2149 8.07324 36.4355V42.7381C8.07324 42.9586 8.25206 43.1375 8.47264 43.1375H14.3916C14.6122 43.1375 14.791 42.9586 14.791 42.7381V36.4355C14.791 36.2149 14.6122 36.0361 14.3916 36.0361Z" fill="url(#paint7_linear_1288_5606)"/>
<path d="M14.791 37.2119H8.07324V41.9551H14.791V37.2119Z" fill="url(#paint8_linear_1288_5606)"/>
<path d="M13.3322 34.2539H9.57812V34.8833H13.3322V34.2539Z" fill="url(#paint9_linear_1288_5606)"/>
<path d="M13.3497 33.4414H9.56039C9.49414 33.4414 9.44043 33.4951 9.44043 33.5614V34.0892C9.44043 34.1554 9.49414 34.2091 9.56039 34.2091H13.3497C13.416 34.2091 13.4697 34.1554 13.4697 34.0892V33.5614C13.4697 33.4951 13.416 33.4414 13.3497 33.4414Z" fill="url(#paint10_linear_1288_5606)"/>
<path d="M12.863 39.1374H11.8877V38.1665C11.8877 38.1291 11.8729 38.0932 11.8464 38.0667C11.8199 38.0403 11.784 38.0254 11.7466 38.0254H11.1129C11.0755 38.0254 11.0396 38.0403 11.0131 38.0667C10.9867 38.0932 10.9718 38.1291 10.9718 38.1665V39.1417H9.9966C9.95917 39.1417 9.92327 39.1565 9.8968 39.183C9.87034 39.2095 9.85547 39.2454 9.85547 39.2828V39.9164C9.85547 39.9539 9.87034 39.9898 9.8968 40.0162C9.92327 40.0427 9.95917 40.0576 9.9966 40.0576H10.9718V41.0327C10.9718 41.0702 10.9867 41.1061 11.0131 41.1325C11.0396 41.159 11.0755 41.1739 11.1129 41.1739H11.7466C11.784 41.1739 11.8199 41.159 11.8464 41.1325C11.8729 41.1061 11.8877 41.0702 11.8877 41.0327V40.0576H12.863C12.9004 40.0576 12.9363 40.0427 12.9628 40.0162C12.9892 39.9898 13.0041 39.9539 13.0041 39.9164V39.2828C13.0047 39.2639 13.0014 39.2451 12.9946 39.2275C12.9877 39.2099 12.9774 39.1938 12.9643 39.1803C12.9511 39.1667 12.9354 39.1559 12.918 39.1486C12.9006 39.1412 12.8819 39.1374 12.863 39.1374Z" fill="url(#paint11_linear_1288_5606)"/>
<path d="M68.0169 35.77L66.4264 33.5967H60.8517L59.2598 35.77H68.0169Z" fill="url(#paint12_linear_1288_5606)"/>
<path d="M68.2317 34.9639H59.0879C58.8673 34.9639 58.6885 35.1427 58.6885 35.3632V42.8541C58.6885 43.0746 58.8673 43.2534 59.0879 43.2534H68.2317C68.4523 43.2534 68.6311 43.0746 68.6311 42.8541V35.3632C68.6311 35.1427 68.4523 34.9639 68.2317 34.9639Z" fill="url(#paint13_linear_1288_5606)"/>
<path d="M68.6311 36.3301H58.6885V41.8678H68.6311V36.3301Z" fill="url(#paint14_linear_1288_5606)"/>
<path d="M66.4245 32.8359H60.8682V33.5712H66.4245V32.8359Z" fill="url(#paint15_linear_1288_5606)"/>
<path d="M66.5205 31.9365H60.7977C60.7314 31.9365 60.6777 31.9902 60.6777 32.0565V32.7127C60.6777 32.779 60.7314 32.8327 60.7977 32.8327H66.5205C66.5868 32.8327 66.6405 32.779 66.6405 32.7127V32.0565C66.6405 31.9902 66.5868 31.9365 66.5205 31.9365Z" fill="url(#paint16_linear_1288_5606)"/>
<path d="M75.5286 35.7464L74.8074 33.5449H72.2798L71.5586 35.7464H75.5286Z" fill="url(#paint17_linear_1288_5606)"/>
<path d="M75.3905 34.9639H71.6816C71.461 34.9639 71.2822 35.1427 71.2822 35.3632V42.9627C71.2822 43.1833 71.461 43.3621 71.6816 43.3621H75.3905C75.6111 43.3621 75.7899 43.1833 75.7899 42.9627V35.3632C75.7899 35.1427 75.6111 34.9639 75.3905 34.9639Z" fill="url(#paint18_linear_1288_5606)"/>
<path d="M75.7899 36.3301H71.2822V41.9397H75.7899V36.3301Z" fill="url(#paint19_linear_1288_5606)"/>
<path d="M74.7825 32.8359H72.2676V33.5784H74.7825V32.8359Z" fill="url(#paint20_linear_1288_5606)"/>
<path d="M74.7614 31.8848H72.3014C72.2353 31.8848 72.1816 31.9384 72.1816 32.0045V32.6709C72.1816 32.737 72.2353 32.7906 72.3014 32.7906H74.7614C74.8275 32.7906 74.8811 32.737 74.8811 32.6709V32.0045C74.8811 31.9384 74.8275 31.8848 74.7614 31.8848Z" fill="url(#paint21_linear_1288_5606)"/>
<path d="M24.9119 35.7479L24.1908 33.5449H21.6645L20.9434 35.7479H24.9119Z" fill="url(#paint22_linear_1288_5606)"/>
<path d="M24.7577 34.9111H21.0488C20.8282 34.9111 20.6494 35.0899 20.6494 35.3105V42.91C20.6494 43.1306 20.8282 43.3094 21.0488 43.3094H24.7577C24.9783 43.3094 25.1571 43.1306 25.1571 42.91V35.3105C25.1571 35.0899 24.9783 34.9111 24.7577 34.9111Z" fill="url(#paint23_linear_1288_5606)"/>
<path d="M24.1507 32.7842H21.6357V33.5266H24.1507V32.7842Z" fill="url(#paint24_linear_1288_5606)"/>
<path d="M24.1285 31.8848H21.6686C21.6024 31.8848 21.5488 31.9384 21.5488 32.0045V32.6709C21.5488 32.737 21.6024 32.7907 21.6686 32.7907H24.1285C24.1947 32.7907 24.2483 32.737 24.2483 32.6709V32.0045C24.2483 31.9384 24.1947 31.8848 24.1285 31.8848Z" fill="url(#paint25_linear_1288_5606)"/>
<path d="M31.011 30.5066L30.1741 28.3037H27.2456L26.4102 30.5066H31.011Z" fill="url(#paint26_linear_1288_5606)"/>
<path d="M30.9049 29.7217H26.4805C26.2599 29.7217 26.0811 29.9005 26.0811 30.1211V43.0832C26.0811 43.3038 26.2599 43.4826 26.4805 43.4826H30.9049C31.1255 43.4826 31.3043 43.3038 31.3043 43.0832V30.1211C31.3043 29.9005 31.1255 29.7217 30.9049 29.7217Z" fill="url(#paint27_linear_1288_5606)"/>
<path d="M31.3043 31.0889H26.0811V42.0612H31.3043V31.0889Z" fill="url(#paint28_linear_1288_5606)"/>
<path d="M30.1764 27.5596H27.2578V28.3033H30.1764V27.5596Z" fill="url(#paint29_linear_1288_5606)"/>
<path d="M30.1665 26.6602H27.2733C27.207 26.6602 27.1533 26.7139 27.1533 26.7801V27.4476C27.1533 27.5139 27.207 27.5676 27.2733 27.5676H30.1665C30.2327 27.5676 30.2864 27.5139 30.2864 27.4476V26.7801C30.2864 26.7139 30.2327 26.6602 30.1665 26.6602Z" fill="url(#paint30_linear_1288_5606)"/>
<path d="M37.134 30.5052L36.2971 28.3037H33.3687L32.5332 30.5052H37.134Z" fill="url(#paint31_linear_1288_5606)"/>
<path d="M37.0289 29.7217H32.6045C32.3839 29.7217 32.2051 29.9005 32.2051 30.1211V43.0832C32.2051 43.3038 32.3839 43.4826 32.6045 43.4826H37.0289C37.2495 43.4826 37.4283 43.3038 37.4283 43.0832V30.1211C37.4283 29.9005 37.2495 29.7217 37.0289 29.7217Z" fill="url(#paint32_linear_1288_5606)"/>
<path d="M37.4283 31.0889H32.2051V42.0612H37.4283V31.0889Z" fill="url(#paint33_linear_1288_5606)"/>
<path d="M36.2994 27.5596H33.3809V28.3033H36.2994V27.5596Z" fill="url(#paint34_linear_1288_5606)"/>
<path d="M36.3081 26.6602H33.4149C33.3486 26.6602 33.2949 26.7139 33.2949 26.7801V27.4476C33.2949 27.5139 33.3486 27.5676 33.4149 27.5676H36.3081C36.3743 27.5676 36.428 27.5139 36.428 27.4476V26.7801C36.428 26.7139 36.3743 26.6602 36.3081 26.6602Z" fill="url(#paint35_linear_1288_5606)"/>
<path d="M54.6626 39.3916H46.9795C46.7589 39.3916 46.5801 39.5704 46.5801 39.791V43.0862C46.5801 43.3068 46.7589 43.4856 46.9795 43.4856H54.6626C54.8832 43.4856 55.062 43.3068 55.062 43.0862V39.791C55.062 39.5704 54.8832 39.3916 54.6626 39.3916Z" fill="url(#paint36_linear_1288_5606)"/>
<path d="M55.062 40.3779H46.5801V40.9311H55.062V40.3779Z" fill="url(#paint37_linear_1288_5606)"/>
<path d="M54.6662 35.292H48.0176C47.797 35.292 47.6182 35.4708 47.6182 35.6914V38.9866C47.6182 39.2072 47.797 39.386 48.0176 39.386H54.6662C54.8868 39.386 55.0656 39.2072 55.0656 38.9866V35.6914C55.0656 35.4708 54.8868 35.292 54.6662 35.292Z" fill="url(#paint38_linear_1288_5606)"/>
<path d="M55.0656 36.2783H47.6182V36.8315H55.0656V36.2783Z" fill="url(#paint39_linear_1288_5606)"/>
<path d="M24.6327 36.1396H21.168V37.1938H24.6327V36.1396Z" fill="url(#paint40_linear_1288_5606)"/>
<path d="M24.6327 37.8867H21.168V39.7368H24.6327V37.8867Z" fill="url(#paint41_linear_1288_5606)"/>
<path d="M0.4375 71.0361C11.4273 71.9337 87.1353 71.8137 98.2818 71.0361" stroke="#EFEFEF" stroke-width="0.0541511" stroke-linecap="round" stroke-linejoin="round"/>
<path d="M11.6992 62.2699L13.1698 59.7227H18.3253L19.7959 62.2699H11.6992Z" fill="url(#paint42_linear_1288_5606)"/>
<path d="M11.5876 71.0879H19.9834C20.204 71.0879 20.3828 70.9091 20.3828 70.6885V61.7681C20.3828 61.5475 20.204 61.3687 19.9834 61.3687H11.5876C11.367 61.3687 11.1882 61.5475 11.1882 61.7681L11.1882 70.6885C11.1882 70.9091 11.367 71.0879 11.5876 71.0879Z" fill="url(#paint43_linear_1288_5606)"/>
<path d="M11.1882 69.4443H20.3828V62.9527H11.1882V69.4443Z" fill="url(#paint44_linear_1288_5606)"/>
<path d="M13.2198 59.7227H18.3584V58.8618H13.2198V59.7227Z" fill="url(#paint45_linear_1288_5606)"/>
<path d="M13.1372 58.875H18.4113C18.4775 58.875 18.5312 58.8213 18.5312 58.755V57.9436C18.5312 57.8773 18.4775 57.8236 18.4113 57.8236H13.1372C13.071 57.8236 13.0173 57.8773 13.0173 57.9436V58.755C13.0173 58.8213 13.071 58.875 13.1372 58.875Z" fill="url(#paint46_linear_1288_5606)"/>
<path d="M13.8216 65.5844H15.1567V64.2493C15.1567 64.2003 15.1762 64.1533 15.2108 64.1186C15.2455 64.0839 15.2925 64.0645 15.3416 64.0645H16.2095C16.2586 64.0645 16.3056 64.0839 16.3403 64.1186C16.3749 64.1533 16.3944 64.2003 16.3944 64.2493V65.5844H17.7295C17.7785 65.5844 17.8256 65.6038 17.8602 65.6385C17.8949 65.6732 17.9144 65.7202 17.9144 65.7692V66.6371C17.9144 66.6862 17.8949 66.7332 17.8602 66.7679C17.8256 66.8025 17.7785 66.822 17.7295 66.822H16.3944V68.157C16.3944 68.2061 16.3749 68.2531 16.3403 68.2878C16.3056 68.3224 16.2586 68.3419 16.2095 68.3419H15.3416C15.2925 68.3419 15.2455 68.3224 15.2108 68.2878C15.1762 68.2531 15.1567 68.2061 15.1567 68.157V66.822H13.8216C13.7726 66.822 13.7255 66.8025 13.6909 66.7679C13.6562 66.7332 13.6367 66.6862 13.6367 66.6371V65.7692C13.6367 65.7202 13.6562 65.6732 13.6909 65.6385C13.7255 65.6038 13.7726 65.5844 13.8216 65.5844Z" fill="url(#paint47_linear_1288_5606)"/>
<path d="M84.1621 64.5597L85.2361 62.6982H89.0029L90.0783 64.5597H84.1621Z" fill="url(#paint48_linear_1288_5606)"/>
<path d="M84.2099 71.001H90.1289C90.3495 71.001 90.5283 70.8222 90.5283 70.6016V64.299C90.5283 64.0785 90.3495 63.8996 90.1289 63.8996H84.2099C83.9893 63.8996 83.8105 64.0785 83.8105 64.299V70.6016C83.8105 70.8222 83.9893 71.001 84.2099 71.001Z" fill="url(#paint49_linear_1288_5606)"/>
<path d="M83.8105 69.8076H90.5283V65.0645H83.8105V69.8076Z" fill="url(#paint50_linear_1288_5606)"/>
<path d="M85.2518 62.6982H89.0059V62.0688H85.2518V62.6982Z" fill="url(#paint51_linear_1288_5606)"/>
<path d="M85.2518 62.0752H89.0412C89.1074 62.0752 89.1611 62.0215 89.1611 61.9552V61.4274C89.1611 61.3612 89.1074 61.3075 89.0412 61.3075H85.2518C85.1856 61.3075 85.1319 61.3612 85.1319 61.4274V61.9552C85.1319 62.0215 85.1856 62.0752 85.2518 62.0752Z" fill="url(#paint52_linear_1288_5606)"/>
<path d="M85.7159 66.963H86.6911V65.9878C86.6911 65.9504 86.706 65.9145 86.7324 65.888C86.7589 65.8616 86.7948 65.8467 86.8322 65.8467H87.4659C87.5033 65.8467 87.5392 65.8616 87.5657 65.888C87.5922 65.9145 87.607 65.9504 87.607 65.9878V66.963H88.5823C88.6197 66.963 88.6556 66.9778 88.6821 67.0043C88.7085 67.0308 88.7234 67.0667 88.7234 67.1041V67.7377C88.7234 67.7752 88.7085 67.8111 88.6821 67.8375C88.6556 67.864 88.6197 67.8789 88.5823 67.8789H87.607V68.854C87.607 68.8915 87.5922 68.9273 87.5657 68.9538C87.5392 68.9803 87.5033 68.9952 87.4659 68.9952H86.8209C86.7835 68.9952 86.7476 68.9803 86.7212 68.9538C86.6947 68.9273 86.6798 68.8915 86.6798 68.854V67.8789H85.7046C85.6672 67.8789 85.6313 67.864 85.6048 67.8375C85.5783 67.8111 85.5635 67.7752 85.5635 67.7377V67.1041C85.5634 67.0846 85.5674 67.0652 85.5752 67.0473C85.583 67.0294 85.5944 67.0134 85.6087 67.0001C85.623 66.9868 85.64 66.9767 85.6584 66.9703C85.6769 66.9639 85.6964 66.9614 85.7159 66.963Z" fill="url(#paint53_linear_1288_5606)"/>
<path d="M30.5537 63.5913L32.1442 61.418H37.7189L39.3094 63.5913H30.5537Z" fill="url(#paint54_linear_1288_5606)"/>
<path d="M30.3523 71.0879H39.4961C39.7167 71.0879 39.8955 70.9091 39.8955 70.6885V63.1977C39.8955 62.9771 39.7167 62.7983 39.4961 62.7983H30.3523C30.1317 62.7983 29.9529 62.9771 29.9529 63.1977V70.6885C29.9529 70.9091 30.1317 71.0879 30.3523 71.0879Z" fill="url(#paint55_linear_1288_5606)"/>
<path d="M29.9529 69.7207H39.8955V64.183H29.9529V69.7207Z" fill="url(#paint56_linear_1288_5606)"/>
<path d="M32.1244 61.418H37.6807V60.6827H32.1244V61.418Z" fill="url(#paint57_linear_1288_5606)"/>
<path d="M32.0635 60.6738H37.7863C37.8525 60.6738 37.9062 60.6201 37.9062 60.5539V59.8977C37.9062 59.8314 37.8525 59.7777 37.7863 59.7777H32.0635C31.9972 59.7777 31.9435 59.8314 31.9435 59.8977V60.5539C31.9435 60.6201 31.9972 60.6738 32.0635 60.6738Z" fill="url(#paint58_linear_1288_5606)"/>
<path d="M23.0635 63.5857L23.7847 61.3828H26.3123L27.0335 63.5857H23.0635Z" fill="url(#paint59_linear_1288_5606)"/>
<path d="M23.1935 71.1738H26.9024C27.1229 71.1738 27.3018 70.995 27.3018 70.7744V63.175C27.3018 62.9544 27.1229 62.7756 26.9024 62.7756H23.1935C22.9729 62.7756 22.7941 62.9544 22.7941 63.175V70.7744C22.7941 70.995 22.9729 71.1738 23.1935 71.1738Z" fill="url(#paint60_linear_1288_5606)"/>
<path d="M22.7941 69.7734H27.3018V64.1638H22.7941V69.7734Z" fill="url(#paint61_linear_1288_5606)"/>
<path d="M23.8015 61.3828H26.3164V60.6404H23.8015V61.3828Z" fill="url(#paint62_linear_1288_5606)"/>
<path d="M23.8226 60.6221H26.2826C26.3487 60.6221 26.4023 60.5685 26.4023 60.5023V59.8359C26.4023 59.7698 26.3487 59.7162 26.2826 59.7162H23.8226C23.7565 59.7162 23.7029 59.7698 23.7029 59.8359V60.5023C23.7029 60.5685 23.7565 60.6221 23.8226 60.6221Z" fill="url(#paint63_linear_1288_5606)"/>
<path d="M78.5918 63.5843L79.313 61.3828H81.8406L82.5618 63.5843H78.5918Z" fill="url(#paint64_linear_1288_5606)"/>
<path d="M78.7218 71.1396H82.4307C82.6513 71.1396 82.8301 70.9608 82.8301 70.7403V63.1408C82.8301 62.9202 82.6513 62.7414 82.4307 62.7414H78.7218C78.5012 62.7414 78.3224 62.9202 78.3224 63.1408V70.7403C78.3224 70.9608 78.5012 71.1396 78.7218 71.1396Z" fill="url(#paint65_linear_1288_5606)"/>
<path d="M79.3288 61.3828H81.8438V60.6404H79.3288V61.3828Z" fill="url(#paint66_linear_1288_5606)"/>
<path d="M79.3685 60.6221H81.8285C81.8946 60.6221 81.9482 60.5685 81.9482 60.5023V59.8359C81.9482 59.7698 81.8946 59.7162 81.8285 59.7162H79.3685C79.3024 59.7162 79.2488 59.7698 79.2488 59.8359V60.5023C79.2488 60.5685 79.3024 60.6221 79.3685 60.6221Z" fill="url(#paint67_linear_1288_5606)"/>
<path d="M67.5557 58.3431L68.3912 56.1416H71.3196L72.1551 58.3431H67.5557Z" fill="url(#paint68_linear_1288_5606)"/>
<path d="M67.6449 71.2783H72.0693C72.2899 71.2783 72.4688 71.0995 72.4688 70.8789V57.9168C72.4688 57.6962 72.2899 57.5174 72.0693 57.5174H67.6449C67.4243 57.5174 67.2455 57.6962 67.2455 57.9168V70.8789C67.2455 71.0995 67.4243 71.2783 67.6449 71.2783Z" fill="url(#paint69_linear_1288_5606)"/>
<path d="M67.2455 69.9111H72.4688V58.9388H67.2455V69.9111Z" fill="url(#paint70_linear_1288_5606)"/>
<path d="M68.4086 56.1416H71.3271V55.3979H68.4086V56.1416Z" fill="url(#paint71_linear_1288_5606)"/>
<path d="M68.4175 55.3975H71.3107C71.377 55.3975 71.4307 55.3438 71.4307 55.2775V54.61C71.4307 54.5437 71.377 54.49 71.3107 54.49H68.4175C68.3513 54.49 68.2976 54.5437 68.2976 54.61V55.2775C68.2976 55.3438 68.3513 55.3975 68.4175 55.3975Z" fill="url(#paint72_linear_1288_5606)"/>
<path d="M4.96973 58.015L5.80522 55.8135H8.73367L9.57058 58.015H4.96973Z" fill="url(#paint73_linear_1288_5606)"/>
<path d="M5.0414 71.001H9.46584C9.68642 71.001 9.86523 70.8222 9.86523 70.6016L9.86523 57.6394C9.86523 57.4188 9.68642 57.24 9.46584 57.24H5.0414C4.82082 57.24 4.642 57.4188 4.642 57.6394L4.642 70.6016C4.642 70.8222 4.82082 71.001 5.0414 71.001Z" fill="url(#paint74_linear_1288_5606)"/>
<path d="M4.642 69.583H9.86523L9.86523 58.6107H4.642L4.642 69.583Z" fill="url(#paint75_linear_1288_5606)"/>
<path d="M5.82264 55.8135H8.74121V55.0698H5.82264V55.8135Z" fill="url(#paint76_linear_1288_5606)"/>
<path d="M5.81401 55.0518H8.70719C8.77344 55.0518 8.82715 54.9981 8.82715 54.9318V54.2643C8.82715 54.198 8.77344 54.1443 8.70719 54.1443H5.81401C5.74776 54.1443 5.69405 54.198 5.69405 54.2643V54.9318C5.69405 54.9981 5.74776 55.0518 5.81401 55.0518Z" fill="url(#paint77_linear_1288_5606)"/>
<path d="M51.4116 71.3301H59.0947C59.3153 71.3301 59.4941 71.1513 59.4941 70.9307V67.6355C59.4941 67.4149 59.3153 67.2361 59.0947 67.2361H51.4116C51.191 67.2361 51.0122 67.4149 51.0122 67.6355V70.9307C51.0122 71.1513 51.191 71.3301 51.4116 71.3301Z" fill="url(#paint78_linear_1288_5606)"/>
<path d="M51.0122 68.7695H59.4941V68.2163H51.0122V68.7695Z" fill="url(#paint79_linear_1288_5606)"/>
<path d="M51.4256 67.2305H58.0742C58.2948 67.2305 58.4736 67.0517 58.4736 66.8311V63.5359C58.4736 63.3153 58.2948 63.1365 58.0742 63.1365H51.4256C51.205 63.1365 51.0262 63.3153 51.0262 63.5359V66.8311C51.0262 67.0517 51.205 67.2305 51.4256 67.2305Z" fill="url(#paint80_linear_1288_5606)"/>
<path d="M51.0262 64.6699H58.4736V64.1167H51.0262V64.6699Z" fill="url(#paint81_linear_1288_5606)"/>
<path d="M134.355 107.42C135.096 106.785 158.132 106.935 158.714 107.42C159.297 107.906 159.93 116.17 159.684 116.675C159.438 117.18 132.052 116.97 131.469 116.675C130.886 116.38 133.676 108.004 134.355 107.42Z" fill="url(#paint82_linear_1288_5606)"/>
<path d="M139.26 45.8188C139.287 57.2498 139.542 107.638 139.796 109.87C140.05 112.103 152.416 112.2 152.587 109.87C152.757 107.541 153.184 46.8871 152.587 45.8188C151.99 44.7505 139.258 44.7505 139.26 45.8188Z" fill="url(#paint83_linear_1288_5606)"/>
<path d="M131.664 120.627C131.838 121.245 159.281 121.416 159.379 120.768C159.444 120.345 159.921 117.352 159.662 116.535C159.489 115.989 131.835 115.718 131.447 116.394C131.059 117.07 131.567 120.29 131.664 120.627Z" fill="url(#paint84_linear_1288_5606)"/>
<path d="M120.885 45.9741C120.157 47.0014 119.114 48.1248 119.091 49.4175C119.081 49.982 119.091 51.2365 120.398 51.5075C121.496 51.7361 170.195 52.1538 172.097 51.5075C172.828 51.2605 173.085 49.6503 173.048 49.2086C172.917 47.7353 171.086 46.5428 170.314 45.9741C169.312 45.2374 121.819 44.6602 120.885 45.9741Z" fill="url(#paint85_linear_1288_5606)"/>
<path d="M121.68 42.6353C120.707 44.0042 118.208 48.9718 119.316 49.1566C120.424 49.3415 171.147 49.8933 172.624 49.1566C174.1 48.42 171.307 43.3706 170.305 42.6353C169.303 41.9001 122.614 41.3201 121.68 42.6353Z" fill="url(#paint86_linear_1288_5606)"/>
<path d="M127.373 43.639C126.748 44.2219 126.309 45.9196 126.611 46.0226C128.536 46.6817 163.702 46.669 164.688 46.0226C164.992 45.8236 164.532 43.5459 163.668 43.433C162.804 43.3201 127.914 43.1352 127.373 43.639Z" fill="url(#paint87_linear_1288_5606)"/>
<path d="M127.294 16.6259C130.754 16.2618 162.012 16.1306 164.598 16.6259C167.183 17.1212 167.581 18.9375 167.581 21.4156C167.581 23.2996 168.085 35.4292 167.849 38.8147C167.613 42.2003 166.959 42.3146 165.292 42.4487C164.022 42.5517 129.428 42.5009 127.058 42.4487C125.224 42.4091 124.236 41.8616 124.31 38.8147C124.346 37.2468 124.154 22.9849 124.31 20.5068C124.467 18.0287 124.938 16.8729 127.294 16.6259Z" fill="url(#paint88_linear_1288_5606)"/>
<path d="M165.954 18.0664C165.083 17.5908 127.037 17.4539 126.086 18.1454C125.216 18.7776 124.978 39.7373 125.533 40.1338C125.878 40.3822 129.703 40.5445 134.892 40.6405C134.984 36.14 138.872 33.7692 141.298 32.993C142.338 32.6614 143.98 32.1336 144.038 32.3311C144.057 32.3975 144.087 32.8039 144.124 33.3585C144.714 34.2899 146.155 35.7393 147.316 35.7393C147.93 35.7393 148.829 34.5002 149.314 33.4813C149.362 32.7362 149.456 32.2789 149.584 32.3325C152.061 33.3359 154.382 36.2233 154.984 40.7322C161.488 40.6913 166.415 40.3667 166.556 40.227C166.95 39.8304 166.825 18.5377 165.954 18.0664Z" fill="url(#paint89_linear_1288_5606)"/>
<path d="M147.282 35.7391C146.121 35.7391 144.68 34.2898 144.09 33.3584C144.163 34.4719 144.261 36.1809 144.347 36.9274C144.462 37.9153 144.457 39.5114 144.454 40.7377C146.132 40.7462 147.826 40.749 149.488 40.7476C149.465 40.4428 149.444 40.1507 149.42 39.8727C149.254 37.8377 149.182 35.0335 149.279 33.4798C148.795 34.5001 147.899 35.7391 147.282 35.7391Z" fill="url(#paint90_linear_1288_5606)"/>
<path d="M149.597 32.3423C149.173 32.1743 149.22 36.8723 149.467 39.8839C149.491 40.1662 149.512 40.4484 149.534 40.7589C151.417 40.7589 153.259 40.7518 154.996 40.7419C154.402 36.233 152.073 33.3457 149.597 32.3423Z" fill="url(#paint91_linear_1288_5606)"/>
<path d="M152.654 37.8201C152.997 37.0834 153.239 36.55 153.242 35.2671C153.242 32.9584 151.69 31.0927 151.756 29.0718C151.793 27.8441 151.982 25.6849 152.064 24.6603C152.186 23.1376 151.499 21.2169 150.627 20.253C149.732 19.2652 148.49 18.8841 147.315 18.8037C145.621 18.688 143.765 19.5164 142.77 20.9107C141.531 22.6465 141.641 25.9361 141.555 26.9197C141.383 28.9646 140.547 30.3405 139.359 31.2141C137.651 32.4673 136.203 34.0888 136.081 36.5923C135.972 38.8023 152.654 37.8201 152.654 37.8201Z" fill="url(#paint92_linear_1288_5606)"/>
<path d="M147.282 35.7391C146.121 35.7391 144.68 34.2898 144.09 33.3584C144.163 34.4719 144.261 36.1809 144.347 36.9274C144.462 37.9153 144.457 39.5114 144.454 40.7377C146.132 40.7462 147.826 40.749 149.488 40.7476C149.465 40.4428 149.444 40.1507 149.42 39.8727C149.254 37.8377 149.182 35.0335 149.279 33.4798C148.795 34.5001 147.899 35.7391 147.282 35.7391Z" fill="url(#paint93_linear_1288_5606)"/>
<path d="M145.124 29.2383C145.124 29.0972 147.058 30.0385 148.592 29.3314V30.6679C148.592 31.4271 148.858 32.168 149.518 32.5152C149.647 32.5843 149.321 33.8686 148.754 34.6701C148.187 35.4717 147.296 35.9402 147.182 35.9402C145.852 35.9402 144.107 33.9645 143.985 33.5115C143.916 33.2462 143.86 32.4672 143.936 32.391C144.012 32.3148 144.752 31.9027 144.987 31.238C145.145 30.8005 145.099 29.8705 145.124 29.2383Z" fill="url(#paint94_linear_1288_5606)"/>
<path d="M147.843 20.5918C148.513 20.5918 150.495 22.2585 151.139 23.4326C151.529 24.1382 151.533 24.9469 151.482 25.6906C151.299 28.3564 149.44 29.2497 148.886 29.4713C147.929 29.8509 145.702 29.9342 144.405 29.1537C144.101 28.9703 142.938 28.1292 142.773 26.8774C142.763 26.7998 141.993 27.1103 141.557 26.6319C141.265 26.3101 141.115 25.692 141.133 25.1769C141.152 24.6618 141.427 23.8757 142.099 23.784C142.77 23.6923 143.144 23.9802 143.144 23.9802C143.144 23.9802 146.622 20.5876 147.843 20.5918Z" fill="url(#paint95_linear_1288_5606)"/>
<path d="M149.597 32.3423C149.173 32.1743 149.22 36.8723 149.467 39.8839C149.491 40.1662 149.512 40.4484 149.534 40.7589C151.417 40.7589 153.259 40.7518 154.996 40.7419C154.402 36.233 152.073 33.3457 149.597 32.3423Z" fill="url(#paint96_linear_1288_5606)"/>
<path d="M144.34 36.9246C144.211 35.8111 144.058 32.5258 143.997 32.3282C143.936 32.1306 142.303 32.6584 141.257 32.9901C138.831 33.7663 134.943 36.1371 134.852 40.6376C137.748 40.6912 141.068 40.7251 144.448 40.7392C144.45 39.5086 144.455 37.9125 144.34 36.9246Z" fill="url(#paint97_linear_1288_5606)"/>
<path d="M144.34 36.9246C144.211 35.8111 144.058 32.5258 143.997 32.3282C143.936 32.1306 142.303 32.6584 141.257 32.9901C138.831 33.7663 134.943 36.1371 134.852 40.6376C137.748 40.6912 141.068 40.7251 144.448 40.7392C144.45 39.5086 144.455 37.9125 144.34 36.9246Z" fill="url(#paint98_linear_1288_5606)"/>
<path d="M145.325 26.5845C144.53 26.5845 144.165 26.1696 143.998 25.8211C143.869 25.5269 143.806 25.208 143.813 24.8868C143.813 24.4874 144.084 23.4629 145.325 23.4629C146.703 23.4629 146.909 24.4098 146.909 24.9743C146.909 25.3525 146.795 26.5845 145.325 26.5845ZM145.325 23.6703C144.035 23.6703 144.019 24.8685 144.019 24.8812C144.012 25.1722 144.069 25.4612 144.186 25.7279C144.39 26.1513 144.773 26.3729 145.325 26.3729C146.568 26.3729 146.702 25.392 146.702 24.9701C146.702 24.3802 146.464 23.6703 145.325 23.6703Z" fill="#7F8080"/>
<path d="M149.743 26.5634C148.981 26.5634 148.631 26.1641 148.473 25.8296C148.348 25.5482 148.287 25.2427 148.294 24.9349C148.294 24.5496 148.555 23.5674 149.744 23.5674C151.068 23.5674 151.266 24.4762 151.266 25.0181C151.264 25.3808 151.154 26.5634 149.743 26.5634ZM149.743 23.7734C148.514 23.7734 148.5 24.9165 148.5 24.9278C148.492 25.2071 148.546 25.4845 148.658 25.7407C148.852 26.1485 149.222 26.356 149.743 26.356C150.93 26.356 151.058 25.4203 151.058 25.0181C151.058 24.4565 150.83 23.7734 149.743 23.7734Z" fill="#7F8080"/>
<path d="M146.738 24.4496C146.714 24.4503 146.69 24.4426 146.671 24.4279C146.653 24.4132 146.639 24.3924 146.634 24.369C146.629 24.3457 146.632 24.3213 146.643 24.3C146.654 24.2787 146.672 24.2618 146.694 24.2524C147.324 23.9607 147.882 23.9622 148.449 24.2524C148.462 24.2585 148.473 24.267 148.482 24.2775C148.491 24.2879 148.498 24.3001 148.502 24.3132C148.506 24.3264 148.508 24.3403 148.506 24.354C148.505 24.3677 148.501 24.3811 148.495 24.3933C148.488 24.4055 148.48 24.4164 148.469 24.4253C148.459 24.4342 148.447 24.4409 148.433 24.4451C148.42 24.4493 148.407 24.4509 148.393 24.4497C148.379 24.4485 148.366 24.4447 148.354 24.4383C147.839 24.1735 147.355 24.1735 146.778 24.4383C146.766 24.4452 146.752 24.449 146.738 24.4496Z" fill="#7F8080"/>
<path d="M151.37 24.2151H151.342C151.234 24.1937 151.124 24.1857 151.014 24.1912C150.989 24.1882 150.965 24.176 150.948 24.1569C150.931 24.1378 150.922 24.1132 150.922 24.0876C150.922 24.062 150.931 24.0374 150.948 24.0183C150.965 23.9992 150.989 23.987 151.014 23.9841C151.144 23.9781 151.274 23.9885 151.401 24.015C151.428 24.0223 151.45 24.0397 151.464 24.0634C151.478 24.0871 151.482 24.1153 151.475 24.1418C151.468 24.1639 151.454 24.183 151.435 24.1963C151.416 24.2095 151.394 24.2161 151.37 24.2151Z" fill="#7F8080"/>
<path d="M144.355 24.0107H144.338C143.945 23.9637 143.548 23.9529 143.153 23.9783C143.127 23.9776 143.103 23.9673 143.084 23.9493C143.065 23.9314 143.054 23.9071 143.052 23.8812C143.05 23.8553 143.058 23.8297 143.074 23.8093C143.09 23.789 143.114 23.7754 143.139 23.7712C143.55 23.745 143.962 23.7573 144.371 23.8078C144.396 23.8121 144.419 23.8256 144.435 23.8458C144.45 23.866 144.458 23.8915 144.456 23.9171C144.454 23.9427 144.443 23.9666 144.424 23.9842C144.405 24.0018 144.381 24.0118 144.355 24.0121V24.0107Z" fill="#7F8080"/>
<path d="M185.457 124.917C183.27 124.317 176.339 123.505 169.477 122.258C170.824 120.68 175.272 117.726 175.348 118.085C175.439 118.508 175.519 118.791 175.673 118.791C176.144 118.791 176.024 115.885 175.402 115.772C175.087 115.714 171.003 117.862 168.597 119.927C168.796 112.248 169.328 101.226 169.161 101.016C168.961 100.759 165.828 100.755 165.71 101.216C165.428 102.309 165.132 117.2 165.068 121.207C157.938 119.654 152.059 118.933 150.967 118.902C149.874 118.871 149.528 121.682 149.595 122.148C149.661 122.614 150.451 122.093 150.518 121.83C150.584 121.568 150.625 120.967 151.082 120.9C151.295 120.871 157.346 121.689 164.607 123.232C161.543 124.63 151.707 129.028 151.315 129.966C150.923 130.905 150.657 133.836 151.174 133.827C152.324 133.809 152.612 133.134 152.817 131.815C152.896 131.298 162.24 126.904 166.07 125.262C167.211 127.969 169.29 134.323 169.376 134.695C169.474 135.119 169.441 136.473 169.704 136.902C169.968 137.331 171.634 136.548 171.634 136.318C171.625 135.665 171.578 135.013 171.493 134.365C171.409 133.926 169.631 126.723 168.407 124.304C168.453 124.282 168.924 124.262 168.959 124.244C176.827 125.924 184.604 126.775 184.698 126.925C184.887 127.231 184.807 128.016 185.122 128.28C185.436 128.544 185.814 128.267 185.881 127.839C185.947 127.412 186.05 125.08 185.457 124.917Z" fill="url(#paint99_linear_1288_5606)"/>
<path d="M174.806 93.7135C178.746 94.0847 182.263 94.5815 181.968 97.6213C181.673 100.661 181.003 101.396 173.985 101.911C166.966 102.427 164.12 102.147 159.684 101.777C154.214 101.323 152.801 100.136 152.402 97.4872C152.081 95.3703 154.377 94.0537 159.059 93.7234C163.74 93.3932 171.859 93.4355 174.806 93.7135Z" fill="url(#paint100_linear_1288_5606)"/>
<path d="M138.263 120.125C138.108 121.701 137.797 123.257 137.334 124.771L140.401 125.857L140.728 120.125H138.263Z" fill="url(#paint101_linear_1288_5606)"/>
<path d="M140.652 121.418C140.652 121.418 145.967 120.844 145.77 121.418C145.572 121.993 144.782 127.33 144.782 127.33L140.396 125.847L140.652 121.418Z" fill="url(#paint102_linear_1288_5606)"/>
<path d="M144.629 88.3158C143.587 88.6771 141.981 88.9339 141.593 90.3057C140.639 94.7637 136.264 120.506 137.449 121.247C138.343 121.803 143.094 123.072 144.135 121.175C147.31 115.376 146.596 96.1397 150.178 95.856C155.016 95.4736 158.702 87.4239 158.118 87.5015C155.469 87.8543 146.846 87.5467 144.629 88.3158Z" fill="url(#paint103_linear_1288_5606)"/>
<path d="M153.952 87.2005C151.468 87.2457 147.319 87.5688 145.105 88.3295C144.23 88.6071 143.5 89.2194 143.075 90.0328C142.166 94.2792 138.947 121.309 139.792 121.835C140.687 122.399 146.362 123.83 146.911 122.483C149.401 116.358 149.079 97.0199 152.671 97.0199C160.524 97.0199 173.338 99.7435 179.329 96.5217C182.151 95.006 182.926 91.3523 182.513 88.2519C181.453 87.2372 164.494 84.2764 163.912 84.354C161.261 84.7153 156.474 87.1553 153.952 87.2005Z" fill="url(#paint104_linear_1288_5606)"/>
<path d="M173.493 51.8796C173.493 53.209 172.968 54.3845 171.961 54.8672C169.939 55.8367 180.614 55.467 179.993 54.7571C179.372 54.0473 178.753 52.9846 178.707 52.0532C178.662 51.1218 173.493 51.8796 173.493 51.8796Z" fill="url(#paint105_linear_1288_5606)"/>
<path d="M141.18 55.8269C139.734 55.357 139.78 55.3132 138.519 54.6288C137.411 54.0276 136.358 52.9791 135.678 52.773C134.997 52.567 133.782 52.5063 133.106 52.6658C132.43 52.8252 130.546 53.9923 130.292 54.1137C130.038 54.2351 130.55 54.5625 131.019 54.6048C131.487 54.6471 132.79 54.1123 133.521 54.1941C134.252 54.276 135.958 55.158 135.963 55.4318C135.967 55.7056 135.834 55.8791 135.019 55.6646C134.203 55.4501 133.072 55.2272 132.94 55.309C132.807 55.3909 132.758 55.7902 132.914 55.8961C133.071 56.0019 134.928 57.0589 135.234 57.1083C135.7 57.2126 136.171 57.2889 136.646 57.3369C137.469 57.4174 139.56 58.7637 140.237 59.1715C140.915 59.5794 141.855 56.0428 141.18 55.8269Z" fill="url(#paint106_linear_1288_5606)"/>
<path d="M157.979 85.3815C156.394 85.589 156.42 85.5227 154.918 85.462C153.599 85.4027 152.137 84.9158 151.398 85.0259C150.66 85.136 149.475 85.6144 148.902 86.0519C148.329 86.4894 147.317 88.2449 147.125 88.4665C146.933 88.6881 147.568 88.7572 148.032 88.5921C148.497 88.427 148.597 87.696 149.798 87.8088C150.444 87.8695 150.937 88.4411 151.967 88.6387C152.502 88.7403 153.816 88.4707 154.225 88.3183C155.041 88.0191 157.509 87.6339 158.335 87.7087C159.161 87.7835 158.719 85.2842 157.979 85.3815Z" fill="url(#paint107_linear_1288_5606)"/>
<path d="M172.932 55.0312C171.409 55.1075 160.545 57.2808 154.386 57.7055C147.562 58.1783 140.608 55.2909 140.499 55.3841C140.061 55.7609 139.473 59.1012 139.497 59.121C142.13 61.2844 148.823 64.1718 152.647 64.6418C156.066 65.0651 168.431 65.3474 169.583 64.399C170.358 63.7541 172.932 55.0312 172.932 55.0312Z" fill="url(#paint108_linear_1288_5606)"/>
<path d="M139.081 58.9406C139.143 59.0168 139.955 55.4605 140.19 55.1472C140.281 55.0287 141.376 55.2601 141.137 56.0744C140.996 56.5655 140.468 56.7532 140.432 57.2613C140.395 57.7693 140.631 58.0784 140.515 58.5088C140.296 59.3527 139.209 59.0987 139.081 58.9406Z" fill="url(#paint109_linear_1288_5606)"/>
<path d="M171.714 55.0284C172.047 54.7743 174.029 55.6338 176.112 55.3459C177.2 55.1963 179.479 54.4992 179.835 54.6106C180.191 54.7221 183.271 58.9615 183.692 64.1097C184.268 71.1588 182.09 74.7645 181.962 77.7535C181.744 82.7619 182.7 86.8333 182.7 90.2019C182.7 90.2019 166.43 91.1066 163.963 85.9937C163.812 85.6818 160.925 88.4407 156.86 88.1966C156.578 88.1797 156.966 85.0919 157.1 85.0919C157.196 85.0919 161.324 81.7176 164.289 75.6183C165.406 73.3222 166.278 68.6891 166.81 66.4086C167.493 63.476 168.855 57.2087 171.714 55.0284Z" fill="url(#paint110_linear_1288_5606)"/>
<path d="M174.908 65.9121C174.309 69.4529 171.756 74.8396 169.423 78.6386C166.936 82.686 164.765 85.0795 163.974 85.8599" stroke="#B3B2B2" stroke-width="0.0180504" stroke-linecap="round" stroke-linejoin="round"/>
<path d="M172.128 54.5763C173.288 54.733 175.918 55.3483 179.677 54.3773C179.968 54.3025 181.011 55.5176 180.948 55.6122C180.548 56.2317 179.883 55.4132 179.418 55.6122C178.952 55.8112 179.507 56.521 178.929 56.5873C178.352 56.6537 178.043 55.8337 177.534 55.9001C177.024 55.9664 176.801 56.8089 176.248 56.8089C175.527 56.8089 175.542 55.9918 175.074 56.0144C174.605 56.0369 174.36 56.7285 173.833 56.6508C173.228 56.5619 173.202 55.9833 172.807 55.9001C172.279 55.7886 171.729 56.4194 171.371 56.3234C170.782 56.1625 171.119 55.646 171.207 55.447C171.294 55.2481 171.825 54.534 172.128 54.5763Z" fill="url(#paint111_linear_1288_5606)"/>
<path d="M156.578 88.2181C156.461 88.1532 156.348 85.2658 156.388 85.1219C156.427 84.9779 157.387 84.5249 157.469 85.3689C157.518 85.8783 157.271 86.5049 157.427 86.989C157.582 87.473 157.808 87.4123 157.861 87.847C157.964 88.7149 156.758 88.3183 156.578 88.2181Z" fill="url(#paint112_linear_1288_5606)"/>
<path d="M137.292 123.896C137.292 123.896 139.033 124.983 140.181 124.753C140.579 124.673 140.392 130.947 137.961 131.286C137.726 131.318 128.102 131.197 127.123 129.186C126.733 128.387 128.181 126.805 129.869 126.672C131.557 126.54 136.551 125.826 137.292 123.896Z" fill="url(#paint113_linear_1288_5606)"/>
<path d="M145.22 125.838C145.637 126.662 145.116 132.591 144.848 133.168C144.523 133.873 139.246 133.392 137.017 132.898C134.787 132.404 132.063 132.701 130.543 132.207C129.023 131.713 127.335 130.461 127.335 129.966C127.335 129.834 127.875 128.649 130.611 128.714C133.346 128.779 137.499 127.162 138.373 126.531C139.246 125.9 140.207 124.59 140.26 124.719C140.312 124.847 141.176 125.818 142.155 125.979C144.354 126.342 145.103 125.608 145.22 125.838Z" fill="url(#paint114_linear_1288_5606)"/>
<path d="M152.587 60.9151C152.503 60.9154 152.421 60.8853 152.357 60.8303C152.293 60.7754 152.251 60.6993 152.239 60.6159C152.088 59.645 152.957 54.0918 160.747 51.1607C169.18 47.9953 170.02 43.0813 170.077 41.6518C170.151 39.7946 169.361 38.2013 168.066 37.5931C168.022 37.5751 167.982 37.5483 167.948 37.5142C167.914 37.4801 167.888 37.4395 167.87 37.3949C167.852 37.3502 167.844 37.3025 167.846 37.2546C167.847 37.2066 167.859 37.1595 167.879 37.1161C167.899 37.0727 167.928 37.0338 167.964 37.002C168 36.9702 168.042 36.946 168.088 36.9309C168.133 36.9159 168.181 36.9103 168.229 36.9144C168.277 36.9186 168.323 36.9325 168.366 36.9552C169.918 37.6834 170.866 39.5377 170.782 41.68C170.619 45.7909 166.96 49.5829 160.996 51.8225C153.743 54.5448 152.81 59.6718 152.936 60.5016C152.943 60.5475 152.941 60.5943 152.93 60.6395C152.919 60.6846 152.899 60.7272 152.872 60.7647C152.845 60.8022 152.81 60.8339 152.77 60.858C152.731 60.8821 152.687 60.8982 152.641 60.9052L152.587 60.9151Z" fill="url(#paint115_linear_1288_5606)"/>
<path d="M152.71 62.5878C153.705 62.5878 154.511 61.7816 154.511 60.7871C154.511 59.7925 153.705 58.9863 152.71 58.9863C151.715 58.9863 150.909 59.7925 150.909 60.7871C150.909 61.7816 151.715 62.5878 152.71 62.5878Z" fill="url(#paint116_linear_1288_5606)"/>
<path d="M171.359 35.1007C169.807 36.2085 169.452 37.4871 169.013 38.4877C168.26 40.2164 168.263 43.1871 168.26 44.3838C168.26 45.4916 168.924 48.5512 170.343 49.1721C171.679 49.7564 174.024 49.5264 175 48.6838C175.977 47.8413 177.43 44.9159 176.855 42.1668C176.279 39.4177 176.722 39.6407 174.992 36.4936C173.261 33.3466 171.359 35.1007 171.359 35.1007Z" fill="url(#paint117_linear_1288_5606)"/>
<path d="M170.912 35.2985C171.935 34.0368 173.371 33.1943 175.993 33.1943C179.847 33.1943 182.214 35.2604 183.499 38.2113C185.758 43.3976 183.045 43.121 184.593 44.6225C186.141 46.1241 185.996 48.7899 185.192 49.5618C183.837 50.8686 182.39 51.5883 181.556 51.5813C179.889 51.5686 179.298 52.5819 177.655 52.5692C176.013 52.5565 175.949 53.224 174.353 53.1336C172.757 53.0433 170.683 50.7346 171.649 50.4283C173.819 49.7537 174.154 47.5847 174.531 46.8381C174.61 46.6801 174.39 45.242 174.618 45.1983C174.847 45.1545 176.521 44.2626 176.614 43.1591C176.755 41.4021 175.239 40.4989 173.865 41.4303C173.642 41.5813 172.003 39.8342 171.56 38.5923C171.117 37.3504 170.565 35.7219 170.912 35.2985Z" fill="url(#paint118_linear_1288_5606)"/>
<path d="M122.152 18.3601C122.152 19.6669 121.785 23.7849 122.883 24.2577C125.09 25.2103 114.534 23.5775 115.211 22.8803C115.888 22.1832 117.129 20.6788 116.929 18.5309C116.844 17.6193 122.152 18.3601 122.152 18.3601Z" fill="url(#paint119_linear_1288_5606)"/>
<path d="M122.967 3.58152C125.067 4.87421 125.047 6.03566 125.627 7.18299C126.625 9.15872 126.56 12.5132 126.539 13.8666C126.518 15.1198 125.541 18.2584 123.575 18.923C121.729 19.5496 117.701 19.6696 116.377 18.6916C115.054 17.7136 113.978 14.4579 113.953 11.2516C113.919 6.19795 115.423 4.57785 115.741 4.37746C120.05 1.67353 122.316 3.18355 122.967 3.58152Z" fill="url(#paint120_linear_1288_5606)"/>
<path d="M145.072 56.6466C146.673 56.3855 148.237 56.6099 148.98 56.8695C149.724 57.1292 150.842 58.3951 151.251 58.5814C151.66 58.7676 152.627 59.0273 152.627 59.287C152.627 60.0688 150.879 60.0307 150.767 59.9192C150.656 59.8077 151.847 61.5195 151.586 62.0784C151.325 62.6372 150.469 61.7806 150.023 61.7058C149.577 61.631 148.273 62.0784 147.194 61.9288C146.114 61.7792 145.52 60.9621 145.077 60.5895C144.634 60.217 143.03 59.5847 143.03 59.5847L145.072 56.6466Z" fill="url(#paint121_linear_1288_5606)"/>
<path d="M126.725 5.26106C126.794 4.55544 126.725 4.18993 125.888 3.84982C125.051 3.50972 125.628 2.57971 125.126 2.2382C124.624 1.89668 124.203 1.75273 123.753 1.78519C123.047 1.83458 122.429 0.759222 121.759 0.742287C121.088 0.725353 120.731 0.946916 119.893 0.946916C119.055 0.946916 119.046 0.60822 118.208 0.589874C117.369 0.571528 117.705 0.805794 116.867 1.14026C116.029 1.47472 115.079 1.07111 114.298 1.52552C113.821 1.80777 113.452 2.12247 112.613 2.54443C112.331 2.68556 112.105 3.87805 111.573 4.30001C110.944 4.79817 110.149 5.11852 109.834 5.59975C109.317 6.38581 110.208 7.95369 109.82 8.49137C109.312 9.18993 110.484 10.0282 110.625 10.5998C110.781 11.232 111.181 10.9935 111.456 11.6257C111.692 12.169 111.412 11.8289 111.555 12.3497C111.748 13.0553 112.458 12.5049 112.743 13.2811C113.028 14.0573 112.896 13.7906 113.136 14.2111C113.583 14.9957 113.627 14.3635 113.891 14.9097C114.207 15.5645 114.109 16.1642 115.008 16.0767C115.573 16.0217 117.151 14.9816 117.598 14.3663C117.897 13.9528 120.016 13.919 120.082 12.6263C120.131 11.6779 119.763 10.9991 120.247 10.3373C121.02 9.28166 122.32 10.1129 123.493 10.1439C124.666 10.175 124.393 8.10751 125 6.91502C125.549 5.84531 126.632 6.20658 126.725 5.26106Z" fill="url(#paint122_linear_1288_5606)"/>
<path d="M119.814 122.396C121.808 124.325 125.187 124.471 126.579 124.421C127.067 124.394 127.547 124.559 127.915 124.88C128.284 125.202 128.514 125.654 128.554 126.141C128.554 126.706 128.166 127.866 125.732 128.449C123.297 129.032 119.324 129.837 118.839 129.483C118.353 129.129 119.351 121.949 119.814 122.396Z" fill="url(#paint123_linear_1288_5606)"/>
<path d="M113.245 127.562C112.724 128.399 112.755 134.739 112.992 135.376C113.282 136.148 119.014 136.101 121.46 135.775C123.906 135.449 126.823 135.854 128.498 135.465C130.173 135.075 132.146 134.992 132.145 133.373C132.145 133.232 131.679 131.928 128.731 131.756C125.783 131.584 121.442 129.639 120.546 128.903C119.649 128.166 118.749 126.684 118.674 126.813C118.599 126.941 117.593 127.898 116.525 127.982C114.133 128.173 113.392 127.328 113.245 127.562Z" fill="url(#paint124_linear_1288_5606)"/>
<path d="M110.559 86.8281C110.43 87.6974 110.475 90.3562 110.418 93.4609C110.403 94.2738 109.571 99.9851 110.056 107.13C110.243 109.89 110.523 112.246 110.986 115.475C111.721 120.6 112.137 126.214 112.315 126.141C112.607 126.021 113.551 126.038 113.454 125.294C113.357 124.55 115.289 87.7031 114.319 87.2966C113.35 86.8902 110.559 86.8281 110.559 86.8281Z" fill="url(#paint125_linear_1288_5606)"/>
<path d="M124.208 87.148C123.602 95.6719 122.514 99.0179 122.222 101.833C121.93 104.649 120.756 126.289 121.048 127.82C121.34 129.351 112.883 129.396 111.912 128.596C110.941 127.796 111.136 110.495 112.495 100.098C113.854 89.6996 113.078 86.8841 113.757 86.8841C114.436 86.8841 124.258 86.4269 124.208 87.148Z" fill="url(#paint126_linear_1288_5606)"/>
<path d="M145.126 56.4982C143.672 55.1689 132.31 50.104 131.227 42.9716C129.861 33.9623 128.175 29.9671 125.109 27.4141C121.05 24.0272 115.332 22.0684 114.035 23.4359C108.802 28.9524 106.608 37.5666 106.997 49.2163C107.385 60.866 106.652 83.155 106.412 86.5208C106.172 89.8866 126.708 89.3433 129.168 87.9321C131.628 86.5208 130.592 56.511 131.24 56.7015C131.888 56.892 141.973 61.6916 143.006 61.5406C143.744 61.4333 145.956 57.2589 145.126 56.4982Z" fill="url(#paint127_linear_1288_5606)"/>
<path d="M113.485 23.9381C114.147 22.462 115.439 21.8721 116.215 21.8721C116.991 21.8721 122.607 24.0157 123.901 24.9217C125.195 25.8278 124.889 26.3584 124.889 27.2644C124.889 28.1704 113.485 23.9381 113.485 23.9381Z" fill="url(#paint128_linear_1288_5606)"/>
<path d="M131.246 56.6854C124.671 53.043 121.155 46.9733 120.509 39.6377" stroke="#B3B2B2" stroke-width="0.0180504" stroke-linecap="round" stroke-linejoin="round"/>
<path d="M129.956 64.8586C128.716 64.9997 122.974 64.8586 121.347 64.8586C119.814 64.8586 120.04 72.427 122.349 73.9258C124.25 75.1592 125.692 75.7237 128.215 74.1967C131.385 72.2817 130.371 64.8134 129.956 64.8586Z" stroke="#B3B2B2" stroke-width="0.0180504" stroke-linecap="round" stroke-linejoin="round"/>
<defs>
<linearGradient id="paint0_linear_1288_5606" x1="78.7207" y1="33.1591" x2="86.8188" y2="33.1591" gradientUnits="userSpaceOnUse">
<stop stop-color="#F9D0D7"/>
<stop offset="0.2" stop-color="#F8C5CD"/>
<stop offset="0.51" stop-color="#F6BDC5"/>
<stop offset="1" stop-color="#F6BAC3"/>
</linearGradient>
<linearGradient id="paint1_linear_1288_5606" x1="78.2012" y1="38.4038" x2="87.3958" y2="38.4038" gradientUnits="userSpaceOnUse">
<stop stop-color="#50B3CA"/>
<stop offset="0.32" stop-color="#3DA7C0"/>
<stop offset="0.67" stop-color="#309EB9"/>
<stop offset="1" stop-color="#2C9BB7"/>
</linearGradient>
<linearGradient id="paint2_linear_1288_5606" x1="5167.81" y1="2397.47" x2="5766.84" y2="2397.47" gradientUnits="userSpaceOnUse">
<stop stop-color="#F9D0D7"/>
<stop offset="0.2" stop-color="#F8C5CD"/>
<stop offset="0.51" stop-color="#F6BDC5"/>
<stop offset="1" stop-color="#F6BAC3"/>
</linearGradient>
<linearGradient id="paint3_linear_1288_5606" x1="80.2422" y1="31.4675" x2="85.3808" y2="31.4675" gradientUnits="userSpaceOnUse">
<stop offset="0.01" stop-color="#6AC2BE"/>
<stop offset="0.05" stop-color="#67C1BD"/>
<stop offset="0.39" stop-color="#50BBB3"/>
<stop offset="0.71" stop-color="#43B7AD"/>
<stop offset="1" stop-color="#3EB6AB"/>
</linearGradient>
<linearGradient id="paint4_linear_1288_5606" x1="3204.15" y1="354.042" x2="3419.64" y2="354.042" gradientUnits="userSpaceOnUse">
<stop stop-color="#F9D0D7"/>
<stop offset="0.2" stop-color="#F8C5CD"/>
<stop offset="0.51" stop-color="#F6BDC5"/>
<stop offset="1" stop-color="#F6BAC3"/>
</linearGradient>
<linearGradient id="paint5_linear_1288_5606" x1="2671.3" y1="1835.4" x2="2801.04" y2="1835.4" gradientUnits="userSpaceOnUse">
<stop offset="0.01" stop-color="#6AC2BE"/>
<stop offset="0.05" stop-color="#67C1BD"/>
<stop offset="0.39" stop-color="#50BBB3"/>
<stop offset="0.71" stop-color="#43B7AD"/>
<stop offset="1" stop-color="#3EB6AB"/>
</linearGradient>
<linearGradient id="paint6_linear_1288_5606" x1="8.48828" y1="35.7894" x2="14.4059" y2="35.7894" gradientUnits="userSpaceOnUse">
<stop stop-color="#F4A9B9"/>
<stop offset="0.02" stop-color="#F4A7B7"/>
<stop offset="0.37" stop-color="#F191A3"/>
<stop offset="0.7" stop-color="#F08497"/>
<stop offset="1" stop-color="#EF8093"/>
</linearGradient>
<linearGradient id="paint7_linear_1288_5606" x1="389.04" y1="2681.35" x2="708.875" y2="2681.35" gradientUnits="userSpaceOnUse">
<stop stop-color="#F4A9B9"/>
<stop offset="0.02" stop-color="#F4A7B7"/>
<stop offset="0.37" stop-color="#F191A3"/>
<stop offset="0.7" stop-color="#F08497"/>
<stop offset="1" stop-color="#EF8093"/>
</linearGradient>
<linearGradient id="paint8_linear_1288_5606" x1="8.07324" y1="39.5828" x2="14.7925" y2="39.5828" gradientUnits="userSpaceOnUse">
<stop stop-color="#D6E9E8"/>
<stop offset="0.57" stop-color="#D4E6E7"/>
<stop offset="0.9" stop-color="#CEDEE4"/>
<stop offset="1" stop-color="#CBDAE2"/>
</linearGradient>
<linearGradient id="paint9_linear_1288_5606" x1="261.889" y1="246.219" x2="361.785" y2="246.219" gradientUnits="userSpaceOnUse">
<stop stop-color="#D6E9E8"/>
<stop offset="0.57" stop-color="#D4E6E7"/>
<stop offset="0.9" stop-color="#CEDEE4"/>
<stop offset="1" stop-color="#CBDAE2"/>
</linearGradient>
<linearGradient id="paint10_linear_1288_5606" x1="276.339" y1="288.183" x2="391.375" y2="288.183" gradientUnits="userSpaceOnUse">
<stop stop-color="#F4A9B9"/>
<stop offset="0.02" stop-color="#F4A7B7"/>
<stop offset="0.37" stop-color="#F191A3"/>
<stop offset="0.7" stop-color="#F08497"/>
<stop offset="1" stop-color="#EF8093"/>
</linearGradient>
<linearGradient id="paint11_linear_1288_5606" x1="337.003" y1="1389" x2="406.747" y2="1389" gradientUnits="userSpaceOnUse">
<stop offset="0.01" stop-color="#6AC2BE"/>
<stop offset="0.05" stop-color="#67C1BD"/>
<stop offset="0.39" stop-color="#50BBB3"/>
<stop offset="0.71" stop-color="#43B7AD"/>
<stop offset="1" stop-color="#3EB6AB"/>
</linearGradient>
<linearGradient id="paint12_linear_1288_5606" x1="59.2598" y1="34.6833" x2="68.0169" y2="34.6833" gradientUnits="userSpaceOnUse">
<stop offset="0.01" stop-color="#E9E9E9"/>
<stop offset="0.37" stop-color="#EFEEEF"/>
<stop offset="1" stop-color="#F4F3F4"/>
</linearGradient>
<linearGradient id="paint13_linear_1288_5606" x1="4187.37" y1="3094.07" x2="4887.83" y2="3094.07" gradientUnits="userSpaceOnUse">
<stop offset="0.01" stop-color="#6AC2BE"/>
<stop offset="0.05" stop-color="#67C1BD"/>
<stop offset="0.39" stop-color="#50BBB3"/>
<stop offset="0.71" stop-color="#43B7AD"/>
<stop offset="1" stop-color="#3EB6AB"/>
</linearGradient>
<linearGradient id="paint14_linear_1288_5606" x1="4187.37" y1="2079.9" x2="4887.83" y2="2079.9" gradientUnits="userSpaceOnUse">
<stop offset="0.01" stop-color="#E9E9E9"/>
<stop offset="0.37" stop-color="#EFEEEF"/>
<stop offset="1" stop-color="#F4F3F4"/>
</linearGradient>
<linearGradient id="paint15_linear_1288_5606" x1="60.8682" y1="33.2029" x2="66.4245" y2="33.2029" gradientUnits="userSpaceOnUse">
<stop stop-color="#EE8091"/>
<stop offset="0.3" stop-color="#EC798B"/>
<stop offset="0.75" stop-color="#E6647C"/>
<stop offset="1" stop-color="#E25672"/>
</linearGradient>
<linearGradient id="paint16_linear_1288_5606" x1="2620.79" y1="320.061" x2="2872.72" y2="320.061" gradientUnits="userSpaceOnUse">
<stop offset="0.01" stop-color="#E9E9E9"/>
<stop offset="0.37" stop-color="#EFEEEF"/>
<stop offset="1" stop-color="#F4F3F4"/>
</linearGradient>
<linearGradient id="paint17_linear_1288_5606" x1="71.5586" y1="34.6457" x2="75.5286" y2="34.6457" gradientUnits="userSpaceOnUse">
<stop stop-color="#E8B3A3"/>
<stop offset="0.04" stop-color="#EBB7A7"/>
<stop offset="0.22" stop-color="#F3C4B3"/>
<stop offset="0.47" stop-color="#F9CBBA"/>
<stop offset="1" stop-color="#FACDBC"/>
</linearGradient>
<linearGradient id="paint18_linear_1288_5606" x1="71.2822" y1="39.1637" x2="75.7899" y2="39.1637" gradientUnits="userSpaceOnUse">
<stop offset="0.01" stop-color="#6AC2BF"/>
<stop offset="0.45" stop-color="#56BDB6"/>
<stop offset="1" stop-color="#40B7AD"/>
</linearGradient>
<linearGradient id="paint19_linear_1288_5606" x1="2345.38" y1="2108.26" x2="2489.35" y2="2108.26" gradientUnits="userSpaceOnUse">
<stop stop-color="#F4A9B9"/>
<stop offset="0.02" stop-color="#F4A7B7"/>
<stop offset="0.37" stop-color="#F191A3"/>
<stop offset="0.7" stop-color="#F08497"/>
<stop offset="1" stop-color="#EF8093"/>
</linearGradient>
<linearGradient id="paint20_linear_1288_5606" x1="1358.72" y1="275.672" x2="1403.61" y2="275.672" gradientUnits="userSpaceOnUse">
<stop stop-color="#E8B3A3"/>
<stop offset="0.04" stop-color="#EBB7A7"/>
<stop offset="0.22" stop-color="#F3C4B3"/>
<stop offset="0.47" stop-color="#F9CBBA"/>
<stop offset="1" stop-color="#FACDBC"/>
</linearGradient>
<linearGradient id="paint21_linear_1288_5606" x1="1451.29" y1="322.872" x2="1503.01" y2="322.872" gradientUnits="userSpaceOnUse">
<stop offset="0.01" stop-color="#6AC2BF"/>
<stop offset="0.45" stop-color="#56BDB6"/>
<stop offset="1" stop-color="#40B7AD"/>
</linearGradient>
<linearGradient id="paint22_linear_1288_5606" x1="607.222" y1="776.728" x2="718.819" y2="776.728" gradientUnits="userSpaceOnUse">
<stop stop-color="#E8B3A3"/>
<stop offset="0.04" stop-color="#EBB7A7"/>
<stop offset="0.22" stop-color="#F3C4B3"/>
<stop offset="0.47" stop-color="#F9CBBA"/>
<stop offset="1" stop-color="#FACDBC"/>
</linearGradient>
<linearGradient id="paint23_linear_1288_5606" x1="677.962" y1="3135.55" x2="821.938" y2="3135.55" gradientUnits="userSpaceOnUse">
<stop stop-color="#E8B3A3"/>
<stop offset="0.04" stop-color="#EBB7A7"/>
<stop offset="0.22" stop-color="#F3C4B3"/>
<stop offset="0.47" stop-color="#F9CBBA"/>
<stop offset="1" stop-color="#FACDBC"/>
</linearGradient>
<linearGradient id="paint24_linear_1288_5606" x1="406.065" y1="275.516" x2="450.981" y2="275.516" gradientUnits="userSpaceOnUse">
<stop stop-color="#E8B3A3"/>
<stop offset="0.04" stop-color="#EBB7A7"/>
<stop offset="0.22" stop-color="#F3C4B3"/>
<stop offset="0.47" stop-color="#F9CBBA"/>
<stop offset="1" stop-color="#FACDBC"/>
</linearGradient>
<linearGradient id="paint25_linear_1288_5606" x1="432.436" y1="322.738" x2="484.158" y2="322.738" gradientUnits="userSpaceOnUse">
<stop offset="0.01" stop-color="#E9E9E9"/>
<stop offset="0.37" stop-color="#EFEEEF"/>
<stop offset="1" stop-color="#F4F3F4"/>
</linearGradient>
<linearGradient id="paint26_linear_1288_5606" x1="884.699" y1="689.978" x2="1034.69" y2="689.978" gradientUnits="userSpaceOnUse">
<stop offset="0.01" stop-color="#E9E9E9"/>
<stop offset="0.37" stop-color="#EFEEEF"/>
<stop offset="1" stop-color="#F4F3F4"/>
</linearGradient>
<linearGradient id="paint27_linear_1288_5606" x1="988.933" y1="4862.56" x2="1182.25" y2="4862.56" gradientUnits="userSpaceOnUse">
<stop stop-color="#50B3CA"/>
<stop offset="0.32" stop-color="#3DA7C0"/>
<stop offset="0.67" stop-color="#309EB9"/>
<stop offset="1" stop-color="#2C9BB7"/>
</linearGradient>
<linearGradient id="paint28_linear_1288_5606" x1="988.933" y1="3884.57" x2="1182.25" y2="3884.57" gradientUnits="userSpaceOnUse">
<stop offset="0.01" stop-color="#E9E9E9"/>
<stop offset="0.37" stop-color="#EFEEEF"/>
<stop offset="1" stop-color="#F4F3F4"/>
</linearGradient>
<linearGradient id="paint29_linear_1288_5606" x1="589.113" y1="243.186" x2="649.469" y2="243.186" gradientUnits="userSpaceOnUse">
<stop offset="0.01" stop-color="#E9E9E9"/>
<stop offset="0.37" stop-color="#EFEEEF"/>
<stop offset="1" stop-color="#F4F3F4"/>
</linearGradient>
<linearGradient id="paint30_linear_1288_5606" x1="627.924" y1="284.432" x2="697.479" y2="284.432" gradientUnits="userSpaceOnUse">
<stop stop-color="#50B3CA"/>
<stop offset="0.32" stop-color="#3DA7C0"/>
<stop offset="0.67" stop-color="#309EB9"/>
<stop offset="1" stop-color="#2C9BB7"/>
</linearGradient>
<linearGradient id="paint31_linear_1288_5606" x1="1090.68" y1="689.642" x2="1240.67" y2="689.642" gradientUnits="userSpaceOnUse">
<stop offset="0.01" stop-color="#E9E9E9"/>
<stop offset="0.37" stop-color="#EFEEEF"/>
<stop offset="1" stop-color="#F4F3F4"/>
</linearGradient>
<linearGradient id="paint32_linear_1288_5606" x1="1221.95" y1="4863.11" x2="1415.27" y2="4863.11" gradientUnits="userSpaceOnUse">
<stop stop-color="#50B3CA"/>
<stop offset="0.32" stop-color="#3DA7C0"/>
<stop offset="0.67" stop-color="#309EB9"/>
<stop offset="1" stop-color="#2C9BB7"/>
</linearGradient>
<linearGradient id="paint33_linear_1288_5606" x1="1221.95" y1="3885.01" x2="1415.27" y2="3885.01" gradientUnits="userSpaceOnUse">
<stop offset="0.01" stop-color="#E9E9E9"/>
<stop offset="0.37" stop-color="#EFEEEF"/>
<stop offset="1" stop-color="#F4F3F4"/>
</linearGradient>
<linearGradient id="paint34_linear_1288_5606" x1="722.02" y1="243.21" x2="782.376" y2="243.21" gradientUnits="userSpaceOnUse">
<stop offset="0.01" stop-color="#E9E9E9"/>
<stop offset="0.37" stop-color="#EFEEEF"/>
<stop offset="1" stop-color="#F4F3F4"/>
</linearGradient>
<linearGradient id="paint35_linear_1288_5606" x1="770.168" y1="284.469" x2="839.723" y2="284.469" gradientUnits="userSpaceOnUse">
<stop stop-color="#50B3CA"/>
<stop offset="0.32" stop-color="#3DA7C0"/>
<stop offset="0.67" stop-color="#309EB9"/>
<stop offset="1" stop-color="#2C9BB7"/>
</linearGradient>
<linearGradient id="paint36_linear_1288_5606" x1="2840.28" y1="1617.75" x2="3350.04" y2="1617.75" gradientUnits="userSpaceOnUse">
<stop stop-color="#D6E9E8"/>
<stop offset="0.57" stop-color="#D4E6E7"/>
<stop offset="0.9" stop-color="#CEDEE4"/>
<stop offset="1" stop-color="#CBDAE2"/>
</linearGradient>
<linearGradient id="paint37_linear_1288_5606" x1="2840.28" y1="250.609" x2="3350.04" y2="250.609" gradientUnits="userSpaceOnUse">
<stop stop-color="#EE8091"/>
<stop offset="0.3" stop-color="#EC798B"/>
<stop offset="0.75" stop-color="#E6647C"/>
<stop offset="1" stop-color="#E25672"/>
</linearGradient>
<linearGradient id="paint38_linear_1288_5606" x1="2555.1" y1="1494.43" x2="2948.18" y2="1494.43" gradientUnits="userSpaceOnUse">
<stop stop-color="#F4A9B9"/>
<stop offset="0.02" stop-color="#F4A7B7"/>
<stop offset="0.37" stop-color="#F191A3"/>
<stop offset="0.7" stop-color="#F08497"/>
<stop offset="1" stop-color="#EF8093"/>
</linearGradient>
<linearGradient id="paint39_linear_1288_5606" x1="2555.1" y1="230.398" x2="2948.18" y2="230.398" gradientUnits="userSpaceOnUse">
<stop offset="0.01" stop-color="#E9E9E9"/>
<stop offset="0.37" stop-color="#EFEEEF"/>
<stop offset="1" stop-color="#F4F3F4"/>
</linearGradient>
<linearGradient id="paint40_linear_1288_5606" x1="539.183" y1="406.868" x2="624.277" y2="406.868" gradientUnits="userSpaceOnUse">
<stop offset="0.01" stop-color="#E9E9E9"/>
<stop offset="0.37" stop-color="#EFEEEF"/>
<stop offset="1" stop-color="#F4F3F4"/>
</linearGradient>
<linearGradient id="paint41_linear_1288_5606" x1="539.183" y1="716.384" x2="624.277" y2="716.384" gradientUnits="userSpaceOnUse">
<stop offset="0.01" stop-color="#E9E9E9"/>
<stop offset="0.37" stop-color="#EFEEEF"/>
<stop offset="1" stop-color="#F4F3F4"/>
</linearGradient>
<linearGradient id="paint42_linear_1288_5606" x1="919.85" y1="1531.48" x2="455.345" y2="1531.48" gradientUnits="userSpaceOnUse">
<stop stop-color="#F9D0D7"/>
<stop offset="0.2" stop-color="#F8C5CD"/>
<stop offset="0.51" stop-color="#F6BDC5"/>
<stop offset="1" stop-color="#F6BAC3"/>
</linearGradient>
<linearGradient id="paint43_linear_1288_5606" x1="1077.17" y1="6065.38" x2="478.139" y2="6065.38" gradientUnits="userSpaceOnUse">
<stop stop-color="#50B3CA"/>
<stop offset="0.32" stop-color="#3DA7C0"/>
<stop offset="0.67" stop-color="#309EB9"/>
<stop offset="1" stop-color="#2C9BB7"/>
</linearGradient>
<linearGradient id="paint44_linear_1288_5606" x1="1077.17" y1="4073.18" x2="478.139" y2="4073.18" gradientUnits="userSpaceOnUse">
<stop stop-color="#F9D0D7"/>
<stop offset="0.2" stop-color="#F8C5CD"/>
<stop offset="0.51" stop-color="#F6BDC5"/>
<stop offset="1" stop-color="#F6BAC3"/>
</linearGradient>
<linearGradient id="paint45_linear_1288_5606" x1="520.699" y1="548.542" x2="333.604" y2="548.542" gradientUnits="userSpaceOnUse">
<stop offset="0.01" stop-color="#6AC2BE"/>
<stop offset="0.05" stop-color="#67C1BD"/>
<stop offset="0.39" stop-color="#50BBB3"/>
<stop offset="0.71" stop-color="#43B7AD"/>
<stop offset="1" stop-color="#3EB6AB"/>
</linearGradient>
<linearGradient id="paint46_linear_1288_5606" x1="567.293" y1="648.756" x2="351.862" y2="648.756" gradientUnits="userSpaceOnUse">
<stop stop-color="#F9D0D7"/>
<stop offset="0.2" stop-color="#F8C5CD"/>
<stop offset="0.51" stop-color="#F6BDC5"/>
<stop offset="1" stop-color="#F6BAC3"/>
</linearGradient>
<linearGradient id="paint47_linear_1288_5606" x1="417.572" y1="2706.46" x2="287.916" y2="2706.46" gradientUnits="userSpaceOnUse">
<stop offset="0.01" stop-color="#6AC2BE"/>
<stop offset="0.05" stop-color="#67C1BD"/>
<stop offset="0.39" stop-color="#50BBB3"/>
<stop offset="0.71" stop-color="#43B7AD"/>
<stop offset="1" stop-color="#3EB6AB"/>
</linearGradient>
<linearGradient id="paint48_linear_1288_5606" x1="3543.09" y1="1170.52" x2="3295.08" y2="1170.52" gradientUnits="userSpaceOnUse">
<stop stop-color="#F4A9B9"/>
<stop offset="0.02" stop-color="#F4A7B7"/>
<stop offset="0.37" stop-color="#F191A3"/>
<stop offset="0.7" stop-color="#F08497"/>
<stop offset="1" stop-color="#EF8093"/>
</linearGradient>
<linearGradient id="paint49_linear_1288_5606" x1="4048.73" y1="4511.89" x2="3728.97" y2="4511.89" gradientUnits="userSpaceOnUse">
<stop stop-color="#F4A9B9"/>
<stop offset="0.02" stop-color="#F4A7B7"/>
<stop offset="0.37" stop-color="#F191A3"/>
<stop offset="0.7" stop-color="#F08497"/>
<stop offset="1" stop-color="#EF8093"/>
</linearGradient>
<linearGradient id="paint50_linear_1288_5606" x1="4048.73" y1="3035.99" x2="3728.97" y2="3035.99" gradientUnits="userSpaceOnUse">
<stop stop-color="#D6E9E8"/>
<stop offset="0.57" stop-color="#D4E6E7"/>
<stop offset="0.9" stop-color="#CEDEE4"/>
<stop offset="1" stop-color="#CBDAE2"/>
</linearGradient>
<linearGradient id="paint51_linear_1288_5606" x1="2184.15" y1="433.808" x2="2084.29" y2="433.808" gradientUnits="userSpaceOnUse">
<stop stop-color="#D6E9E8"/>
<stop offset="0.57" stop-color="#D4E6E7"/>
<stop offset="0.9" stop-color="#CEDEE4"/>
<stop offset="1" stop-color="#CBDAE2"/>
</linearGradient>
<linearGradient id="paint52_linear_1288_5606" x1="2354.66" y1="510.923" x2="2239.62" y2="510.923" gradientUnits="userSpaceOnUse">
<stop stop-color="#F4A9B9"/>
<stop offset="0.02" stop-color="#F4A7B7"/>
<stop offset="0.37" stop-color="#F191A3"/>
<stop offset="0.7" stop-color="#F08497"/>
<stop offset="1" stop-color="#EF8093"/>
</linearGradient>
<linearGradient id="paint53_linear_1288_5606" x1="1817.45" y1="2037.92" x2="1747.46" y2="2037.92" gradientUnits="userSpaceOnUse">
<stop offset="0.01" stop-color="#6AC2BE"/>
<stop offset="0.05" stop-color="#67C1BD"/>
<stop offset="0.39" stop-color="#50BBB3"/>
<stop offset="0.71" stop-color="#43B7AD"/>
<stop offset="1" stop-color="#3EB6AB"/>
</linearGradient>
<linearGradient id="paint54_linear_1288_5606" x1="2184.72" y1="1338.83" x2="1641.52" y2="1338.83" gradientUnits="userSpaceOnUse">
<stop offset="0.01" stop-color="#E9E9E9"/>
<stop offset="0.37" stop-color="#EFEEEF"/>
<stop offset="1" stop-color="#F4F3F4"/>
</linearGradient>
<linearGradient id="paint55_linear_1288_5606" x1="2521.99" y1="5226.21" x2="1821.53" y2="5226.21" gradientUnits="userSpaceOnUse">
<stop offset="0.01" stop-color="#6AC2BE"/>
<stop offset="0.05" stop-color="#67C1BD"/>
<stop offset="0.39" stop-color="#50BBB3"/>
<stop offset="0.71" stop-color="#43B7AD"/>
<stop offset="1" stop-color="#3EB6AB"/>
</linearGradient>
<linearGradient id="paint56_linear_1288_5606" x1="2521.99" y1="3513.49" x2="1821.53" y2="3513.49" gradientUnits="userSpaceOnUse">
<stop offset="0.01" stop-color="#E9E9E9"/>
<stop offset="0.37" stop-color="#EFEEEF"/>
<stop offset="1" stop-color="#F4F3F4"/>
</linearGradient>
<linearGradient id="paint57_linear_1288_5606" x1="1307.11" y1="487.979" x2="1088.36" y2="487.979" gradientUnits="userSpaceOnUse">
<stop stop-color="#EE8091"/>
<stop offset="0.3" stop-color="#EC798B"/>
<stop offset="0.75" stop-color="#E6647C"/>
<stop offset="1" stop-color="#E25672"/>
</linearGradient>
<linearGradient id="paint58_linear_1288_5606" x1="1413.98" y1="575.384" x2="1162.05" y2="575.384" gradientUnits="userSpaceOnUse">
<stop offset="0.01" stop-color="#E9E9E9"/>
<stop offset="0.37" stop-color="#EFEEEF"/>
<stop offset="1" stop-color="#F4F3F4"/>
</linearGradient>
<linearGradient id="paint59_linear_1288_5606" x1="638.268" y1="1356.13" x2="526.592" y2="1356.13" gradientUnits="userSpaceOnUse">
<stop stop-color="#E8B3A3"/>
<stop offset="0.04" stop-color="#EBB7A7"/>
<stop offset="0.22" stop-color="#F3C4B3"/>
<stop offset="0.47" stop-color="#F9CBBA"/>
<stop offset="1" stop-color="#FACDBC"/>
</linearGradient>
<linearGradient id="paint60_linear_1288_5606" x1="731.304" y1="5296.57" x2="587.373" y2="5296.57" gradientUnits="userSpaceOnUse">
<stop offset="0.01" stop-color="#6AC2BF"/>
<stop offset="0.45" stop-color="#56BDB6"/>
<stop offset="1" stop-color="#40B7AD"/>
</linearGradient>
<linearGradient id="paint61_linear_1288_5606" x1="731.304" y1="3560.1" x2="587.373" y2="3560.1" gradientUnits="userSpaceOnUse">
<stop stop-color="#F4A9B9"/>
<stop offset="0.02" stop-color="#F4A7B7"/>
<stop offset="0.37" stop-color="#F191A3"/>
<stop offset="0.7" stop-color="#F08497"/>
<stop offset="1" stop-color="#EF8093"/>
</linearGradient>
<linearGradient id="paint62_linear_1288_5606" x1="378.827" y1="491.944" x2="333.936" y2="491.944" gradientUnits="userSpaceOnUse">
<stop stop-color="#E8B3A3"/>
<stop offset="0.04" stop-color="#EBB7A7"/>
<stop offset="0.22" stop-color="#F3C4B3"/>
<stop offset="0.47" stop-color="#F9CBBA"/>
<stop offset="1" stop-color="#FACDBC"/>
</linearGradient>
<linearGradient id="paint63_linear_1288_5606" x1="410.29" y1="580.666" x2="358.595" y2="580.666" gradientUnits="userSpaceOnUse">
<stop offset="0.01" stop-color="#6AC2BF"/>
<stop offset="0.45" stop-color="#56BDB6"/>
<stop offset="1" stop-color="#40B7AD"/>
</linearGradient>
<linearGradient id="paint64_linear_1288_5606" x1="2145.55" y1="1354.96" x2="2033.87" y2="1354.96" gradientUnits="userSpaceOnUse">
<stop stop-color="#E8B3A3"/>
<stop offset="0.04" stop-color="#EBB7A7"/>
<stop offset="0.22" stop-color="#F3C4B3"/>
<stop offset="0.47" stop-color="#F9CBBA"/>
<stop offset="1" stop-color="#FACDBC"/>
</linearGradient>
<linearGradient id="paint65_linear_1288_5606" x1="2450.26" y1="5295.27" x2="2306.29" y2="5295.27" gradientUnits="userSpaceOnUse">
<stop stop-color="#E8B3A3"/>
<stop offset="0.04" stop-color="#EBB7A7"/>
<stop offset="0.22" stop-color="#F3C4B3"/>
<stop offset="0.47" stop-color="#F9CBBA"/>
<stop offset="1" stop-color="#FACDBC"/>
</linearGradient>
<linearGradient id="paint66_linear_1288_5606" x1="1313.47" y1="491.834" x2="1268.58" y2="491.834" gradientUnits="userSpaceOnUse">
<stop stop-color="#E8B3A3"/>
<stop offset="0.04" stop-color="#EBB7A7"/>
<stop offset="0.22" stop-color="#F3C4B3"/>
<stop offset="0.47" stop-color="#F9CBBA"/>
<stop offset="1" stop-color="#FACDBC"/>
</linearGradient>
<linearGradient id="paint67_linear_1288_5606" x1="1417.61" y1="580.527" x2="1365.92" y2="580.527" gradientUnits="userSpaceOnUse">
<stop offset="0.01" stop-color="#E9E9E9"/>
<stop offset="0.37" stop-color="#EFEEEF"/>
<stop offset="1" stop-color="#F4F3F4"/>
</linearGradient>
<linearGradient id="paint68_linear_1288_5606" x1="2169.09" y1="1268.26" x2="2019.19" y2="1268.26" gradientUnits="userSpaceOnUse">
<stop offset="0.01" stop-color="#E9E9E9"/>
<stop offset="0.37" stop-color="#EFEEEF"/>
<stop offset="1" stop-color="#F4F3F4"/>
</linearGradient>
<linearGradient id="paint69_linear_1288_5606" x1="2478.92" y1="8383.57" x2="2285.61" y2="8383.57" gradientUnits="userSpaceOnUse">
<stop stop-color="#50B3CA"/>
<stop offset="0.32" stop-color="#3DA7C0"/>
<stop offset="0.67" stop-color="#309EB9"/>
<stop offset="1" stop-color="#2C9BB7"/>
</linearGradient>
<linearGradient id="paint70_linear_1288_5606" x1="2478.92" y1="6697.75" x2="2285.61" y2="6697.75" gradientUnits="userSpaceOnUse">
<stop stop-color="#F4A9B9"/>
<stop offset="0.02" stop-color="#F4A7B7"/>
<stop offset="0.37" stop-color="#F191A3"/>
<stop offset="0.7" stop-color="#F08497"/>
<stop offset="1" stop-color="#EF8093"/>
</linearGradient>
<linearGradient id="paint71_linear_1288_5606" x1="1330" y1="459.81" x2="1269.62" y2="459.81" gradientUnits="userSpaceOnUse">
<stop stop-color="#F4A9B9"/>
<stop offset="0.02" stop-color="#F4A7B7"/>
<stop offset="0.37" stop-color="#F191A3"/>
<stop offset="0.7" stop-color="#F08497"/>
<stop offset="1" stop-color="#EF8093"/>
</linearGradient>
<linearGradient id="paint72_linear_1288_5606" x1="1435.33" y1="542.61" x2="1365.8" y2="542.61" gradientUnits="userSpaceOnUse">
<stop stop-color="#50B3CA"/>
<stop offset="0.32" stop-color="#3DA7C0"/>
<stop offset="0.67" stop-color="#309EB9"/>
<stop offset="1" stop-color="#2C9BB7"/>
</linearGradient>
<linearGradient id="paint73_linear_1288_5606" x1="191.851" y1="1262.85" x2="41.8629" y2="1262.85" gradientUnits="userSpaceOnUse">
<stop offset="0.01" stop-color="#E9E9E9"/>
<stop offset="0.37" stop-color="#EFEEEF"/>
<stop offset="1" stop-color="#F4F3F4"/>
</linearGradient>
<linearGradient id="paint74_linear_1288_5606" x1="224.947" y1="8351.37" x2="31.5826" y2="8351.37" gradientUnits="userSpaceOnUse">
<stop stop-color="#50B3CA"/>
<stop offset="0.32" stop-color="#3DA7C0"/>
<stop offset="0.67" stop-color="#309EB9"/>
<stop offset="1" stop-color="#2C9BB7"/>
</linearGradient>
<linearGradient id="paint75_linear_1288_5606" x1="224.947" y1="6671.97" x2="31.5826" y2="6671.97" gradientUnits="userSpaceOnUse">
<stop offset="0.01" stop-color="#E9E9E9"/>
<stop offset="0.37" stop-color="#EFEEEF"/>
<stop offset="1" stop-color="#F4F3F4"/>
</linearGradient>
<linearGradient id="paint76_linear_1288_5606" x1="98.1581" y1="457.765" x2="37.802" y2="457.765" gradientUnits="userSpaceOnUse">
<stop offset="0.01" stop-color="#E9E9E9"/>
<stop offset="0.37" stop-color="#EFEEEF"/>
<stop offset="1" stop-color="#F4F3F4"/>
</linearGradient>
<linearGradient id="paint77_linear_1288_5606" x1="108.35" y1="540.17" x2="38.7953" y2="540.17" gradientUnits="userSpaceOnUse">
<stop stop-color="#50B3CA"/>
<stop offset="0.32" stop-color="#3DA7C0"/>
<stop offset="0.67" stop-color="#309EB9"/>
<stop offset="1" stop-color="#2C9BB7"/>
</linearGradient>
<linearGradient id="paint78_linear_1288_5606" x1="3303.91" y1="2684.86" x2="2794.14" y2="2684.86" gradientUnits="userSpaceOnUse">
<stop stop-color="#F9D0D7"/>
<stop offset="0.2" stop-color="#F8C5CD"/>
<stop offset="0.51" stop-color="#F6BDC5"/>
<stop offset="1" stop-color="#F6BAC3"/>
</linearGradient>
<linearGradient id="paint79_linear_1288_5606" x1="3303.91" y1="418.876" x2="2794.14" y2="418.876" gradientUnits="userSpaceOnUse">
<stop offset="0.01" stop-color="#6AC2BE"/>
<stop offset="0.05" stop-color="#67C1BD"/>
<stop offset="0.39" stop-color="#50BBB3"/>
<stop offset="0.71" stop-color="#43B7AD"/>
<stop offset="1" stop-color="#3EB6AB"/>
</linearGradient>
<linearGradient id="paint80_linear_1288_5606" x1="2840.02" y1="2561.5" x2="2447.01" y2="2561.5" gradientUnits="userSpaceOnUse">
<stop stop-color="#E8B3A3"/>
<stop offset="0.04" stop-color="#EBB7A7"/>
<stop offset="0.22" stop-color="#F3C4B3"/>
<stop offset="0.47" stop-color="#F9CBBA"/>
<stop offset="1" stop-color="#FACDBC"/>
</linearGradient>
<linearGradient id="paint81_linear_1288_5606" x1="2840.02" y1="398.672" x2="2447.01" y2="398.672" gradientUnits="userSpaceOnUse">
<stop stop-color="#F4A9B9"/>
<stop offset="0.02" stop-color="#F4A7B7"/>
<stop offset="0.37" stop-color="#F191A3"/>
<stop offset="0.7" stop-color="#F08497"/>
<stop offset="1" stop-color="#EF8093"/>
</linearGradient>
<linearGradient id="paint82_linear_1288_5606" x1="145.564" y1="116.983" x2="145.564" y2="107" gradientUnits="userSpaceOnUse">
<stop stop-color="#D6E9E8"/>
<stop offset="0.04" stop-color="#D5E8E7"/>
<stop offset="0.48" stop-color="#CDDDE3"/>
<stop offset="1" stop-color="#CBDAE2"/>
</linearGradient>
<linearGradient id="paint83_linear_1288_5606" x1="14716.4" y1="62566.6" x2="14716.4" y2="31171" gradientUnits="userSpaceOnUse">
<stop stop-color="#D6E9E8"/>
<stop offset="0.57" stop-color="#D4E6E7"/>
<stop offset="0.9" stop-color="#CEDEE4"/>
<stop offset="1" stop-color="#CBDAE2"/>
</linearGradient>
<linearGradient id="paint84_linear_1288_5606" x1="145.518" y1="121.18" x2="145.518" y2="115.993" gradientUnits="userSpaceOnUse">
<stop stop-color="#D6E9E8"/>
<stop offset="1" stop-color="#CBDAE2"/>
</linearGradient>
<linearGradient id="paint85_linear_1288_5606" x1="57800.9" y1="3483.59" x2="57800.9" y2="3169.07" gradientUnits="userSpaceOnUse">
<stop stop-color="#D6E9E8"/>
<stop offset="1" stop-color="#CBDAE2"/>
</linearGradient>
<linearGradient id="paint86_linear_1288_5606" x1="146.042" y1="49.5292" x2="146.042" y2="41.8507" gradientUnits="userSpaceOnUse">
<stop stop-color="#D6E9E8"/>
<stop offset="0.1" stop-color="#D1E3E5"/>
<stop offset="0.34" stop-color="#CCDCE3"/>
<stop offset="1" stop-color="#CBDAE2"/>
</linearGradient>
<linearGradient id="paint87_linear_1288_5606" x1="126.514" y1="44.9091" x2="164.781" y2="44.9091" gradientUnits="userSpaceOnUse">
<stop stop-color="#827671"/>
<stop offset="1" stop-color="#575656"/>
</linearGradient>
<linearGradient id="paint88_linear_1288_5606" x1="124.248" y1="29.4046" x2="167.913" y2="29.4046" gradientUnits="userSpaceOnUse">
<stop stop-color="#666665"/>
<stop offset="0.46" stop-color="#5D5C5C"/>
<stop offset="1" stop-color="#575656"/>
</linearGradient>
<linearGradient id="paint89_linear_1288_5606" x1="125.235" y1="29.1982" x2="166.769" y2="29.1982" gradientUnits="userSpaceOnUse">
<stop stop-color="#D6E9E8"/>
<stop offset="0.52" stop-color="#D3E5E6"/>
<stop offset="1" stop-color="#CBDAE2"/>
</linearGradient>
<linearGradient id="paint90_linear_1288_5606" x1="125.201" y1="37.0544" x2="166.817" y2="37.0544" gradientUnits="userSpaceOnUse">
<stop offset="0.01" stop-color="#6AC2BE"/>
<stop offset="0.57" stop-color="#5DBBC4"/>
<stop offset="1" stop-color="#50B3CA"/>
</linearGradient>
<linearGradient id="paint91_linear_1288_5606" x1="5415.55" y1="3467.26" x2="7101.36" y2="3467.26" gradientUnits="userSpaceOnUse">
<stop offset="0.01" stop-color="#6AC2BE"/>
<stop offset="0.57" stop-color="#5DBBC4"/>
<stop offset="1" stop-color="#50B3CA"/>
</linearGradient>
<linearGradient id="paint92_linear_1288_5606" x1="18307" y1="5445.77" x2="18307" y2="8070.16" gradientUnits="userSpaceOnUse">
<stop offset="0.01" stop-color="#6AC2BE"/>
<stop offset="0.05" stop-color="#67C1BD"/>
<stop offset="0.39" stop-color="#50BBB3"/>
<stop offset="0.71" stop-color="#43B7AD"/>
<stop offset="1" stop-color="#3EB6AB"/>
</linearGradient>
<linearGradient id="paint93_linear_1288_5606" x1="6082.09" y1="2883.37" x2="5365.9" y2="3406.51" gradientUnits="userSpaceOnUse">
<stop stop-color="#EE8091"/>
<stop offset="0.3" stop-color="#EC798B"/>
<stop offset="0.75" stop-color="#E6647C"/>
<stop offset="1" stop-color="#E25672"/>
</linearGradient>
<linearGradient id="paint94_linear_1288_5606" x1="146.722" y1="29.2298" x2="146.722" y2="35.9501" gradientUnits="userSpaceOnUse">
<stop stop-color="#E7B2A2"/>
<stop offset="0.04" stop-color="#EAB6A6"/>
<stop offset="0.22" stop-color="#F3C3B2"/>
<stop offset="0.46" stop-color="#F8CAB9"/>
<stop offset="1" stop-color="#FACCBB"/>
</linearGradient>
<linearGradient id="paint95_linear_1288_5606" x1="144.35" y1="29.1142" x2="148.97" y2="21.1123" gradientUnits="userSpaceOnUse">
<stop stop-color="#E7B2A2"/>
<stop offset="0.04" stop-color="#EAB6A6"/>
<stop offset="0.22" stop-color="#F3C3B2"/>
<stop offset="0.47" stop-color="#F8CAB9"/>
<stop offset="1" stop-color="#FACCBB"/>
</linearGradient>
<linearGradient id="paint96_linear_1288_5606" x1="149.282" y1="36.5492" x2="155.31" y2="36.5492" gradientUnits="userSpaceOnUse">
<stop stop-color="#EEECEC"/>
<stop offset="1" stop-color="#E8E9EA"/>
</linearGradient>
<linearGradient id="paint97_linear_1288_5606" x1="8975.66" y1="3479.07" x2="11805.7" y2="3479.07" gradientUnits="userSpaceOnUse">
<stop offset="0.01" stop-color="#6AC2BE"/>
<stop offset="0.57" stop-color="#5DBBC4"/>
<stop offset="1" stop-color="#50B3CA"/>
</linearGradient>
<linearGradient id="paint98_linear_1288_5606" x1="139.65" y1="32.2845" x2="139.65" y2="50.3511" gradientUnits="userSpaceOnUse">
<stop stop-color="#EEECEC"/>
<stop offset="0.54" stop-color="#EEECEC"/>
<stop offset="0.63" stop-color="#EEECEC"/>
<stop offset="0.84" stop-color="#ECEAEA"/>
<stop offset="0.93" stop-color="#E5E4E4"/>
<stop offset="0.99" stop-color="#D9DADA"/>
<stop offset="1" stop-color="#D6D7D7"/>
</linearGradient>
<linearGradient id="paint99_linear_1288_5606" x1="154.811" y1="112.087" x2="178.329" y2="135.607" gradientUnits="userSpaceOnUse">
<stop stop-color="#666665"/>
<stop offset="1" stop-color="#575656"/>
</linearGradient>
<linearGradient id="paint100_linear_1288_5606" x1="36224.1" y1="7152.47" x2="36224.1" y2="7689.28" gradientUnits="userSpaceOnUse">
<stop stop-color="#EE8091"/>
<stop offset="0.3" stop-color="#EC798B"/>
<stop offset="0.75" stop-color="#E6647C"/>
<stop offset="1" stop-color="#E25672"/>
</linearGradient>
<linearGradient id="paint101_linear_1288_5606" x1="139.033" y1="120.125" x2="139.033" y2="125.857" gradientUnits="userSpaceOnUse">
<stop stop-color="#E8B3A3"/>
<stop offset="0.24" stop-color="#F1C0AF"/>
<stop offset="0.58" stop-color="#F8CAB9"/>
<stop offset="1" stop-color="#FACDBC"/>
</linearGradient>
<linearGradient id="paint102_linear_1288_5606" x1="5776.84" y1="6330.83" x2="5776.84" y2="6600.33" gradientUnits="userSpaceOnUse">
<stop stop-color="#E8B3A3"/>
<stop offset="0.24" stop-color="#F1C0AF"/>
<stop offset="0.58" stop-color="#F8CAB9"/>
<stop offset="1" stop-color="#FACDBC"/>
</linearGradient>
<linearGradient id="paint103_linear_1288_5606" x1="137.247" y1="104.84" x2="158.18" y2="104.84" gradientUnits="userSpaceOnUse">
<stop stop-color="#AEAFAE"/>
<stop offset="0.67" stop-color="#B0B1B0"/>
<stop offset="0.91" stop-color="#B7B7B6"/>
<stop offset="1" stop-color="#BCBCBB"/>
</linearGradient>
<linearGradient id="paint104_linear_1288_5606" x1="53887.6" y1="36316.5" x2="45054.2" y2="30653.3" gradientUnits="userSpaceOnUse">
<stop stop-color="#AEAFAE"/>
<stop offset="0.67" stop-color="#B0B1B0"/>
<stop offset="0.91" stop-color="#B7B7B6"/>
<stop offset="1" stop-color="#BCBCBB"/>
</linearGradient>
<linearGradient id="paint105_linear_1288_5606" x1="175.858" y1="51.5903" x2="175.858" y2="55.4557" gradientUnits="userSpaceOnUse">
<stop stop-color="#E8B3A3"/>
<stop offset="0.21" stop-color="#EFBCAC"/>
<stop offset="0.61" stop-color="#F7C9B8"/>
<stop offset="1" stop-color="#FACDBC"/>
</linearGradient>
<linearGradient id="paint106_linear_1288_5606" x1="10133.5" y1="4710.69" x2="10189.8" y2="4472.89" gradientUnits="userSpaceOnUse">
<stop stop-color="#E8B3A3"/>
<stop offset="0.24" stop-color="#F1C0AF"/>
<stop offset="0.58" stop-color="#F8CAB9"/>
<stop offset="1" stop-color="#FACDBC"/>
</linearGradient>
<linearGradient id="paint107_linear_1288_5606" x1="13526.6" y1="913.289" x2="13504.3" y2="809.174" gradientUnits="userSpaceOnUse">
<stop stop-color="#E8B3A3"/>
<stop offset="0.24" stop-color="#F1C0AF"/>
<stop offset="0.58" stop-color="#F8CAB9"/>
<stop offset="1" stop-color="#FACDBC"/>
</linearGradient>
<linearGradient id="paint108_linear_1288_5606" x1="140.138" y1="55.6123" x2="171.725" y2="61.5069" gradientUnits="userSpaceOnUse">
<stop stop-color="#F9D0D7"/>
<stop offset="0.2" stop-color="#F8C6CE"/>
<stop offset="0.53" stop-color="#F6BDC6"/>
<stop offset="1" stop-color="#F6BAC3"/>
</linearGradient>
<linearGradient id="paint109_linear_1288_5606" x1="139.445" y1="57.0075" x2="140.918" y2="57.2824" gradientUnits="userSpaceOnUse">
<stop stop-color="white"/>
<stop offset="1" stop-color="white"/>
</linearGradient>
<linearGradient id="paint110_linear_1288_5606" x1="32134.7" y1="20639.1" x2="37192.6" y2="27278.1" gradientUnits="userSpaceOnUse">
<stop stop-color="#F9D0D7"/>
<stop offset="0.2" stop-color="#F8C5CD"/>
<stop offset="0.51" stop-color="#F6BDC5"/>
<stop offset="1" stop-color="#F6BAC3"/>
</linearGradient>
<linearGradient id="paint111_linear_1288_5606" x1="12527.1" y1="1375" x2="13224.1" y2="1375" gradientUnits="userSpaceOnUse">
<stop stop-color="white"/>
<stop offset="1" stop-color="white"/>
</linearGradient>
<linearGradient id="paint112_linear_1288_5606" x1="2452.94" y1="3059.9" x2="2467.95" y2="3056.89" gradientUnits="userSpaceOnUse">
<stop stop-color="white"/>
<stop offset="1" stop-color="white"/>
</linearGradient>
<linearGradient id="paint113_linear_1288_5606" x1="12536.6" y1="7906.78" x2="13787.3" y2="7906.78" gradientUnits="userSpaceOnUse">
<stop offset="0.01" stop-color="#E9E9E9"/>
<stop offset="0.37" stop-color="#EFEEEF"/>
<stop offset="1" stop-color="#F4F3F4"/>
</linearGradient>
<linearGradient id="paint114_linear_1288_5606" x1="17704.5" y1="9203.89" x2="18218.9" y2="10257" gradientUnits="userSpaceOnUse">
<stop offset="0.01" stop-color="#E9E9E9"/>
<stop offset="0.37" stop-color="#EFEEEF"/>
<stop offset="1" stop-color="#F4F3F4"/>
</linearGradient>
<linearGradient id="paint115_linear_1288_5606" x1="-14155.4" y1="11928.5" x2="-16597.3" y2="11928.5" gradientUnits="userSpaceOnUse">
<stop stop-color="#827671"/>
<stop offset="1" stop-color="#575656"/>
</linearGradient>
<linearGradient id="paint116_linear_1288_5606" x1="150.909" y1="60.7871" x2="154.509" y2="60.7871" gradientUnits="userSpaceOnUse">
<stop offset="0.01" stop-color="#E9E9E9"/>
<stop offset="0.61" stop-color="#ECECEC"/>
<stop offset="1" stop-color="#F4F3F4"/>
</linearGradient>
<linearGradient id="paint117_linear_1288_5606" x1="169.173" y1="48.5103" x2="176.175" y2="36.379" gradientUnits="userSpaceOnUse">
<stop stop-color="#E8B3A3"/>
<stop offset="0.24" stop-color="#F0BFAF"/>
<stop offset="0.59" stop-color="#F8CAB9"/>
<stop offset="1" stop-color="#FACDBC"/>
</linearGradient>
<linearGradient id="paint118_linear_1288_5606" x1="18808.6" y1="9104.42" x2="20397.7" y2="9104.42" gradientUnits="userSpaceOnUse">
<stop offset="0.01" stop-color="#E9E9E9"/>
<stop offset="0.37" stop-color="#EFEEEF"/>
<stop offset="1" stop-color="#F4F3F4"/>
</linearGradient>
<linearGradient id="paint119_linear_1288_5606" x1="119.182" y1="18.0765" x2="119.182" y2="24.5484" gradientUnits="userSpaceOnUse">
<stop stop-color="#BB7D6E"/>
<stop offset="0.05" stop-color="#BF8171"/>
<stop offset="0.37" stop-color="#D4937F"/>
<stop offset="0.69" stop-color="#E09D87"/>
<stop offset="1" stop-color="#E4A18A"/>
</linearGradient>
<linearGradient id="paint120_linear_1288_5606" x1="11615" y1="4563.79" x2="10557.3" y2="3115.32" gradientUnits="userSpaceOnUse">
<stop stop-color="#BB7D6E"/>
<stop offset="0.05" stop-color="#BF8171"/>
<stop offset="0.37" stop-color="#D4937F"/>
<stop offset="0.69" stop-color="#E09D87"/>
<stop offset="1" stop-color="#E4A18A"/>
</linearGradient>
<linearGradient id="paint121_linear_1288_5606" x1="10523" y1="3439.8" x2="10523" y2="3206.62" gradientUnits="userSpaceOnUse">
<stop stop-color="#BB7D6E"/>
<stop offset="0.05" stop-color="#BF8171"/>
<stop offset="0.37" stop-color="#D4937F"/>
<stop offset="0.69" stop-color="#E09D87"/>
<stop offset="1" stop-color="#E4A18A"/>
</linearGradient>
<linearGradient id="paint122_linear_1288_5606" x1="14993.1" y1="4069.79" x2="14993.1" y2="2368.28" gradientUnits="userSpaceOnUse">
<stop stop-color="#666665"/>
<stop offset="0.46" stop-color="#5D5C5C"/>
<stop offset="1" stop-color="#575656"/>
</linearGradient>
<linearGradient id="paint123_linear_1288_5606" x1="123.632" y1="122.376" x2="123.632" y2="129.569" gradientUnits="userSpaceOnUse">
<stop stop-color="#BCBCBB"/>
<stop offset="1" stop-color="#AEAFAE"/>
</linearGradient>
<linearGradient id="paint124_linear_1288_5606" x1="122.485" y1="126.805" x2="122.485" y2="135.998" gradientUnits="userSpaceOnUse">
<stop stop-color="#BCBCBB"/>
<stop offset="0.82" stop-color="#B1B2B1"/>
<stop offset="1" stop-color="#AEAFAE"/>
</linearGradient>
<linearGradient id="paint125_linear_1288_5606" x1="112.249" y1="126.139" x2="112.249" y2="86.8281" gradientUnits="userSpaceOnUse">
<stop stop-color="#50B3CA"/>
<stop offset="0.32" stop-color="#4AAFC7"/>
<stop offset="0.77" stop-color="#38A3BD"/>
<stop offset="1" stop-color="#2C9BB7"/>
</linearGradient>
<linearGradient id="paint126_linear_1288_5606" x1="117.757" y1="129.11" x2="117.757" y2="86.7416" gradientUnits="userSpaceOnUse">
<stop stop-color="#50B3CA"/>
<stop offset="0.55" stop-color="#4EB2C9"/>
<stop offset="0.75" stop-color="#47ADC5"/>
<stop offset="0.89" stop-color="#3CA5BF"/>
<stop offset="1" stop-color="#2C9BB7"/>
</linearGradient>
<linearGradient id="paint127_linear_1288_5606" x1="30738.3" y1="36071.2" x2="41459.6" y2="36071.2" gradientUnits="userSpaceOnUse">
<stop offset="0.01" stop-color="#E9E9E9"/>
<stop offset="0.37" stop-color="#EFEEEF"/>
<stop offset="1" stop-color="#F4F3F4"/>
</linearGradient>
<linearGradient id="paint128_linear_1288_5606" x1="10155.9" y1="1915.28" x2="10155.9" y2="1699.41" gradientUnits="userSpaceOnUse">
<stop offset="0.01" stop-color="#E9E9E9"/>
<stop offset="0.61" stop-color="#ECECEC"/>
<stop offset="1" stop-color="#F4F3F4"/>
</linearGradient>
</defs>
</svg>
