<svg width="28" height="30" viewBox="0 0 28 30" fill="none" xmlns="http://www.w3.org/2000/svg">
<g clip-path="url(#clip0_1_161)">
<mask id="mask0_1_161" style="mask-type:luminance" maskUnits="userSpaceOnUse" x="0" y="0" width="28" height="30">
<path d="M27.5258 0H0.198853V30H27.5258V0Z" fill="white"/>
</mask>
<g mask="url(#mask0_1_161)">
<path d="M12.9544 14.3237L0.318176 27.5041C0.71009 28.9389 2.04021 30.0002 3.61975 30.0002C4.24919 30.0002 4.84299 29.837 5.35366 29.5336L5.38929 29.5104L19.6169 21.4505L12.9544 14.3237Z" fill="#EA4335"/>
<path d="M25.7557 12.0851H25.7439L19.6038 8.57422L12.6801 14.6279L19.6276 21.4514L25.7439 17.9871C26.8127 17.4156 27.5371 16.3075 27.5371 15.0361C27.5371 13.7647 26.8245 12.6566 25.7557 12.0968V12.0851Z" fill="#FBBC04"/>
<path d="M0.317615 2.49512C0.246357 2.77505 0.198853 3.05499 0.198853 3.35827V26.6398C0.198853 26.943 0.234481 27.223 0.317615 27.5029L13.3933 14.6608L0.317615 2.49512Z" fill="#4285F4"/>
<path d="M13.0494 15L19.5931 8.5731L5.37742 0.478227C4.86674 0.174961 4.26106 0 3.60787 0C2.04021 0 0.698213 1.06143 0.318176 2.48445L13.0494 15Z" fill="#34A853"/>
</g>
</g>
<defs>
<clipPath id="clip0_1_161">
<rect width="28" height="30" fill="white"/>
</clipPath>
</defs>
</svg>
