<svg width="491" height="320" viewBox="0 0 491 320" fill="none" xmlns="http://www.w3.org/2000/svg">
    <g clip-path="url(#clip0_612_61545)">
        <path d="M187.545 89.8623C190.882 84.0257 190.078 74.1561 187.207 66.7253C184.336 59.2944 181.999 60.686 180.959 49.8369C179.777 37.5084 176.905 20.2822 160.186 20.2822C143.467 20.2822 137.556 32.7796 136.542 42.5749C135.529 52.3701 138.062 59.4633 133.333 67.4008C128.605 75.3383 127.254 83.7825 128.098 89.8623C128.942 95.9421 184.843 94.5911 187.545 89.8623Z"
              fill="url(#paint0_linear_612_61545)"/>
        <path d="M93.0046 298.678H297.764C299.115 298.678 300.227 296.775 300.227 294.448L296.123 148.507C296.123 146.18 295.015 144.276 293.66 144.276H97.1085C95.7574 144.276 94.6461 146.18 94.6461 148.507L90.5439 294.448C90.5439 296.775 91.6518 298.678 93.0046 298.678Z"
              fill="url(#paint1_linear_612_61545)"/>
        <path d="M86.2618 146.925L304.649 146.925C306.607 146.925 308.195 145.337 308.195 143.378V141.855C308.195 139.896 306.607 138.308 304.649 138.308L86.2618 138.308C84.3031 138.308 82.7153 139.896 82.7153 141.855V143.378C82.7153 145.337 84.3031 146.925 86.2618 146.925Z"
              fill="url(#paint2_linear_612_61545)"/>
        <path d="M154.907 58.8107C154.907 61.2156 155.762 63.6222 154.772 66.3091C154.435 67.2447 142.65 72.291 144.808 72.4784C146.318 72.6085 155.314 82.5625 162.541 82.7804C168.982 82.9746 173.628 73.5019 176.389 72.6473C178.823 71.8941 168.145 66.9762 168.064 66.7364C167.64 65.463 167.521 59.7396 167.662 58.7482C167.802 57.7569 154.907 58.8107 154.907 58.8107Z"
              fill="url(#paint3_linear_612_61545)"/>
        <path d="M164.564 26.6455C150.503 26.6455 142.584 40.6223 142.584 42.3112C142.584 44 141.993 41.4667 139.63 41.4667C136.083 41.4667 136.083 45.0809 136.083 46.768C136.083 48.4552 136.793 54.7224 143.644 54.7224C144.354 54.7224 147.899 64.364 161.377 64.364C172.483 64.364 178.391 55.4453 178.391 47.251C178.387 28.9339 167.045 26.6455 164.564 26.6455Z"
              fill="url(#paint4_linear_612_61545)"/>
        <path d="M178.515 42.0738C179.272 44.2474 177.671 24.8916 161.12 24.8916C143.218 24.8916 142.205 39.3176 142.205 42.3964C142.205 44.0177 145.921 30.078 161.289 30.078C176.497 30.078 177.84 40.1283 178.515 42.0738Z"
              fill="url(#paint5_linear_612_61545)"/>
        <path d="M118.067 138.183C118.067 138.183 114.875 97.349 131.427 79.9455C135.521 75.639 143.518 71.6432 148.485 68.6708C150.831 67.2691 161.769 81.5837 162.536 81.0956C164.394 79.9134 168.815 67.9818 171.318 68.0916C172.253 68.1321 191.395 78.2246 195.637 106.729C197.164 117.156 198.155 127.655 198.608 138.183"
              fill="url(#paint6_linear_612_61545)"/>
        <path d="M164.684 138.085H214.873C215.619 138.085 216.224 137.48 216.224 136.734V135.721C216.224 134.974 215.619 134.37 214.873 134.37H164.684C163.938 134.37 163.333 134.974 163.333 135.721V136.734C163.333 137.48 163.938 138.085 164.684 138.085Z"
              fill="#969596"/>
        <path d="M153.98 129.903C156.993 130.278 159.246 130.631 160.171 130.28C161.097 129.928 166.251 128.479 170.282 129.021C172.9 129.373 178.083 135.91 178.065 136.94C178.029 138.844 176.131 138.303 174.418 138.344C172.312 138.391 168.205 138.513 166.003 138.297C163.801 138.08 154.723 138.42 153.281 138.209C151.839 137.998 153.451 129.837 153.98 129.903Z"
              fill="url(#paint7_linear_612_61545)"/>
        <path d="M152.275 128.23C152.471 127.892 154.713 127.752 154.916 127.985C155.119 128.218 155.149 132.027 155.288 133.621C155.426 135.215 155.119 137.662 154.761 138.012C154.403 138.362 152.677 138.286 152.29 137.912C151.903 137.539 152.026 128.646 152.275 128.23Z"
              fill="url(#paint8_linear_612_61545)"/>
        <path d="M141.274 99.1846C138.619 119.972 141.225 128.054 152.206 129.035" stroke="#D2D2D2"
              stroke-width="0.168884" stroke-linecap="round" stroke-linejoin="round"/>
        <path d="M124.366 100.319C119.87 124.132 129.478 134.924 144.73 137.888" stroke="#D2D2D2"
              stroke-width="0.168884" stroke-linecap="round" stroke-linejoin="round"/>
        <path d="M186.059 101.454C188.915 113.335 189.17 129.575 188.888 134.17" stroke="#D2D2D2"
              stroke-width="0.168884" stroke-linecap="round" stroke-linejoin="round"/>
        <path d="M254.042 135.063L240.302 135.366L237.801 135.225C237.365 135.116 237.032 134.795 237.032 134.371V109.611C237.032 109.407 237.113 109.212 237.257 109.067C237.401 108.923 237.597 108.842 237.801 108.842L254.042 106.132C254.246 106.132 254.441 106.213 254.586 106.357C254.73 106.501 254.811 106.696 254.811 106.9V134.295C254.811 134.499 254.73 134.694 254.586 134.838C254.441 134.982 254.246 135.063 254.042 135.063Z"
              fill="url(#paint9_linear_612_61545)"/>
        <path d="M256.691 134.024L240.449 134.728C240.245 134.728 240.05 134.647 239.906 134.503C239.762 134.359 239.681 134.163 239.681 133.959V108.571C239.681 108.367 239.762 108.172 239.906 108.028C240.05 107.884 240.245 107.803 240.449 107.803L256.691 105.101C256.894 105.101 257.09 105.182 257.234 105.326C257.378 105.47 257.459 105.665 257.459 105.869V133.255C257.459 133.459 257.378 133.654 257.234 133.799C257.09 133.943 256.894 134.024 256.691 134.024Z"
              fill="url(#paint10_linear_612_61545)"/>
        <path d="M267.668 36.4683C272.213 37.1303 275.944 38.6975 275.944 42.7879C275.944 48.3171 276.298 98.3017 276.298 101.32C276.298 104.338 276.477 106.124 270.369 107.653C264.26 109.181 224.017 111.547 218.783 111.571C214.264 111.591 209.326 109.149 208.925 103.802C207.939 90.4739 207.277 41.1632 207.997 37.0931C208.716 33.023 211.817 30.6654 217.01 31.0133C222.396 31.368 255.063 34.6291 267.668 36.4683Z"
              fill="url(#paint11_linear_612_61545)"/>
        <path d="M272.85 36.9764C277.33 37.63 279.759 39.1719 279.759 43.2082C279.759 48.6598 280.097 97.1987 280.097 100.174C280.097 103.15 280.266 105.695 274.252 107.203C268.238 108.711 227.978 111.008 222.81 111.03C218.356 111.051 213.482 108.642 213.092 103.365C212.119 90.2221 212.079 41.3978 212.788 37.3767C213.497 33.3555 216.335 31.0925 221.644 31.4657C226.954 31.839 260.413 35.1643 272.85 36.9764Z"
              fill="url(#paint12_linear_612_61545)"/>
        <path d="M233.297 138.318H259.179C259.802 138.315 260.398 138.066 260.839 137.626C261.279 137.185 261.528 136.589 261.531 135.966C261.528 135.343 261.279 134.746 260.839 134.306C260.398 133.865 259.802 133.616 259.179 133.613L233.297 134.201C232.004 134.201 230.945 135.652 230.945 136.945V135.966C230.948 136.589 231.197 137.185 231.637 137.626C232.078 138.066 232.674 138.315 233.297 138.318Z"
              fill="url(#paint13_linear_612_61545)"/>
        <path d="M162.636 82.8809C163.311 93.5205 164.325 115.982 163.649 127.804" stroke="#D2D2D2"
              stroke-width="0.168884" stroke-linecap="round" stroke-linejoin="round"/>
        <path d="M168.082 46.977C166.562 45.2882 166.746 42.8495 166.798 42.38C167.091 39.7488 169.278 38.2964 172.647 38.4957C176.933 38.7473 177.266 42.2922 177.266 43.3713C177.266 43.5808 177.205 48.4868 171.912 48.4868C170.267 48.4868 168.979 47.9802 168.082 46.977ZM172.606 39.1949C169.607 39.0175 167.744 40.2082 167.494 42.4577C167.366 43.6129 167.58 45.3659 168.604 46.5109C169.362 47.3553 170.475 47.7877 171.912 47.7877C176.435 47.7877 176.565 43.824 176.565 43.3713C176.565 42.1892 176.18 39.4043 172.606 39.1949Z"
              fill="#717070"/>
        <path d="M148.568 43.5446C148.568 42.4638 148.906 38.9189 153.185 38.6673C156.563 38.4697 158.743 39.9221 159.035 42.5516C159.088 43.0228 159.27 45.453 157.752 47.1503C156.855 48.1518 155.566 48.6601 153.921 48.6601C148.629 48.6601 148.568 43.7524 148.568 43.5446ZM153.227 39.3664C149.654 39.5759 149.267 42.3574 149.267 43.5446C149.267 43.9955 149.399 47.9592 153.921 47.9592C155.359 47.9592 156.472 47.5303 157.23 46.6825C158.253 45.5391 158.468 43.7844 158.339 42.6293C158.105 40.525 156.461 39.3496 153.798 39.3496C153.612 39.3496 153.422 39.3546 153.227 39.3664Z"
              fill="#717070"/>
        <path d="M158.75 43.1564C160.304 42.2698 162.605 42.2698 163.712 42.2698C164.96 42.2698 166.245 42.54 166.895 42.9453L167.262 42.3491C166.329 41.7766 164.816 41.5723 163.715 41.5723C162.548 41.5723 160.119 41.5723 158.405 42.5518L158.75 43.1564Z"
              fill="#717070"/>
        <path d="M149.14 42.0758L149.287 41.4003C148.294 41.1858 147.056 40.9189 144.597 40.9189C142.209 40.9189 141.219 41.402 141.174 41.4256L141.486 42.0522C141.486 42.0522 142.402 41.6215 144.597 41.6215C146.982 41.6097 148.128 41.8579 149.14 42.0758Z"
              fill="#717070"/>
        <path d="M106.73 153.707C107.303 158.566 109.601 164.347 110.172 166.434C110.743 168.521 108.451 172.912 106.73 175.459C105.009 178.006 100.132 175.459 98.9853 175.459C97.8386 175.459 98.6982 170.367 96.6902 166.665C94.6822 162.963 98.4111 155.095 98.6982 153.244C98.9853 151.393 106.73 153.707 106.73 153.707Z"
              fill="url(#paint14_linear_612_61545)"/>
        <path d="M29.4502 118.028H50.7329L50.7329 79.7187H29.4502L29.4502 118.028Z"
              fill="url(#paint15_linear_612_61545)"/>
        <path d="M63.5641 36.7867C63.5641 43.9153 64.4085 48.8129 69.9175 50.1893C76.1899 51.7566 67.006 66.9916 58.4925 66.9916C49.9791 66.9916 35.9432 51.765 39.8968 49.9647C47.2905 46.6039 49.3188 46.2678 47.9947 36.454C47.8968 35.7363 63.5641 36.7867 63.5641 36.7867Z"
              fill="url(#paint16_linear_612_61545)"/>
        <path d="M80.5888 282.918C80.3659 287.398 79.4336 288.37 79.6583 291.506C79.8829 294.642 79.8103 300.467 79.8103 300.467L67.8955 300.019C67.8955 300.019 68.6808 294.866 68.6808 291.953C68.6808 289.04 68.3802 283.217 68.3802 283.217L80.5888 282.918Z"
              fill="#F9CCBA"/>
        <path d="M42.6386 282.608C42.414 285.745 42.414 287.536 42.6386 291.569C42.8632 295.602 43.3141 300.53 43.3141 300.53H31.4365C31.4365 300.53 32.5562 293.586 32.5562 291.569C32.5562 289.553 32.1087 282.608 32.1087 282.608H42.6386Z"
              fill="#F9CCBA"/>
        <path d="M68.1621 50.9238C67.7129 54.9568 63.0095 62.798 57.4076 63.021C51.8057 63.2439 43.7415 54.7322 43.5169 52.7191C43.2923 50.706 39.9332 61.68 40.6054 67.7295C41.2775 73.7789 42.8447 86.7728 42.8447 86.7728L69.954 89.0139C69.954 89.0139 71.5229 75.5707 70.6295 69.0738C69.7361 62.5768 68.1621 50.9238 68.1621 50.9238Z"
              fill="url(#paint17_linear_612_61545)"/>
        <path d="M81.707 124.324C69.1606 126.116 65.1277 129.029 54.5978 128.805C44.0679 128.58 28.1607 123.429 25.4721 124.324C22.7835 125.219 19.9834 169.247 19.9834 182.013C19.9834 194.779 22.8966 225.485 23.1213 235.112C23.3459 244.738 24.0163 279.92 24.4723 282.609C24.9283 285.297 31.6414 285.969 35.6727 286.192C39.7039 286.415 45.0829 286.192 46.8748 285.073C48.6666 283.953 51.1323 251.691 51.3552 242.514C51.5782 233.337 52.252 226.159 53.1488 214.285C54.0456 202.411 56.0603 188.745 56.0603 188.745C56.0603 188.745 59.8687 201.516 60.0933 214.062C60.3179 226.609 60.3179 250.58 60.99 258.647C61.6622 266.715 61.4376 283.516 63.0065 284.188C70.2364 287.287 81.8252 285.981 85.6369 284.863C87.1873 284.407 88.7731 252.606 89.4453 217.205C90.1174 181.804 90.1208 165.675 88.9977 154.698C87.8746 143.72 81.707 124.324 81.707 124.324Z"
              fill="url(#paint18_linear_612_61545)"/>
        <path d="M108.012 156.325C109.689 151.853 104.099 98.932 99.8127 79.7384C98.4988 73.8528 93.0573 61.1612 83.0425 56.8192C79.0518 55.0864 73.9465 51.8726 71.4824 50.9775C69.0184 50.0824 65.8806 47.843 65.6627 47.3921C65.4449 46.9411 68.3446 60.1715 67.897 73.8291C67.4495 87.4868 64.9855 175.313 64.5363 176.21C64.087 177.107 77.0826 177.782 83.8042 176.438C90.5258 175.093 96.1327 170.838 97.0227 169.941C97.9128 169.044 98.5934 172.408 97.7624 159.12C97.5817 156.138 108.012 156.325 108.012 156.325Z"
              fill="url(#paint19_linear_612_61545)"/>
        <path d="M72.0785 86.8722C71.4452 85.9771 40.5817 82.3917 39.7372 83.0639C38.8928 83.736 33.1829 132.8 33.8263 134.144C34.4698 135.489 66.8026 138.177 67.6487 137.058C68.4948 135.938 72.0785 86.8722 72.0785 86.8722Z"
              fill="url(#paint20_linear_612_61545)"/>
        <path d="M92.9684 145.215C92.5192 144.991 89.513 147.341 84.6779 149.023C79.5253 150.815 74.1497 151.04 73.9251 151.263C73.7005 151.486 74.3726 156.193 74.8218 156.865C75.2711 157.537 83.1107 156.64 86.6944 155.073C90.9266 153.215 94.0881 151.488 94.3127 150.815C94.5373 150.143 93.3687 145.414 92.9684 145.215Z"
              stroke="#D0CFD0" stroke-width="0.168884" stroke-miterlimit="10" stroke-linecap="round"/>
        <path d="M43.2162 297.837C42.9916 297.613 40.303 297.837 38.0636 298.06C35.8242 298.283 32.4617 297.385 31.7896 297.837C31.1174 298.29 30.4385 301.869 29.9977 303.662C29.5569 305.456 27.3091 308.366 27.3091 310.831C27.3091 316.431 30.8945 319.345 37.3914 319.345C44.1113 319.345 48.3216 317.1 48.5935 313.295C48.8164 310.159 47.6967 308.815 46.3524 306.351C45.3932 304.591 44.1113 298.732 43.2162 297.837Z"
              fill="url(#paint21_linear_612_61545)"/>
        <path d="M45.5044 128.945C48.6423 129.84 48.6423 130.512 53.1227 130.296C57.6032 130.08 66.7888 127.83 67.461 127.608C68.1331 127.385 73.5104 123.798 73.9579 122.678C74.4055 121.558 74.4055 118.422 73.9579 116.405C73.5104 114.389 72.3603 110.883 71.0447 110.356C69.925 109.909 67.4812 112.405 66.7888 112.82C64.5477 114.171 59.6197 115.061 59.6197 115.061C59.6197 115.061 60.0672 113.035 60.7394 112.359C61.4116 111.684 62.4282 109.346 61.8591 108.774C61.1836 108.098 58.5 111.015 57.3786 111.687C56.2572 112.359 55.5868 115.495 54.2424 115.943C52.8981 116.39 52.226 116.618 47.9701 116.618L45.5044 128.945Z"
              fill="url(#paint22_linear_612_61545)"/>
        <path d="M14.9584 125.34L14.7085 125.199C14.6815 125.182 14.6646 125.132 14.6578 125.056C12.3627 124.352 0.0341797 110.491 0.0341797 92.3819C0.0341797 81.0667 6.50918 70.1872 14.9736 62.9657C22.9449 56.1648 31.6239 53.1705 35.2076 51.8312C43.7666 48.6224 46.8606 45.1113 47.0818 45.1113C47.0818 45.1113 44.1702 60.7804 43.9456 66.8416C43.721 72.9028 44.6347 82.129 45.0653 83.4209C45.1768 83.7587 41.1692 82.9278 40.0242 83.3095C39.3486 83.5324 35.0961 111.761 36.0115 114.092C37.8692 114.688 39.0413 114.811 40.7841 115C42.1909 115.085 43.7143 115.147 45.1498 115.198C48.4346 115.159 50.7753 114.756 51.1147 115.011C52.0098 115.686 51.8173 132.406 51.1147 132.485C51.0607 132.539 50.777 132.563 50.3277 132.566C46.4519 132.904 40.7656 132.862 34.1994 131.701C33.9933 131.74 33.8751 134.189 33.9747 134.39C34.424 135.285 48.09 136.518 48.09 136.518C48.09 136.518 47.8029 152.199 47.9786 157.797C48.2015 164.966 47.303 177.668 46.185 177.737C35.2076 178.413 28.8356 176.893 24.6777 175.721C16.3551 173.37 10.5641 167.655 10.1148 166.535C9.66562 165.416 11.4659 154.207 12.3559 147.717C13.0129 142.951 15.3553 127.491 14.9584 125.34Z"
              fill="url(#paint23_linear_612_61545)"/>
        <path d="M34.2874 113.556L34.3871 113.119C28.645 111.803 24.4145 107.627 22.4639 101.36C20.2684 94.3189 21.5418 86.3476 25.5494 81.9752L25.2116 81.6729C21.101 86.1567 19.7921 94.3071 22.0298 101.493C24.0362 107.919 28.3934 112.204 34.2874 113.556Z"
              stroke="#D0CFD0" stroke-width="0.168884" stroke-miterlimit="10" stroke-linecap="round"/>
        <path d="M25.4862 155.985C19.2915 153.922 17.2666 150.961 17.2666 150.173C17.2666 149.771 17.5858 148.443 17.8932 147.393C18.5873 145.028 18.8828 145.028 19.0601 145.028C19.2375 145.028 19.4942 145.17 20.2778 145.618C21.8434 146.514 24.76 148.185 28.7541 149.293C32.657 150.377 37.4465 151.525 38.8111 151.753C38.98 151.78 39.0999 151.922 39.1776 152.159C39.5153 153.243 39.1877 157.254 38.7098 157.732C38.5409 157.901 37.8772 157.999 36.8943 157.999C34.361 157.992 29.6627 157.379 25.4862 155.985ZM28.6342 149.717C24.581 148.592 21.639 146.905 20.0549 146.001C19.6377 145.761 19.2409 145.535 19.0973 145.481C18.7173 145.92 17.7158 149.475 17.7158 150.174C17.7158 150.757 19.6935 153.586 25.628 155.563C31.5896 157.549 37.8991 157.74 38.3923 157.411C38.7976 156.952 39.0526 152.633 38.7064 152.175C37.2658 151.936 32.586 150.809 28.6342 149.717V149.717Z"
              stroke="#D0CFD0" stroke-width="0.168884" stroke-miterlimit="10" stroke-linecap="round"/>
        <path d="M69.8555 89.1874C70.9277 89.6342 72.7216 89.6342 72.3591 88.9648"
              stroke="url(#paint24_linear_612_61545)" stroke-width="0.506651" stroke-linecap="round"
              stroke-linejoin="round"/>
        <path d="M69.4087 94.9999C70.481 95.4484 72.2748 95.4484 71.9124 94.7773"
              stroke="url(#paint25_linear_612_61545)" stroke-width="0.506651" stroke-linecap="round"
              stroke-linejoin="round"/>
        <path d="M68.9268 101.125C70.0007 101.571 71.7929 101.571 71.4304 100.9" stroke="url(#paint26_linear_612_61545)"
              stroke-width="0.506651" stroke-linecap="round" stroke-linejoin="round"/>
        <path d="M68.5488 107.383C69.6211 107.831 71.415 107.831 71.0525 107.16" stroke="url(#paint27_linear_612_61545)"
              stroke-width="0.506651" stroke-linecap="round" stroke-linejoin="round"/>
        <path d="M66.7603 128.467C67.8325 128.915 69.6264 128.915 69.2639 128.244"
              stroke="url(#paint28_linear_612_61545)" stroke-width="0.506651" stroke-linecap="round"
              stroke-linejoin="round"/>
        <path d="M66.0044 134.762C67.0767 135.209 68.8705 135.209 68.5081 134.538"
              stroke="url(#paint29_linear_612_61545)" stroke-width="0.506651" stroke-linecap="round"
              stroke-linejoin="round"/>
        <path d="M64.8389 83.7268C65.9603 83.5022 66.8554 83.7268 67.08 83.9514C67.3046 84.1761 66.5007 90.2626 66.1832 90.8959C65.967 91.3435 63.9404 90.8959 63.9404 90.6679C63.9404 90.2238 64.8389 83.7268 64.8389 83.7268Z"
              fill="url(#paint30_linear_612_61545)"/>
        <path d="M65.2769 95.1019C64.5586 94.3837 62.4933 94.473 62.0448 94.5624C61.5306 94.6652 61.0569 97.5263 61.5053 97.9748C61.9538 98.4233 64.5586 98.693 64.9177 98.3339C65.2769 97.9748 65.636 95.461 65.2769 95.1019Z"
              stroke="url(#paint31_linear_612_61545)" stroke-width="0.337767" stroke-miterlimit="10"/>
        <path d="M43.1045 98.5617C44.6143 98.2898 53.6783 99.6493 54.6865 100.463C55.6948 101.277 54.1799 110.522 53.9299 111.338C53.68 112.154 42.3496 110.25 41.8463 109.706C41.343 109.163 43.1045 98.5617 43.1045 98.5617Z"
              fill="url(#paint32_linear_612_61545)"/>
        <path d="M40.834 100.556C42.3455 100.286 51.4095 101.644 52.416 102.46C53.4226 103.275 51.9094 112.519 51.6611 113.334C51.4128 114.15 40.0791 112.247 39.5758 111.703C39.0725 111.159 40.834 100.556 40.834 100.556Z"
              fill="url(#paint33_linear_612_61545)"/>
        <path d="M76.0597 71.8958C76.1615 71.8962 76.2626 71.8791 76.3586 71.8451C76.5824 71.7656 76.7657 71.6006 76.8682 71.3864C76.9707 71.1721 76.9842 70.926 76.9058 70.7018C76.5174 69.604 76.3198 67.7311 76.0901 65.5626C75.5699 60.6329 74.8556 53.8809 71.1519 49.3717C70.9984 49.1967 70.7828 49.0883 70.5507 49.0694C70.3186 49.0505 70.0883 49.1225 69.9084 49.2704C69.7285 49.4182 69.6132 49.6303 69.5868 49.8616C69.5605 50.093 69.6251 50.3255 69.7671 50.51C73.1296 54.6038 73.8203 61.0467 74.3084 65.7501C74.5499 68.0317 74.7576 70.0026 75.2153 71.2979C75.2768 71.4727 75.3911 71.6241 75.5424 71.7312C75.6936 71.8383 75.8744 71.8958 76.0597 71.8958Z"
              fill="#969596"/>
        <path d="M71.644 75.3086C71.644 72.4122 73.6504 70.0479 76.1245 70.0479C78.5987 70.0479 80.605 72.4122 80.605 75.312C80.605 78.2117 78.5953 80.5777 76.1245 80.5777C73.6538 80.5777 71.644 78.2117 71.644 75.3086ZM73.4359 75.3086C73.4359 77.2237 74.6417 78.7825 76.1245 78.7825C77.6073 78.7825 78.8132 77.2237 78.8132 75.3086C78.8132 73.3934 77.6073 71.8363 76.1245 71.8363C74.6417 71.8363 73.4359 73.3951 73.4359 75.3086Z"
              fill="#969596"/>
        <path d="M36.4612 72.1248C36.5789 72.1248 36.6954 72.1016 36.8041 72.0565C36.9129 72.0114 37.0116 71.9453 37.0947 71.8621C37.1779 71.7788 37.2438 71.6799 37.2887 71.5711C37.3335 71.4623 37.3565 71.3457 37.3563 71.228C37.3563 60.8434 39.7561 53.6472 41.3437 48.8847C41.3889 48.771 41.4104 48.6492 41.4069 48.5269C41.4033 48.4046 41.3747 48.2842 41.3229 48.1733C41.2711 48.0625 41.1971 47.9634 41.1056 47.8821C41.014 47.8009 40.9068 47.7393 40.7905 47.7011C40.6742 47.6629 40.5514 47.6489 40.4295 47.6599C40.3076 47.671 40.1892 47.7069 40.0817 47.7654C39.9742 47.8239 39.8799 47.9038 39.8044 48.0002C39.7289 48.0965 39.674 48.2073 39.643 48.3257C38.0183 53.198 35.5645 60.5613 35.5645 71.2365C35.5667 71.4729 35.6621 71.6988 35.8301 71.8651C35.998 72.0315 36.2248 72.1248 36.4612 72.1248Z"
              fill="#969596"/>
        <path d="M29.3067 96.0794C29.4781 96.0792 29.646 96.0298 29.7902 95.9369C29.9343 95.8441 30.0488 95.7118 30.12 95.5558C30.1912 95.3998 30.216 95.2266 30.1916 95.0568C30.1671 94.8871 30.0945 94.728 29.9822 94.5983C26.8156 90.9251 27.4489 83.832 29.6529 79.0239C31.4717 75.0551 34.1198 72.7752 36.9149 72.7752C43.2463 72.7752 45.6141 79.6133 46.3386 82.5519C46.3667 82.6661 46.4171 82.7736 46.4869 82.8684C46.5566 82.9631 46.6443 83.0432 46.745 83.104C46.8457 83.1649 46.9573 83.2053 47.0736 83.223C47.19 83.2407 47.3086 83.2353 47.4228 83.2071C47.537 83.179 47.6446 83.1286 47.7393 83.0588C47.8341 82.9891 47.9142 82.9014 47.975 82.8007C48.0359 82.7 48.0763 82.5884 48.094 82.472C48.1116 82.3557 48.1062 82.2371 48.0781 82.1229C46.3335 75.0433 42.2651 70.9766 36.9149 70.9766C33.3835 70.9766 30.1409 73.6331 28.0181 78.2656C25.5237 83.7273 24.9343 91.4841 28.6277 95.7653C28.7114 95.8637 28.8154 95.9428 28.9327 95.997C29.0499 96.0513 29.1775 96.0794 29.3067 96.0794Z"
              fill="#969596"/>
        <path d="M30.5185 98.5125C31.5688 98.5125 32.4203 97.6611 32.4203 96.6108C32.4203 95.5604 31.5688 94.709 30.5185 94.709C29.4682 94.709 28.6167 95.5604 28.6167 96.6108C28.6167 97.6611 29.4682 98.5125 30.5185 98.5125Z"
              fill="#969596"/>
        <path d="M27.687 96.6521C27.6867 96.0978 27.8508 95.5559 28.1585 95.0949C28.4662 94.6339 28.9038 94.2745 29.4158 94.0622C29.9278 93.85 30.4913 93.7943 31.035 93.9024C31.5786 94.0104 32.078 94.2773 32.47 94.6693C32.8619 95.0612 33.1288 95.5606 33.2368 96.1042C33.3449 96.6479 33.2892 97.2114 33.077 97.7234C32.8647 98.2354 32.5053 98.673 32.0443 98.9807C31.5833 99.2884 31.0414 99.4525 30.4871 99.4522C29.7447 99.4513 29.0331 99.156 28.5081 98.6311C27.9832 98.1062 27.6879 97.3945 27.687 96.6521ZM29.4789 96.6521C29.4789 96.8525 29.5383 97.0484 29.6496 97.2151C29.761 97.3817 29.9192 97.5116 30.1044 97.5883C30.2896 97.665 30.4933 97.685 30.6899 97.6459C30.8864 97.6068 31.067 97.5103 31.2087 97.3686C31.3504 97.2269 31.4469 97.0463 31.486 96.8498C31.5251 96.6532 31.505 96.4495 31.4283 96.2643C31.3516 96.0792 31.2218 95.9209 31.0551 95.8096C30.8885 95.6982 30.6926 95.6388 30.4922 95.6388C30.2234 95.6388 29.9657 95.7456 29.7757 95.9356C29.5856 96.1256 29.4789 96.3834 29.4789 96.6521Z"
              fill="#969596"/>
        <path d="M30.5934 97.8733C31.2107 97.8733 31.7112 97.3728 31.7112 96.7555C31.7112 96.1382 31.2107 95.6377 30.5934 95.6377C29.976 95.6377 29.4756 96.1382 29.4756 96.7555C29.4756 97.3728 29.976 97.8733 30.5934 97.8733Z"
              fill="white"/>
        <path d="M98.3035 157.688H98.3136C98.3615 157.684 98.4058 157.661 98.4373 157.624C98.4687 157.588 98.4849 157.54 98.4825 157.492C97.3257 135.906 93.9851 95.3043 91.5836 83.3017C91.579 83.2776 91.5696 83.2547 91.556 83.2343C91.5424 83.2139 91.5248 83.1964 91.5044 83.1829C91.4839 83.1694 91.461 83.1601 91.4369 83.1555C91.4128 83.151 91.388 83.1513 91.3641 83.1565C91.316 83.1663 91.2737 83.1947 91.2465 83.2355C91.2193 83.2763 91.2094 83.3262 91.2188 83.3743C93.6153 95.3651 96.9609 135.936 98.1093 157.514C98.1123 157.563 98.1344 157.609 98.1707 157.641C98.2071 157.674 98.2548 157.691 98.3035 157.688V157.688Z"
              stroke="#D0CFD0" stroke-width="0.168884" stroke-miterlimit="10" stroke-linecap="round"/>
        <path d="M71.1636 8.55389C72.155 12.2271 72.2614 13.8028 71.7328 17.5436C71.4845 19.2949 72.7241 18.822 73.1446 21.9346C73.6395 25.6095 72.7562 27.7087 71.9337 27.913C70.9998 28.1427 71.042 33.3595 70.6688 34.2833C69.6082 36.9078 63.6669 41.5031 55.9911 41.5453C43.6457 41.6129 42.4517 36.8976 41.7103 34.535C40.9689 32.1723 40.719 28.9888 40.2241 28.9888C39.7293 28.9888 34.9735 28.7608 34.7253 24.0355C34.477 19.3101 36.5121 18.2613 38.2448 18.2613C39.2345 18.2613 40.1025 8.81229 40.8524 7.76183C41.6022 6.71137 45.9189 4.35038 55.0758 4.08861C64.2326 3.82684 71.1636 8.55389 71.1636 8.55389Z"
              fill="url(#paint34_linear_612_61545)"/>
        <path d="M39.3532 10.6633C39.7906 8.03888 42.746 5.04119 44.0279 3.87421C45.3097 2.70722 50.3475 0.579285 54.9023 0.518487C59.8979 0.452622 61.4634 0.489776 65.3055 2.16341C70.2032 4.2981 71.8684 9.31902 72.3784 11.4064C72.961 13.7877 71.8819 22.9361 71.8819 22.9361C71.8819 22.9361 72.8293 18.3762 68.5447 15.3971C67.1751 14.4446 59.1903 18.4269 56.0592 18.9437C52.0532 19.5956 43.756 22.6912 40.5928 23.0442C38.9158 23.2232 38.9158 13.2878 39.3532 10.6633Z"
              fill="#6D483D"/>
        <path d="M79.9662 295.864C78.4665 297.838 76.5159 298.485 73.2226 298.059C69.0006 297.521 67.9974 294.39 67.6191 295.239C66.8473 296.973 64.3698 308.527 65.2699 310.562C65.8272 311.825 79.6825 314.365 83.6918 314.965C87.7011 315.564 102.25 315.75 103.304 315.177C105.162 314.164 105.436 310.678 103.272 308.326C102.681 307.684 99.05 306.927 89.4676 302.05C85.031 299.797 79.9662 295.864 79.9662 295.864Z"
              fill="url(#paint35_linear_612_61545)"/>
        <path d="M362.269 250.411C359.677 250.221 349.772 250.412 349.057 251.839C348.343 253.266 349.057 259.695 353.7 259.695C358.342 259.695 374.751 258.293 376.195 257.135C377.639 255.976 366.03 250.695 362.269 250.411Z"
              fill="url(#paint36_linear_612_61545)"/>
        <path d="M489.982 203.275C490.523 196.511 484.804 164.719 462.845 161.324C422.323 155.06 408.927 161.544 396.786 173.452C384.645 185.36 383.218 194.38 372.505 196.165C361.793 197.95 343.207 198.007 342.226 205.838C340.563 219.128 345.638 237.065 351.663 243.986C362.004 255.86 369.096 256.103 395.786 257.083C416.17 257.831 448.562 257.875 458.202 254.303C469.022 250.297 488.554 221.122 489.982 203.275Z"
              fill="url(#paint37_linear_612_61545)"/>
        <path d="M480.431 202.888C473.647 197.736 463.958 198.629 458.324 207.882C453.84 215.247 447.284 240.333 429.727 243.952C406.601 248.718 381.715 245.514 359.414 237.883"
              stroke="url(#paint38_linear_612_61545)" stroke-width="0.168884" stroke-linecap="round"
              stroke-linejoin="round"/>
        <path d="M474.148 264.974C481.621 286.108 481.647 291.068 485.931 291.068C492.359 291.068 488.415 284.625 482.361 266.86C476.249 248.935 476.339 243.911 471.291 244.723C466.023 245.568 470.22 255.435 470.22 255.435C470.22 255.435 446.706 255.267 444.496 256.832C442.484 258.259 442.05 264.074 444.496 264.751C449.51 266.141 473.68 263.65 474.148 264.974Z"
              fill="url(#paint39_linear_612_61545)"/>
        <path d="M352.623 242.5C350.765 240.526 346.553 240.98 346.205 243.485C345.857 245.989 337.991 289.912 338.34 292.76C338.69 295.607 342.731 296.208 343.697 294.545C345.707 291.079 347.372 277.109 349.767 266.341C351.91 256.696 354.052 244.013 352.623 242.5Z"
              fill="url(#paint40_linear_612_61545)"/>
        <path d="M394.418 262.607C395.847 267.606 397.69 277.28 397.838 279.779C397.987 282.279 394.06 282.247 393.348 281.176C392.635 280.105 387.276 264.392 387.634 262.599C387.992 260.805 394.418 262.607 394.418 262.607Z"
              fill="url(#paint41_linear_612_61545)"/>
        <path d="M443.751 305.041C446.573 304.056 446.929 288.642 446.929 276.864C446.929 265.086 449.263 244.918 442.918 244.645C436.573 244.371 439.431 258.037 438.002 257.681C436.573 257.324 405.872 257.156 390.872 256.475C375.871 255.794 351.949 253.883 351.591 253.883C351.233 253.883 345.878 266.152 349.806 265.438C353.734 264.723 379.8 263.653 393.37 264.365C406.939 265.078 438.36 270.445 438.36 271.691C438.36 272.938 438.716 297.132 439.075 301.282C439.433 305.431 441.669 305.767 443.751 305.041Z"
              fill="url(#paint42_linear_612_61545)"/>
        <path d="M397.688 125.152C397.688 128.008 397.374 133.238 396.259 134.86C393.642 138.668 389.832 140.215 390.07 140.771C390.308 141.326 395.783 146.418 404.354 145.704C412.925 144.989 420.303 139.778 420.06 139.051C419.817 138.325 414.109 136.658 412.68 133.088C411.864 131.05 411.966 126.812 412.204 125.86C412.442 124.907 408.394 126.812 405.062 126.574C401.729 126.336 397.688 125.152 397.688 125.152Z"
              fill="url(#paint43_linear_612_61545)"/>
        <path d="M389.73 90.2699C387.57 93.2338 386.138 102.516 386.138 108.467C386.138 119.951 392.588 127.923 404.249 127.923C417.591 127.923 421.867 117.925 422.105 117.21C422.343 116.496 427.581 117.687 428.533 111.108C429.312 105.724 425.199 105.784 425.199 105.069C425.199 104.355 426.402 93.4061 419.255 87.9309C412.107 82.4557 394.967 83.0957 389.73 90.2699Z"
              fill="url(#paint44_linear_612_61545)"/>
        <path d="M374.103 276.8C374.341 280.132 374.817 286.408 375.293 287.36C375.77 288.313 372.438 290.381 369.58 290.18C366.722 289.979 363.978 288.64 363.938 287.598C363.897 286.556 362.924 276.832 363.392 276.979C363.86 277.126 365.687 277.6 369.303 277.6C372.919 277.6 374.103 276.8 374.103 276.8Z"
              fill="url(#paint45_linear_612_61545)"/>
        <path d="M386.964 278.18C388.154 278.304 398.867 277.336 398.867 278.18C398.867 279.025 399.343 290.207 399.581 290.919C399.819 291.632 397.914 294.491 394.346 294.491C390.777 294.491 387.68 292.824 387.68 291.872C387.68 290.919 386.964 278.18 386.964 278.18Z"
              fill="url(#paint46_linear_612_61545)"/>
        <path d="M422.242 104.957C422.73 105.167 424.384 104.54 426.726 106.03C427.175 106.315 426.527 101.625 426.765 100.196C427.003 98.7676 427.089 96.3002 427.089 95.3477C427.089 94.3952 425.813 86.032 420.488 83.6846C414.251 80.9334 411.273 80.4555 405.435 80.4386C399.983 80.4217 395.599 82.0126 391.859 82.8182C389.288 83.3721 385.559 83.6846 384.608 83.4464C383.658 83.2083 382.345 91.5072 386.128 93.0931C389.102 94.3361 392.392 94.6333 396.677 93.0931C397.241 92.8904 398.073 93.2923 401.762 93.2923C404.391 93.2923 414.855 92.7266 417.949 95.1974C419.008 96.0316 418.909 103.523 422.242 104.957Z"
              fill="url(#paint47_linear_612_61545)"/>
        <path d="M396.282 93.1275C394.704 92.733 392.479 91.1886 392.123 90" stroke="#9B9B9B" stroke-width="0.168884"
              stroke-miterlimit="10" stroke-linecap="round"/>
        <path d="M387.001 210.83C376.955 214.554 359.506 220.59 359.268 239.878C359.03 259.166 360.45 274.33 360.45 274.33C360.45 274.33 366.555 274.874 369.334 274.874C372.112 274.874 377.112 274.33 377.112 274.33C377.112 274.33 376.4 264.638 375.93 259.401C375.461 254.164 374.748 240.358 384.499 241.309C394.251 242.259 387.614 230.36 393.317 227.502C399.02 224.645 417.589 217.504 417.112 215.123C416.636 212.742 387.001 210.83 387.001 210.83Z"
              fill="url(#paint48_linear_612_61545)"/>
        <path d="M440.163 215.13C438.503 215.258 403.98 219.183 397.316 220.843C390.651 222.503 384.987 230.417 383.746 242.864C382.317 257.265 384.222 274.881 384.222 274.881H402.789C402.789 274.881 402.553 266.967 402.553 261.961C402.553 255.297 399.219 245.363 410.884 243.458C422.548 241.553 435.014 241.553 439.449 230.454C442.884 221.868 441.327 215.04 440.163 215.13Z"
              fill="url(#paint49_linear_612_61545)"/>
        <path d="M359.619 273.71C360.776 273.695 377.197 273.472 377.673 273.71C378.149 273.948 378.387 277.294 377.673 277.883C376.958 278.472 373.01 278.471 368.871 278.709C364.731 278.947 361.06 278.246 360.352 277.883C359.644 277.52 359.619 273.71 359.619 273.71Z"
              fill="url(#paint50_linear_612_61545)"/>
        <path d="M383.594 274.318C384.519 274.049 402.239 274.235 402.953 274.472C403.667 274.708 403.581 278.054 402.867 278.719C402.153 279.384 385.403 279.092 384.459 278.329C383.515 277.565 383.594 274.318 383.594 274.318Z"
              fill="url(#paint51_linear_612_61545)"/>
        <path d="M391.043 139.417C393.37 140.133 393.51 143.901 403.984 144.134C414.697 144.372 418.993 137.706 420.059 137.706C421.124 137.706 420.886 138.446 421.839 139.028C422.791 139.611 430.217 141.769 438.026 147.473C450.166 156.331 454.452 176.84 453.732 177.554C453.013 178.269 434.601 180.886 433.411 180.65C432.22 180.413 443.973 216.269 442.306 217.222C440.639 218.174 415.347 218.39 410.11 217.914C404.873 217.438 378.75 218.438 378.125 214.231C377.569 210.498 384.46 179.848 384.46 179.848C384.46 179.848 370.653 178.665 369.701 178.182C368.748 177.699 371.763 164.733 376.326 155.383C380.889 146.034 388.655 141.346 389.134 140.352C389.614 139.359 390.056 139.115 391.043 139.417Z"
              fill="url(#paint52_linear_612_61545)"/>
        <path d="M384.453 179.52C384.453 174.998 384.929 169.082 385.405 166.563" stroke="#D2D2D2"
              stroke-width="0.168884" stroke-linecap="round" stroke-linejoin="round"/>
        <path d="M433.045 180.645C433.131 176.835 430.664 167.941 429.235 165.084" stroke="#D2D2D2"
              stroke-width="0.168884" stroke-linecap="round" stroke-linejoin="round"/>
        <path d="M375.373 285.228C376.244 285.174 376.4 286.971 376.518 290.661C376.636 294.351 377.827 299.706 377.589 300.54C377.351 301.375 367.591 303.516 364.497 304.469C361.403 305.421 355.902 306.968 352.761 306.968C349.62 306.968 344.768 306.293 344.261 303.31C343.755 300.328 344.977 299.595 345.572 299.112C346.166 298.629 350.807 297.803 353.308 296.494C355.81 295.185 359.795 291.409 360.807 290.208C361.973 288.847 362.985 287.36 363.825 285.777C364.377 285.662 364.5 289.109 369.264 288.757C374.366 288.379 374.706 285.27 375.373 285.228Z"
              fill="url(#paint53_linear_612_61545)"/>
        <path d="M387.251 289.908C388.095 288.97 388.141 293.099 393.523 293.36C398.439 293.598 399.122 288.48 399.603 288.599C400.084 288.717 401.096 292.495 401.452 294.101C401.809 295.707 402.491 299.905 402.849 300.62C403.207 301.334 399.277 308.15 398.326 310.415C397.376 312.68 394.04 316.691 392.017 317.762C389.994 318.832 385.525 319.309 383.502 318.594C381.124 317.75 379.519 315.262 379.401 313.359C379.283 311.455 381.401 308.512 382.825 306.25C384.248 303.989 384.963 302.972 385.677 300.115C386.288 297.651 386.935 290.257 387.251 289.908Z"
              fill="url(#paint54_linear_612_61545)"/>
        <path d="M371.131 178.567C370.962 180.341 370.482 193.573 375.719 202.981C380.956 212.39 386.482 218.947 398.573 218.817C410.663 218.687 399.763 214.057 399.763 214.057C399.763 214.057 389.735 209.37 386.822 200.306C383.397 189.656 384.405 179.679 384.405 179.679L371.131 178.567Z"
              fill="url(#paint55_linear_612_61545)"/>
        <path d="M433.344 180.691C433.445 181.367 433.032 195.196 426.395 200.974C418.874 207.52 409.434 211.411 406.755 211.411C404.612 211.411 401.288 211.453 401.043 211.566C400.354 211.887 399.971 213.228 399.971 213.228C399.971 213.228 396.625 212.821 395.149 213.228C392.56 213.943 391.848 215.192 391.848 216.977C391.848 218.762 392.462 221.042 395.901 221.242C399.339 221.441 404.514 219.835 406.662 219.656C412.578 219.108 418.433 218.034 424.159 216.447C432.55 214.127 443.798 209.128 448.326 198.14C452.482 188.054 451.742 178.119 451.388 178.19C443.087 179.842 433.344 180.691 433.344 180.691Z"
              fill="url(#paint56_linear_612_61545)"/>
    </g>
    <defs>
        <linearGradient id="paint0_linear_612_61545" x1="189.724" y1="57.1073" x2="127.863" y2="57.1073"
                        gradientUnits="userSpaceOnUse">
            <stop stop-color="#D3B9A1"/>
            <stop offset="0.46" stop-color="#D4BCA4"/>
            <stop offset="0.8" stop-color="#D7C5AC"/>
            <stop offset="1" stop-color="#DACFB5"/>
        </linearGradient>
        <linearGradient id="paint1_linear_612_61545" x1="84.9184" y1="286.441" x2="303.8" y2="160.069"
                        gradientUnits="userSpaceOnUse">
            <stop stop-color="#D0E9F0"/>
            <stop offset="0.25" stop-color="#C9E6ED"/>
            <stop offset="0.62" stop-color="#B5DEE3"/>
            <stop offset="1" stop-color="#9AD3D6"/>
        </linearGradient>
        <linearGradient id="paint2_linear_612_61545" x1="-398672" y1="10619.4" x2="-397347" y2="-9392.43"
                        gradientUnits="userSpaceOnUse">
            <stop stop-color="#D0E9F0"/>
            <stop offset="0.25" stop-color="#C9E6ED"/>
            <stop offset="0.62" stop-color="#B5DEE3"/>
            <stop offset="1" stop-color="#9AD3D6"/>
        </linearGradient>
        <linearGradient id="paint3_linear_612_61545" x1="160.65" y1="58.3226" x2="160.65" y2="82.7837"
                        gradientUnits="userSpaceOnUse">
            <stop stop-color="#E7B2A2"/>
            <stop offset="0.25" stop-color="#F1C0AF"/>
            <stop offset="0.56" stop-color="#F7C9B7"/>
            <stop offset="1" stop-color="#F9CCBA"/>
        </linearGradient>
        <linearGradient id="paint4_linear_612_61545" x1="176.906" y1="54.5806" x2="141.783" y2="34.3027"
                        gradientUnits="userSpaceOnUse">
            <stop stop-color="#E7B2A2"/>
            <stop offset="0.05" stop-color="#EBB8A7"/>
            <stop offset="0.2" stop-color="#F3C3B2"/>
            <stop offset="0.41" stop-color="#F8CAB8"/>
            <stop offset="1" stop-color="#F9CCBA"/>
        </linearGradient>
        <linearGradient id="paint5_linear_612_61545" x1="178.664" y1="33.7107" x2="142.207" y2="33.7107"
                        gradientUnits="userSpaceOnUse">
            <stop stop-color="#F68092"/>
            <stop offset="0.36" stop-color="#F07388"/>
            <stop offset="1" stop-color="#E25470"/>
        </linearGradient>
        <linearGradient id="paint6_linear_612_61545" x1="198.608" y1="103.142" x2="117.821" y2="103.142"
                        gradientUnits="userSpaceOnUse">
            <stop stop-color="#F1F1F1"/>
            <stop offset="0.69" stop-color="#EFEFEF"/>
            <stop offset="0.94" stop-color="#E9E8E8"/>
            <stop offset="1" stop-color="#E6E5E5"/>
        </linearGradient>
        <linearGradient id="paint7_linear_612_61545" x1="164.946" y1="141.634" x2="166.915" y2="129.959"
                        gradientUnits="userSpaceOnUse">
            <stop stop-color="#E7B2A2"/>
            <stop offset="0.15" stop-color="#EBB8A8"/>
            <stop offset="0.61" stop-color="#F5C7B5"/>
            <stop offset="1" stop-color="#F9CCBA"/>
        </linearGradient>
        <linearGradient id="paint8_linear_612_61545" x1="7977.75" y1="6719.64" x2="8046.24" y2="6695.75"
                        gradientUnits="userSpaceOnUse">
            <stop stop-color="#F1F1F1"/>
            <stop offset="0.69" stop-color="#EFEFEF"/>
            <stop offset="0.94" stop-color="#E9E8E8"/>
            <stop offset="1" stop-color="#E6E5E5"/>
        </linearGradient>
        <linearGradient id="paint9_linear_612_61545" x1="238.12" y1="135.465" x2="254.855" y2="106.481"
                        gradientUnits="userSpaceOnUse">
            <stop stop-color="#D5E9E8"/>
            <stop offset="0.43" stop-color="#CFE0E4"/>
            <stop offset="1" stop-color="#CBDAE2"/>
        </linearGradient>
        <linearGradient id="paint10_linear_612_61545" x1="27695" y1="20932.2" x2="27695" y2="26131.2"
                        gradientUnits="userSpaceOnUse">
            <stop stop-color="#D5E9E8"/>
            <stop offset="0.43" stop-color="#CFE0E4"/>
            <stop offset="1" stop-color="#CBDAE2"/>
        </linearGradient>
        <linearGradient id="paint11_linear_612_61545" x1="89571" y1="40539.5" x2="117440" y2="40539.5"
                        gradientUnits="userSpaceOnUse">
            <stop stop-color="#D5E9E8"/>
            <stop offset="0.43" stop-color="#CFE0E4"/>
            <stop offset="1" stop-color="#CBDAE2"/>
        </linearGradient>
        <linearGradient id="paint12_linear_612_61545" x1="103956" y1="21251.6" x2="103956" y2="58772.4"
                        gradientUnits="userSpaceOnUse">
            <stop stop-color="#D5E9E8"/>
            <stop offset="0.43" stop-color="#CFE0E4"/>
            <stop offset="1" stop-color="#CBDAE2"/>
        </linearGradient>
        <linearGradient id="paint13_linear_612_61545" x1="-30078.6" y1="4515.24" x2="-30028.6" y2="3952.13"
                        gradientUnits="userSpaceOnUse">
            <stop stop-color="#D5E9E8"/>
            <stop offset="0.43" stop-color="#CFE0E4"/>
            <stop offset="1" stop-color="#CBDAE2"/>
        </linearGradient>
        <linearGradient id="paint14_linear_612_61545" x1="108.34" y1="154.636" x2="96.9621" y2="174.344"
                        gradientUnits="userSpaceOnUse">
            <stop stop-color="#E7B2A2"/>
            <stop offset="0.25" stop-color="#F0BFAE"/>
            <stop offset="0.58" stop-color="#F7C9B7"/>
            <stop offset="1" stop-color="#F9CCBA"/>
        </linearGradient>
        <linearGradient id="paint15_linear_612_61545" x1="50.7329" y1="98.8718" x2="29.4485" y2="98.8718"
                        gradientUnits="userSpaceOnUse">
            <stop stop-color="#F1F1F1"/>
            <stop offset="0.58" stop-color="#EEEEEE"/>
            <stop offset="1" stop-color="#E6E5E5"/>
        </linearGradient>
        <linearGradient id="paint16_linear_612_61545" x1="55.5979" y1="36.2058" x2="55.5979" y2="66.9916"
                        gradientUnits="userSpaceOnUse">
            <stop stop-color="#E7B2A2"/>
            <stop offset="0.04" stop-color="#EAB7A6"/>
            <stop offset="0.21" stop-color="#F3C3B2"/>
            <stop offset="0.44" stop-color="#F8CAB8"/>
            <stop offset="1" stop-color="#F9CCBA"/>
        </linearGradient>
        <linearGradient id="paint17_linear_612_61545" x1="70.9031" y1="69.9672" x2="40.5158" y2="69.9672"
                        gradientUnits="userSpaceOnUse">
            <stop stop-color="#96D0D0"/>
            <stop offset="0.33" stop-color="#90CECD"/>
            <stop offset="0.76" stop-color="#80C8C4"/>
            <stop offset="1" stop-color="#74C3BE"/>
        </linearGradient>
        <linearGradient id="paint18_linear_612_61545" x1="109.921" y1="173.196" x2="-1.64386" y2="237.606"
                        gradientUnits="userSpaceOnUse">
            <stop stop-color="#656564"/>
            <stop offset="0.46" stop-color="#5C5B5B"/>
            <stop offset="1" stop-color="#575555"/>
        </linearGradient>
        <linearGradient id="paint19_linear_612_61545" x1="-58200.3" y1="96838.1" x2="-69555.6" y2="96838.1"
                        gradientUnits="userSpaceOnUse">
            <stop stop-color="#F1F1F1"/>
            <stop offset="0.69" stop-color="#EFEFEF"/>
            <stop offset="0.94" stop-color="#E9E8E8"/>
            <stop offset="1" stop-color="#E6E5E5"/>
        </linearGradient>
        <linearGradient id="paint20_linear_612_61545" x1="72.0785" y1="110.153" x2="33.7689" y2="110.153"
                        gradientUnits="userSpaceOnUse">
            <stop stop-color="#FADDE7"/>
            <stop offset="0.14" stop-color="#F9D9E1"/>
            <stop offset="0.49" stop-color="#F8D2D8"/>
            <stop offset="1" stop-color="#F8D0D5"/>
        </linearGradient>
        <linearGradient id="paint21_linear_612_61545" x1="-37030.1" y1="40189" x2="-37030.1" y2="42960.9"
                        gradientUnits="userSpaceOnUse">
            <stop stop-color="#F1F1F1"/>
            <stop offset="0.69" stop-color="#EFEFEF"/>
            <stop offset="0.94" stop-color="#E9E8E8"/>
            <stop offset="1" stop-color="#E6E5E5"/>
        </linearGradient>
        <linearGradient id="paint22_linear_612_61545" x1="-46410" y1="18575.6" x2="-46410" y2="15798.2"
                        gradientUnits="userSpaceOnUse">
            <stop stop-color="#E7B2A2"/>
            <stop offset="0.05" stop-color="#EBB8A7"/>
            <stop offset="0.2" stop-color="#F3C3B2"/>
            <stop offset="0.41" stop-color="#F8CAB8"/>
            <stop offset="1" stop-color="#F9CCBA"/>
        </linearGradient>
        <linearGradient id="paint23_linear_612_61545" x1="-85994.8" y1="98473.8" x2="-101811" y2="98473.8"
                        gradientUnits="userSpaceOnUse">
            <stop stop-color="#F1F1F1"/>
            <stop offset="0.69" stop-color="#EFEFEF"/>
            <stop offset="0.94" stop-color="#E9E8E8"/>
            <stop offset="1" stop-color="#E6E5E5"/>
        </linearGradient>
        <linearGradient id="paint24_linear_612_61545" x1="72.6576" y1="89.2312" x2="69.6026" y2="89.2312"
                        gradientUnits="userSpaceOnUse">
            <stop stop-color="#F2A7B6"/>
            <stop offset="0.55" stop-color="#EF8F9F"/>
            <stop offset="1" stop-color="#ED8090"/>
        </linearGradient>
        <linearGradient id="paint25_linear_612_61545" x1="4020.39" y1="439.564" x2="4066.62" y2="439.564"
                        gradientUnits="userSpaceOnUse">
            <stop stop-color="#F2A7B6"/>
            <stop offset="0.55" stop-color="#EF8F9F"/>
            <stop offset="1" stop-color="#ED8090"/>
        </linearGradient>
        <linearGradient id="paint26_linear_612_61545" x1="4026.73" y1="465.052" x2="4072.99" y2="465.052"
                        gradientUnits="userSpaceOnUse">
            <stop stop-color="#F2A7B6"/>
            <stop offset="0.55" stop-color="#EF8F9F"/>
            <stop offset="1" stop-color="#ED8090"/>
        </linearGradient>
        <linearGradient id="paint27_linear_612_61545" x1="4033.06" y1="491" x2="4079.31" y2="491"
                        gradientUnits="userSpaceOnUse">
            <stop stop-color="#F2A7B6"/>
            <stop offset="0.55" stop-color="#EF8F9F"/>
            <stop offset="1" stop-color="#ED8090"/>
        </linearGradient>
        <linearGradient id="paint28_linear_612_61545" x1="4058.36" y1="578.83" x2="4104.59" y2="578.83"
                        gradientUnits="userSpaceOnUse">
            <stop stop-color="#F2A7B6"/>
            <stop offset="0.55" stop-color="#EF8F9F"/>
            <stop offset="1" stop-color="#ED8090"/>
        </linearGradient>
        <linearGradient id="paint29_linear_612_61545" x1="4067.75" y1="605.257" x2="4113.98" y2="605.257"
                        gradientUnits="userSpaceOnUse">
            <stop stop-color="#F2A7B6"/>
            <stop offset="0.55" stop-color="#EF8F9F"/>
            <stop offset="1" stop-color="#ED8090"/>
        </linearGradient>
        <linearGradient id="paint30_linear_612_61545" x1="67.1188" y1="87.3612" x2="63.9438" y2="87.3612"
                        gradientUnits="userSpaceOnUse">
            <stop stop-color="#F2A7B6"/>
            <stop offset="0.05" stop-color="#F2A3B2"/>
            <stop offset="0.36" stop-color="#EF909F"/>
            <stop offset="0.68" stop-color="#ED8494"/>
            <stop offset="1" stop-color="#ED8090"/>
        </linearGradient>
        <linearGradient id="paint31_linear_612_61545" x1="65.5938" y1="96.5029" x2="61.158" y2="96.5029"
                        gradientUnits="userSpaceOnUse">
            <stop stop-color="#4FB1C9"/>
            <stop offset="0.57" stop-color="#3DA4BF"/>
            <stop offset="1" stop-color="#2C99B5"/>
        </linearGradient>
        <linearGradient id="paint32_linear_612_61545" x1="21948.7" y1="9248.27" x2="22991.8" y2="9248.27"
                        gradientUnits="userSpaceOnUse">
            <stop stop-color="#4FB1C9"/>
            <stop offset="0.57" stop-color="#3DA4BF"/>
            <stop offset="1" stop-color="#2C99B5"/>
        </linearGradient>
        <linearGradient id="paint33_linear_612_61545" x1="22123.3" y1="9397.84" x2="23166.5" y2="9397.84"
                        gradientUnits="userSpaceOnUse">
            <stop stop-color="#96D0D0"/>
            <stop offset="0.33" stop-color="#90CECD"/>
            <stop offset="0.76" stop-color="#80C8C4"/>
            <stop offset="1" stop-color="#74C3BE"/>
        </linearGradient>
        <linearGradient id="paint34_linear_612_61545" x1="41.2526" y1="35.8084" x2="69.8362" y2="7.22478"
                        gradientUnits="userSpaceOnUse">
            <stop stop-color="#E7B2A2"/>
            <stop offset="0.03" stop-color="#E9B5A5"/>
            <stop offset="0.22" stop-color="#F2C2B1"/>
            <stop offset="0.46" stop-color="#F7C9B8"/>
            <stop offset="1" stop-color="#F9CBBA"/>
        </linearGradient>
        <linearGradient id="paint35_linear_612_61545" x1="105.205" y1="313.081" x2="66.1644" y2="301.695"
                        gradientUnits="userSpaceOnUse">
            <stop stop-color="#DCDCDC"/>
            <stop offset="0.04" stop-color="#E4E4E4"/>
            <stop offset="0.11" stop-color="#E6E6E6"/>
            <stop offset="0.15" stop-color="#E7E8E8"/>
            <stop offset="0.37" stop-color="#E8E9EA"/>
        </linearGradient>
        <linearGradient id="paint36_linear_612_61545" x1="348.819" y1="255.022" x2="376.318" y2="255.022"
                        gradientUnits="userSpaceOnUse">
            <stop stop-color="#BEBEBE"/>
            <stop offset="0.19" stop-color="#BBBBBB"/>
            <stop offset="1" stop-color="#AFAFAF"/>
        </linearGradient>
        <linearGradient id="paint37_linear_612_61545" x1="415.961" y1="158.894" x2="415.961" y2="257.488"
                        gradientUnits="userSpaceOnUse">
            <stop stop-color="#F7AAB9"/>
            <stop offset="0.04" stop-color="#F7A7B6"/>
            <stop offset="0.37" stop-color="#F691A2"/>
            <stop offset="0.7" stop-color="#F68496"/>
            <stop offset="1" stop-color="#F68092"/>
        </linearGradient>
        <linearGradient id="paint38_linear_612_61545" x1="480.515" y1="222.975" x2="359.329" y2="222.975"
                        gradientUnits="userSpaceOnUse">
            <stop stop-color="#F68092"/>
            <stop offset="0.03" stop-color="#F3798D"/>
            <stop offset="0.14" stop-color="#EB6880"/>
            <stop offset="0.28" stop-color="#E65D77"/>
            <stop offset="0.47" stop-color="#E35671"/>
            <stop offset="1" stop-color="#E25470"/>
        </linearGradient>
        <linearGradient id="paint39_linear_612_61545" x1="466.023" y1="244.64" x2="466.023" y2="291.068"
                        gradientUnits="userSpaceOnUse">
            <stop stop-color="#BEBEBE"/>
            <stop offset="0.14" stop-color="#BCBCBC"/>
            <stop offset="1" stop-color="#AFAFAF"/>
        </linearGradient>
        <linearGradient id="paint40_linear_612_61545" x1="31061.6" y1="90712.1" x2="32351" y2="90712.1"
                        gradientUnits="userSpaceOnUse">
            <stop stop-color="#BEBEBE"/>
            <stop offset="0.19" stop-color="#BBBBBB"/>
            <stop offset="1" stop-color="#AFAFAF"/>
        </linearGradient>
        <linearGradient id="paint41_linear_612_61545" x1="397.847" y1="271.84" x2="387.619" y2="271.84"
                        gradientUnits="userSpaceOnUse">
            <stop stop-color="#F68092"/>
            <stop offset="0.32" stop-color="#F47D8F"/>
            <stop offset="0.6" stop-color="#F07287"/>
            <stop offset="0.87" stop-color="#E76079"/>
            <stop offset="1" stop-color="#E25470"/>
        </linearGradient>
        <linearGradient id="paint42_linear_612_61545" x1="241282" y1="93057.7" x2="241282" y2="114877"
                        gradientUnits="userSpaceOnUse">
            <stop stop-color="#BEBEBE"/>
            <stop offset="0.19" stop-color="#BBBBBB"/>
            <stop offset="1" stop-color="#AFAFAF"/>
        </linearGradient>
        <linearGradient id="paint43_linear_612_61545" x1="405.065" y1="125.152" x2="405.065" y2="145.78"
                        gradientUnits="userSpaceOnUse">
            <stop stop-color="#E8B3A3"/>
            <stop offset="0.26" stop-color="#F5C2B0"/>
            <stop offset="0.57" stop-color="#FDCBB8"/>
            <stop offset="1" stop-color="#FFCEBB"/>
        </linearGradient>
        <linearGradient id="paint44_linear_612_61545" x1="420.923" y1="121.046" x2="389.864" y2="89.9862"
                        gradientUnits="userSpaceOnUse">
            <stop stop-color="#E8B3A3"/>
            <stop offset="0.1" stop-color="#F3C0AF"/>
            <stop offset="0.24" stop-color="#FCCBB8"/>
            <stop offset="0.41" stop-color="#FFCEBB"/>
            <stop offset="0.49" stop-color="#FFCEBB"/>
            <stop offset="1" stop-color="#FFCEBB"/>
        </linearGradient>
        <linearGradient id="paint45_linear_612_61545" x1="365.311" y1="275.857" x2="373.186" y2="289.496"
                        gradientUnits="userSpaceOnUse">
            <stop stop-color="#E8B3A3"/>
            <stop offset="0.05" stop-color="#ECB8A8"/>
            <stop offset="0.23" stop-color="#F7C5B3"/>
            <stop offset="0.46" stop-color="#FDCCB9"/>
            <stop offset="1" stop-color="#FFCEBB"/>
        </linearGradient>
        <linearGradient id="paint46_linear_612_61545" x1="388.702" y1="277.176" x2="398.027" y2="293.328"
                        gradientUnits="userSpaceOnUse">
            <stop stop-color="#E8B3A3"/>
            <stop offset="0.05" stop-color="#ECB8A7"/>
            <stop offset="0.23" stop-color="#F7C5B3"/>
            <stop offset="0.47" stop-color="#FDCCB9"/>
            <stop offset="1" stop-color="#FFCEBB"/>
        </linearGradient>
        <linearGradient id="paint47_linear_612_61545" x1="396.879" y1="76.2976" x2="417.23" y2="111.547"
                        gradientUnits="userSpaceOnUse">
            <stop stop-color="#96D0D0"/>
            <stop offset="0.37" stop-color="#88CBC9"/>
            <stop offset="1" stop-color="#74C3BE"/>
        </linearGradient>
        <linearGradient id="paint48_linear_612_61545" x1="372.877" y1="217.146" x2="398.694" y2="261.865"
                        gradientUnits="userSpaceOnUse">
            <stop stop-color="#4EB3C9"/>
            <stop offset="0.19" stop-color="#44ADC4"/>
            <stop offset="0.67" stop-color="#30A0BA"/>
            <stop offset="1" stop-color="#299BB7"/>
        </linearGradient>
        <linearGradient id="paint49_linear_612_61545" x1="397.898" y1="219.985" x2="422.893" y2="263.277"
                        gradientUnits="userSpaceOnUse">
            <stop stop-color="#4EB3C9"/>
            <stop offset="0.33" stop-color="#3AA6BF"/>
            <stop offset="0.68" stop-color="#2D9EB9"/>
            <stop offset="1" stop-color="#299BB7"/>
        </linearGradient>
        <linearGradient id="paint50_linear_612_61545" x1="368.871" y1="273.593" x2="368.871" y2="278.749"
                        gradientUnits="userSpaceOnUse">
            <stop stop-color="#4EB3C9"/>
            <stop offset="0.09" stop-color="#46AEC5"/>
            <stop offset="0.35" stop-color="#36A3BD"/>
            <stop offset="0.63" stop-color="#2C9DB9"/>
            <stop offset="1" stop-color="#299BB7"/>
        </linearGradient>
        <linearGradient id="paint51_linear_612_61545" x1="48213.1" y1="8630.38" x2="48213.1" y2="8772.79"
                        gradientUnits="userSpaceOnUse">
            <stop stop-color="#4EB3C9"/>
            <stop offset="0.09" stop-color="#46AEC5"/>
            <stop offset="0.35" stop-color="#36A3BD"/>
            <stop offset="0.63" stop-color="#2C9DB9"/>
            <stop offset="1" stop-color="#299BB7"/>
        </linearGradient>
        <linearGradient id="paint52_linear_612_61545" x1="386.664" y1="141.271" x2="433.46" y2="222.325"
                        gradientUnits="userSpaceOnUse">
            <stop stop-color="#F3EEE5"/>
            <stop offset="0.75" stop-color="#ECE6DB"/>
            <stop offset="1" stop-color="#E9E3D7"/>
        </linearGradient>
        <linearGradient id="paint53_linear_612_61545" x1="73981.7" y1="39015.5" x2="74393.7" y2="41382.7"
                        gradientUnits="userSpaceOnUse">
            <stop stop-color="#DCDCDC"/>
            <stop offset="0.04" stop-color="#E4E4E4"/>
            <stop offset="0.11" stop-color="#E6E6E6"/>
            <stop offset="0.15" stop-color="#E7E8E8"/>
            <stop offset="0.37" stop-color="#E8E9EA"/>
        </linearGradient>
        <linearGradient id="paint54_linear_612_61545" x1="55708.9" y1="55010.8" x2="58101.1" y2="58980.7"
                        gradientUnits="userSpaceOnUse">
            <stop stop-color="#DCDCDC"/>
            <stop offset="0.04" stop-color="#E4E4E4"/>
            <stop offset="0.11" stop-color="#E6E6E6"/>
            <stop offset="0.15" stop-color="#E7E8E8"/>
            <stop offset="0.37" stop-color="#E8E9EA"/>
        </linearGradient>
        <linearGradient id="paint55_linear_612_61545" x1="82621.4" y1="55206.6" x2="74171" y2="48229.4"
                        gradientUnits="userSpaceOnUse">
            <stop stop-color="#E8B3A3"/>
            <stop offset="0.05" stop-color="#ECB8A7"/>
            <stop offset="0.23" stop-color="#F7C5B3"/>
            <stop offset="0.47" stop-color="#FDCCB9"/>
            <stop offset="1" stop-color="#FFCEBB"/>
        </linearGradient>
        <linearGradient id="paint56_linear_612_61545" x1="161505" y1="57306.2" x2="151475" y2="49261.3"
                        gradientUnits="userSpaceOnUse">
            <stop stop-color="#E8B3A3"/>
            <stop offset="0.05" stop-color="#ECB8A7"/>
            <stop offset="0.23" stop-color="#F7C5B3"/>
            <stop offset="0.47" stop-color="#FDCCB9"/>
            <stop offset="1" stop-color="#FFCEBB"/>
        </linearGradient>
        <clipPath id="clip0_612_61545">
            <rect width="490.02" height="318.819" fill="white" transform="translate(0 0.59082)"/>
        </clipPath>
    </defs>
</svg>